<svg xmlns="http://www.w3.org/2000/svg" width="45" height="57" viewBox="0 0 45 57">
    <defs>
        <clipPath id="vabgo5ylba">
            <path data-name="사각형 6152" transform="translate(54 309)" style="stroke:#707070;fill:#fff" d="M0 0h45v57H0z"/>
        </clipPath>
    </defs>
    <g data-name="그룹 14017" transform="translate(-54 -309)" style="clip-path:url(#vabgo5ylba)">
        <g data-name="그룹 13162">
            <g data-name="그룹 13161">
                <g data-name="그룹 13130">
                    <path data-name="패스 8329" d="M-1334.5 686.694a20.842 20.842 0 0 1-15.962-6.747c-4.154-4.6-6.259-11.014-6.259-19.062 0-8.067 2.1-14.492 6.255-19.1a20.829 20.829 0 0 1 15.966-6.758 20.83 20.83 0 0 1 15.967 6.758c4.151 4.6 6.255 11.031 6.255 19.1 0 8.049-2.106 14.463-6.259 19.062a20.843 20.843 0 0 1-15.963 6.747z" transform="translate(1410.719 -322.194)" style="fill:#fff"/>
                </g>
                <g data-name="그룹 13131">
                    <path data-name="패스 8330" d="M-1334.5 686.494a20.841 20.841 0 0 1-15.962-6.747c-4.154-4.6-6.259-11.013-6.259-19.062 0-8.067 2.1-14.492 6.255-19.1a20.829 20.829 0 0 1 15.966-6.758 20.83 20.83 0 0 1 15.967 6.758c4.151 4.6 6.255 11.03 6.255 19.1 0 8.049-2.106 14.463-6.259 19.062a20.843 20.843 0 0 1-15.963 6.747z" transform="translate(1410.719 -322.088)" style="fill:#fff"/>
                </g>
                <g data-name="그룹 13132">
                    <path data-name="패스 8331" d="M-1334.5 686.294a20.842 20.842 0 0 1-15.962-6.747c-4.154-4.6-6.259-11.013-6.259-19.062 0-8.067 2.1-14.492 6.255-19.1a20.83 20.83 0 0 1 15.966-6.758 20.83 20.83 0 0 1 15.967 6.758c4.151 4.6 6.255 11.031 6.255 19.1 0 8.049-2.106 14.463-6.259 19.062a20.843 20.843 0 0 1-15.963 6.747z" transform="translate(1410.719 -321.983)" style="fill:#fff"/>
                </g>
                <g data-name="그룹 13133">
                    <path data-name="패스 8332" d="M-1334.5 686.094a20.842 20.842 0 0 1-15.962-6.747c-4.154-4.6-6.259-11.014-6.259-19.062 0-8.067 2.1-14.492 6.255-19.1a20.829 20.829 0 0 1 15.966-6.758 20.83 20.83 0 0 1 15.967 6.758c4.151 4.6 6.255 11.031 6.255 19.1 0 8.049-2.106 14.463-6.259 19.062a20.843 20.843 0 0 1-15.963 6.747z" transform="translate(1410.719 -321.877)" style="fill:#fff"/>
                </g>
                <g data-name="그룹 13134">
                    <path data-name="패스 8333" d="M-1334.5 685.894a20.842 20.842 0 0 1-15.962-6.747c-4.154-4.6-6.259-11.013-6.259-19.062 0-8.067 2.1-14.492 6.255-19.1a20.829 20.829 0 0 1 15.966-6.758 20.83 20.83 0 0 1 15.967 6.758c4.151 4.6 6.255 11.03 6.255 19.1 0 8.049-2.106 14.463-6.259 19.062a20.843 20.843 0 0 1-15.963 6.747z" transform="translate(1410.719 -321.772)" style="fill:#fff"/>
                </g>
                <g data-name="그룹 13135">
                    <path data-name="패스 8334" d="M-1334.5 685.694a20.841 20.841 0 0 1-15.962-6.747c-4.154-4.6-6.259-11.013-6.259-19.062 0-8.067 2.1-14.492 6.255-19.1a20.829 20.829 0 0 1 15.966-6.758 20.83 20.83 0 0 1 15.967 6.758c4.151 4.6 6.255 11.031 6.255 19.1 0 8.049-2.106 14.463-6.259 19.062a20.843 20.843 0 0 1-15.963 6.747z" transform="translate(1410.719 -321.666)" style="fill:#fff"/>
                </g>
                <g data-name="그룹 13136">
                    <path data-name="패스 8335" d="M-1334.5 685.494a20.842 20.842 0 0 1-15.962-6.747c-4.154-4.6-6.259-11.013-6.259-19.062 0-8.067 2.1-14.492 6.255-19.1a20.829 20.829 0 0 1 15.966-6.758 20.83 20.83 0 0 1 15.967 6.758c4.151 4.6 6.255 11.031 6.255 19.1 0 8.049-2.106 14.463-6.259 19.062a20.843 20.843 0 0 1-15.963 6.747z" transform="translate(1410.719 -321.561)" style="fill:#fff"/>
                </g>
                <g data-name="그룹 13137">
                    <path data-name="패스 8336" d="M-1334.5 685.294a20.842 20.842 0 0 1-15.962-6.747c-4.154-4.6-6.259-11.013-6.259-19.062 0-8.067 2.1-14.492 6.255-19.1a20.829 20.829 0 0 1 15.966-6.758 20.83 20.83 0 0 1 15.967 6.758c4.151 4.6 6.255 11.031 6.255 19.1 0 8.049-2.106 14.463-6.259 19.062a20.843 20.843 0 0 1-15.963 6.747z" transform="translate(1410.719 -321.455)" style="fill:#fff"/>
                </g>
                <g data-name="그룹 13138">
                    <path data-name="패스 8337" d="M-1334.5 685.094a20.841 20.841 0 0 1-15.962-6.747c-4.154-4.6-6.259-11.013-6.259-19.062 0-8.067 2.1-14.492 6.255-19.1a20.829 20.829 0 0 1 15.966-6.758 20.83 20.83 0 0 1 15.967 6.758c4.151 4.6 6.255 11.031 6.255 19.1 0 8.049-2.106 14.463-6.259 19.062a20.843 20.843 0 0 1-15.963 6.747z" transform="translate(1410.719 -321.35)" style="fill:#fff"/>
                </g>
                <g data-name="그룹 13139">
                    <path data-name="패스 8338" d="M-1334.5 684.894a20.842 20.842 0 0 1-15.962-6.747c-4.154-4.6-6.259-11.013-6.259-19.062 0-8.067 2.1-14.492 6.255-19.1a20.829 20.829 0 0 1 15.966-6.758 20.83 20.83 0 0 1 15.967 6.758c4.151 4.6 6.255 11.031 6.255 19.1 0 8.049-2.106 14.463-6.259 19.062a20.843 20.843 0 0 1-15.963 6.747z" transform="translate(1410.719 -321.244)" style="fill:#fff"/>
                </g>
                <g data-name="그룹 13140">
                    <path data-name="패스 8339" d="M-1334.5 684.694a20.842 20.842 0 0 1-15.962-6.747c-4.154-4.6-6.259-11.013-6.259-19.062 0-8.067 2.1-14.492 6.255-19.1a20.829 20.829 0 0 1 15.966-6.758 20.83 20.83 0 0 1 15.967 6.758c4.151 4.6 6.255 11.03 6.255 19.1 0 8.049-2.106 14.463-6.259 19.062a20.843 20.843 0 0 1-15.963 6.747z" transform="translate(1410.719 -321.139)" style="fill:#fff"/>
                </g>
                <g data-name="그룹 13141">
                    <path data-name="패스 8340" d="M-1334.5 684.494a20.842 20.842 0 0 1-15.962-6.747c-4.154-4.6-6.259-11.013-6.259-19.062 0-8.067 2.1-14.492 6.255-19.1a20.829 20.829 0 0 1 15.966-6.758 20.83 20.83 0 0 1 15.967 6.758c4.151 4.6 6.255 11.031 6.255 19.1 0 8.049-2.106 14.463-6.259 19.062a20.843 20.843 0 0 1-15.963 6.747z" transform="translate(1410.719 -321.033)" style="fill:#fff"/>
                </g>
                <g data-name="그룹 13142">
                    <path data-name="패스 8341" d="M-1334.5 684.294a20.842 20.842 0 0 1-15.962-6.747c-4.154-4.6-6.259-11.013-6.259-19.062 0-8.067 2.1-14.492 6.255-19.1a20.83 20.83 0 0 1 15.966-6.758 20.83 20.83 0 0 1 15.967 6.758c4.151 4.6 6.255 11.031 6.255 19.1 0 8.049-2.106 14.463-6.259 19.062a20.843 20.843 0 0 1-15.963 6.747z" transform="translate(1410.719 -320.928)" style="fill:#fff"/>
                </g>
                <g data-name="그룹 13143">
                    <path data-name="패스 8342" d="M-1334.5 684.094a20.842 20.842 0 0 1-15.962-6.747c-4.154-4.6-6.259-11.013-6.259-19.062 0-8.067 2.1-14.492 6.255-19.1a20.829 20.829 0 0 1 15.966-6.758 20.83 20.83 0 0 1 15.967 6.758c4.151 4.6 6.255 11.03 6.255 19.1 0 8.049-2.106 14.463-6.259 19.062a20.843 20.843 0 0 1-15.963 6.747z" transform="translate(1410.719 -320.822)" style="fill:#fff"/>
                </g>
                <g data-name="그룹 13144">
                    <path data-name="패스 8343" d="M-1334.5 683.894a20.842 20.842 0 0 1-15.962-6.747c-4.154-4.6-6.259-11.013-6.259-19.062 0-8.067 2.1-14.492 6.255-19.1a20.829 20.829 0 0 1 15.966-6.758 20.83 20.83 0 0 1 15.967 6.758c4.151 4.6 6.255 11.03 6.255 19.1 0 8.049-2.106 14.463-6.259 19.062a20.843 20.843 0 0 1-15.963 6.747z" transform="translate(1410.719 -320.717)" style="fill:#fff"/>
                </g>
                <g data-name="그룹 13145">
                    <path data-name="패스 8344" d="M-1334.5 683.694a20.842 20.842 0 0 1-15.962-6.747c-4.154-4.6-6.259-11.013-6.259-19.062 0-8.067 2.1-14.492 6.255-19.1a20.829 20.829 0 0 1 15.966-6.758 20.83 20.83 0 0 1 15.967 6.758c4.151 4.6 6.255 11.03 6.255 19.1 0 8.049-2.106 14.463-6.259 19.062a20.843 20.843 0 0 1-15.963 6.747z" transform="translate(1410.719 -320.611)" style="fill:#fff"/>
                </g>
                <g data-name="그룹 13146">
                    <path data-name="패스 8345" d="M-1334.5 683.494a20.842 20.842 0 0 1-15.962-6.747c-4.154-4.6-6.259-11.013-6.259-19.062 0-8.067 2.1-14.492 6.255-19.1a20.829 20.829 0 0 1 15.966-6.758 20.83 20.83 0 0 1 15.967 6.758c4.151 4.6 6.255 11.03 6.255 19.1 0 8.049-2.106 14.463-6.259 19.062a20.843 20.843 0 0 1-15.963 6.747z" transform="translate(1410.719 -320.506)" style="fill:#fff"/>
                </g>
                <g data-name="그룹 13147">
                    <path data-name="패스 8346" d="M-1334.5 683.294a20.842 20.842 0 0 1-15.962-6.747c-4.154-4.6-6.259-11.013-6.259-19.062 0-8.067 2.1-14.492 6.255-19.1a20.829 20.829 0 0 1 15.966-6.758 20.83 20.83 0 0 1 15.967 6.758c4.151 4.6 6.255 11.031 6.255 19.1 0 8.049-2.106 14.463-6.259 19.062a20.843 20.843 0 0 1-15.963 6.747z" transform="translate(1410.719 -320.4)" style="fill:#fff"/>
                </g>
                <g data-name="그룹 13148">
                    <path data-name="패스 8347" d="M-1334.5 683.094a20.842 20.842 0 0 1-15.962-6.747c-4.154-4.6-6.259-11.013-6.259-19.062 0-8.067 2.1-14.492 6.255-19.1a20.829 20.829 0 0 1 15.966-6.758 20.83 20.83 0 0 1 15.967 6.758c4.151 4.6 6.255 11.031 6.255 19.1 0 8.049-2.106 14.463-6.259 19.062a20.843 20.843 0 0 1-15.963 6.747z" transform="translate(1410.719 -320.295)" style="fill:#fff"/>
                </g>
                <g data-name="그룹 13149">
                    <path data-name="패스 8348" d="M-1334.5 682.894a20.842 20.842 0 0 1-15.962-6.747c-4.154-4.6-6.259-11.013-6.259-19.062 0-8.067 2.1-14.492 6.255-19.1a20.829 20.829 0 0 1 15.966-6.758 20.83 20.83 0 0 1 15.967 6.758c4.151 4.6 6.255 11.03 6.255 19.1 0 8.049-2.106 14.463-6.259 19.062a20.843 20.843 0 0 1-15.963 6.747z" transform="translate(1410.719 -320.189)" style="fill:#fff"/>
                </g>
                <g data-name="그룹 13150">
                    <path data-name="패스 8349" d="M-1334.5 682.694a20.842 20.842 0 0 1-15.962-6.747c-4.154-4.6-6.259-11.014-6.259-19.062 0-8.067 2.1-14.492 6.255-19.1a20.829 20.829 0 0 1 15.966-6.758 20.83 20.83 0 0 1 15.967 6.758c4.151 4.6 6.255 11.031 6.255 19.1 0 8.049-2.106 14.463-6.259 19.062a20.843 20.843 0 0 1-15.963 6.747z" transform="translate(1410.719 -320.084)" style="fill:#fff"/>
                </g>
                <g data-name="그룹 13151">
                    <path data-name="패스 8350" d="M-1334.5 682.494a20.841 20.841 0 0 1-15.962-6.747c-4.154-4.6-6.259-11.013-6.259-19.062 0-8.067 2.1-14.492 6.255-19.1a20.829 20.829 0 0 1 15.966-6.758 20.83 20.83 0 0 1 15.967 6.758c4.151 4.6 6.255 11.031 6.255 19.1 0 8.049-2.106 14.463-6.259 19.062a20.843 20.843 0 0 1-15.963 6.747z" transform="translate(1410.719 -319.978)" style="fill:#fff"/>
                </g>
                <g data-name="그룹 13152">
                    <path data-name="패스 8351" d="M-1334.5 682.294a20.842 20.842 0 0 1-15.962-6.747c-4.154-4.6-6.259-11.013-6.259-19.062 0-8.067 2.1-14.492 6.255-19.1a20.829 20.829 0 0 1 15.966-6.758 20.83 20.83 0 0 1 15.967 6.758c4.151 4.6 6.255 11.031 6.255 19.1 0 8.049-2.106 14.463-6.259 19.062a20.843 20.843 0 0 1-15.963 6.747z" transform="translate(1410.719 -319.873)" style="fill:#fff"/>
                </g>
                <g data-name="그룹 13153">
                    <path data-name="패스 8352" d="M-1334.5 682.094a20.842 20.842 0 0 1-15.962-6.747c-4.154-4.6-6.259-11.014-6.259-19.062 0-8.067 2.1-14.492 6.255-19.1a20.829 20.829 0 0 1 15.966-6.758 20.83 20.83 0 0 1 15.967 6.758c4.151 4.6 6.255 11.031 6.255 19.1 0 8.049-2.106 14.463-6.259 19.062a20.843 20.843 0 0 1-15.963 6.747z" transform="translate(1410.719 -319.767)" style="fill:#fff"/>
                </g>
                <g data-name="그룹 13154">
                    <path data-name="패스 8353" d="M-1334.5 681.894a20.842 20.842 0 0 1-15.962-6.747c-4.154-4.6-6.259-11.013-6.259-19.062 0-8.067 2.1-14.492 6.255-19.1a20.829 20.829 0 0 1 15.966-6.758 20.83 20.83 0 0 1 15.967 6.758c4.151 4.6 6.255 11.031 6.255 19.1 0 8.049-2.106 14.463-6.259 19.062a20.843 20.843 0 0 1-15.963 6.747z" transform="translate(1410.719 -319.662)" style="fill:#fff"/>
                </g>
                <g data-name="그룹 13155">
                    <path data-name="패스 8354" d="M-1334.5 681.694a20.841 20.841 0 0 1-15.962-6.747c-4.154-4.6-6.259-11.014-6.259-19.062 0-8.067 2.1-14.492 6.255-19.1a20.829 20.829 0 0 1 15.966-6.758 20.829 20.829 0 0 1 15.967 6.758c4.151 4.6 6.255 11.03 6.255 19.1 0 8.049-2.106 14.463-6.259 19.062a20.843 20.843 0 0 1-15.963 6.747z" transform="translate(1410.719 -319.556)" style="fill:#fff"/>
                </g>
                <g data-name="그룹 13156">
                    <path data-name="패스 8355" d="M-1334.5 681.494a20.842 20.842 0 0 1-15.962-6.747c-4.154-4.6-6.259-11.014-6.259-19.062 0-8.067 2.1-14.492 6.255-19.1a20.83 20.83 0 0 1 15.966-6.758 20.83 20.83 0 0 1 15.967 6.758c4.151 4.6 6.255 11.031 6.255 19.1 0 8.049-2.106 14.463-6.259 19.062a20.843 20.843 0 0 1-15.963 6.747z" transform="translate(1410.719 -319.451)" style="fill:#fff"/>
                </g>
                <g data-name="그룹 13157">
                    <path data-name="패스 8356" d="M-1334.5 681.294a20.842 20.842 0 0 1-15.962-6.747c-4.154-4.6-6.259-11.013-6.259-19.062 0-8.067 2.1-14.492 6.255-19.1a20.829 20.829 0 0 1 15.966-6.758 20.83 20.83 0 0 1 15.967 6.758c4.151 4.6 6.255 11.031 6.255 19.1 0 8.049-2.106 14.463-6.259 19.062a20.843 20.843 0 0 1-15.963 6.747z" transform="translate(1410.719 -319.345)" style="fill:#fff"/>
                </g>
                <g data-name="그룹 13158">
                    <path data-name="패스 8357" d="M-1334.5 681.094a20.841 20.841 0 0 1-15.962-6.747c-4.154-4.6-6.259-11.013-6.259-19.062 0-8.067 2.1-14.492 6.255-19.1a20.829 20.829 0 0 1 15.966-6.758 20.83 20.83 0 0 1 15.967 6.758c4.151 4.6 6.255 11.031 6.255 19.1 0 8.049-2.106 14.463-6.259 19.062a20.843 20.843 0 0 1-15.963 6.747z" transform="translate(1410.719 -319.24)" style="fill:#fff"/>
                </g>
                <g data-name="그룹 13159">
                    <path data-name="패스 8358" d="M-1334.5 680.894a20.842 20.842 0 0 1-15.962-6.747c-4.154-4.6-6.259-11.014-6.259-19.062 0-8.067 2.1-14.492 6.255-19.1a20.829 20.829 0 0 1 15.966-6.758 20.83 20.83 0 0 1 15.967 6.758c4.151 4.6 6.255 11.031 6.255 19.1 0 8.049-2.106 14.463-6.259 19.062a20.843 20.843 0 0 1-15.963 6.747z" transform="translate(1410.719 -319.134)" style="fill:#fff"/>
                </g>
                <g data-name="그룹 13160">
                    <path data-name="패스 8359" d="M-1334.5 680.694a20.841 20.841 0 0 1-15.962-6.747c-4.154-4.6-6.259-11.013-6.259-19.062 0-8.067 2.1-14.492 6.255-19.1a20.829 20.829 0 0 1 15.966-6.758 20.83 20.83 0 0 1 15.967 6.758c4.151 4.6 6.255 11.031 6.255 19.1 0 8.049-2.106 14.463-6.259 19.062a20.843 20.843 0 0 1-15.963 6.747z" transform="translate(1410.719 -319.029)" style="fill:#fff"/>
                </g>
            </g>
        </g>
        <g data-name="그룹 13194">
            <g data-name="그룹 13163">
                <path data-name="패스 8360" d="M-1331.86 686.968c-9.6 0-19.859-6.159-19.859-23.447 0-17.32 10.258-23.492 19.859-23.492s19.86 6.171 19.86 23.492c0 17.288-10.26 23.447-19.86 23.447zm0-26.014a16.879 16.879 0 0 0-.168 2.567 16.55 16.55 0 0 0 .17 2.553 15.9 15.9 0 0 0 .177-2.553 15.958 15.958 0 0 0-.184-2.567z" transform="translate(1408.082 -324.831)" style="fill:#0015aa"/>
            </g>
            <g data-name="그룹 13164">
                <path data-name="패스 8361" d="M-1331.86 686.768c-9.6 0-19.859-6.16-19.859-23.447 0-17.321 10.258-23.492 19.859-23.492S-1312 646-1312 663.321c0 17.288-10.26 23.447-19.86 23.447zm0-26.014a16.879 16.879 0 0 0-.168 2.567 16.552 16.552 0 0 0 .17 2.553 15.9 15.9 0 0 0 .177-2.553 15.958 15.958 0 0 0-.184-2.567z" transform="translate(1408.082 -324.725)" style="fill:#0015aa"/>
            </g>
            <g data-name="그룹 13165">
                <path data-name="패스 8362" d="M-1331.86 686.568c-9.6 0-19.859-6.16-19.859-23.447 0-17.32 10.258-23.492 19.859-23.492s19.86 6.171 19.86 23.492c0 17.288-10.26 23.447-19.86 23.447zm0-26.014a16.877 16.877 0 0 0-.168 2.567 16.55 16.55 0 0 0 .17 2.553 15.9 15.9 0 0 0 .177-2.553 15.958 15.958 0 0 0-.184-2.566z" transform="translate(1408.082 -324.62)" style="fill:#0015aa"/>
            </g>
            <g data-name="그룹 13166">
                <path data-name="패스 8363" d="M-1331.86 686.368c-9.6 0-19.859-6.16-19.859-23.447 0-17.321 10.258-23.492 19.859-23.492s19.86 6.171 19.86 23.492c0 17.288-10.26 23.447-19.86 23.447zm0-26.014a16.879 16.879 0 0 0-.168 2.567 16.551 16.551 0 0 0 .17 2.553 15.9 15.9 0 0 0 .177-2.553 15.958 15.958 0 0 0-.184-2.567z" transform="translate(1408.082 -324.514)" style="fill:#0015aa"/>
            </g>
            <g data-name="그룹 13167">
                <path data-name="패스 8364" d="M-1331.86 686.168c-9.6 0-19.859-6.16-19.859-23.447 0-17.32 10.258-23.492 19.859-23.492s19.86 6.171 19.86 23.492c0 17.288-10.26 23.447-19.86 23.447zm0-26.014a16.877 16.877 0 0 0-.168 2.567 16.552 16.552 0 0 0 .17 2.553 15.9 15.9 0 0 0 .177-2.553 15.957 15.957 0 0 0-.184-2.566z" transform="translate(1408.082 -324.409)" style="fill:#0015aa"/>
            </g>
            <g data-name="그룹 13168">
                <path data-name="패스 8365" d="M-1331.86 685.968c-9.6 0-19.859-6.16-19.859-23.447 0-17.32 10.258-23.492 19.859-23.492s19.86 6.171 19.86 23.492c0 17.288-10.26 23.447-19.86 23.447zm0-26.014a16.877 16.877 0 0 0-.168 2.567 16.55 16.55 0 0 0 .17 2.553 15.9 15.9 0 0 0 .177-2.553 15.957 15.957 0 0 0-.184-2.566z" transform="translate(1408.082 -324.303)" style="fill:#0015aa"/>
            </g>
            <g data-name="그룹 13169">
                <path data-name="패스 8366" d="M-1331.86 685.768c-9.6 0-19.859-6.16-19.859-23.447 0-17.32 10.258-23.492 19.859-23.492S-1312 645-1312 662.321c0 17.288-10.26 23.447-19.86 23.447zm0-26.014a16.878 16.878 0 0 0-.168 2.567 16.552 16.552 0 0 0 .17 2.553 15.9 15.9 0 0 0 .177-2.553 15.958 15.958 0 0 0-.184-2.567z" transform="translate(1408.082 -324.198)" style="fill:#0015aa"/>
            </g>
            <g data-name="그룹 13170">
                <path data-name="패스 8367" d="M-1331.86 685.568c-9.6 0-19.859-6.16-19.859-23.447 0-17.32 10.258-23.492 19.859-23.492s19.86 6.171 19.86 23.492c0 17.288-10.26 23.447-19.86 23.447zm0-26.014a16.879 16.879 0 0 0-.168 2.567 16.551 16.551 0 0 0 .17 2.553 15.9 15.9 0 0 0 .177-2.553 15.958 15.958 0 0 0-.184-2.566z" transform="translate(1408.082 -324.092)" style="fill:#0015aa"/>
            </g>
            <g data-name="그룹 13171">
                <path data-name="패스 8368" d="M-1331.86 685.368c-9.6 0-19.859-6.16-19.859-23.447 0-17.321 10.258-23.492 19.859-23.492s19.86 6.171 19.86 23.492c0 17.288-10.26 23.447-19.86 23.447zm0-26.014a16.879 16.879 0 0 0-.168 2.567 16.55 16.55 0 0 0 .17 2.553 15.9 15.9 0 0 0 .177-2.553 15.959 15.959 0 0 0-.184-2.566z" transform="translate(1408.082 -323.987)" style="fill:#0015aa"/>
            </g>
            <g data-name="그룹 13172">
                <path data-name="패스 8369" d="M-1331.86 685.168c-9.6 0-19.859-6.16-19.859-23.447 0-17.32 10.258-23.492 19.859-23.492s19.86 6.171 19.86 23.492c0 17.288-10.26 23.447-19.86 23.447zm0-26.014a16.877 16.877 0 0 0-.168 2.567 16.552 16.552 0 0 0 .17 2.553 15.9 15.9 0 0 0 .177-2.553 15.956 15.956 0 0 0-.184-2.566z" transform="translate(1408.082 -323.881)" style="fill:#0015aa"/>
            </g>
            <g data-name="그룹 13173">
                <path data-name="패스 8370" d="M-1331.86 684.968c-9.6 0-19.859-6.16-19.859-23.447 0-17.321 10.258-23.492 19.859-23.492s19.86 6.171 19.86 23.492c0 17.288-10.26 23.447-19.86 23.447zm0-26.014a16.879 16.879 0 0 0-.168 2.567 16.55 16.55 0 0 0 .17 2.553 15.9 15.9 0 0 0 .177-2.553 15.959 15.959 0 0 0-.184-2.567z" transform="translate(1408.082 -323.776)" style="fill:#0015aa"/>
            </g>
            <g data-name="그룹 13174">
                <path data-name="패스 8371" d="M-1331.86 684.768c-9.6 0-19.859-6.159-19.859-23.447 0-17.32 10.258-23.492 19.859-23.492S-1312 644-1312 661.321c0 17.288-10.26 23.447-19.86 23.447zm0-26.014a16.876 16.876 0 0 0-.168 2.567 16.552 16.552 0 0 0 .17 2.553 15.9 15.9 0 0 0 .177-2.553 15.956 15.956 0 0 0-.184-2.566z" transform="translate(1408.082 -323.67)" style="fill:#0015aa"/>
            </g>
            <g data-name="그룹 13175">
                <path data-name="패스 8372" d="M-1331.86 684.568c-9.6 0-19.859-6.16-19.859-23.447 0-17.32 10.258-23.492 19.859-23.492s19.86 6.171 19.86 23.492c0 17.288-10.26 23.447-19.86 23.447zm0-26.014a16.878 16.878 0 0 0-.168 2.567 16.551 16.551 0 0 0 .17 2.553 15.9 15.9 0 0 0 .177-2.553 15.957 15.957 0 0 0-.184-2.566z" transform="translate(1408.082 -323.565)" style="fill:#0015aa"/>
            </g>
            <g data-name="그룹 13176">
                <path data-name="패스 8373" d="M-1331.86 684.368c-9.6 0-19.859-6.159-19.859-23.447 0-17.32 10.258-23.492 19.859-23.492s19.86 6.171 19.86 23.492c0 17.288-10.26 23.447-19.86 23.447zm0-26.014a16.878 16.878 0 0 0-.168 2.567 16.551 16.551 0 0 0 .17 2.553 15.9 15.9 0 0 0 .177-2.553 15.958 15.958 0 0 0-.184-2.566z" transform="translate(1408.082 -323.459)" style="fill:#0015aa"/>
            </g>
            <g data-name="그룹 13177">
                <path data-name="패스 8374" d="M-1331.86 684.168c-9.6 0-19.859-6.16-19.859-23.447 0-17.32 10.258-23.492 19.859-23.492s19.86 6.171 19.86 23.492c0 17.288-10.26 23.447-19.86 23.447zm0-26.014a16.878 16.878 0 0 0-.168 2.567 16.553 16.553 0 0 0 .17 2.553 15.906 15.906 0 0 0 .177-2.553 15.957 15.957 0 0 0-.184-2.566z" transform="translate(1408.082 -323.354)" style="fill:#0015aa"/>
            </g>
            <g data-name="그룹 13178">
                <path data-name="패스 8375" d="M-1331.86 683.968c-9.6 0-19.859-6.16-19.859-23.447 0-17.32 10.258-23.492 19.859-23.492s19.86 6.171 19.86 23.492c0 17.288-10.26 23.447-19.86 23.447zm0-26.014a16.88 16.88 0 0 0-.168 2.567 16.55 16.55 0 0 0 .17 2.553 15.9 15.9 0 0 0 .177-2.553 15.959 15.959 0 0 0-.184-2.567z" transform="translate(1408.082 -323.248)" style="fill:#0015aa"/>
            </g>
            <g data-name="그룹 13179">
                <path data-name="패스 8376" d="M-1331.86 683.768c-9.6 0-19.859-6.159-19.859-23.447 0-17.32 10.258-23.492 19.859-23.492S-1312 643-1312 660.321c0 17.288-10.26 23.447-19.86 23.447zm0-26.014a16.878 16.878 0 0 0-.168 2.567 16.552 16.552 0 0 0 .17 2.553 15.9 15.9 0 0 0 .177-2.553 15.957 15.957 0 0 0-.184-2.566z" transform="translate(1408.082 -323.143)" style="fill:#0015aa"/>
            </g>
            <g data-name="그룹 13180">
                <path data-name="패스 8377" d="M-1331.86 683.568c-9.6 0-19.859-6.16-19.859-23.447 0-17.32 10.258-23.492 19.859-23.492s19.86 6.171 19.86 23.492c0 17.288-10.26 23.447-19.86 23.447zm0-26.014a16.877 16.877 0 0 0-.168 2.567 16.55 16.55 0 0 0 .17 2.553 15.9 15.9 0 0 0 .177-2.553 15.958 15.958 0 0 0-.184-2.566z" transform="translate(1408.082 -323.037)" style="fill:#0015aa"/>
            </g>
            <g data-name="그룹 13181">
                <path data-name="패스 8378" d="M-1331.86 683.368c-9.6 0-19.859-6.16-19.859-23.447 0-17.32 10.258-23.492 19.859-23.492s19.86 6.171 19.86 23.492c0 17.288-10.26 23.447-19.86 23.447zm0-26.014a16.878 16.878 0 0 0-.168 2.567 16.551 16.551 0 0 0 .17 2.553 15.9 15.9 0 0 0 .177-2.553 15.957 15.957 0 0 0-.184-2.566z" transform="translate(1408.082 -322.932)" style="fill:#0015aa"/>
            </g>
            <g data-name="그룹 13182">
                <path data-name="패스 8379" d="M-1331.86 683.168c-9.6 0-19.859-6.159-19.859-23.447 0-17.321 10.258-23.492 19.859-23.492s19.86 6.171 19.86 23.492c0 17.288-10.26 23.447-19.86 23.447zm0-26.014a16.879 16.879 0 0 0-.168 2.567 16.552 16.552 0 0 0 .17 2.553 15.9 15.9 0 0 0 .177-2.553 15.958 15.958 0 0 0-.184-2.567z" transform="translate(1408.082 -322.826)" style="fill:#0015aa"/>
            </g>
            <g data-name="그룹 13183">
                <path data-name="패스 8380" d="M-1331.86 682.968c-9.6 0-19.859-6.16-19.859-23.447 0-17.32 10.258-23.492 19.859-23.492s19.86 6.171 19.86 23.492c0 17.288-10.26 23.447-19.86 23.447zm0-26.014a16.878 16.878 0 0 0-.168 2.567 16.549 16.549 0 0 0 .17 2.553 15.9 15.9 0 0 0 .177-2.553 15.957 15.957 0 0 0-.184-2.566z" transform="translate(1408.082 -322.721)" style="fill:#0015aa"/>
            </g>
            <g data-name="그룹 13184">
                <path data-name="패스 8381" d="M-1331.86 682.768c-9.6 0-19.859-6.16-19.859-23.447 0-17.32 10.258-23.492 19.859-23.492S-1312 642-1312 659.321c0 17.288-10.26 23.447-19.86 23.447zm0-26.014a16.878 16.878 0 0 0-.168 2.567 16.552 16.552 0 0 0 .17 2.553 15.9 15.9 0 0 0 .177-2.553 15.958 15.958 0 0 0-.184-2.567z" transform="translate(1408.082 -322.615)" style="fill:#0015aa"/>
            </g>
            <g data-name="그룹 13185">
                <path data-name="패스 8382" d="M-1331.86 682.568c-9.6 0-19.859-6.16-19.859-23.447 0-17.321 10.258-23.492 19.859-23.492s19.86 6.171 19.86 23.492c0 17.288-10.26 23.447-19.86 23.447zm0-26.014a16.881 16.881 0 0 0-.168 2.567 16.55 16.55 0 0 0 .17 2.553 15.9 15.9 0 0 0 .177-2.553 15.96 15.96 0 0 0-.184-2.567z" transform="translate(1408.082 -322.51)" style="fill:#0015aa"/>
            </g>
            <g data-name="그룹 13186">
                <path data-name="패스 8383" d="M-1331.86 682.368c-9.6 0-19.859-6.16-19.859-23.447 0-17.321 10.258-23.492 19.859-23.492s19.86 6.171 19.86 23.492c0 17.288-10.26 23.447-19.86 23.447zm0-26.014a16.879 16.879 0 0 0-.168 2.567 16.552 16.552 0 0 0 .17 2.553 15.9 15.9 0 0 0 .177-2.553 15.958 15.958 0 0 0-.184-2.566z" transform="translate(1408.082 -322.404)" style="fill:#0015aa"/>
            </g>
            <g data-name="그룹 13187">
                <path data-name="패스 8384" d="M-1331.86 682.168c-9.6 0-19.859-6.16-19.859-23.447 0-17.32 10.258-23.492 19.859-23.492s19.86 6.171 19.86 23.492c0 17.288-10.26 23.447-19.86 23.447zm0-26.014a16.879 16.879 0 0 0-.168 2.567 16.552 16.552 0 0 0 .17 2.553 15.9 15.9 0 0 0 .177-2.553 15.958 15.958 0 0 0-.184-2.567z" transform="translate(1408.082 -322.299)" style="fill:#0015aa"/>
            </g>
            <g data-name="그룹 13188">
                <path data-name="패스 8385" d="M-1331.86 681.968c-9.6 0-19.859-6.16-19.859-23.447 0-17.32 10.258-23.492 19.859-23.492s19.86 6.171 19.86 23.492c0 17.288-10.26 23.447-19.86 23.447zm0-26.014a16.88 16.88 0 0 0-.168 2.567 16.55 16.55 0 0 0 .17 2.553 15.9 15.9 0 0 0 .177-2.553 15.959 15.959 0 0 0-.184-2.567z" transform="translate(1408.082 -322.193)" style="fill:#0015aa"/>
            </g>
            <g data-name="그룹 13189">
                <path data-name="패스 8386" d="M-1331.86 681.768c-9.6 0-19.859-6.16-19.859-23.447 0-17.321 10.258-23.492 19.859-23.492S-1312 641-1312 658.321c0 17.288-10.26 23.447-19.86 23.447zm0-26.014a16.877 16.877 0 0 0-.168 2.567 16.552 16.552 0 0 0 .17 2.553 15.9 15.9 0 0 0 .177-2.553 15.957 15.957 0 0 0-.184-2.566z" transform="translate(1408.082 -322.088)" style="fill:#0015aa"/>
            </g>
            <g data-name="그룹 13190">
                <path data-name="패스 8387" d="M-1331.86 681.568c-9.6 0-19.859-6.16-19.859-23.447 0-17.32 10.258-23.492 19.859-23.492s19.86 6.171 19.86 23.492c0 17.288-10.26 23.447-19.86 23.447zm0-26.014a16.877 16.877 0 0 0-.168 2.567 16.55 16.55 0 0 0 .17 2.553 15.9 15.9 0 0 0 .177-2.553 15.957 15.957 0 0 0-.184-2.566z" transform="translate(1408.082 -321.982)" style="fill:#0015aa"/>
            </g>
            <g data-name="그룹 13191">
                <path data-name="패스 8388" d="M-1331.86 681.368c-9.6 0-19.859-6.16-19.859-23.447 0-17.32 10.258-23.492 19.859-23.492s19.86 6.171 19.86 23.492c0 17.288-10.26 23.447-19.86 23.447zm0-26.014a16.88 16.88 0 0 0-.168 2.567 16.551 16.551 0 0 0 .17 2.553 15.9 15.9 0 0 0 .177-2.553 15.959 15.959 0 0 0-.184-2.567z" transform="translate(1408.082 -321.877)" style="fill:#0015aa"/>
            </g>
            <g data-name="그룹 13192">
                <path data-name="패스 8389" d="M-1331.86 681.168c-9.6 0-19.859-6.16-19.859-23.447 0-17.32 10.258-23.492 19.859-23.492s19.86 6.171 19.86 23.492c0 17.288-10.26 23.447-19.86 23.447zm0-26.014a16.878 16.878 0 0 0-.168 2.567 16.552 16.552 0 0 0 .17 2.553 15.9 15.9 0 0 0 .177-2.553 15.957 15.957 0 0 0-.184-2.566z" transform="translate(1408.082 -321.771)" style="fill:#0015aa"/>
            </g>
            <g data-name="그룹 13193">
                <path data-name="패스 8390" d="M-1331.86 680.968c-9.6 0-19.859-6.16-19.859-23.447 0-17.32 10.258-23.492 19.859-23.492s19.86 6.171 19.86 23.492c0 17.288-10.26 23.447-19.86 23.447zm0-26.014a16.878 16.878 0 0 0-.168 2.567 16.549 16.549 0 0 0 .17 2.553 15.9 15.9 0 0 0 .177-2.553 15.958 15.958 0 0 0-.184-2.566z" transform="translate(1408.082 -321.666)" style="fill:#0015aa"/>
            </g>
        </g>
        <g data-name="그룹 13195" style="mix-blend-mode:screen;isolation:isolate">
            <path data-name="패스 8391" d="M-1331.86 680.968c-9.6 0-19.859-6.16-19.859-23.447 0-17.32 10.258-23.492 19.859-23.492s19.86 6.171 19.86 23.492c0 17.288-10.26 23.447-19.86 23.447zm0-26.014a16.878 16.878 0 0 0-.168 2.567 16.549 16.549 0 0 0 .17 2.553 15.9 15.9 0 0 0 .177-2.553 15.958 15.958 0 0 0-.184-2.566z" transform="translate(1408.082 -321.666)" style="fill:#e4f9ff"/>
        </g>
        <g data-name="그룹 13196">
            <path data-name="패스 8392" d="M-1331.333 681.023c-9.372 0-19.386-6.035-19.386-22.974 0-7.344 1.859-13.131 5.526-17.2a18.067 18.067 0 0 1 13.86-5.821c9.372 0 19.387 6.048 19.387 23.02 0 16.94-10.014 22.975-19.387 22.975zm-.019-27.241a9.818 9.818 0 0 0-.626 4.267 9.7 9.7 0 0 0 .633 4.233 9.352 9.352 0 0 0 .659-4.233 9.458 9.458 0 0 0-.666-4.267z" transform="translate(1407.554 -322.194)" style="fill:#008aff"/>
        </g>
        <text data-name="0" transform="translate(59.472 350.938)" style="font-size:45px;font-family:SDOdongtongBasic,Sandoll Odongtong;fill:#50c2ff"><tspan x="0" y="0">0</tspan></text>
        <text data-name="0" transform="translate(59 349.992)" style="font-size:45px;font-family:SDOdongtongBasic,Sandoll Odongtong;fill:#fff"><tspan x="0" y="0">0</tspan></text>
    </g>
</svg>
