<svg xmlns="http://www.w3.org/2000/svg" width="48" height="57" viewBox="0 0 48 57">
    <defs>
        <clipPath id="ytnkcl17la">
            <path data-name="사각형 6156" transform="translate(390 309)" style="stroke:#707070;fill:#fff" d="M0 0h48v57H0z"/>
        </clipPath>
    </defs>
    <g data-name="그룹 13469" transform="translate(-390 -309)" style="clip-path:url(#ytnkcl17la)">
        <g data-name="그룹 13434">
            <g data-name="그룹 13433">
                <g data-name="그룹 13402">
                    <path data-name="패스 8585" d="M-613.422 686.694a11.166 11.166 0 0 1-10.858-7.159 72.217 72.217 0 0 1-6.215-.381 11.921 11.921 0 0 1-8.884-5.33 15.159 15.159 0 0 1-1.265-12.706c1.705-5.391 8.5-16.739 11.817-20.357 3.64-3.965 6.357-5.732 12.843-5.732a13.61 13.61 0 0 1 13.764 11.516 63.977 63.977 0 0 1 .857 11.1 11.109 11.109 0 0 1 6.064 10.318c0 5.235-2.723 9.254-6.977 10.829a11.322 11.322 0 0 1-11.146 7.902z" transform="translate(1032.462 -322.194)" style="fill:#fff"/>
                </g>
                <g data-name="그룹 13403">
                    <path data-name="패스 8586" d="M-613.422 686.494a11.166 11.166 0 0 1-10.858-7.159 72.217 72.217 0 0 1-6.215-.381 11.921 11.921 0 0 1-8.884-5.33 15.159 15.159 0 0 1-1.265-12.706c1.705-5.391 8.5-16.739 11.817-20.357 3.64-3.965 6.357-5.732 12.843-5.732a13.61 13.61 0 0 1 13.764 11.516 63.976 63.976 0 0 1 .857 11.1 11.109 11.109 0 0 1 6.064 10.318c0 5.235-2.723 9.254-6.977 10.829a11.322 11.322 0 0 1-11.146 7.902z" transform="translate(1032.462 -322.088)" style="fill:#fff"/>
                </g>
                <g data-name="그룹 13404">
                    <path data-name="패스 8587" d="M-613.422 686.294a11.166 11.166 0 0 1-10.858-7.159 72.217 72.217 0 0 1-6.215-.381 11.921 11.921 0 0 1-8.884-5.33 15.159 15.159 0 0 1-1.265-12.706c1.705-5.391 8.5-16.739 11.817-20.357 3.64-3.965 6.357-5.732 12.843-5.732a13.61 13.61 0 0 1 13.764 11.516 63.978 63.978 0 0 1 .857 11.1 11.109 11.109 0 0 1 6.064 10.317c0 5.235-2.723 9.254-6.977 10.829a11.322 11.322 0 0 1-11.146 7.903z" transform="translate(1032.462 -321.983)" style="fill:#fff"/>
                </g>
                <g data-name="그룹 13405">
                    <path data-name="패스 8588" d="M-613.422 686.094a11.166 11.166 0 0 1-10.858-7.159 72.217 72.217 0 0 1-6.215-.381 11.921 11.921 0 0 1-8.884-5.33 15.159 15.159 0 0 1-1.265-12.706c1.705-5.391 8.5-16.739 11.817-20.357 3.64-3.965 6.357-5.732 12.843-5.732a13.61 13.61 0 0 1 13.764 11.516 63.978 63.978 0 0 1 .857 11.1 11.109 11.109 0 0 1 6.064 10.318c0 5.235-2.723 9.254-6.977 10.829a11.322 11.322 0 0 1-11.146 7.902z" transform="translate(1032.462 -321.877)" style="fill:#fff"/>
                </g>
                <g data-name="그룹 13406">
                    <path data-name="패스 8589" d="M-613.422 685.894a11.166 11.166 0 0 1-10.858-7.159 72.217 72.217 0 0 1-6.215-.381 11.921 11.921 0 0 1-8.884-5.33 15.159 15.159 0 0 1-1.265-12.706c1.705-5.391 8.5-16.739 11.817-20.357 3.64-3.965 6.357-5.732 12.843-5.732a13.61 13.61 0 0 1 13.764 11.516 63.976 63.976 0 0 1 .857 11.1 11.109 11.109 0 0 1 6.064 10.318c0 5.235-2.723 9.254-6.977 10.829a11.322 11.322 0 0 1-11.146 7.902z" transform="translate(1032.462 -321.772)" style="fill:#fff"/>
                </g>
                <g data-name="그룹 13407">
                    <path data-name="패스 8590" d="M-613.422 685.694a11.166 11.166 0 0 1-10.858-7.159 72.217 72.217 0 0 1-6.215-.381 11.921 11.921 0 0 1-8.884-5.33 15.159 15.159 0 0 1-1.265-12.706c1.705-5.391 8.5-16.739 11.817-20.357 3.64-3.965 6.357-5.732 12.843-5.732a13.61 13.61 0 0 1 13.764 11.516 63.976 63.976 0 0 1 .857 11.1 11.109 11.109 0 0 1 6.064 10.317c0 5.235-2.723 9.254-6.977 10.829a11.322 11.322 0 0 1-11.146 7.903z" transform="translate(1032.462 -321.666)" style="fill:#fff"/>
                </g>
                <g data-name="그룹 13408">
                    <path data-name="패스 8591" d="M-613.422 685.494a11.166 11.166 0 0 1-10.858-7.159 72.217 72.217 0 0 1-6.215-.381 11.921 11.921 0 0 1-8.884-5.33 15.159 15.159 0 0 1-1.265-12.706c1.705-5.391 8.5-16.739 11.817-20.357 3.64-3.965 6.357-5.732 12.843-5.732a13.61 13.61 0 0 1 13.764 11.516 63.977 63.977 0 0 1 .857 11.1 11.109 11.109 0 0 1 6.064 10.317c0 5.235-2.723 9.254-6.977 10.829a11.322 11.322 0 0 1-11.146 7.903z" transform="translate(1032.462 -321.561)" style="fill:#fff"/>
                </g>
                <g data-name="그룹 13409">
                    <path data-name="패스 8592" d="M-613.422 685.294a11.166 11.166 0 0 1-10.858-7.159 72.217 72.217 0 0 1-6.215-.381 11.921 11.921 0 0 1-8.884-5.33 15.159 15.159 0 0 1-1.265-12.706c1.705-5.391 8.5-16.739 11.817-20.357 3.64-3.965 6.357-5.732 12.843-5.732a13.61 13.61 0 0 1 13.764 11.516 63.976 63.976 0 0 1 .857 11.1 11.109 11.109 0 0 1 6.064 10.317c0 5.235-2.723 9.254-6.977 10.829a11.322 11.322 0 0 1-11.146 7.903z" transform="translate(1032.462 -321.455)" style="fill:#fff"/>
                </g>
                <g data-name="그룹 13410">
                    <path data-name="패스 8593" d="M-613.422 685.094a11.166 11.166 0 0 1-10.858-7.159 72.217 72.217 0 0 1-6.215-.381 11.921 11.921 0 0 1-8.884-5.33 15.159 15.159 0 0 1-1.265-12.706c1.705-5.391 8.5-16.739 11.817-20.357 3.64-3.965 6.357-5.732 12.843-5.732a13.61 13.61 0 0 1 13.764 11.516 63.977 63.977 0 0 1 .857 11.1 11.109 11.109 0 0 1 6.064 10.317c0 5.235-2.723 9.254-6.977 10.829a11.322 11.322 0 0 1-11.146 7.903z" transform="translate(1032.462 -321.35)" style="fill:#fff"/>
                </g>
                <g data-name="그룹 13411">
                    <path data-name="패스 8594" d="M-613.422 684.894a11.166 11.166 0 0 1-10.858-7.159 72.217 72.217 0 0 1-6.215-.381 11.921 11.921 0 0 1-8.884-5.33 15.16 15.16 0 0 1-1.265-12.706c1.705-5.391 8.5-16.739 11.817-20.357 3.64-3.965 6.357-5.732 12.843-5.732a13.61 13.61 0 0 1 13.764 11.516 63.976 63.976 0 0 1 .857 11.1 11.109 11.109 0 0 1 6.064 10.317c0 5.235-2.723 9.254-6.977 10.829a11.322 11.322 0 0 1-11.146 7.903z" transform="translate(1032.462 -321.244)" style="fill:#fff"/>
                </g>
                <g data-name="그룹 13412">
                    <path data-name="패스 8595" d="M-613.422 684.694a11.166 11.166 0 0 1-10.858-7.159 72.217 72.217 0 0 1-6.215-.381 11.921 11.921 0 0 1-8.884-5.33 15.159 15.159 0 0 1-1.265-12.706c1.705-5.391 8.5-16.739 11.817-20.357 3.64-3.965 6.357-5.732 12.843-5.732a13.61 13.61 0 0 1 13.764 11.516 63.976 63.976 0 0 1 .857 11.1 11.109 11.109 0 0 1 6.064 10.317c0 5.235-2.723 9.254-6.977 10.829a11.322 11.322 0 0 1-11.146 7.903z" transform="translate(1032.462 -321.139)" style="fill:#fff"/>
                </g>
                <g data-name="그룹 13413">
                    <path data-name="패스 8596" d="M-613.422 684.494a11.166 11.166 0 0 1-10.858-7.159 72.217 72.217 0 0 1-6.215-.381 11.921 11.921 0 0 1-8.884-5.33 15.159 15.159 0 0 1-1.265-12.706c1.705-5.391 8.5-16.739 11.817-20.357 3.64-3.965 6.357-5.732 12.843-5.732a13.61 13.61 0 0 1 13.764 11.516 63.976 63.976 0 0 1 .857 11.1 11.109 11.109 0 0 1 6.064 10.317c0 5.235-2.723 9.254-6.977 10.829a11.322 11.322 0 0 1-11.146 7.903z" transform="translate(1032.462 -321.033)" style="fill:#fff"/>
                </g>
                <g data-name="그룹 13414">
                    <path data-name="패스 8597" d="M-613.422 684.294a11.166 11.166 0 0 1-10.858-7.159 72.217 72.217 0 0 1-6.215-.381 11.921 11.921 0 0 1-8.884-5.33 15.159 15.159 0 0 1-1.265-12.706c1.705-5.391 8.5-16.739 11.817-20.357 3.64-3.965 6.357-5.732 12.843-5.732a13.61 13.61 0 0 1 13.764 11.516 63.975 63.975 0 0 1 .857 11.1 11.109 11.109 0 0 1 6.064 10.318c0 5.235-2.723 9.254-6.977 10.829a11.322 11.322 0 0 1-11.146 7.902z" transform="translate(1032.462 -320.928)" style="fill:#fff"/>
                </g>
                <g data-name="그룹 13415">
                    <path data-name="패스 8598" d="M-613.422 684.094a11.166 11.166 0 0 1-10.858-7.159 72.217 72.217 0 0 1-6.215-.381 11.921 11.921 0 0 1-8.884-5.33 15.159 15.159 0 0 1-1.265-12.706c1.705-5.391 8.5-16.739 11.817-20.357 3.64-3.965 6.357-5.732 12.843-5.732a13.61 13.61 0 0 1 13.764 11.516 63.979 63.979 0 0 1 .857 11.1 11.109 11.109 0 0 1 6.064 10.317c0 5.235-2.723 9.254-6.977 10.829a11.322 11.322 0 0 1-11.146 7.903z" transform="translate(1032.462 -320.822)" style="fill:#fff"/>
                </g>
                <g data-name="그룹 13416">
                    <path data-name="패스 8599" d="M-613.422 683.894a11.166 11.166 0 0 1-10.858-7.159 72.217 72.217 0 0 1-6.215-.381 11.921 11.921 0 0 1-8.884-5.33 15.159 15.159 0 0 1-1.265-12.706c1.705-5.391 8.5-16.739 11.817-20.357 3.64-3.965 6.357-5.732 12.843-5.732a13.61 13.61 0 0 1 13.764 11.516 63.975 63.975 0 0 1 .857 11.1 11.109 11.109 0 0 1 6.064 10.317c0 5.235-2.723 9.254-6.977 10.829a11.322 11.322 0 0 1-11.146 7.903z" transform="translate(1032.462 -320.717)" style="fill:#fff"/>
                </g>
                <g data-name="그룹 13417">
                    <path data-name="패스 8600" d="M-613.422 683.694a11.166 11.166 0 0 1-10.858-7.159 72.217 72.217 0 0 1-6.215-.381 11.921 11.921 0 0 1-8.884-5.33 15.159 15.159 0 0 1-1.265-12.706c1.705-5.391 8.5-16.739 11.817-20.357 3.64-3.965 6.357-5.732 12.843-5.732a13.61 13.61 0 0 1 13.764 11.516 63.978 63.978 0 0 1 .857 11.1 11.109 11.109 0 0 1 6.064 10.317c0 5.235-2.723 9.254-6.977 10.829a11.322 11.322 0 0 1-11.146 7.903z" transform="translate(1032.462 -320.611)" style="fill:#fff"/>
                </g>
                <g data-name="그룹 13418">
                    <path data-name="패스 8601" d="M-613.422 683.494a11.166 11.166 0 0 1-10.858-7.159 72.217 72.217 0 0 1-6.215-.381 11.921 11.921 0 0 1-8.884-5.33 15.16 15.16 0 0 1-1.265-12.706c1.705-5.391 8.5-16.739 11.817-20.357 3.64-3.965 6.357-5.732 12.843-5.732a13.61 13.61 0 0 1 13.764 11.516 63.977 63.977 0 0 1 .857 11.1 11.109 11.109 0 0 1 6.064 10.317c0 5.235-2.723 9.254-6.977 10.829a11.322 11.322 0 0 1-11.146 7.903z" transform="translate(1032.462 -320.506)" style="fill:#fff"/>
                </g>
                <g data-name="그룹 13419">
                    <path data-name="패스 8602" d="M-613.422 683.294a11.166 11.166 0 0 1-10.858-7.159 72.217 72.217 0 0 1-6.215-.381 11.921 11.921 0 0 1-8.884-5.33 15.159 15.159 0 0 1-1.265-12.706c1.705-5.391 8.5-16.739 11.817-20.357 3.64-3.964 6.357-5.732 12.843-5.732a13.61 13.61 0 0 1 13.764 11.516 63.976 63.976 0 0 1 .857 11.1 11.109 11.109 0 0 1 6.064 10.317c0 5.235-2.723 9.254-6.977 10.829a11.322 11.322 0 0 1-11.146 7.903z" transform="translate(1032.462 -320.4)" style="fill:#fff"/>
                </g>
                <g data-name="그룹 13420">
                    <path data-name="패스 8603" d="M-613.422 683.094a11.166 11.166 0 0 1-10.858-7.159 72.217 72.217 0 0 1-6.215-.381 11.921 11.921 0 0 1-8.884-5.33 15.159 15.159 0 0 1-1.265-12.706c1.705-5.391 8.5-16.739 11.817-20.357 3.64-3.965 6.357-5.732 12.843-5.732a13.61 13.61 0 0 1 13.764 11.516 63.979 63.979 0 0 1 .857 11.1 11.109 11.109 0 0 1 6.064 10.317c0 5.235-2.723 9.254-6.977 10.829a11.322 11.322 0 0 1-11.146 7.903z" transform="translate(1032.462 -320.295)" style="fill:#fff"/>
                </g>
                <g data-name="그룹 13421">
                    <path data-name="패스 8604" d="M-613.422 682.894a11.166 11.166 0 0 1-10.858-7.159 72.217 72.217 0 0 1-6.215-.381 11.921 11.921 0 0 1-8.884-5.33 15.159 15.159 0 0 1-1.265-12.706c1.705-5.391 8.5-16.739 11.817-20.357 3.64-3.965 6.357-5.732 12.843-5.732a13.61 13.61 0 0 1 13.764 11.516 63.978 63.978 0 0 1 .857 11.1 11.109 11.109 0 0 1 6.064 10.317c0 5.235-2.723 9.254-6.977 10.829a11.322 11.322 0 0 1-11.146 7.903z" transform="translate(1032.462 -320.189)" style="fill:#fff"/>
                </g>
                <g data-name="그룹 13422">
                    <path data-name="패스 8605" d="M-613.422 682.694a11.166 11.166 0 0 1-10.858-7.159 72.217 72.217 0 0 1-6.215-.381 11.921 11.921 0 0 1-8.884-5.33 15.16 15.16 0 0 1-1.265-12.706c1.705-5.391 8.5-16.739 11.817-20.357 3.64-3.965 6.357-5.732 12.843-5.732a13.61 13.61 0 0 1 13.764 11.516 63.977 63.977 0 0 1 .857 11.1 11.109 11.109 0 0 1 6.064 10.317c0 5.235-2.723 9.254-6.977 10.829a11.322 11.322 0 0 1-11.146 7.903z" transform="translate(1032.462 -320.084)" style="fill:#fff"/>
                </g>
                <g data-name="그룹 13423">
                    <path data-name="패스 8606" d="M-613.422 682.494a11.166 11.166 0 0 1-10.858-7.159 72.217 72.217 0 0 1-6.215-.381 11.921 11.921 0 0 1-8.884-5.33 15.159 15.159 0 0 1-1.265-12.706c1.705-5.391 8.5-16.739 11.817-20.357 3.64-3.965 6.357-5.732 12.843-5.732a13.61 13.61 0 0 1 13.764 11.516 63.977 63.977 0 0 1 .857 11.1 11.109 11.109 0 0 1 6.064 10.318c0 5.235-2.723 9.254-6.977 10.829a11.322 11.322 0 0 1-11.146 7.902z" transform="translate(1032.462 -319.978)" style="fill:#fff"/>
                </g>
                <g data-name="그룹 13424">
                    <path data-name="패스 8607" d="M-613.422 682.294a11.166 11.166 0 0 1-10.858-7.159 72.217 72.217 0 0 1-6.215-.381 11.921 11.921 0 0 1-8.884-5.33 15.159 15.159 0 0 1-1.265-12.706c1.705-5.391 8.5-16.739 11.817-20.357 3.64-3.965 6.357-5.732 12.843-5.732a13.61 13.61 0 0 1 13.764 11.516 63.978 63.978 0 0 1 .857 11.1 11.109 11.109 0 0 1 6.064 10.317c0 5.235-2.723 9.254-6.977 10.829a11.322 11.322 0 0 1-11.146 7.903z" transform="translate(1032.462 -319.873)" style="fill:#fff"/>
                </g>
                <g data-name="그룹 13425">
                    <path data-name="패스 8608" d="M-613.422 682.094a11.166 11.166 0 0 1-10.858-7.159 72.217 72.217 0 0 1-6.215-.381 11.921 11.921 0 0 1-8.884-5.33 15.159 15.159 0 0 1-1.265-12.706c1.705-5.391 8.5-16.739 11.817-20.357 3.64-3.965 6.357-5.732 12.843-5.732a13.61 13.61 0 0 1 13.764 11.516 63.977 63.977 0 0 1 .857 11.1 11.109 11.109 0 0 1 6.064 10.317c0 5.235-2.723 9.254-6.977 10.829a11.322 11.322 0 0 1-11.146 7.903z" transform="translate(1032.462 -319.767)" style="fill:#fff"/>
                </g>
                <g data-name="그룹 13426">
                    <path data-name="패스 8609" d="M-613.422 681.894a11.166 11.166 0 0 1-10.858-7.159 72.217 72.217 0 0 1-6.215-.381 11.921 11.921 0 0 1-8.884-5.33 15.159 15.159 0 0 1-1.265-12.706c1.705-5.391 8.5-16.739 11.817-20.357 3.64-3.965 6.357-5.732 12.843-5.732a13.61 13.61 0 0 1 13.764 11.516 63.976 63.976 0 0 1 .857 11.1 11.109 11.109 0 0 1 6.064 10.317c0 5.235-2.723 9.254-6.977 10.829a11.322 11.322 0 0 1-11.146 7.903z" transform="translate(1032.462 -319.662)" style="fill:#fff"/>
                </g>
                <g data-name="그룹 13427">
                    <path data-name="패스 8610" d="M-613.422 681.694a11.165 11.165 0 0 1-10.858-7.159 72.217 72.217 0 0 1-6.215-.381 11.921 11.921 0 0 1-8.884-5.33 15.159 15.159 0 0 1-1.265-12.706c1.705-5.391 8.5-16.739 11.817-20.356 3.64-3.965 6.357-5.732 12.843-5.732a13.61 13.61 0 0 1 13.764 11.516 63.977 63.977 0 0 1 .857 11.1 11.109 11.109 0 0 1 6.064 10.318c0 5.235-2.723 9.254-6.977 10.829a11.322 11.322 0 0 1-11.146 7.901z" transform="translate(1032.462 -319.556)" style="fill:#fff"/>
                </g>
                <g data-name="그룹 13428">
                    <path data-name="패스 8611" d="M-613.422 681.494a11.166 11.166 0 0 1-10.858-7.159 72.217 72.217 0 0 1-6.215-.381 11.921 11.921 0 0 1-8.884-5.33 15.159 15.159 0 0 1-1.265-12.706c1.705-5.391 8.5-16.739 11.817-20.357 3.64-3.965 6.357-5.732 12.843-5.732a13.61 13.61 0 0 1 13.764 11.516 63.976 63.976 0 0 1 .857 11.1 11.109 11.109 0 0 1 6.064 10.318c0 5.235-2.723 9.254-6.977 10.829a11.322 11.322 0 0 1-11.146 7.902z" transform="translate(1032.462 -319.451)" style="fill:#fff"/>
                </g>
                <g data-name="그룹 13429">
                    <path data-name="패스 8612" d="M-613.422 681.294a11.166 11.166 0 0 1-10.858-7.159 72.217 72.217 0 0 1-6.215-.381 11.921 11.921 0 0 1-8.884-5.33 15.159 15.159 0 0 1-1.265-12.706c1.705-5.391 8.5-16.739 11.817-20.357 3.64-3.965 6.357-5.732 12.843-5.732a13.61 13.61 0 0 1 13.764 11.516 63.976 63.976 0 0 1 .857 11.1 11.109 11.109 0 0 1 6.064 10.317c0 5.235-2.723 9.254-6.977 10.829a11.322 11.322 0 0 1-11.146 7.903z" transform="translate(1032.462 -319.345)" style="fill:#fff"/>
                </g>
                <g data-name="그룹 13430">
                    <path data-name="패스 8613" d="M-613.422 681.094a11.166 11.166 0 0 1-10.858-7.159 72.217 72.217 0 0 1-6.215-.381 11.921 11.921 0 0 1-8.884-5.33 15.159 15.159 0 0 1-1.265-12.706c1.705-5.391 8.5-16.739 11.817-20.357 3.64-3.965 6.357-5.732 12.843-5.732a13.61 13.61 0 0 1 13.764 11.516 63.979 63.979 0 0 1 .857 11.1 11.109 11.109 0 0 1 6.064 10.317c0 5.235-2.723 9.254-6.977 10.829a11.322 11.322 0 0 1-11.146 7.903z" transform="translate(1032.462 -319.24)" style="fill:#fff"/>
                </g>
                <g data-name="그룹 13431">
                    <path data-name="패스 8614" d="M-613.422 680.894a11.166 11.166 0 0 1-10.858-7.159 72.217 72.217 0 0 1-6.215-.381 11.921 11.921 0 0 1-8.884-5.33 15.159 15.159 0 0 1-1.265-12.706c1.705-5.391 8.5-16.739 11.817-20.357 3.64-3.965 6.357-5.732 12.843-5.732a13.61 13.61 0 0 1 13.764 11.516 63.975 63.975 0 0 1 .857 11.1 11.109 11.109 0 0 1 6.064 10.317c0 5.235-2.723 9.254-6.977 10.829a11.322 11.322 0 0 1-11.146 7.903z" transform="translate(1032.462 -319.134)" style="fill:#fff"/>
                </g>
                <g data-name="그룹 13432">
                    <path data-name="패스 8615" d="M-613.422 680.694a11.165 11.165 0 0 1-10.858-7.159 72.217 72.217 0 0 1-6.215-.381 11.921 11.921 0 0 1-8.884-5.33 15.159 15.159 0 0 1-1.265-12.706c1.705-5.391 8.5-16.739 11.817-20.357 3.64-3.965 6.357-5.732 12.843-5.732a13.61 13.61 0 0 1 13.764 11.516 63.976 63.976 0 0 1 .857 11.1 11.109 11.109 0 0 1 6.064 10.317c0 5.235-2.723 9.254-6.977 10.829a11.322 11.322 0 0 1-11.146 7.903z" transform="translate(1032.462 -319.029)" style="fill:#fff"/>
                </g>
            </g>
        </g>
        <g data-name="그룹 13466">
            <g data-name="그룹 13435">
                <path data-name="패스 8616" d="M-610.788 686.968a8.833 8.833 0 0 1-9.1-7.141 74.576 74.576 0 0 1-7.711-.385 9.594 9.594 0 0 1-7.159-4.267 12.789 12.789 0 0 1-1-10.705c1.6-5.053 8.205-16.091 11.307-19.475 3.364-3.666 5.547-4.966 11.1-4.966a11.328 11.328 0 0 1 11.444 9.6 66.371 66.371 0 0 1 .811 12.26c3.677 1.082 6.067 4.366 6.067 8.715 0 4.665-2.552 8.03-6.547 8.943a9 9 0 0 1-9.212 7.421z" transform="translate(1029.829 -324.831)" style="fill:#0015aa"/>
            </g>
            <g data-name="그룹 13436">
                <path data-name="패스 8617" d="M-610.788 686.768a8.833 8.833 0 0 1-9.1-7.141 74.558 74.558 0 0 1-7.711-.385 9.594 9.594 0 0 1-7.159-4.267 12.789 12.789 0 0 1-1-10.705c1.6-5.053 8.205-16.091 11.307-19.475 3.364-3.666 5.547-4.966 11.1-4.966a11.328 11.328 0 0 1 11.444 9.6 66.37 66.37 0 0 1 .811 12.26c3.677 1.082 6.067 4.366 6.067 8.715 0 4.665-2.552 8.03-6.547 8.943a9 9 0 0 1-9.212 7.421z" transform="translate(1029.829 -324.725)" style="fill:#0015aa"/>
            </g>
            <g data-name="그룹 13437">
                <path data-name="패스 8618" d="M-610.788 686.568a8.833 8.833 0 0 1-9.1-7.141 74.559 74.559 0 0 1-7.711-.385 9.6 9.6 0 0 1-7.159-4.267 12.789 12.789 0 0 1-1-10.705c1.6-5.053 8.205-16.091 11.307-19.475 3.364-3.665 5.547-4.966 11.1-4.966a11.328 11.328 0 0 1 11.444 9.6 66.37 66.37 0 0 1 .811 12.26c3.677 1.082 6.067 4.366 6.067 8.714 0 4.665-2.552 8.03-6.547 8.943a9 9 0 0 1-9.212 7.422z" transform="translate(1029.829 -324.62)" style="fill:#0015aa"/>
            </g>
            <g data-name="그룹 13438">
                <path data-name="패스 8619" d="M-610.788 686.368a8.833 8.833 0 0 1-9.1-7.141 74.576 74.576 0 0 1-7.711-.385 9.594 9.594 0 0 1-7.159-4.267 12.789 12.789 0 0 1-1-10.705c1.6-5.053 8.205-16.091 11.307-19.475 3.364-3.665 5.547-4.966 11.1-4.966a11.328 11.328 0 0 1 11.444 9.6 66.369 66.369 0 0 1 .811 12.26c3.677 1.082 6.067 4.366 6.067 8.715 0 4.665-2.552 8.03-6.547 8.943a9 9 0 0 1-9.212 7.421z" transform="translate(1029.829 -324.514)" style="fill:#0015aa"/>
            </g>
            <g data-name="그룹 13439">
                <path data-name="패스 8620" d="M-610.788 686.168a8.833 8.833 0 0 1-9.1-7.141 74.559 74.559 0 0 1-7.711-.385 9.594 9.594 0 0 1-7.159-4.267 12.789 12.789 0 0 1-1-10.705c1.6-5.053 8.205-16.091 11.307-19.475 3.364-3.666 5.547-4.966 11.1-4.966a11.328 11.328 0 0 1 11.444 9.6 66.37 66.37 0 0 1 .811 12.26c3.677 1.082 6.067 4.366 6.067 8.715 0 4.665-2.552 8.03-6.547 8.943a9 9 0 0 1-9.212 7.421z" transform="translate(1029.829 -324.409)" style="fill:#0015aa"/>
            </g>
            <g data-name="그룹 13440">
                <path data-name="패스 8621" d="M-610.788 685.968a8.833 8.833 0 0 1-9.1-7.141 74.559 74.559 0 0 1-7.711-.385 9.594 9.594 0 0 1-7.159-4.267 12.789 12.789 0 0 1-1-10.705c1.6-5.053 8.205-16.091 11.307-19.475 3.364-3.666 5.547-4.966 11.1-4.966a11.328 11.328 0 0 1 11.444 9.6 66.37 66.37 0 0 1 .811 12.26c3.677 1.082 6.067 4.366 6.067 8.715 0 4.665-2.552 8.03-6.547 8.943a9 9 0 0 1-9.212 7.421z" transform="translate(1029.829 -324.303)" style="fill:#0015aa"/>
            </g>
            <g data-name="그룹 13441">
                <path data-name="패스 8622" d="M-610.788 685.768a8.833 8.833 0 0 1-9.1-7.141 74.559 74.559 0 0 1-7.711-.385 9.594 9.594 0 0 1-7.159-4.267 12.789 12.789 0 0 1-1-10.705c1.6-5.053 8.205-16.091 11.307-19.475 3.364-3.665 5.547-4.966 11.1-4.966a11.328 11.328 0 0 1 11.444 9.6 66.369 66.369 0 0 1 .811 12.26c3.677 1.082 6.067 4.366 6.067 8.715 0 4.665-2.552 8.03-6.547 8.943a9 9 0 0 1-9.212 7.421z" transform="translate(1029.829 -324.198)" style="fill:#0015aa"/>
            </g>
            <g data-name="그룹 13442">
                <path data-name="패스 8623" d="M-610.788 685.568a8.833 8.833 0 0 1-9.1-7.141 74.559 74.559 0 0 1-7.711-.385 9.594 9.594 0 0 1-7.159-4.267 12.789 12.789 0 0 1-1-10.705c1.6-5.053 8.205-16.091 11.307-19.475 3.364-3.666 5.547-4.966 11.1-4.966a11.328 11.328 0 0 1 11.444 9.6 66.369 66.369 0 0 1 .811 12.26c3.677 1.082 6.067 4.366 6.067 8.715 0 4.665-2.552 8.03-6.547 8.943a9 9 0 0 1-9.212 7.421z" transform="translate(1029.829 -324.092)" style="fill:#0015aa"/>
            </g>
            <g data-name="그룹 13443">
                <path data-name="패스 8624" d="M-610.788 685.368a8.833 8.833 0 0 1-9.1-7.141 74.611 74.611 0 0 1-7.711-.385 9.6 9.6 0 0 1-7.159-4.267 12.789 12.789 0 0 1-1-10.705c1.6-5.053 8.205-16.091 11.307-19.475 3.364-3.665 5.547-4.966 11.1-4.966a11.328 11.328 0 0 1 11.444 9.6 66.369 66.369 0 0 1 .811 12.26c3.677 1.082 6.067 4.366 6.067 8.715 0 4.665-2.552 8.03-6.547 8.943a9 9 0 0 1-9.212 7.421z" transform="translate(1029.829 -323.987)" style="fill:#0015aa"/>
            </g>
            <g data-name="그룹 13444">
                <path data-name="패스 8625" d="M-610.788 685.168a8.833 8.833 0 0 1-9.1-7.141 74.594 74.594 0 0 1-7.711-.385 9.594 9.594 0 0 1-7.159-4.267 12.789 12.789 0 0 1-1-10.705c1.6-5.053 8.205-16.091 11.307-19.475 3.364-3.666 5.547-4.966 11.1-4.966a11.328 11.328 0 0 1 11.444 9.6 66.369 66.369 0 0 1 .811 12.26c3.677 1.082 6.067 4.366 6.067 8.715 0 4.665-2.552 8.03-6.547 8.943a9 9 0 0 1-9.212 7.421z" transform="translate(1029.829 -323.881)" style="fill:#0015aa"/>
            </g>
            <g data-name="그룹 13445">
                <path data-name="패스 8626" d="M-610.788 684.968a8.833 8.833 0 0 1-9.1-7.141 74.575 74.575 0 0 1-7.711-.385 9.594 9.594 0 0 1-7.159-4.267 12.789 12.789 0 0 1-1-10.705c1.6-5.053 8.205-16.091 11.307-19.475 3.364-3.666 5.547-4.966 11.1-4.966a11.328 11.328 0 0 1 11.444 9.6 66.37 66.37 0 0 1 .811 12.26c3.677 1.082 6.067 4.366 6.067 8.715 0 4.665-2.552 8.03-6.547 8.943a9 9 0 0 1-9.212 7.421z" transform="translate(1029.829 -323.776)" style="fill:#0015aa"/>
            </g>
            <g data-name="그룹 13446">
                <path data-name="패스 8627" d="M-610.788 684.768a8.833 8.833 0 0 1-9.1-7.14 74.576 74.576 0 0 1-7.711-.385 9.594 9.594 0 0 1-7.159-4.267 12.789 12.789 0 0 1-1-10.705c1.6-5.053 8.205-16.091 11.307-19.475 3.364-3.665 5.547-4.966 11.1-4.966a11.328 11.328 0 0 1 11.444 9.6 66.37 66.37 0 0 1 .811 12.26c3.677 1.082 6.067 4.366 6.067 8.715 0 4.665-2.552 8.03-6.547 8.943a9 9 0 0 1-9.212 7.42z" transform="translate(1029.829 -323.67)" style="fill:#0015aa"/>
            </g>
            <g data-name="그룹 13447">
                <path data-name="패스 8628" d="M-610.788 684.568a8.833 8.833 0 0 1-9.1-7.141 74.558 74.558 0 0 1-7.711-.385 9.594 9.594 0 0 1-7.159-4.267 12.789 12.789 0 0 1-1-10.705c1.6-5.053 8.205-16.091 11.307-19.475 3.364-3.665 5.547-4.966 11.1-4.966a11.328 11.328 0 0 1 11.444 9.6 66.369 66.369 0 0 1 .811 12.26c3.677 1.082 6.067 4.366 6.067 8.715 0 4.665-2.552 8.03-6.547 8.943a9 9 0 0 1-9.212 7.421z" transform="translate(1029.829 -323.565)" style="fill:#0015aa"/>
            </g>
            <g data-name="그룹 13448">
                <path data-name="패스 8629" d="M-610.788 684.368a8.833 8.833 0 0 1-9.1-7.14 74.558 74.558 0 0 1-7.711-.385 9.594 9.594 0 0 1-7.159-4.267 12.789 12.789 0 0 1-1-10.705c1.6-5.053 8.205-16.091 11.307-19.475 3.364-3.665 5.547-4.966 11.1-4.966a11.328 11.328 0 0 1 11.444 9.6 66.369 66.369 0 0 1 .811 12.26c3.677 1.082 6.067 4.366 6.067 8.715 0 4.665-2.552 8.03-6.547 8.943a9 9 0 0 1-9.212 7.42z" transform="translate(1029.829 -323.459)" style="fill:#0015aa"/>
            </g>
            <g data-name="그룹 13449">
                <path data-name="패스 8630" d="M-610.788 684.168a8.833 8.833 0 0 1-9.1-7.141 74.594 74.594 0 0 1-7.711-.385 9.6 9.6 0 0 1-7.159-4.267 12.789 12.789 0 0 1-1-10.705c1.6-5.053 8.205-16.091 11.307-19.475 3.364-3.665 5.547-4.966 11.1-4.966a11.328 11.328 0 0 1 11.444 9.6 66.371 66.371 0 0 1 .811 12.26c3.677 1.082 6.067 4.366 6.067 8.715 0 4.665-2.552 8.03-6.547 8.943a9 9 0 0 1-9.212 7.421z" transform="translate(1029.829 -323.354)" style="fill:#0015aa"/>
            </g>
            <g data-name="그룹 13450">
                <path data-name="패스 8631" d="M-610.788 683.968a8.833 8.833 0 0 1-9.1-7.141 74.576 74.576 0 0 1-7.711-.385 9.594 9.594 0 0 1-7.159-4.267 12.789 12.789 0 0 1-1-10.705c1.6-5.053 8.205-16.091 11.307-19.475 3.364-3.665 5.547-4.966 11.1-4.966a11.328 11.328 0 0 1 11.444 9.6 66.37 66.37 0 0 1 .811 12.26c3.677 1.082 6.067 4.366 6.067 8.715 0 4.665-2.552 8.03-6.547 8.943a9 9 0 0 1-9.212 7.421z" transform="translate(1029.829 -323.248)" style="fill:#0015aa"/>
            </g>
            <g data-name="그룹 13451">
                <path data-name="패스 8632" d="M-610.788 683.768a8.833 8.833 0 0 1-9.1-7.141 74.559 74.559 0 0 1-7.711-.385 9.594 9.594 0 0 1-7.159-4.267 12.789 12.789 0 0 1-1-10.706c1.6-5.053 8.205-16.091 11.307-19.475 3.364-3.666 5.547-4.966 11.1-4.966a11.328 11.328 0 0 1 11.444 9.6 66.37 66.37 0 0 1 .811 12.26c3.677 1.082 6.067 4.366 6.067 8.715 0 4.665-2.552 8.03-6.547 8.943a9 9 0 0 1-9.212 7.422z" transform="translate(1029.829 -323.143)" style="fill:#0015aa"/>
            </g>
            <g data-name="그룹 13452">
                <path data-name="패스 8633" d="M-610.788 683.568a8.833 8.833 0 0 1-9.1-7.141 74.576 74.576 0 0 1-7.711-.385 9.6 9.6 0 0 1-7.159-4.267 12.789 12.789 0 0 1-1-10.705c1.6-5.053 8.205-16.091 11.307-19.475 3.364-3.665 5.547-4.966 11.1-4.966a11.328 11.328 0 0 1 11.444 9.6 66.37 66.37 0 0 1 .811 12.26c3.677 1.082 6.067 4.366 6.067 8.715 0 4.665-2.552 8.03-6.547 8.943a9 9 0 0 1-9.212 7.421z" transform="translate(1029.829 -323.037)" style="fill:#0015aa"/>
            </g>
            <g data-name="그룹 13453">
                <path data-name="패스 8634" d="M-610.788 683.368a8.833 8.833 0 0 1-9.1-7.141 74.576 74.576 0 0 1-7.711-.385 9.594 9.594 0 0 1-7.159-4.267 12.789 12.789 0 0 1-1-10.705c1.6-5.053 8.205-16.091 11.307-19.475 3.364-3.665 5.547-4.966 11.1-4.966a11.328 11.328 0 0 1 11.444 9.6 66.37 66.37 0 0 1 .811 12.26c3.677 1.082 6.067 4.366 6.067 8.715 0 4.665-2.552 8.03-6.547 8.943a9 9 0 0 1-9.212 7.421z" transform="translate(1029.829 -322.932)" style="fill:#0015aa"/>
            </g>
            <g data-name="그룹 13454">
                <path data-name="패스 8635" d="M-610.788 683.168a8.833 8.833 0 0 1-9.1-7.141 74.54 74.54 0 0 1-7.711-.385 9.594 9.594 0 0 1-7.159-4.267 12.789 12.789 0 0 1-1-10.705c1.6-5.053 8.205-16.091 11.307-19.475 3.364-3.665 5.547-4.966 11.1-4.966a11.328 11.328 0 0 1 11.444 9.6 66.37 66.37 0 0 1 .811 12.26c3.677 1.082 6.067 4.366 6.067 8.715 0 4.665-2.552 8.03-6.547 8.943a9 9 0 0 1-9.212 7.421z" transform="translate(1029.829 -322.826)" style="fill:#0015aa"/>
            </g>
            <g data-name="그룹 13455">
                <path data-name="패스 8636" d="M-610.788 682.968a8.833 8.833 0 0 1-9.1-7.141 74.559 74.559 0 0 1-7.711-.385 9.594 9.594 0 0 1-7.159-4.267 12.789 12.789 0 0 1-1-10.705c1.6-5.053 8.205-16.091 11.307-19.475 3.364-3.666 5.547-4.966 11.1-4.966a11.328 11.328 0 0 1 11.444 9.6 66.37 66.37 0 0 1 .811 12.26c3.677 1.082 6.067 4.366 6.067 8.715 0 4.665-2.552 8.03-6.547 8.943a9 9 0 0 1-9.212 7.421z" transform="translate(1029.829 -322.721)" style="fill:#0015aa"/>
            </g>
            <g data-name="그룹 13456">
                <path data-name="패스 8637" d="M-610.788 682.768a8.833 8.833 0 0 1-9.1-7.141 74.576 74.576 0 0 1-7.711-.385 9.594 9.594 0 0 1-7.159-4.267 12.789 12.789 0 0 1-1-10.705c1.6-5.053 8.205-16.091 11.307-19.475 3.364-3.665 5.547-4.966 11.1-4.966a11.328 11.328 0 0 1 11.444 9.6 66.369 66.369 0 0 1 .811 12.26c3.677 1.082 6.067 4.366 6.067 8.715 0 4.665-2.552 8.03-6.547 8.943a9 9 0 0 1-9.212 7.421z" transform="translate(1029.829 -322.615)" style="fill:#0015aa"/>
            </g>
            <g data-name="그룹 13457">
                <path data-name="패스 8638" d="M-610.788 682.568a8.833 8.833 0 0 1-9.1-7.141 74.559 74.559 0 0 1-7.711-.385 9.594 9.594 0 0 1-7.159-4.267 12.789 12.789 0 0 1-1-10.706c1.6-5.053 8.205-16.091 11.307-19.475 3.364-3.666 5.547-4.966 11.1-4.966a11.328 11.328 0 0 1 11.444 9.6 66.37 66.37 0 0 1 .811 12.26c3.677 1.082 6.067 4.366 6.067 8.715 0 4.665-2.552 8.03-6.547 8.943a9 9 0 0 1-9.212 7.422z" transform="translate(1029.829 -322.51)" style="fill:#0015aa"/>
            </g>
            <g data-name="그룹 13458">
                <path data-name="패스 8639" d="M-610.788 682.368a8.833 8.833 0 0 1-9.1-7.141 74.576 74.576 0 0 1-7.711-.385 9.6 9.6 0 0 1-7.159-4.267 12.789 12.789 0 0 1-1-10.705c1.6-5.053 8.205-16.091 11.307-19.475 3.364-3.666 5.547-4.966 11.1-4.966a11.328 11.328 0 0 1 11.444 9.6 66.37 66.37 0 0 1 .811 12.26c3.677 1.082 6.067 4.366 6.067 8.715 0 4.665-2.552 8.03-6.547 8.943a9 9 0 0 1-9.212 7.421z" transform="translate(1029.829 -322.404)" style="fill:#0015aa"/>
            </g>
            <g data-name="그룹 13459">
                <path data-name="패스 8640" d="M-610.788 682.168a8.833 8.833 0 0 1-9.1-7.141 74.594 74.594 0 0 1-7.711-.385 9.6 9.6 0 0 1-7.159-4.267 12.789 12.789 0 0 1-1-10.705c1.6-5.053 8.205-16.091 11.307-19.475 3.364-3.665 5.547-4.966 11.1-4.966a11.328 11.328 0 0 1 11.444 9.6 66.37 66.37 0 0 1 .811 12.26c3.677 1.082 6.067 4.366 6.067 8.715 0 4.665-2.552 8.03-6.547 8.943a9 9 0 0 1-9.212 7.421z" transform="translate(1029.829 -322.299)" style="fill:#0015aa"/>
            </g>
            <g data-name="그룹 13460">
                <path data-name="패스 8641" d="M-610.788 681.968a8.833 8.833 0 0 1-9.1-7.141 74.559 74.559 0 0 1-7.711-.385 9.594 9.594 0 0 1-7.159-4.267 12.789 12.789 0 0 1-1-10.705c1.6-5.053 8.205-16.091 11.307-19.475 3.364-3.666 5.547-4.966 11.1-4.966a11.328 11.328 0 0 1 11.444 9.6 66.371 66.371 0 0 1 .811 12.26c3.677 1.082 6.067 4.366 6.067 8.715 0 4.665-2.552 8.03-6.547 8.943a9 9 0 0 1-9.212 7.421z" transform="translate(1029.829 -322.193)" style="fill:#0015aa"/>
            </g>
            <g data-name="그룹 13461">
                <path data-name="패스 8642" d="M-610.788 681.768a8.833 8.833 0 0 1-9.1-7.141 74.559 74.559 0 0 1-7.711-.385 9.594 9.594 0 0 1-7.159-4.267 12.789 12.789 0 0 1-1-10.705c1.6-5.053 8.205-16.091 11.307-19.475 3.364-3.665 5.547-4.966 11.1-4.966a11.328 11.328 0 0 1 11.444 9.6 66.369 66.369 0 0 1 .811 12.26c3.677 1.082 6.067 4.366 6.067 8.715 0 4.665-2.552 8.03-6.547 8.943a9 9 0 0 1-9.212 7.421z" transform="translate(1029.829 -322.088)" style="fill:#0015aa"/>
            </g>
            <g data-name="그룹 13462">
                <path data-name="패스 8643" d="M-610.788 681.568a8.833 8.833 0 0 1-9.1-7.141 74.559 74.559 0 0 1-7.711-.385 9.594 9.594 0 0 1-7.159-4.267 12.789 12.789 0 0 1-1-10.705c1.6-5.053 8.205-16.091 11.307-19.475 3.364-3.666 5.547-4.966 11.1-4.966a11.328 11.328 0 0 1 11.444 9.6 66.369 66.369 0 0 1 .811 12.26c3.677 1.082 6.067 4.366 6.067 8.715 0 4.665-2.552 8.03-6.547 8.943a9 9 0 0 1-9.212 7.421z" transform="translate(1029.829 -321.982)" style="fill:#0015aa"/>
            </g>
            <g data-name="그룹 13463">
                <path data-name="패스 8644" d="M-610.788 681.368a8.833 8.833 0 0 1-9.1-7.141 74.576 74.576 0 0 1-7.711-.385 9.594 9.594 0 0 1-7.159-4.267 12.788 12.788 0 0 1-1-10.705c1.6-5.053 8.205-16.091 11.307-19.475 3.364-3.666 5.547-4.966 11.1-4.966a11.328 11.328 0 0 1 11.444 9.6 66.369 66.369 0 0 1 .811 12.26c3.677 1.082 6.067 4.366 6.067 8.715 0 4.665-2.552 8.03-6.547 8.943a9 9 0 0 1-9.212 7.421z" transform="translate(1029.829 -321.877)" style="fill:#0015aa"/>
            </g>
            <g data-name="그룹 13464">
                <path data-name="패스 8645" d="M-610.788 681.168a8.833 8.833 0 0 1-9.1-7.141 74.576 74.576 0 0 1-7.711-.385 9.594 9.594 0 0 1-7.159-4.267 12.789 12.789 0 0 1-1-10.705c1.6-5.053 8.205-16.091 11.307-19.475 3.364-3.665 5.547-4.966 11.1-4.966a11.328 11.328 0 0 1 11.444 9.6 66.37 66.37 0 0 1 .811 12.26c3.677 1.082 6.067 4.366 6.067 8.715 0 4.665-2.552 8.03-6.547 8.943a9 9 0 0 1-9.212 7.421z" transform="translate(1029.829 -321.771)" style="fill:#0015aa"/>
            </g>
            <g data-name="그룹 13465">
                <path data-name="패스 8646" d="M-610.788 680.968a8.833 8.833 0 0 1-9.1-7.141 74.576 74.576 0 0 1-7.711-.385 9.594 9.594 0 0 1-7.159-4.267 12.789 12.789 0 0 1-1-10.705c1.6-5.053 8.205-16.091 11.307-19.475 3.364-3.666 5.547-4.966 11.1-4.966a11.328 11.328 0 0 1 11.444 9.6 66.369 66.369 0 0 1 .811 12.26c3.677 1.082 6.067 4.366 6.067 8.715 0 4.665-2.552 8.03-6.547 8.943a9 9 0 0 1-9.212 7.421z" transform="translate(1029.829 -321.666)" style="fill:#0015aa"/>
            </g>
        </g>
        <g data-name="그룹 13467" style="mix-blend-mode:screen;isolation:isolate">
            <path data-name="패스 8647" d="M-610.788 680.968a8.833 8.833 0 0 1-9.1-7.141 74.576 74.576 0 0 1-7.711-.385 9.594 9.594 0 0 1-7.159-4.267 12.789 12.789 0 0 1-1-10.705c1.6-5.053 8.205-16.091 11.307-19.475 3.364-3.666 5.547-4.966 11.1-4.966a11.328 11.328 0 0 1 11.444 9.6 66.369 66.369 0 0 1 .811 12.26c3.677 1.082 6.067 4.366 6.067 8.715 0 4.665-2.552 8.03-6.547 8.943a9 9 0 0 1-9.212 7.421z" transform="translate(1029.829 -321.666)" style="fill:#e4f9ff"/>
        </g>
        <g data-name="그룹 13468">
            <path data-name="패스 8648" d="M-610.262 681.023a8.409 8.409 0 0 1-8.715-7.141h-.385a74.054 74.054 0 0 1-7.664-.383 9.131 9.131 0 0 1-6.814-4.054 12.318 12.318 0 0 1-.943-10.305c1.7-5.357 8.415-16.254 11.205-19.3 3.315-3.612 5.333-4.813 10.753-4.813 5.68 0 9.887 3.532 10.979 9.217a66.877 66.877 0 0 1 .8 12.521c3.709.9 6.072 4.035 6.072 8.364 0 4.614-2.487 7.806-6.48 8.551a8.577 8.577 0 0 1-8.808 7.343z" transform="translate(1029.302 -322.194)" style="fill:#008aff"/>
        </g>
        <text data-name="4" transform="translate(397.485 350.637)" style="font-size:45px;font-family:SDOdongtongBasic,Sandoll Odongtong;fill:#50c2ff"><tspan x="0" y="0">4</tspan></text>
        <text data-name="4" transform="translate(397.012 349.692)" style="font-size:45px;font-family:SDOdongtongBasic,Sandoll Odongtong;fill:#fff"><tspan x="0" y="0">4</tspan></text>
    </g>
</svg>
