<svg xmlns="http://www.w3.org/2000/svg" width="43" height="57" viewBox="0 0 43 57">
    <defs>
        <clipPath id="xbpf0czp0a">
            <path data-name="사각형 6157" transform="translate(478 309)" style="stroke:#707070;fill:#fff" d="M0 0h43v57H0z"/>
        </clipPath>
    </defs>
    <g data-name="그룹 13537" transform="translate(-478 -309)" style="clip-path:url(#xbpf0czp0a)">
        <g data-name="그룹 13502">
            <g data-name="그룹 13501">
                <g data-name="그룹 13470">
                    <path data-name="패스 8649" d="M-437.533 686.723c-8.751 0-15.7-3.288-19.574-9.259a10.056 10.056 0 0 1 1.123-12.787 9.554 9.554 0 0 1-1.015-3.8 73.054 73.054 0 0 1 1.1-15.368c1.023-4.253 4.043-9.442 12.651-10.15a93.584 93.584 0 0 1 7.338-.275c2.262 0 4.666.073 7.146.218 6.919.385 11.4 4.916 11.4 11.543a10.93 10.93 0 0 1-3.037 7.96 18.281 18.281 0 0 1 4.531 12.495c0 11.8-8.503 19.423-21.663 19.423z" transform="translate(936.887 -322.249)" style="fill:#fff"/>
                </g>
                <g data-name="그룹 13471">
                    <path data-name="패스 8650" d="M-437.533 686.523c-8.751 0-15.7-3.288-19.574-9.259a10.056 10.056 0 0 1 1.123-12.787 9.554 9.554 0 0 1-1.015-3.8 73.054 73.054 0 0 1 1.1-15.368c1.023-4.253 4.043-9.442 12.651-10.15a93.584 93.584 0 0 1 7.338-.275c2.262 0 4.666.073 7.146.218 6.919.385 11.4 4.916 11.4 11.543a10.93 10.93 0 0 1-3.037 7.96 18.28 18.28 0 0 1 4.531 12.495c0 11.8-8.503 19.423-21.663 19.423z" transform="translate(936.887 -322.143)" style="fill:#fff"/>
                </g>
                <g data-name="그룹 13472">
                    <path data-name="패스 8651" d="M-437.533 686.323c-8.751 0-15.7-3.288-19.574-9.259a10.056 10.056 0 0 1 1.123-12.787 9.554 9.554 0 0 1-1.015-3.8 73.054 73.054 0 0 1 1.1-15.368c1.023-4.253 4.043-9.442 12.651-10.15a93.584 93.584 0 0 1 7.338-.275c2.262 0 4.666.073 7.146.218 6.919.385 11.4 4.916 11.4 11.543a10.93 10.93 0 0 1-3.037 7.96 18.281 18.281 0 0 1 4.531 12.495c0 11.8-8.503 19.423-21.663 19.423z" transform="translate(936.887 -322.038)" style="fill:#fff"/>
                </g>
                <g data-name="그룹 13473">
                    <path data-name="패스 8652" d="M-437.533 686.123c-8.751 0-15.7-3.288-19.574-9.259a10.056 10.056 0 0 1 1.123-12.787 9.555 9.555 0 0 1-1.015-3.8 73.054 73.054 0 0 1 1.1-15.368c1.023-4.253 4.043-9.442 12.651-10.15a93.584 93.584 0 0 1 7.338-.275c2.262 0 4.666.073 7.146.218 6.919.385 11.4 4.916 11.4 11.543a10.93 10.93 0 0 1-3.037 7.96 18.28 18.28 0 0 1 4.531 12.495c0 11.8-8.503 19.423-21.663 19.423z" transform="translate(936.887 -321.932)" style="fill:#fff"/>
                </g>
                <g data-name="그룹 13474">
                    <path data-name="패스 8653" d="M-437.533 685.923c-8.751 0-15.7-3.289-19.574-9.259a10.056 10.056 0 0 1 1.123-12.787 9.554 9.554 0 0 1-1.015-3.8 73.054 73.054 0 0 1 1.1-15.368c1.023-4.253 4.043-9.442 12.651-10.15a93.584 93.584 0 0 1 7.338-.275c2.262 0 4.666.073 7.146.218 6.919.385 11.4 4.916 11.4 11.543a10.93 10.93 0 0 1-3.037 7.96 18.281 18.281 0 0 1 4.531 12.495c0 11.8-8.503 19.423-21.663 19.423z" transform="translate(936.887 -321.827)" style="fill:#fff"/>
                </g>
                <g data-name="그룹 13475">
                    <path data-name="패스 8654" d="M-437.533 685.723c-8.751 0-15.7-3.288-19.574-9.259a10.056 10.056 0 0 1 1.123-12.787 9.553 9.553 0 0 1-1.015-3.8 73.053 73.053 0 0 1 1.1-15.368c1.023-4.253 4.043-9.442 12.651-10.15a93.584 93.584 0 0 1 7.338-.275c2.262 0 4.666.073 7.146.218 6.919.385 11.4 4.916 11.4 11.543a10.93 10.93 0 0 1-3.037 7.961 18.281 18.281 0 0 1 4.531 12.494c0 11.8-8.503 19.423-21.663 19.423z" transform="translate(936.887 -321.721)" style="fill:#fff"/>
                </g>
                <g data-name="그룹 13476">
                    <path data-name="패스 8655" d="M-437.533 685.523c-8.751 0-15.7-3.288-19.574-9.259a10.056 10.056 0 0 1 1.123-12.787 9.554 9.554 0 0 1-1.015-3.8 73.055 73.055 0 0 1 1.1-15.368c1.023-4.253 4.043-9.442 12.651-10.15a93.584 93.584 0 0 1 7.338-.275c2.262 0 4.666.073 7.146.218 6.919.385 11.4 4.916 11.4 11.543a10.93 10.93 0 0 1-3.037 7.96 18.28 18.28 0 0 1 4.531 12.495c0 11.8-8.503 19.423-21.663 19.423z" transform="translate(936.887 -321.616)" style="fill:#fff"/>
                </g>
                <g data-name="그룹 13477">
                    <path data-name="패스 8656" d="M-437.533 685.323c-8.751 0-15.7-3.289-19.574-9.259a10.056 10.056 0 0 1 1.123-12.787 9.554 9.554 0 0 1-1.015-3.8 73.055 73.055 0 0 1 1.1-15.368c1.023-4.253 4.043-9.442 12.651-10.15a93.584 93.584 0 0 1 7.338-.275c2.262 0 4.666.073 7.146.218 6.919.385 11.4 4.916 11.4 11.543a10.93 10.93 0 0 1-3.037 7.96 18.28 18.28 0 0 1 4.531 12.495c0 11.8-8.503 19.423-21.663 19.423z" transform="translate(936.887 -321.51)" style="fill:#fff"/>
                </g>
                <g data-name="그룹 13478">
                    <path data-name="패스 8657" d="M-437.533 685.123c-8.751 0-15.7-3.288-19.574-9.259a10.056 10.056 0 0 1 1.123-12.787 9.554 9.554 0 0 1-1.015-3.8 73.053 73.053 0 0 1 1.1-15.368c1.023-4.253 4.043-9.442 12.651-10.15a93.584 93.584 0 0 1 7.338-.275c2.262 0 4.666.073 7.146.218 6.919.385 11.4 4.916 11.4 11.543a10.93 10.93 0 0 1-3.037 7.96 18.281 18.281 0 0 1 4.531 12.495c0 11.8-8.503 19.423-21.663 19.423z" transform="translate(936.887 -321.405)" style="fill:#fff"/>
                </g>
                <g data-name="그룹 13479">
                    <path data-name="패스 8658" d="M-437.533 684.923c-8.751 0-15.7-3.288-19.574-9.259a10.056 10.056 0 0 1 1.123-12.787 9.554 9.554 0 0 1-1.015-3.8 73.054 73.054 0 0 1 1.1-15.368c1.023-4.253 4.043-9.442 12.651-10.15a93.584 93.584 0 0 1 7.338-.275c2.262 0 4.666.073 7.146.218 6.919.385 11.4 4.916 11.4 11.543a10.93 10.93 0 0 1-3.037 7.96 18.281 18.281 0 0 1 4.531 12.495c0 11.8-8.503 19.423-21.663 19.423z" transform="translate(936.887 -321.299)" style="fill:#fff"/>
                </g>
                <g data-name="그룹 13480">
                    <path data-name="패스 8659" d="M-437.533 684.723c-8.751 0-15.7-3.288-19.574-9.259a10.056 10.056 0 0 1 1.123-12.787 9.553 9.553 0 0 1-1.015-3.8 73.055 73.055 0 0 1 1.1-15.368c1.023-4.253 4.043-9.442 12.651-10.15a93.584 93.584 0 0 1 7.338-.275c2.262 0 4.666.073 7.146.218 6.919.385 11.4 4.916 11.4 11.543a10.93 10.93 0 0 1-3.037 7.96 18.28 18.28 0 0 1 4.531 12.495c0 11.8-8.503 19.423-21.663 19.423z" transform="translate(936.887 -321.194)" style="fill:#fff"/>
                </g>
                <g data-name="그룹 13481">
                    <path data-name="패스 8660" d="M-437.533 684.523c-8.751 0-15.7-3.288-19.574-9.259a10.056 10.056 0 0 1 1.123-12.787 9.554 9.554 0 0 1-1.015-3.8 73.054 73.054 0 0 1 1.1-15.368c1.023-4.253 4.043-9.442 12.651-10.15a93.584 93.584 0 0 1 7.338-.275c2.262 0 4.666.073 7.146.218 6.919.385 11.4 4.916 11.4 11.543a10.93 10.93 0 0 1-3.037 7.961 18.28 18.28 0 0 1 4.531 12.494c0 11.8-8.503 19.423-21.663 19.423z" transform="translate(936.887 -321.088)" style="fill:#fff"/>
                </g>
                <g data-name="그룹 13482">
                    <path data-name="패스 8661" d="M-437.533 684.323c-8.751 0-15.7-3.288-19.574-9.259a10.056 10.056 0 0 1 1.123-12.787 9.554 9.554 0 0 1-1.015-3.8 73.054 73.054 0 0 1 1.1-15.368c1.023-4.253 4.043-9.442 12.651-10.15a93.584 93.584 0 0 1 7.338-.275c2.262 0 4.666.073 7.146.218 6.919.385 11.4 4.916 11.4 11.543a10.93 10.93 0 0 1-3.037 7.96 18.28 18.28 0 0 1 4.531 12.495c0 11.8-8.503 19.423-21.663 19.423z" transform="translate(936.887 -320.983)" style="fill:#fff"/>
                </g>
                <g data-name="그룹 13483">
                    <path data-name="패스 8662" d="M-437.533 684.123c-8.751 0-15.7-3.288-19.574-9.259a10.056 10.056 0 0 1 1.123-12.787 9.554 9.554 0 0 1-1.015-3.8 73.053 73.053 0 0 1 1.1-15.368c1.023-4.253 4.043-9.442 12.651-10.15a93.584 93.584 0 0 1 7.338-.275c2.262 0 4.666.073 7.146.218 6.919.385 11.4 4.916 11.4 11.543a10.93 10.93 0 0 1-3.037 7.96 18.28 18.28 0 0 1 4.531 12.495c0 11.8-8.503 19.423-21.663 19.423z" transform="translate(936.887 -320.877)" style="fill:#fff"/>
                </g>
                <g data-name="그룹 13484">
                    <path data-name="패스 8663" d="M-437.533 683.923c-8.751 0-15.7-3.288-19.574-9.259a10.056 10.056 0 0 1 1.123-12.787 9.554 9.554 0 0 1-1.015-3.8 73.053 73.053 0 0 1 1.1-15.368c1.023-4.253 4.043-9.442 12.651-10.15a93.584 93.584 0 0 1 7.338-.275c2.262 0 4.666.073 7.146.218 6.919.385 11.4 4.916 11.4 11.543a10.93 10.93 0 0 1-3.037 7.96 18.281 18.281 0 0 1 4.531 12.495c0 11.8-8.503 19.423-21.663 19.423z" transform="translate(936.887 -320.772)" style="fill:#fff"/>
                </g>
                <g data-name="그룹 13485">
                    <path data-name="패스 8664" d="M-437.533 683.723c-8.751 0-15.7-3.288-19.574-9.259a10.056 10.056 0 0 1 1.123-12.787 9.554 9.554 0 0 1-1.015-3.8 73.053 73.053 0 0 1 1.1-15.368c1.023-4.253 4.043-9.442 12.651-10.15a93.584 93.584 0 0 1 7.338-.275c2.262 0 4.666.073 7.146.218 6.919.385 11.4 4.916 11.4 11.543a10.93 10.93 0 0 1-3.037 7.96 18.28 18.28 0 0 1 4.531 12.495c0 11.8-8.503 19.423-21.663 19.423z" transform="translate(936.887 -320.666)" style="fill:#fff"/>
                </g>
                <g data-name="그룹 13486">
                    <path data-name="패스 8665" d="M-437.533 683.523c-8.751 0-15.7-3.288-19.574-9.259a10.056 10.056 0 0 1 1.123-12.787 9.554 9.554 0 0 1-1.015-3.8 73.054 73.054 0 0 1 1.1-15.368c1.023-4.253 4.043-9.442 12.651-10.15a93.584 93.584 0 0 1 7.338-.275c2.262 0 4.666.073 7.146.218 6.919.385 11.4 4.916 11.4 11.543a10.93 10.93 0 0 1-3.037 7.96 18.28 18.28 0 0 1 4.531 12.495c0 11.8-8.503 19.423-21.663 19.423z" transform="translate(936.887 -320.561)" style="fill:#fff"/>
                </g>
                <g data-name="그룹 13487">
                    <path data-name="패스 8666" d="M-437.533 683.323c-8.751 0-15.7-3.288-19.574-9.259a10.056 10.056 0 0 1 1.123-12.787 9.554 9.554 0 0 1-1.015-3.8 73.054 73.054 0 0 1 1.1-15.368c1.023-4.253 4.043-9.442 12.651-10.15a93.584 93.584 0 0 1 7.338-.275c2.262 0 4.666.073 7.146.218 6.919.385 11.4 4.916 11.4 11.543a10.93 10.93 0 0 1-3.037 7.96 18.281 18.281 0 0 1 4.531 12.495c0 11.8-8.503 19.423-21.663 19.423z" transform="translate(936.887 -320.455)" style="fill:#fff"/>
                </g>
                <g data-name="그룹 13488">
                    <path data-name="패스 8667" d="M-437.533 683.123c-8.751 0-15.7-3.288-19.574-9.259a10.056 10.056 0 0 1 1.123-12.787 9.554 9.554 0 0 1-1.015-3.8 73.053 73.053 0 0 1 1.1-15.368c1.023-4.253 4.043-9.442 12.651-10.15a93.584 93.584 0 0 1 7.338-.275c2.262 0 4.666.073 7.146.218 6.919.385 11.4 4.916 11.4 11.543a10.93 10.93 0 0 1-3.037 7.96 18.281 18.281 0 0 1 4.531 12.495c0 11.8-8.503 19.423-21.663 19.423z" transform="translate(936.887 -320.35)" style="fill:#fff"/>
                </g>
                <g data-name="그룹 13489">
                    <path data-name="패스 8668" d="M-437.533 682.923c-8.751 0-15.7-3.288-19.574-9.259a10.056 10.056 0 0 1 1.123-12.787 9.554 9.554 0 0 1-1.015-3.8 73.054 73.054 0 0 1 1.1-15.368c1.023-4.253 4.043-9.442 12.651-10.15a93.584 93.584 0 0 1 7.338-.275c2.262 0 4.666.073 7.146.218 6.919.385 11.4 4.916 11.4 11.543a10.93 10.93 0 0 1-3.037 7.96 18.281 18.281 0 0 1 4.531 12.495c0 11.8-8.503 19.423-21.663 19.423z" transform="translate(936.887 -320.244)" style="fill:#fff"/>
                </g>
                <g data-name="그룹 13490">
                    <path data-name="패스 8669" d="M-437.533 682.723c-8.751 0-15.7-3.288-19.574-9.259a10.056 10.056 0 0 1 1.123-12.787 9.554 9.554 0 0 1-1.015-3.8 73.054 73.054 0 0 1 1.1-15.368c1.023-4.253 4.043-9.442 12.651-10.15a93.584 93.584 0 0 1 7.338-.275c2.262 0 4.666.073 7.146.218 6.919.385 11.4 4.916 11.4 11.543a10.93 10.93 0 0 1-3.037 7.96 18.281 18.281 0 0 1 4.531 12.495c0 11.8-8.503 19.423-21.663 19.423z" transform="translate(936.887 -320.139)" style="fill:#fff"/>
                </g>
                <g data-name="그룹 13491">
                    <path data-name="패스 8670" d="M-437.533 682.523c-8.751 0-15.7-3.288-19.574-9.259a10.056 10.056 0 0 1 1.123-12.787 9.554 9.554 0 0 1-1.015-3.8 73.055 73.055 0 0 1 1.1-15.368c1.023-4.253 4.043-9.442 12.651-10.15a93.584 93.584 0 0 1 7.338-.275c2.262 0 4.666.073 7.146.218 6.919.385 11.4 4.916 11.4 11.543a10.93 10.93 0 0 1-3.037 7.96 18.28 18.28 0 0 1 4.531 12.495c0 11.8-8.503 19.423-21.663 19.423z" transform="translate(936.887 -320.033)" style="fill:#fff"/>
                </g>
                <g data-name="그룹 13492">
                    <path data-name="패스 8671" d="M-437.533 682.323c-8.751 0-15.7-3.288-19.574-9.259a10.056 10.056 0 0 1 1.123-12.787 9.555 9.555 0 0 1-1.015-3.8 73.054 73.054 0 0 1 1.1-15.368c1.023-4.253 4.043-9.442 12.651-10.15a93.584 93.584 0 0 1 7.338-.275c2.262 0 4.666.073 7.146.218 6.919.385 11.4 4.916 11.4 11.543a10.93 10.93 0 0 1-3.037 7.96 18.281 18.281 0 0 1 4.531 12.495c0 11.8-8.503 19.423-21.663 19.423z" transform="translate(936.887 -319.928)" style="fill:#fff"/>
                </g>
                <g data-name="그룹 13493">
                    <path data-name="패스 8672" d="M-437.533 682.123c-8.751 0-15.7-3.288-19.574-9.259a10.056 10.056 0 0 1 1.123-12.787 9.554 9.554 0 0 1-1.015-3.8 73.055 73.055 0 0 1 1.1-15.368c1.023-4.253 4.043-9.442 12.651-10.15a93.584 93.584 0 0 1 7.338-.275c2.262 0 4.666.073 7.146.218 6.919.385 11.4 4.916 11.4 11.543a10.93 10.93 0 0 1-3.037 7.96 18.281 18.281 0 0 1 4.531 12.495c0 11.8-8.503 19.423-21.663 19.423z" transform="translate(936.887 -319.822)" style="fill:#fff"/>
                </g>
                <g data-name="그룹 13494">
                    <path data-name="패스 8673" d="M-437.533 681.923c-8.751 0-15.7-3.288-19.574-9.259a10.056 10.056 0 0 1 1.123-12.787 9.554 9.554 0 0 1-1.015-3.8 73.055 73.055 0 0 1 1.1-15.368c1.023-4.253 4.043-9.442 12.651-10.15a93.584 93.584 0 0 1 7.338-.275c2.262 0 4.666.073 7.146.218 6.919.385 11.4 4.916 11.4 11.543a10.93 10.93 0 0 1-3.037 7.96 18.281 18.281 0 0 1 4.531 12.495c0 11.8-8.503 19.423-21.663 19.423z" transform="translate(936.887 -319.717)" style="fill:#fff"/>
                </g>
                <g data-name="그룹 13495">
                    <path data-name="패스 8674" d="M-437.533 681.723c-8.751 0-15.7-3.288-19.574-9.259a10.056 10.056 0 0 1 1.123-12.787 9.554 9.554 0 0 1-1.015-3.8 73.054 73.054 0 0 1 1.1-15.368c1.023-4.253 4.043-9.442 12.651-10.15a93.584 93.584 0 0 1 7.338-.275c2.262 0 4.666.073 7.146.218 6.919.385 11.4 4.916 11.4 11.543a10.93 10.93 0 0 1-3.037 7.96 18.281 18.281 0 0 1 4.531 12.495c0 11.8-8.503 19.423-21.663 19.423z" transform="translate(936.887 -319.611)" style="fill:#fff"/>
                </g>
                <g data-name="그룹 13496">
                    <path data-name="패스 8675" d="M-437.533 681.523c-8.751 0-15.7-3.288-19.574-9.259a10.056 10.056 0 0 1 1.123-12.787 9.554 9.554 0 0 1-1.015-3.8 73.055 73.055 0 0 1 1.1-15.368c1.023-4.253 4.043-9.442 12.651-10.15a93.584 93.584 0 0 1 7.338-.275c2.262 0 4.666.073 7.146.218 6.919.385 11.4 4.916 11.4 11.543a10.93 10.93 0 0 1-3.037 7.96 18.28 18.28 0 0 1 4.531 12.495c0 11.8-8.503 19.423-21.663 19.423z" transform="translate(936.887 -319.506)" style="fill:#fff"/>
                </g>
                <g data-name="그룹 13497">
                    <path data-name="패스 8676" d="M-437.533 681.323c-8.751 0-15.7-3.288-19.574-9.259a10.056 10.056 0 0 1 1.123-12.787 9.554 9.554 0 0 1-1.015-3.8 73.054 73.054 0 0 1 1.1-15.368c1.023-4.253 4.043-9.442 12.651-10.15a93.584 93.584 0 0 1 7.338-.275c2.262 0 4.666.073 7.146.218 6.919.385 11.4 4.916 11.4 11.543a10.93 10.93 0 0 1-3.037 7.96 18.28 18.28 0 0 1 4.531 12.495c0 11.8-8.503 19.423-21.663 19.423z" transform="translate(936.887 -319.4)" style="fill:#fff"/>
                </g>
                <g data-name="그룹 13498">
                    <path data-name="패스 8677" d="M-437.533 681.123c-8.751 0-15.7-3.288-19.574-9.259a10.056 10.056 0 0 1 1.123-12.787 9.554 9.554 0 0 1-1.015-3.8 73.054 73.054 0 0 1 1.1-15.368c1.023-4.253 4.043-9.442 12.651-10.15a93.584 93.584 0 0 1 7.338-.275c2.262 0 4.666.073 7.146.218 6.919.385 11.4 4.916 11.4 11.543a10.93 10.93 0 0 1-3.037 7.96 18.281 18.281 0 0 1 4.531 12.495c0 11.8-8.503 19.423-21.663 19.423z" transform="translate(936.887 -319.295)" style="fill:#fff"/>
                </g>
                <g data-name="그룹 13499">
                    <path data-name="패스 8678" d="M-437.533 680.923c-8.751 0-15.7-3.288-19.574-9.259a10.056 10.056 0 0 1 1.123-12.787 9.554 9.554 0 0 1-1.015-3.8 73.054 73.054 0 0 1 1.1-15.368c1.023-4.253 4.043-9.442 12.651-10.15a93.584 93.584 0 0 1 7.338-.275c2.262 0 4.666.073 7.146.218 6.919.385 11.4 4.916 11.4 11.543a10.93 10.93 0 0 1-3.037 7.96 18.281 18.281 0 0 1 4.531 12.495c0 11.8-8.503 19.423-21.663 19.423z" transform="translate(936.887 -319.189)" style="fill:#fff"/>
                </g>
                <g data-name="그룹 13500">
                    <path data-name="패스 8679" d="M-437.533 680.723c-8.751 0-15.7-3.288-19.574-9.259a10.056 10.056 0 0 1 1.123-12.787 9.554 9.554 0 0 1-1.015-3.8 73.054 73.054 0 0 1 1.1-15.368c1.023-4.253 4.043-9.442 12.651-10.15a93.584 93.584 0 0 1 7.338-.275c2.262 0 4.666.073 7.146.218 6.919.385 11.4 4.916 11.4 11.543a10.93 10.93 0 0 1-3.037 7.961 18.28 18.28 0 0 1 4.531 12.494c0 11.8-8.503 19.423-21.663 19.423z" transform="translate(936.887 -319.084)" style="fill:#fff"/>
                </g>
            </g>
        </g>
        <g data-name="그룹 13534">
            <g data-name="그룹 13503">
                <path data-name="패스 8680" d="M-434.874 687c-7.923 0-14.171-2.906-17.591-8.182-.926-1.422-3.473-6.392 2.159-11.128a7.453 7.453 0 0 1-1.674-4.294 71.312 71.312 0 0 1 1.04-14.7c1.218-5.063 4.765-7.864 10.545-8.339a91.36 91.36 0 0 1 7.144-.267c2.217 0 4.575.072 7.009.214 5.656.314 9.176 3.834 9.176 9.184a8.514 8.514 0 0 1-2.9 6.81 8.419 8.419 0 0 1-1.424.971 15.688 15.688 0 0 1 5.817 12.671c-.001 10.519-7.396 17.06-19.301 17.06z" transform="translate(934.229 -324.886)" style="fill:#0015aa"/>
            </g>
            <g data-name="그룹 13504">
                <path data-name="패스 8681" d="M-434.874 686.8c-7.923 0-14.171-2.906-17.591-8.182-.926-1.422-3.473-6.392 2.159-11.128a7.452 7.452 0 0 1-1.674-4.293 71.312 71.312 0 0 1 1.04-14.7c1.218-5.063 4.765-7.864 10.545-8.339a91.36 91.36 0 0 1 7.144-.267c2.217 0 4.575.072 7.009.214 5.656.314 9.176 3.834 9.176 9.184a8.514 8.514 0 0 1-2.9 6.81 8.437 8.437 0 0 1-1.424.971 15.688 15.688 0 0 1 5.817 12.671c-.001 10.518-7.396 17.059-19.301 17.059z" transform="translate(934.229 -324.78)" style="fill:#0015aa"/>
            </g>
            <g data-name="그룹 13505">
                <path data-name="패스 8682" d="M-434.874 686.6c-7.923 0-14.171-2.906-17.591-8.182-.926-1.422-3.473-6.392 2.159-11.128a7.453 7.453 0 0 1-1.674-4.294 71.312 71.312 0 0 1 1.04-14.7c1.218-5.063 4.765-7.864 10.545-8.339a91.36 91.36 0 0 1 7.144-.267c2.217 0 4.575.072 7.009.214 5.656.314 9.176 3.834 9.176 9.184a8.514 8.514 0 0 1-2.9 6.81 8.429 8.429 0 0 1-1.424.971 15.688 15.688 0 0 1 5.817 12.671c-.001 10.519-7.396 17.06-19.301 17.06z" transform="translate(934.229 -324.675)" style="fill:#0015aa"/>
            </g>
            <g data-name="그룹 13506">
                <path data-name="패스 8683" d="M-434.874 686.4c-7.923 0-14.171-2.906-17.591-8.182-.926-1.422-3.473-6.392 2.159-11.128a7.453 7.453 0 0 1-1.674-4.294 71.312 71.312 0 0 1 1.04-14.7c1.218-5.063 4.765-7.864 10.545-8.339a91.36 91.36 0 0 1 7.144-.267c2.217 0 4.575.072 7.009.214 5.656.314 9.176 3.834 9.176 9.184a8.514 8.514 0 0 1-2.9 6.81 8.429 8.429 0 0 1-1.424.971 15.688 15.688 0 0 1 5.817 12.671c-.001 10.519-7.396 17.06-19.301 17.06z" transform="translate(934.229 -324.569)" style="fill:#0015aa"/>
            </g>
            <g data-name="그룹 13507">
                <path data-name="패스 8684" d="M-434.874 686.2c-7.923 0-14.171-2.906-17.591-8.182-.926-1.422-3.473-6.391 2.159-11.128a7.452 7.452 0 0 1-1.674-4.293 71.313 71.313 0 0 1 1.04-14.7c1.218-5.063 4.765-7.863 10.545-8.339a91.36 91.36 0 0 1 7.144-.267c2.217 0 4.575.072 7.009.214 5.656.314 9.176 3.834 9.176 9.184a8.514 8.514 0 0 1-2.9 6.81 8.437 8.437 0 0 1-1.424.971 15.688 15.688 0 0 1 5.817 12.671c-.001 10.518-7.396 17.059-19.301 17.059z" transform="translate(934.229 -324.464)" style="fill:#0015aa"/>
            </g>
            <g data-name="그룹 13508">
                <path data-name="패스 8685" d="M-434.874 686c-7.923 0-14.171-2.906-17.591-8.182-.926-1.422-3.473-6.392 2.159-11.128a7.453 7.453 0 0 1-1.674-4.294 71.312 71.312 0 0 1 1.04-14.7c1.218-5.063 4.765-7.864 10.545-8.339a91.36 91.36 0 0 1 7.144-.267c2.217 0 4.575.072 7.009.214 5.656.314 9.176 3.834 9.176 9.184a8.514 8.514 0 0 1-2.9 6.81 8.426 8.426 0 0 1-1.424.971 15.688 15.688 0 0 1 5.817 12.671c-.001 10.519-7.396 17.06-19.301 17.06z" transform="translate(934.229 -324.358)" style="fill:#0015aa"/>
            </g>
            <g data-name="그룹 13509">
                <path data-name="패스 8686" d="M-434.874 685.8c-7.923 0-14.171-2.906-17.591-8.182-.926-1.422-3.473-6.392 2.159-11.128a7.453 7.453 0 0 1-1.674-4.294 71.312 71.312 0 0 1 1.04-14.7c1.218-5.063 4.765-7.864 10.545-8.339a91.36 91.36 0 0 1 7.144-.267c2.217 0 4.575.072 7.009.214 5.656.314 9.176 3.834 9.176 9.184a8.514 8.514 0 0 1-2.9 6.81 8.433 8.433 0 0 1-1.424.971 15.688 15.688 0 0 1 5.817 12.671c-.001 10.519-7.396 17.06-19.301 17.06z" transform="translate(934.229 -324.253)" style="fill:#0015aa"/>
            </g>
            <g data-name="그룹 13510">
                <path data-name="패스 8687" d="M-434.874 685.6c-7.923 0-14.171-2.906-17.591-8.182-.926-1.422-3.473-6.392 2.159-11.128a7.453 7.453 0 0 1-1.674-4.294 71.313 71.313 0 0 1 1.04-14.7c1.218-5.063 4.765-7.864 10.545-8.339a91.36 91.36 0 0 1 7.144-.267c2.217 0 4.575.072 7.009.214 5.656.314 9.176 3.834 9.176 9.184a8.514 8.514 0 0 1-2.9 6.81 8.437 8.437 0 0 1-1.424.971 15.688 15.688 0 0 1 5.817 12.671c-.001 10.519-7.396 17.06-19.301 17.06z" transform="translate(934.229 -324.147)" style="fill:#0015aa"/>
            </g>
            <g data-name="그룹 13511">
                <path data-name="패스 8688" d="M-434.874 685.4c-7.923 0-14.171-2.906-17.591-8.182-.926-1.422-3.473-6.392 2.159-11.128a7.453 7.453 0 0 1-1.674-4.294 71.312 71.312 0 0 1 1.04-14.7c1.218-5.063 4.765-7.864 10.545-8.339a91.36 91.36 0 0 1 7.144-.267c2.217 0 4.575.072 7.009.214 5.656.314 9.176 3.834 9.176 9.184a8.514 8.514 0 0 1-2.9 6.81 8.433 8.433 0 0 1-1.424.971 15.688 15.688 0 0 1 5.817 12.671c-.001 10.519-7.396 17.06-19.301 17.06z" transform="translate(934.229 -324.042)" style="fill:#0015aa"/>
            </g>
            <g data-name="그룹 13512">
                <path data-name="패스 8689" d="M-434.874 685.2c-7.923 0-14.171-2.906-17.591-8.182-.926-1.422-3.473-6.392 2.159-11.128a7.453 7.453 0 0 1-1.674-4.294 71.312 71.312 0 0 1 1.04-14.7c1.218-5.063 4.765-7.864 10.545-8.339a91.36 91.36 0 0 1 7.144-.267c2.217 0 4.575.072 7.009.214 5.656.314 9.176 3.834 9.176 9.184a8.514 8.514 0 0 1-2.9 6.81 8.433 8.433 0 0 1-1.424.971 15.688 15.688 0 0 1 5.817 12.671c-.001 10.519-7.396 17.06-19.301 17.06z" transform="translate(934.229 -323.936)" style="fill:#0015aa"/>
            </g>
            <g data-name="그룹 13513">
                <path data-name="패스 8690" d="M-434.874 685c-7.923 0-14.171-2.906-17.591-8.182-.926-1.422-3.473-6.392 2.159-11.128a7.453 7.453 0 0 1-1.674-4.294 71.312 71.312 0 0 1 1.04-14.7c1.218-5.063 4.765-7.864 10.545-8.339a91.36 91.36 0 0 1 7.144-.267c2.217 0 4.575.072 7.009.214 5.656.314 9.176 3.834 9.176 9.184a8.514 8.514 0 0 1-2.9 6.81 8.437 8.437 0 0 1-1.424.971 15.688 15.688 0 0 1 5.817 12.671c-.001 10.519-7.396 17.06-19.301 17.06z" transform="translate(934.229 -323.831)" style="fill:#0015aa"/>
            </g>
            <g data-name="그룹 13514">
                <path data-name="패스 8691" d="M-434.874 684.8c-7.923 0-14.171-2.906-17.591-8.182-.926-1.422-3.473-6.392 2.159-11.128a7.453 7.453 0 0 1-1.674-4.294 71.313 71.313 0 0 1 1.04-14.7c1.218-5.063 4.765-7.863 10.545-8.339a91.36 91.36 0 0 1 7.144-.267c2.217 0 4.575.072 7.009.214 5.656.314 9.176 3.834 9.176 9.184a8.514 8.514 0 0 1-2.9 6.81 8.433 8.433 0 0 1-1.424.971 15.688 15.688 0 0 1 5.817 12.671c-.001 10.519-7.396 17.06-19.301 17.06z" transform="translate(934.229 -323.725)" style="fill:#0015aa"/>
            </g>
            <g data-name="그룹 13515">
                <path data-name="패스 8692" d="M-434.874 684.6c-7.923 0-14.171-2.906-17.591-8.182-.926-1.422-3.473-6.392 2.159-11.128a7.453 7.453 0 0 1-1.674-4.294 71.312 71.312 0 0 1 1.04-14.7c1.218-5.063 4.765-7.864 10.545-8.339a91.36 91.36 0 0 1 7.144-.267c2.217 0 4.575.072 7.009.214 5.656.314 9.176 3.834 9.176 9.184a8.514 8.514 0 0 1-2.9 6.81 8.436 8.436 0 0 1-1.424.971 15.688 15.688 0 0 1 5.817 12.671c-.001 10.519-7.396 17.06-19.301 17.06z" transform="translate(934.229 -323.62)" style="fill:#0015aa"/>
            </g>
            <g data-name="그룹 13516">
                <path data-name="패스 8693" d="M-434.874 684.4c-7.923 0-14.171-2.906-17.591-8.181-.926-1.422-3.473-6.392 2.159-11.128a7.453 7.453 0 0 1-1.674-4.293 71.314 71.314 0 0 1 1.04-14.7c1.218-5.063 4.765-7.864 10.545-8.339a91.36 91.36 0 0 1 7.144-.267c2.217 0 4.575.072 7.009.214 5.656.314 9.176 3.834 9.176 9.184a8.514 8.514 0 0 1-2.9 6.81 8.433 8.433 0 0 1-1.424.971 15.688 15.688 0 0 1 5.817 12.671c-.001 10.517-7.396 17.058-19.301 17.058z" transform="translate(934.229 -323.514)" style="fill:#0015aa"/>
            </g>
            <g data-name="그룹 13517">
                <path data-name="패스 8694" d="M-434.874 684.2c-7.923 0-14.171-2.906-17.591-8.182-.926-1.422-3.473-6.392 2.159-11.128a7.453 7.453 0 0 1-1.674-4.294 71.312 71.312 0 0 1 1.04-14.7c1.218-5.063 4.765-7.864 10.545-8.339a91.36 91.36 0 0 1 7.144-.267c2.217 0 4.575.072 7.009.214 5.656.314 9.176 3.834 9.176 9.184a8.514 8.514 0 0 1-2.9 6.81 8.429 8.429 0 0 1-1.424.971 15.688 15.688 0 0 1 5.817 12.671c-.001 10.519-7.396 17.06-19.301 17.06z" transform="translate(934.229 -323.409)" style="fill:#0015aa"/>
            </g>
            <g data-name="그룹 13518">
                <path data-name="패스 8695" d="M-434.874 684c-7.923 0-14.171-2.906-17.591-8.182-.926-1.422-3.473-6.392 2.159-11.128a7.453 7.453 0 0 1-1.674-4.293 71.312 71.312 0 0 1 1.04-14.7c1.218-5.063 4.765-7.864 10.545-8.339a91.36 91.36 0 0 1 7.144-.267c2.217 0 4.575.072 7.009.214 5.656.314 9.176 3.834 9.176 9.184a8.514 8.514 0 0 1-2.9 6.81 8.43 8.43 0 0 1-1.424.971 15.688 15.688 0 0 1 5.817 12.671c-.001 10.518-7.396 17.059-19.301 17.059z" transform="translate(934.229 -323.303)" style="fill:#0015aa"/>
            </g>
            <g data-name="그룹 13519">
                <path data-name="패스 8696" d="M-434.874 683.8c-7.923 0-14.171-2.906-17.591-8.182-.926-1.422-3.473-6.392 2.159-11.128a7.453 7.453 0 0 1-1.674-4.294 71.313 71.313 0 0 1 1.04-14.7c1.218-5.063 4.765-7.864 10.545-8.339a91.36 91.36 0 0 1 7.144-.267c2.217 0 4.575.072 7.009.214 5.656.314 9.176 3.834 9.176 9.184a8.514 8.514 0 0 1-2.9 6.81 8.426 8.426 0 0 1-1.424.971 15.688 15.688 0 0 1 5.817 12.671c-.001 10.519-7.396 17.06-19.301 17.06z" transform="translate(934.229 -323.198)" style="fill:#0015aa"/>
            </g>
            <g data-name="그룹 13520">
                <path data-name="패스 8697" d="M-434.874 683.6c-7.923 0-14.171-2.906-17.591-8.182-.926-1.422-3.473-6.392 2.159-11.128a7.453 7.453 0 0 1-1.674-4.293 71.312 71.312 0 0 1 1.04-14.7c1.218-5.063 4.765-7.864 10.545-8.339a91.36 91.36 0 0 1 7.144-.267c2.217 0 4.575.072 7.009.214 5.656.314 9.176 3.834 9.176 9.184a8.514 8.514 0 0 1-2.9 6.81 8.433 8.433 0 0 1-1.424.971 15.688 15.688 0 0 1 5.817 12.671c-.001 10.518-7.396 17.059-19.301 17.059z" transform="translate(934.229 -323.092)" style="fill:#0015aa"/>
            </g>
            <g data-name="그룹 13521">
                <path data-name="패스 8698" d="M-434.874 683.4c-7.923 0-14.171-2.906-17.591-8.182-.926-1.422-3.473-6.392 2.159-11.128a7.453 7.453 0 0 1-1.674-4.294 71.312 71.312 0 0 1 1.04-14.7c1.218-5.063 4.765-7.864 10.545-8.339a91.36 91.36 0 0 1 7.144-.267c2.217 0 4.575.072 7.009.214 5.656.314 9.176 3.834 9.176 9.184a8.514 8.514 0 0 1-2.9 6.81 8.43 8.43 0 0 1-1.424.971 15.688 15.688 0 0 1 5.817 12.671c-.001 10.519-7.396 17.06-19.301 17.06z" transform="translate(934.229 -322.987)" style="fill:#0015aa"/>
            </g>
            <g data-name="그룹 13522">
                <path data-name="패스 8699" d="M-434.874 683.2c-7.923 0-14.171-2.906-17.591-8.182-.926-1.422-3.473-6.392 2.159-11.128a7.453 7.453 0 0 1-1.674-4.293 71.312 71.312 0 0 1 1.04-14.7c1.218-5.063 4.765-7.864 10.545-8.339a91.36 91.36 0 0 1 7.144-.267c2.217 0 4.575.072 7.009.214 5.656.314 9.176 3.834 9.176 9.184a8.514 8.514 0 0 1-2.9 6.81 8.433 8.433 0 0 1-1.424.971 15.688 15.688 0 0 1 5.817 12.671c-.001 10.518-7.396 17.059-19.301 17.059z" transform="translate(934.229 -322.881)" style="fill:#0015aa"/>
            </g>
            <g data-name="그룹 13523">
                <path data-name="패스 8700" d="M-434.874 683c-7.923 0-14.171-2.906-17.591-8.182-.926-1.422-3.473-6.392 2.159-11.128a7.452 7.452 0 0 1-1.674-4.293 71.311 71.311 0 0 1 1.04-14.7c1.218-5.063 4.765-7.864 10.545-8.339a91.85 91.85 0 0 1 7.144-.267c2.217 0 4.575.072 7.009.214 5.656.314 9.176 3.834 9.176 9.184a8.514 8.514 0 0 1-2.9 6.81 8.415 8.415 0 0 1-1.424.971 15.688 15.688 0 0 1 5.817 12.671c-.001 10.518-7.396 17.059-19.301 17.059z" transform="translate(934.229 -322.776)" style="fill:#0015aa"/>
            </g>
            <g data-name="그룹 13524">
                <path data-name="패스 8701" d="M-434.874 682.8c-7.923 0-14.171-2.906-17.591-8.182-.926-1.422-3.473-6.392 2.159-11.128a7.453 7.453 0 0 1-1.674-4.293 71.311 71.311 0 0 1 1.04-14.7c1.218-5.063 4.765-7.864 10.545-8.339a91.36 91.36 0 0 1 7.144-.267c2.217 0 4.575.072 7.009.214 5.656.314 9.176 3.834 9.176 9.184a8.514 8.514 0 0 1-2.9 6.81 8.433 8.433 0 0 1-1.424.971 15.688 15.688 0 0 1 5.817 12.671c-.001 10.518-7.396 17.059-19.301 17.059z" transform="translate(934.229 -322.67)" style="fill:#0015aa"/>
            </g>
            <g data-name="그룹 13525">
                <path data-name="패스 8702" d="M-434.874 682.6c-7.923 0-14.171-2.906-17.591-8.182-.926-1.422-3.473-6.392 2.159-11.128a7.452 7.452 0 0 1-1.674-4.293 71.312 71.312 0 0 1 1.04-14.7c1.218-5.063 4.765-7.864 10.545-8.339a91.85 91.85 0 0 1 7.144-.267c2.217 0 4.575.072 7.009.214 5.656.314 9.176 3.834 9.176 9.184a8.514 8.514 0 0 1-2.9 6.81 8.437 8.437 0 0 1-1.424.971 15.688 15.688 0 0 1 5.817 12.671c-.001 10.518-7.396 17.059-19.301 17.059z" transform="translate(934.229 -322.565)" style="fill:#0015aa"/>
            </g>
            <g data-name="그룹 13526">
                <path data-name="패스 8703" d="M-434.874 682.4c-7.923 0-14.171-2.906-17.591-8.182-.926-1.422-3.473-6.392 2.159-11.128a7.453 7.453 0 0 1-1.674-4.294 71.311 71.311 0 0 1 1.04-14.7c1.218-5.063 4.765-7.864 10.545-8.339a91.36 91.36 0 0 1 7.144-.267c2.217 0 4.575.072 7.009.214 5.656.314 9.176 3.834 9.176 9.184a8.514 8.514 0 0 1-2.9 6.81 8.419 8.419 0 0 1-1.424.971 15.688 15.688 0 0 1 5.817 12.671c-.001 10.519-7.396 17.06-19.301 17.06z" transform="translate(934.229 -322.459)" style="fill:#0015aa"/>
            </g>
            <g data-name="그룹 13527">
                <path data-name="패스 8704" d="M-434.874 682.2c-7.923 0-14.171-2.906-17.591-8.182-.926-1.422-3.473-6.392 2.159-11.128a7.453 7.453 0 0 1-1.674-4.293 71.312 71.312 0 0 1 1.04-14.7c1.218-5.063 4.765-7.863 10.545-8.339a91.36 91.36 0 0 1 7.144-.267c2.217 0 4.575.072 7.009.214 5.656.314 9.176 3.834 9.176 9.184a8.514 8.514 0 0 1-2.9 6.81 8.44 8.44 0 0 1-1.424.971 15.688 15.688 0 0 1 5.817 12.671c-.001 10.518-7.396 17.059-19.301 17.059z" transform="translate(934.229 -322.354)" style="fill:#0015aa"/>
            </g>
            <g data-name="그룹 13528">
                <path data-name="패스 8705" d="M-434.874 682c-7.923 0-14.171-2.906-17.591-8.182-.926-1.422-3.473-6.392 2.159-11.128a7.453 7.453 0 0 1-1.674-4.294 71.312 71.312 0 0 1 1.04-14.7c1.218-5.063 4.765-7.864 10.545-8.339a91.36 91.36 0 0 1 7.144-.267c2.217 0 4.575.072 7.009.214 5.656.314 9.176 3.834 9.176 9.184a8.514 8.514 0 0 1-2.9 6.81 8.422 8.422 0 0 1-1.424.971 15.688 15.688 0 0 1 5.817 12.671c-.001 10.519-7.396 17.06-19.301 17.06z" transform="translate(934.229 -322.248)" style="fill:#0015aa"/>
            </g>
            <g data-name="그룹 13529">
                <path data-name="패스 8706" d="M-434.874 681.8c-7.923 0-14.171-2.906-17.591-8.182-.926-1.422-3.473-6.392 2.159-11.128a7.452 7.452 0 0 1-1.674-4.293 71.312 71.312 0 0 1 1.04-14.7c1.218-5.063 4.765-7.863 10.545-8.339a91.36 91.36 0 0 1 7.144-.267c2.217 0 4.575.072 7.009.214 5.656.314 9.176 3.834 9.176 9.184a8.514 8.514 0 0 1-2.9 6.81 8.406 8.406 0 0 1-1.424.97 15.69 15.69 0 0 1 5.817 12.671c-.001 10.519-7.396 17.06-19.301 17.06z" transform="translate(934.229 -322.143)" style="fill:#0015aa"/>
            </g>
            <g data-name="그룹 13530">
                <path data-name="패스 8707" d="M-434.874 681.6c-7.923 0-14.171-2.906-17.591-8.182-.926-1.422-3.473-6.392 2.159-11.128a7.453 7.453 0 0 1-1.674-4.293 71.313 71.313 0 0 1 1.04-14.7c1.218-5.063 4.765-7.864 10.545-8.339a91.36 91.36 0 0 1 7.144-.267c2.217 0 4.575.072 7.009.214 5.656.314 9.176 3.834 9.176 9.184a8.514 8.514 0 0 1-2.9 6.81 8.437 8.437 0 0 1-1.424.971 15.688 15.688 0 0 1 5.817 12.671c-.001 10.518-7.396 17.059-19.301 17.059z" transform="translate(934.229 -322.037)" style="fill:#0015aa"/>
            </g>
            <g data-name="그룹 13531">
                <path data-name="패스 8708" d="M-434.874 681.4c-7.923 0-14.171-2.906-17.591-8.182-.926-1.422-3.473-6.392 2.159-11.128a7.453 7.453 0 0 1-1.674-4.294 71.313 71.313 0 0 1 1.04-14.7c1.218-5.063 4.765-7.864 10.545-8.339a91.36 91.36 0 0 1 7.144-.267c2.217 0 4.575.072 7.009.214 5.656.314 9.176 3.834 9.176 9.184a8.514 8.514 0 0 1-2.9 6.81 8.4 8.4 0 0 1-1.424.97 15.69 15.69 0 0 1 5.817 12.671c-.001 10.52-7.396 17.061-19.301 17.061z" transform="translate(934.229 -321.932)" style="fill:#0015aa"/>
            </g>
            <g data-name="그룹 13532">
                <path data-name="패스 8709" d="M-434.874 681.2c-7.923 0-14.171-2.906-17.591-8.182-.926-1.422-3.473-6.392 2.159-11.128a7.453 7.453 0 0 1-1.674-4.294 71.311 71.311 0 0 1 1.04-14.7c1.218-5.063 4.765-7.864 10.545-8.339a91.36 91.36 0 0 1 7.144-.267c2.217 0 4.575.072 7.009.214 5.656.314 9.176 3.834 9.176 9.184a8.514 8.514 0 0 1-2.9 6.81 8.433 8.433 0 0 1-1.424.971 15.688 15.688 0 0 1 5.817 12.671c-.001 10.519-7.396 17.06-19.301 17.06z" transform="translate(934.229 -321.826)" style="fill:#0015aa"/>
            </g>
            <g data-name="그룹 13533">
                <path data-name="패스 8710" d="M-434.874 681c-7.923 0-14.171-2.906-17.591-8.182-.926-1.422-3.473-6.392 2.159-11.128a7.453 7.453 0 0 1-1.674-4.294 71.313 71.313 0 0 1 1.04-14.7c1.218-5.063 4.765-7.864 10.545-8.339a91.36 91.36 0 0 1 7.144-.267c2.217 0 4.575.072 7.009.214 5.656.314 9.176 3.834 9.176 9.184a8.514 8.514 0 0 1-2.9 6.81 8.43 8.43 0 0 1-1.424.971 15.688 15.688 0 0 1 5.817 12.671c-.001 10.519-7.396 17.06-19.301 17.06z" transform="translate(934.229 -321.721)" style="fill:#0015aa"/>
            </g>
        </g>
        <g data-name="그룹 13535" style="mix-blend-mode:screen;isolation:isolate">
            <path data-name="패스 8711" d="M-434.874 681c-7.923 0-14.171-2.906-17.591-8.182-.926-1.422-3.473-6.392 2.159-11.128a7.453 7.453 0 0 1-1.674-4.294 71.313 71.313 0 0 1 1.04-14.7c1.218-5.063 4.765-7.864 10.545-8.339a91.36 91.36 0 0 1 7.144-.267c2.217 0 4.575.072 7.009.214 5.656.314 9.176 3.834 9.176 9.184a8.514 8.514 0 0 1-2.9 6.81 8.43 8.43 0 0 1-1.424.971 15.688 15.688 0 0 1 5.817 12.671c-.001 10.519-7.396 17.06-19.301 17.06z" transform="translate(934.229 -321.721)" style="fill:#e4f9ff"/>
        </g>
        <g data-name="그룹 13536">
            <path data-name="패스 8712" d="M-434.356 681.052c-7.757 0-13.864-2.829-17.195-7.966-2.374-3.646-1.5-7.663 2.349-10.739l.082-.064a7.1 7.1 0 0 1-1.869-4.385 70.744 70.744 0 0 1 1.028-14.572c1.165-4.841 4.569-7.52 10.125-7.977 2.3-.179 4.622-.266 7.105-.266 2.207 0 4.556.072 6.982.213 5.381.3 8.731 3.638 8.731 8.713a7.9 7.9 0 0 1-4.762 7.69 15.184 15.184 0 0 1 6.253 12.761c-.002 10.235-7.216 16.592-18.829 16.592z" transform="translate(933.711 -322.249)" style="fill:#008aff"/>
        </g>
        <text data-name="5" transform="translate(484.511 350.737)" style="font-size:45px;font-family:SDOdongtongBasic,Sandoll Odongtong;fill:#50c2ff"><tspan x="0" y="0">5</tspan></text>
        <text data-name="5" transform="translate(484.038 349.792)" style="font-size:45px;font-family:SDOdongtongBasic,Sandoll Odongtong;fill:#fff"><tspan x="0" y="0">5</tspan></text>
    </g>
</svg>
