<svg xmlns="http://www.w3.org/2000/svg" width="44" height="57" viewBox="0 0 44 57">
    <defs>
        <clipPath id="vilxjlodha">
            <path data-name="사각형 6154" transform="translate(224 309)" style="stroke:#707070;fill:#fff" d="M0 0h44v57H0z"/>
        </clipPath>
    </defs>
    <g data-name="그룹 13333" transform="translate(-224 -309)" style="clip-path:url(#vilxjlodha)">
        <g data-name="그룹 13298">
            <g data-name="그룹 13297">
                <g data-name="그룹 13266">
                    <path data-name="패스 8457" d="M-976.223 686.713c-3.09 0-6.248-.135-9.656-.414a11.687 11.687 0 0 1-10.27-7.479c-1.684-4.575-.37-9.776 3.429-13.575l3.369-3.369a13.221 13.221 0 0 1-2.55-1.155c-5.634-3.278-7.126-9.638-3.694-15.814 3.487-6.277 10.588-9.878 19.479-9.878 11.341 0 19.893 7.571 19.893 17.61a20.038 20.038 0 0 1-3.516 11.572 11.2 11.2 0 0 1 6.031 10.278c0 5.2-3.05 11-11.609 11.717-3.993.345-7.465.507-10.906.507z" transform="translate(1221.425 -322.194)" style="fill:#fff"/>
                </g>
                <g data-name="그룹 13267">
                    <path data-name="패스 8458" d="M-976.223 686.513c-3.09 0-6.248-.135-9.656-.414a11.687 11.687 0 0 1-10.27-7.479c-1.684-4.575-.37-9.776 3.429-13.575l3.369-3.369a13.221 13.221 0 0 1-2.55-1.155c-5.634-3.278-7.126-9.638-3.694-15.814 3.487-6.277 10.588-9.878 19.479-9.878 11.341 0 19.893 7.571 19.893 17.61a20.039 20.039 0 0 1-3.516 11.572 11.2 11.2 0 0 1 6.031 10.278c0 5.2-3.05 11-11.609 11.717-3.993.345-7.465.507-10.906.507z" transform="translate(1221.425 -322.088)" style="fill:#fff"/>
                </g>
                <g data-name="그룹 13268">
                    <path data-name="패스 8459" d="M-976.223 686.313c-3.09 0-6.248-.135-9.656-.414a11.688 11.688 0 0 1-10.27-7.479c-1.684-4.575-.37-9.776 3.429-13.575l3.369-3.369a13.232 13.232 0 0 1-2.55-1.155c-5.634-3.278-7.126-9.638-3.694-15.814 3.487-6.277 10.588-9.878 19.479-9.878 11.341 0 19.893 7.571 19.893 17.61a20.038 20.038 0 0 1-3.516 11.572 11.2 11.2 0 0 1 6.031 10.278c0 5.2-3.05 11-11.609 11.717-3.993.345-7.465.507-10.906.507z" transform="translate(1221.425 -321.983)" style="fill:#fff"/>
                </g>
                <g data-name="그룹 13269">
                    <path data-name="패스 8460" d="M-976.223 686.113c-3.09 0-6.248-.135-9.656-.414a11.687 11.687 0 0 1-10.27-7.479c-1.684-4.575-.37-9.776 3.429-13.575l3.369-3.369a13.213 13.213 0 0 1-2.55-1.155c-5.634-3.278-7.126-9.638-3.694-15.814 3.487-6.277 10.588-9.878 19.479-9.878 11.341 0 19.893 7.571 19.893 17.61a20.039 20.039 0 0 1-3.516 11.572 11.2 11.2 0 0 1 6.031 10.278c0 5.2-3.05 11-11.609 11.717-3.993.345-7.465.507-10.906.507z" transform="translate(1221.425 -321.877)" style="fill:#fff"/>
                </g>
                <g data-name="그룹 13270">
                    <path data-name="패스 8461" d="M-976.223 685.913c-3.09 0-6.248-.135-9.656-.414a11.688 11.688 0 0 1-10.27-7.479c-1.684-4.575-.37-9.776 3.429-13.575l3.369-3.369a13.228 13.228 0 0 1-2.55-1.155c-5.634-3.278-7.126-9.638-3.694-15.814 3.487-6.277 10.588-9.878 19.479-9.878 11.341 0 19.893 7.571 19.893 17.61a20.038 20.038 0 0 1-3.516 11.572 11.2 11.2 0 0 1 6.031 10.278c0 5.2-3.05 11-11.609 11.717-3.993.345-7.465.507-10.906.507z" transform="translate(1221.425 -321.772)" style="fill:#fff"/>
                </g>
                <g data-name="그룹 13271">
                    <path data-name="패스 8462" d="M-976.223 685.713c-3.09 0-6.248-.135-9.656-.414a11.687 11.687 0 0 1-10.27-7.479c-1.684-4.575-.37-9.776 3.429-13.575l3.369-3.369a13.225 13.225 0 0 1-2.55-1.155c-5.634-3.278-7.126-9.638-3.694-15.814 3.487-6.277 10.588-9.878 19.479-9.878 11.341 0 19.893 7.57 19.893 17.61a20.039 20.039 0 0 1-3.516 11.572 11.2 11.2 0 0 1 6.031 10.278c0 5.2-3.05 11-11.609 11.717-3.993.345-7.465.507-10.906.507z" transform="translate(1221.425 -321.666)" style="fill:#fff"/>
                </g>
                <g data-name="그룹 13272">
                    <path data-name="패스 8463" d="M-976.223 685.513c-3.09 0-6.248-.135-9.656-.414a11.688 11.688 0 0 1-10.27-7.479c-1.684-4.575-.37-9.776 3.429-13.575l3.369-3.369a13.225 13.225 0 0 1-2.55-1.155c-5.634-3.278-7.126-9.638-3.694-15.814 3.487-6.277 10.588-9.878 19.479-9.878 11.341 0 19.893 7.571 19.893 17.61a20.039 20.039 0 0 1-3.516 11.572 11.2 11.2 0 0 1 6.031 10.278c0 5.2-3.05 11-11.609 11.717-3.993.345-7.465.507-10.906.507z" transform="translate(1221.425 -321.561)" style="fill:#fff"/>
                </g>
                <g data-name="그룹 13273">
                    <path data-name="패스 8464" d="M-976.223 685.313c-3.09 0-6.248-.135-9.656-.414a11.688 11.688 0 0 1-10.27-7.479c-1.684-4.575-.37-9.776 3.429-13.575l3.369-3.369a13.224 13.224 0 0 1-2.55-1.155c-5.634-3.278-7.126-9.638-3.694-15.814 3.487-6.277 10.588-9.877 19.479-9.877 11.341 0 19.893 7.571 19.893 17.61a20.038 20.038 0 0 1-3.516 11.572 11.2 11.2 0 0 1 6.031 10.278c0 5.2-3.05 11-11.609 11.717-3.993.344-7.465.506-10.906.506z" transform="translate(1221.425 -321.455)" style="fill:#fff"/>
                </g>
                <g data-name="그룹 13274">
                    <path data-name="패스 8465" d="M-976.223 685.113c-3.09 0-6.248-.135-9.656-.414a11.687 11.687 0 0 1-10.27-7.479c-1.684-4.575-.37-9.776 3.429-13.575l3.369-3.369a13.221 13.221 0 0 1-2.55-1.155c-5.634-3.278-7.126-9.638-3.694-15.814 3.487-6.277 10.588-9.878 19.479-9.878 11.341 0 19.893 7.57 19.893 17.61a20.039 20.039 0 0 1-3.516 11.572 11.2 11.2 0 0 1 6.031 10.278c0 5.2-3.05 11-11.609 11.717-3.993.345-7.465.507-10.906.507z" transform="translate(1221.425 -321.35)" style="fill:#fff"/>
                </g>
                <g data-name="그룹 13275">
                    <path data-name="패스 8466" d="M-976.223 684.913c-3.09 0-6.248-.135-9.656-.414a11.688 11.688 0 0 1-10.27-7.479c-1.684-4.575-.37-9.776 3.429-13.575l3.369-3.369a13.213 13.213 0 0 1-2.55-1.155c-5.634-3.278-7.126-9.638-3.694-15.814 3.487-6.277 10.588-9.878 19.479-9.878 11.341 0 19.893 7.571 19.893 17.61a20.038 20.038 0 0 1-3.516 11.572 11.2 11.2 0 0 1 6.031 10.278c0 5.2-3.05 11-11.609 11.717-3.993.345-7.465.507-10.906.507z" transform="translate(1221.425 -321.244)" style="fill:#fff"/>
                </g>
                <g data-name="그룹 13276">
                    <path data-name="패스 8467" d="M-976.223 684.713c-3.09 0-6.248-.135-9.656-.414a11.688 11.688 0 0 1-10.27-7.479c-1.684-4.575-.37-9.776 3.429-13.575l3.369-3.369a13.22 13.22 0 0 1-2.55-1.155c-5.634-3.278-7.126-9.638-3.694-15.814 3.487-6.277 10.588-9.877 19.479-9.877 11.341 0 19.893 7.57 19.893 17.61a20.038 20.038 0 0 1-3.516 11.571 11.2 11.2 0 0 1 6.031 10.278c0 5.2-3.05 11-11.609 11.717-3.993.345-7.465.507-10.906.507z" transform="translate(1221.425 -321.139)" style="fill:#fff"/>
                </g>
                <g data-name="그룹 13277">
                    <path data-name="패스 8468" d="M-976.223 684.513c-3.09 0-6.248-.135-9.656-.414a11.688 11.688 0 0 1-10.27-7.479c-1.684-4.575-.37-9.776 3.429-13.575l3.369-3.369a13.221 13.221 0 0 1-2.55-1.155c-5.634-3.278-7.126-9.638-3.694-15.814 3.487-6.277 10.588-9.878 19.479-9.878 11.341 0 19.893 7.571 19.893 17.61a20.039 20.039 0 0 1-3.516 11.572 11.2 11.2 0 0 1 6.031 10.278c0 5.2-3.05 11-11.609 11.717-3.993.345-7.465.507-10.906.507z" transform="translate(1221.425 -321.033)" style="fill:#fff"/>
                </g>
                <g data-name="그룹 13278">
                    <path data-name="패스 8469" d="M-976.223 684.313c-3.09 0-6.248-.135-9.656-.414a11.688 11.688 0 0 1-10.27-7.479c-1.684-4.575-.37-9.776 3.429-13.575l3.369-3.369a13.213 13.213 0 0 1-2.55-1.155c-5.634-3.278-7.126-9.638-3.694-15.814 3.487-6.277 10.588-9.878 19.479-9.878 11.341 0 19.893 7.571 19.893 17.61a20.039 20.039 0 0 1-3.516 11.572 11.2 11.2 0 0 1 6.031 10.278c0 5.2-3.05 11-11.609 11.717-3.993.345-7.465.507-10.906.507z" transform="translate(1221.425 -320.928)" style="fill:#fff"/>
                </g>
                <g data-name="그룹 13279">
                    <path data-name="패스 8470" d="M-976.223 684.113c-3.09 0-6.248-.135-9.656-.414a11.688 11.688 0 0 1-10.27-7.479c-1.684-4.575-.37-9.777 3.429-13.575l3.369-3.369a13.221 13.221 0 0 1-2.55-1.155c-5.634-3.278-7.126-9.638-3.694-15.814 3.487-6.277 10.588-9.877 19.479-9.877 11.341 0 19.893 7.571 19.893 17.61a20.038 20.038 0 0 1-3.516 11.571 11.2 11.2 0 0 1 6.031 10.278c0 5.2-3.05 11-11.609 11.717-3.993.345-7.465.507-10.906.507z" transform="translate(1221.425 -320.822)" style="fill:#fff"/>
                </g>
                <g data-name="그룹 13280">
                    <path data-name="패스 8471" d="M-976.223 683.913c-3.09 0-6.248-.135-9.656-.414a11.688 11.688 0 0 1-10.27-7.479c-1.684-4.575-.37-9.776 3.429-13.575l3.369-3.369a13.217 13.217 0 0 1-2.55-1.155c-5.634-3.278-7.126-9.638-3.694-15.814 3.487-6.277 10.588-9.878 19.479-9.878 11.341 0 19.893 7.571 19.893 17.61a20.038 20.038 0 0 1-3.516 11.572 11.2 11.2 0 0 1 6.031 10.278c0 5.2-3.05 11-11.609 11.717-3.993.345-7.465.507-10.906.507z" transform="translate(1221.425 -320.717)" style="fill:#fff"/>
                </g>
                <g data-name="그룹 13281">
                    <path data-name="패스 8472" d="M-976.223 683.713c-3.09 0-6.248-.135-9.656-.414a11.688 11.688 0 0 1-10.27-7.479c-1.684-4.575-.37-9.776 3.429-13.575l3.369-3.369a13.221 13.221 0 0 1-2.55-1.155c-5.634-3.278-7.126-9.638-3.694-15.814 3.487-6.277 10.588-9.877 19.479-9.877 11.341 0 19.893 7.571 19.893 17.61a20.039 20.039 0 0 1-3.516 11.572 11.2 11.2 0 0 1 6.031 10.278c0 5.2-3.05 11-11.609 11.717-3.993.344-7.465.506-10.906.506z" transform="translate(1221.425 -320.611)" style="fill:#fff"/>
                </g>
                <g data-name="그룹 13282">
                    <path data-name="패스 8473" d="M-976.223 683.513c-3.09 0-6.248-.135-9.656-.414a11.688 11.688 0 0 1-10.27-7.479c-1.684-4.575-.37-9.776 3.429-13.575l3.369-3.369a13.228 13.228 0 0 1-2.55-1.155c-5.634-3.278-7.126-9.638-3.694-15.814 3.487-6.277 10.588-9.877 19.479-9.877 11.341 0 19.893 7.571 19.893 17.61a20.038 20.038 0 0 1-3.516 11.572 11.2 11.2 0 0 1 6.031 10.278c0 5.2-3.05 11-11.609 11.717-3.993.344-7.465.506-10.906.506z" transform="translate(1221.425 -320.506)" style="fill:#fff"/>
                </g>
                <g data-name="그룹 13283">
                    <path data-name="패스 8474" d="M-976.223 683.313c-3.09 0-6.248-.135-9.656-.414a11.688 11.688 0 0 1-10.27-7.479c-1.684-4.575-.37-9.776 3.429-13.575l3.369-3.369a13.224 13.224 0 0 1-2.55-1.155c-5.634-3.278-7.126-9.638-3.694-15.814 3.487-6.277 10.588-9.878 19.479-9.878 11.341 0 19.893 7.571 19.893 17.61a20.038 20.038 0 0 1-3.516 11.572 11.2 11.2 0 0 1 6.031 10.278c0 5.2-3.05 11-11.609 11.717-3.993.345-7.465.507-10.906.507z" transform="translate(1221.425 -320.4)" style="fill:#fff"/>
                </g>
                <g data-name="그룹 13284">
                    <path data-name="패스 8475" d="M-976.223 683.113c-3.09 0-6.248-.135-9.656-.414a11.688 11.688 0 0 1-10.27-7.479c-1.684-4.575-.37-9.776 3.429-13.575l3.369-3.369a13.221 13.221 0 0 1-2.55-1.155c-5.634-3.278-7.126-9.638-3.694-15.814 3.487-6.277 10.588-9.877 19.479-9.877 11.341 0 19.893 7.571 19.893 17.61a20.038 20.038 0 0 1-3.516 11.572 11.2 11.2 0 0 1 6.031 10.278c0 5.2-3.05 11-11.609 11.717-3.993.344-7.465.506-10.906.506z" transform="translate(1221.425 -320.295)" style="fill:#fff"/>
                </g>
                <g data-name="그룹 13285">
                    <path data-name="패스 8476" d="M-976.223 682.913c-3.09 0-6.248-.135-9.656-.414a11.688 11.688 0 0 1-10.27-7.479c-1.684-4.575-.37-9.776 3.429-13.575l3.369-3.369a13.217 13.217 0 0 1-2.55-1.155c-5.634-3.278-7.126-9.638-3.694-15.814 3.487-6.277 10.588-9.878 19.479-9.878 11.341 0 19.893 7.571 19.893 17.61a20.039 20.039 0 0 1-3.516 11.572 11.2 11.2 0 0 1 6.031 10.278c0 5.2-3.05 11-11.609 11.717-3.993.345-7.465.507-10.906.507z" transform="translate(1221.425 -320.189)" style="fill:#fff"/>
                </g>
                <g data-name="그룹 13286">
                    <path data-name="패스 8477" d="M-976.223 682.713c-3.09 0-6.248-.135-9.656-.414a11.687 11.687 0 0 1-10.27-7.479c-1.684-4.575-.37-9.776 3.429-13.575l3.369-3.369a13.228 13.228 0 0 1-2.55-1.155c-5.634-3.278-7.126-9.638-3.694-15.814 3.487-6.277 10.588-9.878 19.479-9.878 11.341 0 19.893 7.571 19.893 17.61a20.038 20.038 0 0 1-3.516 11.572 11.2 11.2 0 0 1 6.031 10.278c0 5.2-3.05 11-11.609 11.717-3.993.345-7.465.507-10.906.507z" transform="translate(1221.425 -320.084)" style="fill:#fff"/>
                </g>
                <g data-name="그룹 13287">
                    <path data-name="패스 8478" d="M-976.223 682.513c-3.09 0-6.248-.135-9.656-.414a11.687 11.687 0 0 1-10.27-7.479c-1.684-4.575-.37-9.776 3.429-13.575l3.369-3.369a13.217 13.217 0 0 1-2.55-1.155c-5.634-3.278-7.126-9.638-3.694-15.814 3.487-6.277 10.588-9.878 19.479-9.878 11.341 0 19.893 7.571 19.893 17.61a20.039 20.039 0 0 1-3.516 11.572 11.2 11.2 0 0 1 6.031 10.278c0 5.2-3.05 11-11.609 11.717-3.993.345-7.465.507-10.906.507z" transform="translate(1221.425 -319.978)" style="fill:#fff"/>
                </g>
                <g data-name="그룹 13288">
                    <path data-name="패스 8479" d="M-976.223 682.313c-3.09 0-6.248-.135-9.656-.414a11.688 11.688 0 0 1-10.27-7.479c-1.684-4.575-.37-9.776 3.429-13.575l3.369-3.369a13.232 13.232 0 0 1-2.55-1.155c-5.634-3.278-7.126-9.638-3.694-15.814 3.487-6.277 10.588-9.878 19.479-9.878 11.341 0 19.893 7.571 19.893 17.61a20.038 20.038 0 0 1-3.516 11.572 11.2 11.2 0 0 1 6.031 10.278c0 5.2-3.05 11-11.609 11.717-3.993.345-7.465.507-10.906.507z" transform="translate(1221.425 -319.873)" style="fill:#fff"/>
                </g>
                <g data-name="그룹 13289">
                    <path data-name="패스 8480" d="M-976.223 682.113c-3.09 0-6.248-.135-9.656-.414a11.687 11.687 0 0 1-10.27-7.479c-1.684-4.575-.37-9.776 3.429-13.575l3.369-3.369a13.221 13.221 0 0 1-2.55-1.155c-5.634-3.278-7.126-9.638-3.694-15.814 3.487-6.277 10.588-9.877 19.479-9.877 11.341 0 19.893 7.571 19.893 17.61a20.038 20.038 0 0 1-3.516 11.571 11.2 11.2 0 0 1 6.031 10.278c0 5.2-3.05 11-11.609 11.717-3.993.345-7.465.507-10.906.507z" transform="translate(1221.425 -319.767)" style="fill:#fff"/>
                </g>
                <g data-name="그룹 13290">
                    <path data-name="패스 8481" d="M-976.223 681.913c-3.09 0-6.248-.135-9.656-.414a11.687 11.687 0 0 1-10.27-7.479c-1.684-4.575-.37-9.776 3.429-13.575l3.369-3.369a13.221 13.221 0 0 1-2.55-1.155c-5.634-3.278-7.126-9.638-3.694-15.814 3.487-6.277 10.588-9.878 19.479-9.878 11.341 0 19.893 7.571 19.893 17.61a20.039 20.039 0 0 1-3.516 11.572 11.2 11.2 0 0 1 6.031 10.278c0 5.2-3.05 11-11.609 11.717-3.993.345-7.465.507-10.906.507z" transform="translate(1221.425 -319.662)" style="fill:#fff"/>
                </g>
                <g data-name="그룹 13291">
                    <path data-name="패스 8482" d="M-976.223 681.713c-3.09 0-6.248-.135-9.656-.414a11.688 11.688 0 0 1-10.27-7.479c-1.684-4.575-.37-9.776 3.429-13.575l3.369-3.369a13.228 13.228 0 0 1-2.55-1.155c-5.634-3.278-7.126-9.638-3.694-15.814 3.487-6.277 10.588-9.877 19.479-9.877 11.341 0 19.893 7.571 19.893 17.61a20.038 20.038 0 0 1-3.516 11.572 11.2 11.2 0 0 1 6.031 10.278c0 5.2-3.05 11-11.609 11.717-3.993.344-7.465.506-10.906.506z" transform="translate(1221.425 -319.556)" style="fill:#fff"/>
                </g>
                <g data-name="그룹 13292">
                    <path data-name="패스 8483" d="M-976.223 681.513c-3.09 0-6.248-.135-9.656-.414a11.687 11.687 0 0 1-10.27-7.479c-1.684-4.575-.37-9.776 3.429-13.575l3.369-3.369a13.221 13.221 0 0 1-2.55-1.155c-5.634-3.278-7.126-9.638-3.694-15.814 3.487-6.277 10.588-9.878 19.479-9.878 11.341 0 19.893 7.571 19.893 17.61a20.038 20.038 0 0 1-3.516 11.572 11.2 11.2 0 0 1 6.031 10.278c0 5.2-3.05 11-11.609 11.717-3.993.345-7.465.507-10.906.507z" transform="translate(1221.425 -319.451)" style="fill:#fff"/>
                </g>
                <g data-name="그룹 13293">
                    <path data-name="패스 8484" d="M-976.223 681.313c-3.09 0-6.248-.135-9.656-.414a11.688 11.688 0 0 1-10.27-7.479c-1.684-4.575-.37-9.776 3.429-13.575l3.369-3.369a13.221 13.221 0 0 1-2.55-1.155c-5.634-3.278-7.126-9.638-3.694-15.814 3.487-6.277 10.588-9.878 19.479-9.878 11.341 0 19.893 7.571 19.893 17.61a20.038 20.038 0 0 1-3.516 11.572 11.2 11.2 0 0 1 6.031 10.278c0 5.2-3.05 11-11.609 11.717-3.993.345-7.465.507-10.906.507z" transform="translate(1221.425 -319.345)" style="fill:#fff"/>
                </g>
                <g data-name="그룹 13294">
                    <path data-name="패스 8485" d="M-976.223 681.113c-3.09 0-6.248-.135-9.656-.414a11.688 11.688 0 0 1-10.27-7.479c-1.684-4.575-.37-9.776 3.429-13.575l3.369-3.369a13.221 13.221 0 0 1-2.55-1.155c-5.634-3.278-7.126-9.638-3.694-15.814 3.487-6.277 10.588-9.878 19.479-9.878 11.341 0 19.893 7.57 19.893 17.61a20.038 20.038 0 0 1-3.516 11.571 11.2 11.2 0 0 1 6.031 10.278c0 5.2-3.05 11-11.609 11.717-3.993.346-7.465.508-10.906.508z" transform="translate(1221.425 -319.24)" style="fill:#fff"/>
                </g>
                <g data-name="그룹 13295">
                    <path data-name="패스 8486" d="M-976.223 680.913c-3.09 0-6.248-.135-9.656-.414a11.687 11.687 0 0 1-10.27-7.479c-1.684-4.575-.37-9.776 3.429-13.575l3.369-3.369a13.225 13.225 0 0 1-2.55-1.155c-5.634-3.278-7.126-9.638-3.694-15.814 3.487-6.277 10.588-9.878 19.479-9.878 11.341 0 19.893 7.571 19.893 17.61a20.038 20.038 0 0 1-3.516 11.572 11.2 11.2 0 0 1 6.031 10.278c0 5.2-3.05 11-11.609 11.717-3.993.345-7.465.507-10.906.507z" transform="translate(1221.425 -319.134)" style="fill:#fff"/>
                </g>
                <g data-name="그룹 13296">
                    <path data-name="패스 8487" d="M-976.223 680.713c-3.09 0-6.248-.135-9.656-.414a11.688 11.688 0 0 1-10.27-7.479c-1.684-4.575-.37-9.776 3.429-13.575l3.369-3.369a13.221 13.221 0 0 1-2.55-1.155c-5.634-3.278-7.126-9.638-3.694-15.814 3.487-6.277 10.588-9.878 19.479-9.878 11.341 0 19.893 7.571 19.893 17.61a20.039 20.039 0 0 1-3.516 11.572 11.2 11.2 0 0 1 6.031 10.278c0 5.2-3.05 11-11.609 11.717-3.993.345-7.465.507-10.906.507z" transform="translate(1221.425 -319.029)" style="fill:#fff"/>
                </g>
            </g>
        </g>
        <g data-name="그룹 13330">
            <g data-name="그룹 13299">
                <path data-name="패스 8488" d="M-973.583 686.987c-3.024 0-6.12-.133-9.464-.406a9.233 9.233 0 0 1-8.245-5.94c-1.362-3.7-.258-7.95 2.881-11.089l6.818-6.817a10.015 10.015 0 0 1-1.124.063 10.6 10.6 0 0 1-5.35-1.478c-4.513-2.626-5.626-7.586-2.824-12.629 3.059-5.5 9.406-8.662 17.414-8.662 9.994 0 17.53 6.555 17.53 15.247a18.19 18.19 0 0 1-5.065 12.684c4.788 1.069 7.581 4.4 7.581 9.165 0 5.37-3.53 8.87-9.443 9.362-3.926.341-7.338.5-10.709.5z" transform="translate(1218.784 -324.831)" style="fill:#0015aa"/>
            </g>
            <g data-name="그룹 13300">
                <path data-name="패스 8489" d="M-973.583 686.787c-3.024 0-6.12-.133-9.464-.406a9.234 9.234 0 0 1-8.245-5.94c-1.362-3.7-.258-7.95 2.881-11.089l6.818-6.817a10 10 0 0 1-1.124.063 10.6 10.6 0 0 1-5.35-1.478c-4.513-2.626-5.626-7.586-2.824-12.629 3.059-5.5 9.406-8.662 17.414-8.662 9.994 0 17.53 6.555 17.53 15.247a18.19 18.19 0 0 1-5.065 12.684c4.788 1.069 7.581 4.4 7.581 9.165 0 5.369-3.53 8.87-9.443 9.362-3.926.341-7.338.5-10.709.5z" transform="translate(1218.784 -324.725)" style="fill:#0015aa"/>
            </g>
            <g data-name="그룹 13301">
                <path data-name="패스 8490" d="M-973.583 686.587c-3.024 0-6.12-.133-9.464-.406a9.234 9.234 0 0 1-8.245-5.94c-1.362-3.7-.258-7.95 2.881-11.089l6.818-6.817a10.015 10.015 0 0 1-1.124.063 10.6 10.6 0 0 1-5.35-1.478c-4.513-2.626-5.626-7.586-2.824-12.629 3.059-5.5 9.406-8.662 17.414-8.662 9.994 0 17.53 6.555 17.53 15.247a18.19 18.19 0 0 1-5.065 12.684c4.788 1.069 7.581 4.4 7.581 9.165 0 5.37-3.53 8.87-9.443 9.362-3.926.341-7.338.5-10.709.5z" transform="translate(1218.784 -324.62)" style="fill:#0015aa"/>
            </g>
            <g data-name="그룹 13302">
                <path data-name="패스 8491" d="M-973.583 686.387c-3.024 0-6.12-.133-9.464-.406a9.234 9.234 0 0 1-8.245-5.94c-1.362-3.7-.258-7.95 2.881-11.089l6.818-6.817a10 10 0 0 1-1.124.063 10.6 10.6 0 0 1-5.35-1.478c-4.513-2.626-5.626-7.586-2.824-12.629 3.059-5.5 9.406-8.662 17.414-8.662 9.994 0 17.53 6.555 17.53 15.247a18.19 18.19 0 0 1-5.065 12.685c4.788 1.069 7.581 4.4 7.581 9.165 0 5.369-3.53 8.87-9.443 9.362-3.926.34-7.338.499-10.709.499z" transform="translate(1218.784 -324.514)" style="fill:#0015aa"/>
            </g>
            <g data-name="그룹 13303">
                <path data-name="패스 8492" d="M-973.583 686.187c-3.024 0-6.12-.133-9.464-.406a9.234 9.234 0 0 1-8.245-5.94c-1.362-3.7-.258-7.95 2.881-11.089l6.818-6.817a10 10 0 0 1-1.124.063 10.6 10.6 0 0 1-5.35-1.478c-4.513-2.626-5.626-7.586-2.824-12.629 3.059-5.5 9.406-8.662 17.414-8.662 9.994 0 17.53 6.555 17.53 15.247a18.19 18.19 0 0 1-5.065 12.684c4.788 1.069 7.581 4.4 7.581 9.165 0 5.37-3.53 8.87-9.443 9.362-3.926.341-7.338.5-10.709.5z" transform="translate(1218.784 -324.409)" style="fill:#0015aa"/>
            </g>
            <g data-name="그룹 13304">
                <path data-name="패스 8493" d="M-973.583 685.987c-3.024 0-6.12-.133-9.464-.406a9.234 9.234 0 0 1-8.245-5.94c-1.362-3.7-.258-7.949 2.881-11.089l6.818-6.817a10.015 10.015 0 0 1-1.124.063 10.6 10.6 0 0 1-5.35-1.478c-4.513-2.626-5.626-7.586-2.824-12.629 3.059-5.5 9.406-8.662 17.414-8.662 9.994 0 17.53 6.555 17.53 15.247a18.19 18.19 0 0 1-5.065 12.684c4.788 1.069 7.581 4.4 7.581 9.165 0 5.37-3.53 8.87-9.443 9.362-3.926.341-7.338.5-10.709.5z" transform="translate(1218.784 -324.303)" style="fill:#0015aa"/>
            </g>
            <g data-name="그룹 13305">
                <path data-name="패스 8494" d="M-973.583 685.787c-3.024 0-6.12-.133-9.464-.406a9.234 9.234 0 0 1-8.245-5.94c-1.362-3.7-.258-7.95 2.881-11.089l6.818-6.817a10 10 0 0 1-1.124.063 10.6 10.6 0 0 1-5.35-1.478c-4.513-2.626-5.626-7.586-2.824-12.629 3.059-5.5 9.406-8.662 17.414-8.662 9.994 0 17.53 6.555 17.53 15.247a18.19 18.19 0 0 1-5.065 12.684c4.788 1.069 7.581 4.4 7.581 9.165 0 5.369-3.53 8.87-9.443 9.362-3.926.341-7.338.5-10.709.5z" transform="translate(1218.784 -324.198)" style="fill:#0015aa"/>
            </g>
            <g data-name="그룹 13306">
                <path data-name="패스 8495" d="M-973.583 685.587c-3.024 0-6.12-.133-9.464-.406a9.234 9.234 0 0 1-8.245-5.94c-1.362-3.7-.258-7.949 2.881-11.089l6.818-6.817a10.015 10.015 0 0 1-1.124.063 10.6 10.6 0 0 1-5.35-1.478c-4.513-2.626-5.626-7.586-2.824-12.629 3.059-5.5 9.406-8.662 17.414-8.662 9.994 0 17.53 6.555 17.53 15.247a18.19 18.19 0 0 1-5.065 12.684c4.788 1.069 7.581 4.4 7.581 9.165 0 5.37-3.53 8.87-9.443 9.362-3.926.341-7.338.5-10.709.5z" transform="translate(1218.784 -324.092)" style="fill:#0015aa"/>
            </g>
            <g data-name="그룹 13307">
                <path data-name="패스 8496" d="M-973.583 685.387c-3.024 0-6.12-.133-9.464-.406a9.234 9.234 0 0 1-8.245-5.94c-1.362-3.7-.258-7.95 2.881-11.089l6.818-6.817a9.986 9.986 0 0 1-1.124.063 10.6 10.6 0 0 1-5.35-1.478c-4.513-2.626-5.626-7.586-2.824-12.629 3.059-5.5 9.406-8.662 17.414-8.662 9.994 0 17.53 6.555 17.53 15.247a18.19 18.19 0 0 1-5.065 12.684c4.788 1.069 7.581 4.4 7.581 9.165 0 5.369-3.53 8.87-9.443 9.362-3.926.341-7.338.5-10.709.5z" transform="translate(1218.784 -323.987)" style="fill:#0015aa"/>
            </g>
            <g data-name="그룹 13308">
                <path data-name="패스 8497" d="M-973.583 685.187c-3.024 0-6.12-.133-9.464-.406a9.234 9.234 0 0 1-8.245-5.94c-1.362-3.7-.258-7.95 2.881-11.089l6.818-6.817a10.015 10.015 0 0 1-1.124.063 10.6 10.6 0 0 1-5.35-1.478c-4.513-2.626-5.626-7.586-2.824-12.629 3.059-5.5 9.406-8.662 17.414-8.662 9.994 0 17.53 6.555 17.53 15.247a18.19 18.19 0 0 1-5.065 12.684c4.788 1.069 7.581 4.4 7.581 9.165 0 5.37-3.53 8.87-9.443 9.363-3.926.34-7.338.499-10.709.499z" transform="translate(1218.784 -323.881)" style="fill:#0015aa"/>
            </g>
            <g data-name="그룹 13309">
                <path data-name="패스 8498" d="M-973.583 684.987c-3.024 0-6.12-.133-9.464-.406a9.234 9.234 0 0 1-8.245-5.94c-1.362-3.7-.258-7.95 2.881-11.089l6.818-6.817a10.015 10.015 0 0 1-1.124.063 10.6 10.6 0 0 1-5.35-1.478c-4.513-2.626-5.626-7.586-2.824-12.629 3.059-5.5 9.406-8.662 17.414-8.662 9.994 0 17.53 6.555 17.53 15.247a18.19 18.19 0 0 1-5.065 12.684c4.788 1.069 7.581 4.4 7.581 9.165 0 5.369-3.53 8.87-9.443 9.362-3.926.341-7.338.5-10.709.5z" transform="translate(1218.784 -323.776)" style="fill:#0015aa"/>
            </g>
            <g data-name="그룹 13310">
                <path data-name="패스 8499" d="M-973.583 684.787c-3.024 0-6.12-.133-9.464-.406a9.234 9.234 0 0 1-8.245-5.94c-1.362-3.7-.258-7.95 2.881-11.089l6.818-6.817a10.015 10.015 0 0 1-1.124.063 10.6 10.6 0 0 1-5.35-1.478c-4.513-2.626-5.626-7.586-2.824-12.629 3.059-5.5 9.406-8.662 17.414-8.662 9.994 0 17.53 6.555 17.53 15.247a18.19 18.19 0 0 1-5.065 12.684c4.788 1.069 7.581 4.4 7.581 9.165 0 5.37-3.53 8.87-9.443 9.362-3.926.341-7.338.5-10.709.5z" transform="translate(1218.784 -323.67)" style="fill:#0015aa"/>
            </g>
            <g data-name="그룹 13311">
                <path data-name="패스 8500" d="M-973.583 684.587c-3.024 0-6.12-.133-9.464-.406a9.234 9.234 0 0 1-8.245-5.94c-1.362-3.7-.258-7.95 2.881-11.089l6.818-6.817a10 10 0 0 1-1.124.063 10.6 10.6 0 0 1-5.35-1.478c-4.513-2.626-5.626-7.586-2.824-12.629 3.059-5.5 9.406-8.662 17.414-8.662 9.994 0 17.53 6.555 17.53 15.247a18.19 18.19 0 0 1-5.065 12.684c4.788 1.069 7.581 4.4 7.581 9.165 0 5.37-3.53 8.87-9.443 9.362-3.926.341-7.338.5-10.709.5z" transform="translate(1218.784 -323.565)" style="fill:#0015aa"/>
            </g>
            <g data-name="그룹 13312">
                <path data-name="패스 8501" d="M-973.583 684.387c-3.024 0-6.12-.133-9.464-.406a9.234 9.234 0 0 1-8.245-5.94c-1.362-3.7-.258-7.95 2.881-11.089l6.818-6.817a10.015 10.015 0 0 1-1.124.063 10.6 10.6 0 0 1-5.35-1.478c-4.513-2.626-5.626-7.586-2.824-12.629 3.059-5.5 9.406-8.662 17.414-8.662 9.994 0 17.53 6.555 17.53 15.247a18.19 18.19 0 0 1-5.065 12.684c4.788 1.069 7.581 4.4 7.581 9.165 0 5.37-3.53 8.87-9.443 9.362-3.926.341-7.338.5-10.709.5z" transform="translate(1218.784 -323.459)" style="fill:#0015aa"/>
            </g>
            <g data-name="그룹 13313">
                <path data-name="패스 8502" d="M-973.583 684.187c-3.024 0-6.12-.133-9.464-.406a9.234 9.234 0 0 1-8.245-5.94c-1.362-3.7-.258-7.95 2.881-11.089l6.818-6.817a10.015 10.015 0 0 1-1.124.063 10.6 10.6 0 0 1-5.35-1.478c-4.513-2.626-5.626-7.586-2.824-12.629 3.059-5.5 9.406-8.662 17.414-8.662 9.994 0 17.53 6.555 17.53 15.247a18.19 18.19 0 0 1-5.065 12.684c4.788 1.069 7.581 4.4 7.581 9.165 0 5.37-3.53 8.87-9.443 9.363-3.926.34-7.338.499-10.709.499z" transform="translate(1218.784 -323.354)" style="fill:#0015aa"/>
            </g>
            <g data-name="그룹 13314">
                <path data-name="패스 8503" d="M-973.583 683.987c-3.024 0-6.12-.133-9.464-.406a9.234 9.234 0 0 1-8.245-5.94c-1.362-3.7-.258-7.95 2.881-11.089l6.818-6.817a10 10 0 0 1-1.124.063 10.6 10.6 0 0 1-5.35-1.478c-4.513-2.626-5.626-7.586-2.824-12.629 3.059-5.5 9.406-8.662 17.414-8.662 9.994 0 17.53 6.555 17.53 15.247a18.19 18.19 0 0 1-5.065 12.684c4.788 1.069 7.581 4.4 7.581 9.165 0 5.369-3.53 8.87-9.443 9.362-3.926.341-7.338.5-10.709.5z" transform="translate(1218.784 -323.248)" style="fill:#0015aa"/>
            </g>
            <g data-name="그룹 13315">
                <path data-name="패스 8504" d="M-973.583 683.787c-3.024 0-6.12-.133-9.464-.406a9.234 9.234 0 0 1-8.245-5.94c-1.362-3.7-.258-7.949 2.881-11.089l6.818-6.817a10.029 10.029 0 0 1-1.124.063 10.6 10.6 0 0 1-5.35-1.478c-4.513-2.626-5.626-7.586-2.824-12.629 3.059-5.5 9.406-8.662 17.414-8.662 9.994 0 17.53 6.555 17.53 15.247a18.19 18.19 0 0 1-5.065 12.684c4.788 1.069 7.581 4.4 7.581 9.165 0 5.369-3.53 8.87-9.443 9.362-3.926.341-7.338.5-10.709.5z" transform="translate(1218.784 -323.143)" style="fill:#0015aa"/>
            </g>
            <g data-name="그룹 13316">
                <path data-name="패스 8505" d="M-973.583 683.587c-3.024 0-6.12-.133-9.464-.406a9.234 9.234 0 0 1-8.245-5.94c-1.362-3.7-.258-7.95 2.881-11.089l6.818-6.817a10 10 0 0 1-1.124.063 10.6 10.6 0 0 1-5.35-1.478c-4.513-2.626-5.626-7.586-2.824-12.629 3.059-5.5 9.406-8.662 17.414-8.662 9.994 0 17.53 6.555 17.53 15.247a18.19 18.19 0 0 1-5.065 12.684c4.788 1.069 7.581 4.4 7.581 9.165 0 5.369-3.53 8.87-9.443 9.362-3.926.341-7.338.5-10.709.5z" transform="translate(1218.784 -323.037)" style="fill:#0015aa"/>
            </g>
            <g data-name="그룹 13317">
                <path data-name="패스 8506" d="M-973.583 683.387c-3.024 0-6.12-.133-9.464-.406a9.234 9.234 0 0 1-8.245-5.94c-1.362-3.7-.258-7.949 2.881-11.089l6.818-6.817a10.029 10.029 0 0 1-1.124.063 10.6 10.6 0 0 1-5.35-1.478c-4.513-2.626-5.626-7.586-2.824-12.629 3.059-5.5 9.406-8.662 17.414-8.662 9.994 0 17.53 6.555 17.53 15.247a18.19 18.19 0 0 1-5.065 12.684c4.788 1.069 7.581 4.4 7.581 9.165 0 5.37-3.53 8.87-9.443 9.362-3.926.341-7.338.5-10.709.5z" transform="translate(1218.784 -322.932)" style="fill:#0015aa"/>
            </g>
            <g data-name="그룹 13318">
                <path data-name="패스 8507" d="M-973.583 683.187c-3.024 0-6.12-.133-9.464-.406a9.234 9.234 0 0 1-8.245-5.94c-1.362-3.7-.258-7.95 2.881-11.089l6.818-6.817a10.015 10.015 0 0 1-1.124.063 10.6 10.6 0 0 1-5.35-1.478c-4.513-2.626-5.626-7.586-2.824-12.629 3.059-5.5 9.406-8.662 17.414-8.662 9.994 0 17.53 6.555 17.53 15.247a18.19 18.19 0 0 1-5.065 12.684c4.788 1.069 7.581 4.4 7.581 9.165 0 5.369-3.53 8.87-9.443 9.362-3.926.341-7.338.5-10.709.5z" transform="translate(1218.784 -322.826)" style="fill:#0015aa"/>
            </g>
            <g data-name="그룹 13319">
                <path data-name="패스 8508" d="M-973.583 682.987c-3.024 0-6.12-.133-9.464-.406a9.234 9.234 0 0 1-8.245-5.94c-1.362-3.7-.258-7.949 2.881-11.089l6.818-6.817a9.986 9.986 0 0 1-1.124.063 10.6 10.6 0 0 1-5.35-1.478c-4.513-2.626-5.626-7.586-2.824-12.629 3.059-5.5 9.406-8.662 17.414-8.662 9.994 0 17.53 6.555 17.53 15.247a18.19 18.19 0 0 1-5.065 12.684c4.788 1.069 7.581 4.4 7.581 9.165 0 5.37-3.53 8.87-9.443 9.362-3.926.341-7.338.5-10.709.5z" transform="translate(1218.784 -322.721)" style="fill:#0015aa"/>
            </g>
            <g data-name="그룹 13320">
                <path data-name="패스 8509" d="M-973.583 682.787c-3.024 0-6.12-.133-9.464-.406a9.234 9.234 0 0 1-8.245-5.94c-1.362-3.7-.258-7.95 2.881-11.089l6.818-6.817a10 10 0 0 1-1.124.063 10.6 10.6 0 0 1-5.35-1.478c-4.513-2.626-5.626-7.586-2.824-12.629 3.059-5.5 9.406-8.662 17.414-8.662 9.994 0 17.53 6.555 17.53 15.247a18.19 18.19 0 0 1-5.065 12.684c4.788 1.069 7.581 4.4 7.581 9.165 0 5.369-3.53 8.87-9.443 9.362-3.926.341-7.338.5-10.709.5z" transform="translate(1218.784 -322.615)" style="fill:#0015aa"/>
            </g>
            <g data-name="그룹 13321">
                <path data-name="패스 8510" d="M-973.583 682.587c-3.024 0-6.12-.133-9.464-.406a9.234 9.234 0 0 1-8.245-5.94c-1.362-3.7-.258-7.95 2.881-11.089l6.818-6.817a10 10 0 0 1-1.124.063 10.6 10.6 0 0 1-5.35-1.478c-4.513-2.626-5.626-7.586-2.824-12.629 3.059-5.5 9.406-8.662 17.414-8.662 9.994 0 17.53 6.555 17.53 15.247a18.19 18.19 0 0 1-5.065 12.684c4.788 1.069 7.581 4.4 7.581 9.165 0 5.369-3.53 8.87-9.443 9.362-3.926.341-7.338.5-10.709.5z" transform="translate(1218.784 -322.51)" style="fill:#0015aa"/>
            </g>
            <g data-name="그룹 13322">
                <path data-name="패스 8511" d="M-973.583 682.387c-3.024 0-6.12-.133-9.464-.406a9.234 9.234 0 0 1-8.245-5.94c-1.362-3.7-.258-7.95 2.881-11.089l6.818-6.817a10 10 0 0 1-1.124.063 10.6 10.6 0 0 1-5.35-1.478c-4.513-2.626-5.626-7.586-2.824-12.629 3.059-5.5 9.406-8.662 17.414-8.662 9.994 0 17.53 6.555 17.53 15.247a18.19 18.19 0 0 1-5.065 12.684c4.788 1.069 7.581 4.4 7.581 9.165 0 5.37-3.53 8.87-9.443 9.362-3.926.341-7.338.5-10.709.5z" transform="translate(1218.784 -322.404)" style="fill:#0015aa"/>
            </g>
            <g data-name="그룹 13323">
                <path data-name="패스 8512" d="M-973.583 682.187c-3.024 0-6.12-.133-9.464-.406a9.234 9.234 0 0 1-8.245-5.94c-1.362-3.7-.258-7.95 2.881-11.089l6.818-6.817a10 10 0 0 1-1.124.063 10.6 10.6 0 0 1-5.35-1.478c-4.513-2.626-5.626-7.586-2.824-12.629 3.059-5.5 9.406-8.662 17.414-8.662 9.994 0 17.53 6.555 17.53 15.247a18.19 18.19 0 0 1-5.065 12.684c4.788 1.069 7.581 4.4 7.581 9.165 0 5.369-3.53 8.87-9.443 9.362-3.926.341-7.338.5-10.709.5z" transform="translate(1218.784 -322.299)" style="fill:#0015aa"/>
            </g>
            <g data-name="그룹 13324">
                <path data-name="패스 8513" d="M-973.583 681.987c-3.024 0-6.12-.133-9.464-.406a9.234 9.234 0 0 1-8.245-5.94c-1.362-3.7-.258-7.949 2.881-11.089l6.818-6.817a10.015 10.015 0 0 1-1.124.063 10.6 10.6 0 0 1-5.35-1.478c-4.513-2.626-5.626-7.586-2.824-12.629 3.059-5.5 9.406-8.662 17.414-8.662 9.994 0 17.53 6.555 17.53 15.247a18.19 18.19 0 0 1-5.065 12.684c4.788 1.069 7.581 4.4 7.581 9.165 0 5.369-3.53 8.87-9.443 9.362-3.926.341-7.338.5-10.709.5z" transform="translate(1218.784 -322.193)" style="fill:#0015aa"/>
            </g>
            <g data-name="그룹 13325">
                <path data-name="패스 8514" d="M-973.583 681.787c-3.024 0-6.12-.133-9.464-.406a9.234 9.234 0 0 1-8.245-5.94c-1.362-3.7-.258-7.95 2.881-11.089l6.818-6.817a9.986 9.986 0 0 1-1.124.063 10.6 10.6 0 0 1-5.35-1.478c-4.513-2.626-5.626-7.586-2.824-12.629 3.059-5.5 9.406-8.662 17.414-8.662 9.994 0 17.53 6.555 17.53 15.247a18.19 18.19 0 0 1-5.065 12.684c4.788 1.069 7.581 4.4 7.581 9.165 0 5.369-3.53 8.87-9.443 9.362-3.926.341-7.338.5-10.709.5z" transform="translate(1218.784 -322.088)" style="fill:#0015aa"/>
            </g>
            <g data-name="그룹 13326">
                <path data-name="패스 8515" d="M-973.583 681.587c-3.024 0-6.12-.133-9.464-.406a9.234 9.234 0 0 1-8.245-5.94c-1.362-3.7-.258-7.95 2.881-11.089l6.818-6.817a10.015 10.015 0 0 1-1.124.063 10.6 10.6 0 0 1-5.35-1.478c-4.513-2.626-5.626-7.586-2.824-12.629 3.059-5.5 9.406-8.662 17.414-8.662 9.994 0 17.53 6.555 17.53 15.247a18.19 18.19 0 0 1-5.065 12.684c4.788 1.069 7.581 4.4 7.581 9.165 0 5.37-3.53 8.87-9.443 9.362-3.926.341-7.338.5-10.709.5z" transform="translate(1218.784 -321.982)" style="fill:#0015aa"/>
            </g>
            <g data-name="그룹 13327">
                <path data-name="패스 8516" d="M-973.583 681.387c-3.024 0-6.12-.133-9.464-.406a9.234 9.234 0 0 1-8.245-5.94c-1.362-3.7-.258-7.949 2.881-11.089l6.818-6.817a10 10 0 0 1-1.124.063 10.6 10.6 0 0 1-5.35-1.478c-4.513-2.626-5.626-7.586-2.824-12.629 3.059-5.5 9.406-8.662 17.414-8.662 9.994 0 17.53 6.555 17.53 15.247a18.19 18.19 0 0 1-5.065 12.684c4.788 1.069 7.581 4.4 7.581 9.165 0 5.369-3.53 8.87-9.443 9.362-3.926.341-7.338.5-10.709.5z" transform="translate(1218.784 -321.877)" style="fill:#0015aa"/>
            </g>
            <g data-name="그룹 13328">
                <path data-name="패스 8517" d="M-973.583 681.187c-3.024 0-6.12-.133-9.464-.406a9.234 9.234 0 0 1-8.245-5.94c-1.362-3.7-.258-7.95 2.881-11.089l6.818-6.817a9.986 9.986 0 0 1-1.124.063 10.6 10.6 0 0 1-5.35-1.478c-4.513-2.626-5.626-7.586-2.824-12.629 3.059-5.5 9.406-8.662 17.414-8.662 9.994 0 17.53 6.555 17.53 15.247a18.19 18.19 0 0 1-5.065 12.684c4.788 1.069 7.581 4.4 7.581 9.165 0 5.37-3.53 8.87-9.443 9.362-3.926.341-7.338.5-10.709.5z" transform="translate(1218.784 -321.771)" style="fill:#0015aa"/>
            </g>
            <g data-name="그룹 13329">
                <path data-name="패스 8518" d="M-973.583 680.987c-3.024 0-6.12-.133-9.464-.406a9.233 9.233 0 0 1-8.245-5.94c-1.362-3.7-.258-7.949 2.881-11.089l6.818-6.817a10.015 10.015 0 0 1-1.124.063 10.6 10.6 0 0 1-5.35-1.478c-4.513-2.626-5.626-7.586-2.824-12.629 3.059-5.5 9.406-8.662 17.414-8.662 9.994 0 17.53 6.555 17.53 15.247a18.19 18.19 0 0 1-5.065 12.684c4.788 1.069 7.581 4.4 7.581 9.165 0 5.37-3.53 8.87-9.443 9.362-3.926.341-7.338.5-10.709.5z" transform="translate(1218.784 -321.666)" style="fill:#0015aa"/>
            </g>
        </g>
        <g data-name="그룹 13331" style="mix-blend-mode:screen;isolation:isolate">
            <path data-name="패스 8519" d="M-973.583 680.987c-3.024 0-6.12-.133-9.464-.406a9.233 9.233 0 0 1-8.245-5.94c-1.362-3.7-.258-7.949 2.881-11.089l6.818-6.817a10.015 10.015 0 0 1-1.124.063 10.6 10.6 0 0 1-5.35-1.478c-4.513-2.626-5.626-7.586-2.824-12.629 3.059-5.5 9.406-8.662 17.414-8.662 9.994 0 17.53 6.555 17.53 15.247a18.19 18.19 0 0 1-5.065 12.684c4.788 1.069 7.581 4.4 7.581 9.165 0 5.37-3.53 8.87-9.443 9.362-3.926.341-7.338.5-10.709.5z" transform="translate(1218.784 -321.666)" style="fill:#e4f9ff"/>
        </g>
        <g data-name="그룹 13332">
            <path data-name="패스 8520" d="M-973.045 681.042c-3.011 0-6.094-.132-9.426-.4a8.774 8.774 0 0 1-7.84-5.633c-1.3-3.525-.235-7.584 2.772-10.591l7.916-7.915a9.251 9.251 0 0 1-2.555.354 10.125 10.125 0 0 1-5.111-1.413c-4.271-2.485-5.316-7.195-2.651-11.991 2.973-5.351 9.17-8.42 17-8.42 9.724 0 17.058 6.352 17.058 14.774a17.954 17.954 0 0 1-5.532 12.986c5.064.812 8.047 4.072 8.047 8.864 0 5.1-3.368 8.421-9.01 8.892-3.916.334-7.31.493-10.668.493z" transform="translate(1218.246 -322.194)" style="fill:#008aff"/>
        </g>
        <text data-name="2" transform="translate(230.192 350.837)" style="font-size:45px;font-family:SDOdongtongBasic,Sandoll Odongtong;fill:#50c2ff"><tspan x="0" y="0">2</tspan></text>
        <text data-name="2" transform="translate(229.719 349.892)" style="font-size:45px;font-family:SDOdongtongBasic,Sandoll Odongtong;fill:#fff"><tspan x="0" y="0">2</tspan></text>
    </g>
</svg>
