<svg xmlns="http://www.w3.org/2000/svg" width="43" height="57" viewBox="0 0 43 57">
    <defs>
        <clipPath id="xdr9q43awa">
            <path data-name="사각형 6155" transform="translate(311 309)" style="stroke:#707070;fill:#fff" d="M0 0h43v57H0z"/>
        </clipPath>
    </defs>
    <g data-name="그룹 13401" transform="translate(-311 -309)" style="clip-path:url(#xdr9q43awa)">
        <g data-name="그룹 13366">
            <g data-name="그룹 13365">
                <g data-name="그룹 13334">
                    <path data-name="패스 8521" d="M-795.7 686.694c-8.685 0-15.626-3.273-19.545-9.216-3.222-4.948-2.028-11.124 2.881-15.05a13.192 13.192 0 0 1 2.783-1.705v-.007a12.879 12.879 0 0 1-2.283-1.343l-.041-.03a10.718 10.718 0 0 1-2.845-14.765c3.825-6.062 10.975-9.547 19.609-9.547 11.42 0 20.032 7.33 20.032 17.05a15.692 15.692 0 0 1-1.955 7.956 15.894 15.894 0 0 1 2.7 9.282c.005 10.392-8.569 17.375-21.336 17.375z" transform="translate(1128.039 -322.194)" style="fill:#fff"/>
                </g>
                <g data-name="그룹 13335">
                    <path data-name="패스 8522" d="M-795.7 686.494c-8.685 0-15.626-3.273-19.545-9.216-3.222-4.948-2.028-11.124 2.881-15.05a13.2 13.2 0 0 1 2.783-1.705v-.007a12.878 12.878 0 0 1-2.283-1.343l-.041-.03a10.718 10.718 0 0 1-2.845-14.765c3.825-6.062 10.975-9.547 19.609-9.547 11.42 0 20.032 7.33 20.032 17.05a15.692 15.692 0 0 1-1.955 7.956 15.894 15.894 0 0 1 2.7 9.282c.005 10.391-8.569 17.375-21.336 17.375z" transform="translate(1128.039 -322.088)" style="fill:#fff"/>
                </g>
                <g data-name="그룹 13336">
                    <path data-name="패스 8523" d="M-795.7 686.294c-8.685 0-15.626-3.273-19.545-9.216-3.222-4.947-2.028-11.124 2.881-15.05a13.2 13.2 0 0 1 2.783-1.705v-.007a12.878 12.878 0 0 1-2.283-1.343l-.041-.03a10.718 10.718 0 0 1-2.845-14.765c3.825-6.062 10.975-9.547 19.609-9.547 11.42 0 20.032 7.33 20.032 17.05a15.692 15.692 0 0 1-1.955 7.956 15.894 15.894 0 0 1 2.7 9.282c.005 10.392-8.569 17.375-21.336 17.375z" transform="translate(1128.039 -321.983)" style="fill:#fff"/>
                </g>
                <g data-name="그룹 13337">
                    <path data-name="패스 8524" d="M-795.7 686.094c-8.685 0-15.626-3.273-19.545-9.216-3.222-4.948-2.028-11.124 2.881-15.05a13.2 13.2 0 0 1 2.783-1.705v-.007a12.879 12.879 0 0 1-2.283-1.343l-.041-.03a10.718 10.718 0 0 1-2.845-14.765c3.825-6.062 10.975-9.547 19.609-9.547 11.42 0 20.032 7.33 20.032 17.05a15.692 15.692 0 0 1-1.955 7.956 15.894 15.894 0 0 1 2.7 9.282c.005 10.391-8.569 17.375-21.336 17.375z" transform="translate(1128.039 -321.877)" style="fill:#fff"/>
                </g>
                <g data-name="그룹 13338">
                    <path data-name="패스 8525" d="M-795.7 685.894c-8.685 0-15.626-3.273-19.545-9.216-3.222-4.948-2.028-11.124 2.881-15.05a13.2 13.2 0 0 1 2.783-1.705v-.007a12.878 12.878 0 0 1-2.283-1.343l-.041-.03a10.718 10.718 0 0 1-2.845-14.765c3.825-6.062 10.975-9.547 19.609-9.547 11.42 0 20.032 7.33 20.032 17.05a15.692 15.692 0 0 1-1.955 7.956 15.894 15.894 0 0 1 2.7 9.282c.005 10.392-8.569 17.375-21.336 17.375z" transform="translate(1128.039 -321.772)" style="fill:#fff"/>
                </g>
                <g data-name="그룹 13339">
                    <path data-name="패스 8526" d="M-795.7 685.694c-8.685 0-15.626-3.273-19.545-9.216-3.222-4.948-2.028-11.124 2.881-15.05a13.2 13.2 0 0 1 2.783-1.705v-.007a12.875 12.875 0 0 1-2.283-1.343l-.041-.03a10.718 10.718 0 0 1-2.845-14.765c3.825-6.062 10.975-9.547 19.609-9.547 11.42 0 20.032 7.33 20.032 17.05a15.693 15.693 0 0 1-1.955 7.956 15.894 15.894 0 0 1 2.7 9.282c.005 10.392-8.569 17.375-21.336 17.375z" transform="translate(1128.039 -321.666)" style="fill:#fff"/>
                </g>
                <g data-name="그룹 13340">
                    <path data-name="패스 8527" d="M-795.7 685.494c-8.685 0-15.626-3.273-19.545-9.216-3.222-4.948-2.028-11.124 2.881-15.05a13.193 13.193 0 0 1 2.783-1.705v-.007a12.882 12.882 0 0 1-2.283-1.343l-.041-.03a10.718 10.718 0 0 1-2.845-14.765c3.825-6.062 10.975-9.547 19.609-9.547 11.42 0 20.032 7.33 20.032 17.05a15.692 15.692 0 0 1-1.955 7.956 15.894 15.894 0 0 1 2.7 9.282c.005 10.392-8.569 17.375-21.336 17.375z" transform="translate(1128.039 -321.561)" style="fill:#fff"/>
                </g>
                <g data-name="그룹 13341">
                    <path data-name="패스 8528" d="M-795.7 685.294c-8.685 0-15.626-3.273-19.545-9.216-3.222-4.947-2.028-11.124 2.881-15.05a13.2 13.2 0 0 1 2.783-1.705v-.007a12.878 12.878 0 0 1-2.283-1.343l-.041-.03a10.718 10.718 0 0 1-2.845-14.765c3.825-6.062 10.975-9.547 19.609-9.547 11.42 0 20.032 7.33 20.032 17.05a15.692 15.692 0 0 1-1.955 7.956 15.894 15.894 0 0 1 2.7 9.282c.005 10.392-8.569 17.375-21.336 17.375z" transform="translate(1128.039 -321.455)" style="fill:#fff"/>
                </g>
                <g data-name="그룹 13342">
                    <path data-name="패스 8529" d="M-795.7 685.094c-8.685 0-15.626-3.273-19.545-9.216-3.222-4.948-2.028-11.124 2.881-15.05a13.2 13.2 0 0 1 2.783-1.705v-.007a12.882 12.882 0 0 1-2.283-1.343l-.041-.03a10.718 10.718 0 0 1-2.845-14.765c3.825-6.062 10.975-9.547 19.609-9.547 11.42 0 20.032 7.33 20.032 17.05a15.692 15.692 0 0 1-1.955 7.956 15.894 15.894 0 0 1 2.7 9.282c.005 10.392-8.569 17.375-21.336 17.375z" transform="translate(1128.039 -321.35)" style="fill:#fff"/>
                </g>
                <g data-name="그룹 13343">
                    <path data-name="패스 8530" d="M-795.7 684.894c-8.685 0-15.626-3.273-19.545-9.216-3.222-4.947-2.028-11.124 2.881-15.05a13.2 13.2 0 0 1 2.783-1.705v-.007a12.89 12.89 0 0 1-2.283-1.344l-.041-.03a10.718 10.718 0 0 1-2.845-14.765c3.825-6.062 10.975-9.547 19.609-9.547 11.42 0 20.032 7.33 20.032 17.05a15.692 15.692 0 0 1-1.955 7.956 15.894 15.894 0 0 1 2.7 9.282c.005 10.393-8.569 17.376-21.336 17.376z" transform="translate(1128.039 -321.244)" style="fill:#fff"/>
                </g>
                <g data-name="그룹 13344">
                    <path data-name="패스 8531" d="M-795.7 684.694c-8.685 0-15.626-3.273-19.545-9.216-3.222-4.948-2.028-11.124 2.881-15.05a13.2 13.2 0 0 1 2.783-1.705v-.007a12.878 12.878 0 0 1-2.283-1.343l-.041-.03a10.718 10.718 0 0 1-2.845-14.765c3.825-6.062 10.975-9.547 19.609-9.547 11.42 0 20.032 7.33 20.032 17.05a15.692 15.692 0 0 1-1.955 7.956 15.894 15.894 0 0 1 2.7 9.282c.005 10.392-8.569 17.375-21.336 17.375z" transform="translate(1128.039 -321.139)" style="fill:#fff"/>
                </g>
                <g data-name="그룹 13345">
                    <path data-name="패스 8532" d="M-795.7 684.494c-8.685 0-15.626-3.273-19.545-9.216-3.222-4.947-2.028-11.124 2.881-15.05a13.193 13.193 0 0 1 2.783-1.705v-.007a12.879 12.879 0 0 1-2.283-1.343l-.041-.03a10.718 10.718 0 0 1-2.845-14.765c3.825-6.062 10.975-9.547 19.609-9.547 11.42 0 20.032 7.33 20.032 17.05a15.692 15.692 0 0 1-1.955 7.956 15.894 15.894 0 0 1 2.7 9.282c.005 10.392-8.569 17.375-21.336 17.375z" transform="translate(1128.039 -321.033)" style="fill:#fff"/>
                </g>
                <g data-name="그룹 13346">
                    <path data-name="패스 8533" d="M-795.7 684.294c-8.685 0-15.626-3.273-19.545-9.216-3.222-4.948-2.028-11.124 2.881-15.05a13.193 13.193 0 0 1 2.783-1.705v-.007a12.886 12.886 0 0 1-2.283-1.343l-.041-.03a10.718 10.718 0 0 1-2.845-14.765c3.825-6.062 10.975-9.547 19.609-9.547 11.42 0 20.032 7.33 20.032 17.05a15.692 15.692 0 0 1-1.955 7.956 15.894 15.894 0 0 1 2.7 9.282c.005 10.392-8.569 17.375-21.336 17.375z" transform="translate(1128.039 -320.928)" style="fill:#fff"/>
                </g>
                <g data-name="그룹 13347">
                    <path data-name="패스 8534" d="M-795.7 684.094c-8.685 0-15.626-3.273-19.545-9.216-3.222-4.947-2.028-11.124 2.881-15.05a13.2 13.2 0 0 1 2.783-1.705v-.007a12.882 12.882 0 0 1-2.283-1.343l-.041-.03a10.718 10.718 0 0 1-2.845-14.765c3.825-6.062 10.975-9.547 19.609-9.547 11.42 0 20.032 7.33 20.032 17.05a15.692 15.692 0 0 1-1.955 7.956 15.894 15.894 0 0 1 2.7 9.282c.005 10.392-8.569 17.375-21.336 17.375z" transform="translate(1128.039 -320.822)" style="fill:#fff"/>
                </g>
                <g data-name="그룹 13348">
                    <path data-name="패스 8535" d="M-795.7 683.894c-8.685 0-15.626-3.273-19.545-9.216-3.222-4.948-2.028-11.124 2.881-15.05a13.193 13.193 0 0 1 2.783-1.705v-.007a12.882 12.882 0 0 1-2.283-1.343l-.041-.03a10.718 10.718 0 0 1-2.845-14.765c3.825-6.062 10.975-9.547 19.609-9.547 11.42 0 20.032 7.33 20.032 17.05a15.692 15.692 0 0 1-1.955 7.956 15.894 15.894 0 0 1 2.7 9.282c.005 10.391-8.569 17.375-21.336 17.375z" transform="translate(1128.039 -320.717)" style="fill:#fff"/>
                </g>
                <g data-name="그룹 13349">
                    <path data-name="패스 8536" d="M-795.7 683.694c-8.685 0-15.626-3.273-19.545-9.216-3.222-4.948-2.028-11.124 2.881-15.05a13.193 13.193 0 0 1 2.783-1.705v-.007a12.878 12.878 0 0 1-2.283-1.343l-.041-.03a10.718 10.718 0 0 1-2.845-14.765c3.825-6.062 10.975-9.547 19.609-9.547 11.42 0 20.032 7.33 20.032 17.05a15.692 15.692 0 0 1-1.955 7.956 15.894 15.894 0 0 1 2.7 9.282c.005 10.392-8.569 17.375-21.336 17.375z" transform="translate(1128.039 -320.611)" style="fill:#fff"/>
                </g>
                <g data-name="그룹 13350">
                    <path data-name="패스 8537" d="M-795.7 683.494c-8.685 0-15.626-3.273-19.545-9.216-3.222-4.947-2.028-11.124 2.881-15.05a13.193 13.193 0 0 1 2.783-1.705v-.007a12.887 12.887 0 0 1-2.283-1.344l-.041-.03a10.718 10.718 0 0 1-2.845-14.765c3.825-6.062 10.975-9.547 19.609-9.547 11.42 0 20.032 7.33 20.032 17.05a15.692 15.692 0 0 1-1.955 7.956 15.894 15.894 0 0 1 2.7 9.282c.005 10.393-8.569 17.376-21.336 17.376z" transform="translate(1128.039 -320.506)" style="fill:#fff"/>
                </g>
                <g data-name="그룹 13351">
                    <path data-name="패스 8538" d="M-795.7 683.294c-8.685 0-15.626-3.273-19.545-9.216-3.222-4.948-2.028-11.124 2.881-15.05a13.2 13.2 0 0 1 2.783-1.705v-.007a12.875 12.875 0 0 1-2.283-1.343l-.041-.03a10.718 10.718 0 0 1-2.845-14.765c3.825-6.062 10.975-9.547 19.609-9.547 11.42 0 20.032 7.33 20.032 17.05a15.692 15.692 0 0 1-1.955 7.956 15.894 15.894 0 0 1 2.7 9.282c.005 10.391-8.569 17.375-21.336 17.375z" transform="translate(1128.039 -320.4)" style="fill:#fff"/>
                </g>
                <g data-name="그룹 13352">
                    <path data-name="패스 8539" d="M-795.7 683.094c-8.685 0-15.626-3.273-19.545-9.216-3.222-4.947-2.028-11.124 2.881-15.05a13.19 13.19 0 0 1 2.783-1.705v-.007a12.886 12.886 0 0 1-2.283-1.343l-.041-.03a10.718 10.718 0 0 1-2.845-14.765c3.825-6.062 10.975-9.547 19.609-9.547 11.42 0 20.032 7.33 20.032 17.05a15.692 15.692 0 0 1-1.955 7.956 15.894 15.894 0 0 1 2.7 9.282c.005 10.392-8.569 17.375-21.336 17.375z" transform="translate(1128.039 -320.295)" style="fill:#fff"/>
                </g>
                <g data-name="그룹 13353">
                    <path data-name="패스 8540" d="M-795.7 682.894c-8.685 0-15.626-3.273-19.545-9.216-3.222-4.948-2.028-11.124 2.881-15.05a13.2 13.2 0 0 1 2.783-1.706v-.007a12.887 12.887 0 0 1-2.283-1.344l-.041-.03a10.718 10.718 0 0 1-2.845-14.765c3.825-6.062 10.975-9.547 19.609-9.547 11.42 0 20.032 7.33 20.032 17.05a15.692 15.692 0 0 1-1.955 7.956 15.894 15.894 0 0 1 2.7 9.282c.005 10.393-8.569 17.377-21.336 17.377z" transform="translate(1128.039 -320.189)" style="fill:#fff"/>
                </g>
                <g data-name="그룹 13354">
                    <path data-name="패스 8541" d="M-795.7 682.694c-8.685 0-15.626-3.273-19.545-9.216-3.222-4.947-2.028-11.124 2.881-15.05a13.192 13.192 0 0 1 2.783-1.705v-.007a12.879 12.879 0 0 1-2.283-1.343l-.041-.03a10.718 10.718 0 0 1-2.845-14.765c3.825-6.062 10.975-9.547 19.609-9.547 11.42 0 20.032 7.33 20.032 17.05a15.692 15.692 0 0 1-1.955 7.956 15.894 15.894 0 0 1 2.7 9.282c.005 10.392-8.569 17.375-21.336 17.375z" transform="translate(1128.039 -320.084)" style="fill:#fff"/>
                </g>
                <g data-name="그룹 13355">
                    <path data-name="패스 8542" d="M-795.7 682.494c-8.685 0-15.626-3.273-19.545-9.216-3.222-4.948-2.028-11.124 2.881-15.05a13.19 13.19 0 0 1 2.783-1.705v-.007a12.886 12.886 0 0 1-2.283-1.343l-.041-.03a10.718 10.718 0 0 1-2.845-14.765c3.825-6.062 10.975-9.547 19.609-9.547 11.42 0 20.032 7.33 20.032 17.05a15.692 15.692 0 0 1-1.955 7.956 15.894 15.894 0 0 1 2.7 9.282c.005 10.391-8.569 17.375-21.336 17.375z" transform="translate(1128.039 -319.978)" style="fill:#fff"/>
                </g>
                <g data-name="그룹 13356">
                    <path data-name="패스 8543" d="M-795.7 682.294c-8.685 0-15.626-3.273-19.545-9.216-3.222-4.948-2.028-11.124 2.881-15.05a13.2 13.2 0 0 1 2.783-1.705v-.007a12.878 12.878 0 0 1-2.283-1.343l-.041-.03a10.718 10.718 0 0 1-2.845-14.765c3.825-6.062 10.975-9.547 19.609-9.547 11.42 0 20.032 7.33 20.032 17.05a15.692 15.692 0 0 1-1.955 7.956 15.894 15.894 0 0 1 2.7 9.282c.005 10.392-8.569 17.375-21.336 17.375z" transform="translate(1128.039 -319.873)" style="fill:#fff"/>
                </g>
                <g data-name="그룹 13357">
                    <path data-name="패스 8544" d="M-795.7 682.094c-8.685 0-15.626-3.273-19.545-9.216-3.222-4.947-2.028-11.124 2.881-15.05a13.2 13.2 0 0 1 2.783-1.705v-.007a12.882 12.882 0 0 1-2.283-1.343l-.041-.03a10.718 10.718 0 0 1-2.845-14.765c3.825-6.062 10.975-9.547 19.609-9.547 11.42 0 20.032 7.33 20.032 17.05a15.692 15.692 0 0 1-1.955 7.956 15.894 15.894 0 0 1 2.7 9.282c.005 10.391-8.569 17.375-21.336 17.375z" transform="translate(1128.039 -319.767)" style="fill:#fff"/>
                </g>
                <g data-name="그룹 13358">
                    <path data-name="패스 8545" d="M-795.7 681.894c-8.685 0-15.626-3.273-19.545-9.216-3.222-4.948-2.028-11.124 2.881-15.05a13.2 13.2 0 0 1 2.783-1.705v-.007a12.875 12.875 0 0 1-2.283-1.343l-.041-.03a10.718 10.718 0 0 1-2.845-14.765c3.825-6.062 10.975-9.547 19.609-9.547 11.42 0 20.032 7.33 20.032 17.05a15.692 15.692 0 0 1-1.955 7.956 15.894 15.894 0 0 1 2.7 9.282c.005 10.392-8.569 17.375-21.336 17.375z" transform="translate(1128.039 -319.662)" style="fill:#fff"/>
                </g>
                <g data-name="그룹 13359">
                    <path data-name="패스 8546" d="M-795.7 681.694c-8.685 0-15.626-3.273-19.545-9.216-3.222-4.948-2.028-11.124 2.881-15.05a13.2 13.2 0 0 1 2.783-1.705v-.007a12.871 12.871 0 0 1-2.283-1.343l-.041-.03a10.718 10.718 0 0 1-2.845-14.765c3.825-6.062 10.975-9.547 19.609-9.547 11.42 0 20.032 7.33 20.032 17.05a15.693 15.693 0 0 1-1.955 7.956 15.893 15.893 0 0 1 2.7 9.282c.005 10.392-8.569 17.375-21.336 17.375z" transform="translate(1128.039 -319.556)" style="fill:#fff"/>
                </g>
                <g data-name="그룹 13360">
                    <path data-name="패스 8547" d="M-795.7 681.494c-8.685 0-15.626-3.273-19.545-9.216-3.222-4.948-2.028-11.124 2.881-15.05a13.191 13.191 0 0 1 2.783-1.705v-.007a12.879 12.879 0 0 1-2.283-1.344l-.041-.03a10.718 10.718 0 0 1-2.845-14.765c3.825-6.062 10.975-9.547 19.609-9.547 11.42 0 20.032 7.33 20.032 17.05a15.693 15.693 0 0 1-1.955 7.956 15.893 15.893 0 0 1 2.7 9.282c.005 10.392-8.569 17.376-21.336 17.376z" transform="translate(1128.039 -319.451)" style="fill:#fff"/>
                </g>
                <g data-name="그룹 13361">
                    <path data-name="패스 8548" d="M-795.7 681.294c-8.685 0-15.626-3.273-19.545-9.216-3.222-4.947-2.028-11.124 2.881-15.05a13.2 13.2 0 0 1 2.783-1.705v-.007a12.882 12.882 0 0 1-2.283-1.343l-.041-.03a10.718 10.718 0 0 1-2.845-14.765c3.825-6.062 10.975-9.547 19.609-9.547 11.42 0 20.032 7.33 20.032 17.05a15.692 15.692 0 0 1-1.955 7.956 15.894 15.894 0 0 1 2.7 9.282c.005 10.392-8.569 17.375-21.336 17.375z" transform="translate(1128.039 -319.345)" style="fill:#fff"/>
                </g>
                <g data-name="그룹 13362">
                    <path data-name="패스 8549" d="M-795.7 681.094c-8.685 0-15.626-3.273-19.545-9.216-3.222-4.947-2.028-11.124 2.881-15.05a13.2 13.2 0 0 1 2.783-1.705v-.007a12.886 12.886 0 0 1-2.283-1.343l-.041-.03a10.718 10.718 0 0 1-2.845-14.765c3.825-6.062 10.975-9.547 19.609-9.547 11.42 0 20.032 7.33 20.032 17.05a15.692 15.692 0 0 1-1.955 7.956 15.894 15.894 0 0 1 2.7 9.282c.005 10.391-8.569 17.375-21.336 17.375z" transform="translate(1128.039 -319.24)" style="fill:#fff"/>
                </g>
                <g data-name="그룹 13363">
                    <path data-name="패스 8550" d="M-795.7 680.894c-8.685 0-15.626-3.273-19.545-9.216-3.222-4.948-2.028-11.124 2.881-15.05a13.2 13.2 0 0 1 2.783-1.705v-.007a12.879 12.879 0 0 1-2.283-1.343l-.041-.03a10.718 10.718 0 0 1-2.845-14.765c3.825-6.062 10.975-9.547 19.609-9.547 11.42 0 20.032 7.33 20.032 17.05a15.692 15.692 0 0 1-1.955 7.956 15.894 15.894 0 0 1 2.7 9.282c.005 10.392-8.569 17.375-21.336 17.375z" transform="translate(1128.039 -319.134)" style="fill:#fff"/>
                </g>
                <g data-name="그룹 13364">
                    <path data-name="패스 8551" d="M-795.7 680.694c-8.685 0-15.626-3.273-19.545-9.216-3.222-4.948-2.028-11.124 2.881-15.05a13.2 13.2 0 0 1 2.783-1.705v-.007a12.886 12.886 0 0 1-2.283-1.343l-.041-.03a10.718 10.718 0 0 1-2.845-14.765c3.825-6.062 10.975-9.547 19.609-9.547 11.42 0 20.032 7.33 20.032 17.05a15.692 15.692 0 0 1-1.955 7.956 15.894 15.894 0 0 1 2.7 9.282c.005 10.392-8.569 17.375-21.336 17.375z" transform="translate(1128.039 -319.029)" style="fill:#fff"/>
                </g>
            </g>
        </g>
        <g data-name="그룹 13398">
            <g data-name="그룹 13367">
                <path data-name="패스 8552" d="M-793.076 686.968c-7.865 0-14.106-2.9-17.573-8.155-2.565-3.94-1.6-8.716 2.385-11.9a9.931 9.931 0 0 1 3.812-1.933 12.007 12.007 0 0 1-.144-1.874 11.381 11.381 0 0 1 .081-1.367 9.987 9.987 0 0 1-3.328-1.632c-3.934-2.932-4.843-7.595-2.287-11.624 3.386-5.367 9.808-8.45 17.614-8.45 10.073 0 17.67 6.315 17.67 14.687a12.634 12.634 0 0 1-2.55 8.111 13.036 13.036 0 0 1 3.3 9.127c-.004 8.977-7.631 15.01-18.98 15.01z" transform="translate(1125.42 -324.831)" style="fill:#0015aa"/>
            </g>
            <g data-name="그룹 13368">
                <path data-name="패스 8553" d="M-793.076 686.768c-7.865 0-14.106-2.9-17.573-8.155-2.565-3.94-1.6-8.716 2.385-11.9a9.931 9.931 0 0 1 3.812-1.933 12.008 12.008 0 0 1-.144-1.874 11.385 11.385 0 0 1 .081-1.367 9.985 9.985 0 0 1-3.328-1.632c-3.934-2.932-4.843-7.595-2.287-11.624 3.386-5.367 9.808-8.45 17.614-8.45 10.073 0 17.67 6.315 17.67 14.688a12.634 12.634 0 0 1-2.55 8.111 13.036 13.036 0 0 1 3.3 9.127c-.004 8.976-7.631 15.009-18.98 15.009z" transform="translate(1125.42 -324.725)" style="fill:#0015aa"/>
            </g>
            <g data-name="그룹 13369">
                <path data-name="패스 8554" d="M-793.076 686.568c-7.865 0-14.106-2.9-17.573-8.155-2.565-3.94-1.6-8.716 2.385-11.9a9.935 9.935 0 0 1 3.812-1.933 12.006 12.006 0 0 1-.144-1.874 11.384 11.384 0 0 1 .081-1.367 9.984 9.984 0 0 1-3.328-1.632c-3.934-2.932-4.843-7.595-2.287-11.624 3.386-5.367 9.808-8.45 17.614-8.45 10.073 0 17.67 6.315 17.67 14.688a12.634 12.634 0 0 1-2.55 8.111 13.036 13.036 0 0 1 3.3 9.127c-.004 8.976-7.631 15.009-18.98 15.009z" transform="translate(1125.42 -324.62)" style="fill:#0015aa"/>
            </g>
            <g data-name="그룹 13370">
                <path data-name="패스 8555" d="M-793.076 686.368c-7.865 0-14.106-2.9-17.573-8.155-2.565-3.94-1.6-8.715 2.385-11.9a9.93 9.93 0 0 1 3.812-1.933 12.008 12.008 0 0 1-.144-1.874 11.381 11.381 0 0 1 .081-1.367 9.985 9.985 0 0 1-3.328-1.632c-3.934-2.932-4.843-7.595-2.287-11.624 3.386-5.367 9.808-8.45 17.614-8.45 10.073 0 17.67 6.315 17.67 14.687a12.634 12.634 0 0 1-2.55 8.111 13.036 13.036 0 0 1 3.3 9.127c-.004 8.977-7.631 15.01-18.98 15.01z" transform="translate(1125.42 -324.514)" style="fill:#0015aa"/>
            </g>
            <g data-name="그룹 13371">
                <path data-name="패스 8556" d="M-793.076 686.168c-7.865 0-14.106-2.9-17.573-8.155-2.565-3.94-1.6-8.716 2.385-11.9a9.933 9.933 0 0 1 3.812-1.933 12.007 12.007 0 0 1-.144-1.874 11.385 11.385 0 0 1 .081-1.367 9.984 9.984 0 0 1-3.328-1.632c-3.934-2.932-4.843-7.595-2.287-11.624 3.386-5.367 9.808-8.45 17.614-8.45 10.073 0 17.67 6.315 17.67 14.688a12.634 12.634 0 0 1-2.55 8.111 13.036 13.036 0 0 1 3.3 9.127c-.004 8.976-7.631 15.009-18.98 15.009z" transform="translate(1125.42 -324.409)" style="fill:#0015aa"/>
            </g>
            <g data-name="그룹 13372">
                <path data-name="패스 8557" d="M-793.076 685.968c-7.865 0-14.106-2.9-17.573-8.155-2.565-3.94-1.6-8.716 2.385-11.9a9.932 9.932 0 0 1 3.812-1.933 12.007 12.007 0 0 1-.144-1.874 11.381 11.381 0 0 1 .081-1.367 9.986 9.986 0 0 1-3.328-1.632c-3.934-2.932-4.843-7.595-2.287-11.624 3.386-5.367 9.808-8.45 17.614-8.45 10.073 0 17.67 6.315 17.67 14.688a12.634 12.634 0 0 1-2.55 8.111 13.036 13.036 0 0 1 3.3 9.127c-.004 8.976-7.631 15.009-18.98 15.009z" transform="translate(1125.42 -324.303)" style="fill:#0015aa"/>
            </g>
            <g data-name="그룹 13373">
                <path data-name="패스 8558" d="M-793.076 685.768c-7.865 0-14.106-2.9-17.573-8.155-2.565-3.94-1.6-8.716 2.385-11.9a9.932 9.932 0 0 1 3.812-1.933 12.008 12.008 0 0 1-.144-1.874 11.385 11.385 0 0 1 .081-1.367 9.982 9.982 0 0 1-3.328-1.632c-3.934-2.932-4.843-7.595-2.287-11.624 3.386-5.367 9.808-8.45 17.614-8.45 10.073 0 17.67 6.315 17.67 14.688a12.634 12.634 0 0 1-2.55 8.111 13.036 13.036 0 0 1 3.3 9.127c-.004 8.976-7.631 15.009-18.98 15.009z" transform="translate(1125.42 -324.198)" style="fill:#0015aa"/>
            </g>
            <g data-name="그룹 13374">
                <path data-name="패스 8559" d="M-793.076 685.568c-7.865 0-14.106-2.9-17.573-8.155-2.565-3.94-1.6-8.716 2.385-11.9a9.933 9.933 0 0 1 3.812-1.933 12.008 12.008 0 0 1-.144-1.874 11.381 11.381 0 0 1 .081-1.367 9.986 9.986 0 0 1-3.328-1.632c-3.934-2.932-4.843-7.595-2.287-11.624 3.386-5.367 9.808-8.45 17.614-8.45 10.073 0 17.67 6.315 17.67 14.687a12.634 12.634 0 0 1-2.55 8.111 13.036 13.036 0 0 1 3.3 9.127c-.004 8.977-7.631 15.01-18.98 15.01z" transform="translate(1125.42 -324.092)" style="fill:#0015aa"/>
            </g>
            <g data-name="그룹 13375">
                <path data-name="패스 8560" d="M-793.076 685.368c-7.865 0-14.106-2.9-17.573-8.155-2.565-3.94-1.6-8.716 2.385-11.9a9.932 9.932 0 0 1 3.812-1.933 12.008 12.008 0 0 1-.144-1.874 11.381 11.381 0 0 1 .081-1.367 9.986 9.986 0 0 1-3.328-1.632c-3.934-2.932-4.843-7.595-2.287-11.624 3.386-5.367 9.808-8.45 17.614-8.45 10.073 0 17.67 6.315 17.67 14.688a12.634 12.634 0 0 1-2.55 8.111 13.037 13.037 0 0 1 3.3 9.127c-.004 8.976-7.631 15.009-18.98 15.009z" transform="translate(1125.42 -323.987)" style="fill:#0015aa"/>
            </g>
            <g data-name="그룹 13376">
                <path data-name="패스 8561" d="M-793.076 685.168c-7.865 0-14.106-2.9-17.573-8.155-2.565-3.94-1.6-8.716 2.385-11.9a9.932 9.932 0 0 1 3.812-1.933 12.008 12.008 0 0 1-.144-1.874 11.384 11.384 0 0 1 .081-1.367 9.983 9.983 0 0 1-3.328-1.632c-3.934-2.932-4.843-7.595-2.287-11.624 3.386-5.367 9.808-8.45 17.614-8.45 10.073 0 17.67 6.315 17.67 14.687a12.634 12.634 0 0 1-2.55 8.111 13.036 13.036 0 0 1 3.3 9.127c-.004 8.977-7.631 15.01-18.98 15.01z" transform="translate(1125.42 -323.881)" style="fill:#0015aa"/>
            </g>
            <g data-name="그룹 13377">
                <path data-name="패스 8562" d="M-793.076 684.968c-7.865 0-14.106-2.9-17.573-8.155-2.565-3.94-1.6-8.716 2.385-11.9a9.931 9.931 0 0 1 3.812-1.933 12.008 12.008 0 0 1-.144-1.874 11.38 11.38 0 0 1 .081-1.367 9.987 9.987 0 0 1-3.328-1.632c-3.934-2.932-4.843-7.595-2.287-11.624 3.386-5.367 9.808-8.45 17.614-8.45 10.073 0 17.67 6.315 17.67 14.688a12.634 12.634 0 0 1-2.55 8.111 13.036 13.036 0 0 1 3.3 9.127c-.004 8.976-7.631 15.009-18.98 15.009z" transform="translate(1125.42 -323.776)" style="fill:#0015aa"/>
            </g>
            <g data-name="그룹 13378">
                <path data-name="패스 8563" d="M-793.076 684.768c-7.865 0-14.106-2.9-17.573-8.155-2.565-3.94-1.6-8.716 2.385-11.9a9.932 9.932 0 0 1 3.812-1.933 12.007 12.007 0 0 1-.144-1.874 11.385 11.385 0 0 1 .081-1.367 9.984 9.984 0 0 1-3.328-1.632c-3.934-2.932-4.843-7.595-2.287-11.624 3.386-5.367 9.808-8.45 17.614-8.45 10.073 0 17.67 6.315 17.67 14.688a12.634 12.634 0 0 1-2.55 8.111 13.036 13.036 0 0 1 3.3 9.127c-.004 8.976-7.631 15.009-18.98 15.009z" transform="translate(1125.42 -323.67)" style="fill:#0015aa"/>
            </g>
            <g data-name="그룹 13379">
                <path data-name="패스 8564" d="M-793.076 684.568c-7.865 0-14.106-2.9-17.573-8.155-2.565-3.94-1.6-8.716 2.385-11.9a9.93 9.93 0 0 1 3.812-1.933 12.008 12.008 0 0 1-.144-1.874 11.382 11.382 0 0 1 .081-1.367 9.983 9.983 0 0 1-3.328-1.632c-3.934-2.932-4.843-7.595-2.287-11.624 3.386-5.367 9.808-8.45 17.614-8.45 10.073 0 17.67 6.315 17.67 14.688a12.634 12.634 0 0 1-2.55 8.111 13.036 13.036 0 0 1 3.3 9.127c-.004 8.976-7.631 15.009-18.98 15.009z" transform="translate(1125.42 -323.565)" style="fill:#0015aa"/>
            </g>
            <g data-name="그룹 13380">
                <path data-name="패스 8565" d="M-793.076 684.368c-7.865 0-14.106-2.9-17.573-8.155-2.565-3.94-1.6-8.716 2.385-11.9a9.932 9.932 0 0 1 3.812-1.933 12.008 12.008 0 0 1-.144-1.874 11.381 11.381 0 0 1 .081-1.367 9.988 9.988 0 0 1-3.328-1.632c-3.934-2.932-4.843-7.595-2.287-11.624 3.386-5.367 9.808-8.45 17.614-8.45 10.073 0 17.67 6.315 17.67 14.688a12.634 12.634 0 0 1-2.55 8.111 13.036 13.036 0 0 1 3.3 9.127c-.004 8.976-7.631 15.009-18.98 15.009z" transform="translate(1125.42 -323.459)" style="fill:#0015aa"/>
            </g>
            <g data-name="그룹 13381">
                <path data-name="패스 8566" d="M-793.076 684.168c-7.865 0-14.106-2.9-17.573-8.155-2.565-3.94-1.6-8.715 2.385-11.9a9.931 9.931 0 0 1 3.812-1.933 12.01 12.01 0 0 1-.144-1.874 11.385 11.385 0 0 1 .081-1.367 9.985 9.985 0 0 1-3.328-1.632c-3.934-2.932-4.843-7.595-2.287-11.624 3.386-5.367 9.808-8.45 17.614-8.45 10.073 0 17.67 6.315 17.67 14.688a12.634 12.634 0 0 1-2.55 8.111 13.036 13.036 0 0 1 3.3 9.127c-.004 8.976-7.631 15.009-18.98 15.009z" transform="translate(1125.42 -323.354)" style="fill:#0015aa"/>
            </g>
            <g data-name="그룹 13382">
                <path data-name="패스 8567" d="M-793.076 683.968c-7.865 0-14.106-2.9-17.573-8.155-2.565-3.94-1.6-8.716 2.385-11.9a9.93 9.93 0 0 1 3.812-1.933 12.008 12.008 0 0 1-.144-1.874 11.382 11.382 0 0 1 .081-1.367 9.988 9.988 0 0 1-3.328-1.632c-3.934-2.932-4.843-7.595-2.287-11.624 3.386-5.367 9.808-8.45 17.614-8.45 10.073 0 17.67 6.315 17.67 14.688a12.634 12.634 0 0 1-2.55 8.111 13.036 13.036 0 0 1 3.3 9.127c-.004 8.976-7.631 15.009-18.98 15.009z" transform="translate(1125.42 -323.248)" style="fill:#0015aa"/>
            </g>
            <g data-name="그룹 13383">
                <path data-name="패스 8568" d="M-793.076 683.768c-7.865 0-14.106-2.9-17.573-8.155-2.565-3.94-1.6-8.716 2.385-11.9a9.931 9.931 0 0 1 3.812-1.933 12.009 12.009 0 0 1-.144-1.874 11.385 11.385 0 0 1 .081-1.367 9.986 9.986 0 0 1-3.328-1.632c-3.934-2.932-4.843-7.595-2.287-11.624 3.386-5.367 9.808-8.45 17.614-8.45 10.073 0 17.67 6.315 17.67 14.688a12.634 12.634 0 0 1-2.55 8.111 13.036 13.036 0 0 1 3.3 9.127c-.004 8.976-7.631 15.009-18.98 15.009z" transform="translate(1125.42 -323.143)" style="fill:#0015aa"/>
            </g>
            <g data-name="그룹 13384">
                <path data-name="패스 8569" d="M-793.076 683.568c-7.865 0-14.106-2.9-17.573-8.155-2.565-3.94-1.6-8.716 2.385-11.9a9.931 9.931 0 0 1 3.812-1.933 12.009 12.009 0 0 1-.144-1.874 11.384 11.384 0 0 1 .081-1.367 9.987 9.987 0 0 1-3.328-1.632c-3.934-2.932-4.843-7.595-2.287-11.624 3.386-5.367 9.808-8.45 17.614-8.45 10.073 0 17.67 6.314 17.67 14.688a12.634 12.634 0 0 1-2.55 8.111 13.036 13.036 0 0 1 3.3 9.127c-.004 8.976-7.631 15.009-18.98 15.009z" transform="translate(1125.42 -323.037)" style="fill:#0015aa"/>
            </g>
            <g data-name="그룹 13385">
                <path data-name="패스 8570" d="M-793.076 683.368c-7.865 0-14.106-2.9-17.573-8.155-2.565-3.94-1.6-8.716 2.385-11.9a9.93 9.93 0 0 1 3.812-1.933 12.008 12.008 0 0 1-.144-1.874 11.384 11.384 0 0 1 .081-1.367 9.986 9.986 0 0 1-3.328-1.632c-3.934-2.932-4.843-7.595-2.287-11.624 3.386-5.367 9.808-8.45 17.614-8.45 10.073 0 17.67 6.315 17.67 14.687a12.634 12.634 0 0 1-2.55 8.111 13.037 13.037 0 0 1 3.3 9.127c-.004 8.977-7.631 15.01-18.98 15.01z" transform="translate(1125.42 -322.932)" style="fill:#0015aa"/>
            </g>
            <g data-name="그룹 13386">
                <path data-name="패스 8571" d="M-793.076 683.168c-7.865 0-14.106-2.9-17.573-8.155-2.565-3.94-1.6-8.715 2.385-11.9a9.933 9.933 0 0 1 3.812-1.933 12.007 12.007 0 0 1-.144-1.874 11.385 11.385 0 0 1 .081-1.367 9.985 9.985 0 0 1-3.328-1.632c-3.934-2.932-4.843-7.595-2.287-11.624 3.386-5.367 9.808-8.45 17.614-8.45 10.073 0 17.67 6.315 17.67 14.688a12.634 12.634 0 0 1-2.55 8.111 13.036 13.036 0 0 1 3.3 9.127c-.004 8.976-7.631 15.009-18.98 15.009z" transform="translate(1125.42 -322.826)" style="fill:#0015aa"/>
            </g>
            <g data-name="그룹 13387">
                <path data-name="패스 8572" d="M-793.076 682.968c-7.865 0-14.106-2.9-17.573-8.154-2.565-3.94-1.6-8.716 2.385-11.9a9.934 9.934 0 0 1 3.812-1.933 12.007 12.007 0 0 1-.144-1.874 11.383 11.383 0 0 1 .081-1.367 9.988 9.988 0 0 1-3.328-1.632c-3.934-2.932-4.843-7.595-2.287-11.624 3.386-5.367 9.808-8.45 17.614-8.45 10.073 0 17.67 6.314 17.67 14.688a12.634 12.634 0 0 1-2.55 8.111 13.036 13.036 0 0 1 3.3 9.127c-.004 8.975-7.631 15.008-18.98 15.008z" transform="translate(1125.42 -322.721)" style="fill:#0015aa"/>
            </g>
            <g data-name="그룹 13388">
                <path data-name="패스 8573" d="M-793.076 682.768c-7.865 0-14.106-2.9-17.573-8.155-2.565-3.94-1.6-8.716 2.385-11.9a9.93 9.93 0 0 1 3.812-1.933 12.008 12.008 0 0 1-.144-1.874 11.386 11.386 0 0 1 .081-1.367 9.981 9.981 0 0 1-3.328-1.632c-3.934-2.932-4.843-7.595-2.287-11.624 3.386-5.367 9.808-8.45 17.614-8.45 10.073 0 17.67 6.315 17.67 14.688a12.634 12.634 0 0 1-2.55 8.111 13.036 13.036 0 0 1 3.3 9.127c-.004 8.976-7.631 15.009-18.98 15.009z" transform="translate(1125.42 -322.615)" style="fill:#0015aa"/>
            </g>
            <g data-name="그룹 13389">
                <path data-name="패스 8574" d="M-793.076 682.568c-7.865 0-14.106-2.9-17.573-8.155-2.565-3.94-1.6-8.716 2.385-11.9a9.934 9.934 0 0 1 3.812-1.933 12.006 12.006 0 0 1-.144-1.874 11.384 11.384 0 0 1 .081-1.367 9.986 9.986 0 0 1-3.328-1.632c-3.934-2.932-4.843-7.595-2.287-11.624 3.386-5.367 9.808-8.45 17.614-8.45 10.073 0 17.67 6.315 17.67 14.687a12.634 12.634 0 0 1-2.55 8.111 13.036 13.036 0 0 1 3.3 9.127c-.004 8.977-7.631 15.01-18.98 15.01z" transform="translate(1125.42 -322.51)" style="fill:#0015aa"/>
            </g>
            <g data-name="그룹 13390">
                <path data-name="패스 8575" d="M-793.076 682.368c-7.865 0-14.106-2.9-17.573-8.155-2.565-3.94-1.6-8.715 2.385-11.9a9.931 9.931 0 0 1 3.812-1.933 12.009 12.009 0 0 1-.144-1.874 11.381 11.381 0 0 1 .081-1.367 9.985 9.985 0 0 1-3.328-1.632c-3.934-2.932-4.843-7.595-2.287-11.624 3.386-5.367 9.808-8.45 17.614-8.45 10.073 0 17.67 6.315 17.67 14.687a12.634 12.634 0 0 1-2.55 8.111 13.036 13.036 0 0 1 3.3 9.127c-.004 8.977-7.631 15.01-18.98 15.01z" transform="translate(1125.42 -322.404)" style="fill:#0015aa"/>
            </g>
            <g data-name="그룹 13391">
                <path data-name="패스 8576" d="M-793.076 682.168c-7.865 0-14.106-2.9-17.573-8.155-2.565-3.94-1.6-8.716 2.385-11.9a9.932 9.932 0 0 1 3.812-1.933 12.006 12.006 0 0 1-.144-1.874 11.386 11.386 0 0 1 .081-1.367 9.982 9.982 0 0 1-3.328-1.632c-3.934-2.932-4.843-7.595-2.287-11.624 3.386-5.367 9.808-8.45 17.614-8.45 10.073 0 17.67 6.315 17.67 14.687a12.634 12.634 0 0 1-2.55 8.111 13.036 13.036 0 0 1 3.3 9.127c-.004 8.977-7.631 15.01-18.98 15.01z" transform="translate(1125.42 -322.299)" style="fill:#0015aa"/>
            </g>
            <g data-name="그룹 13392">
                <path data-name="패스 8577" d="M-793.076 681.968c-7.865 0-14.106-2.9-17.573-8.155-2.565-3.94-1.6-8.716 2.385-11.9a9.933 9.933 0 0 1 3.812-1.933 12.006 12.006 0 0 1-.144-1.874 11.381 11.381 0 0 1 .081-1.367 9.988 9.988 0 0 1-3.328-1.632c-3.934-2.932-4.843-7.595-2.287-11.624 3.386-5.367 9.808-8.45 17.614-8.45 10.073 0 17.67 6.315 17.67 14.687a12.634 12.634 0 0 1-2.55 8.111 13.036 13.036 0 0 1 3.3 9.127c-.004 8.977-7.631 15.01-18.98 15.01z" transform="translate(1125.42 -322.193)" style="fill:#0015aa"/>
            </g>
            <g data-name="그룹 13393">
                <path data-name="패스 8578" d="M-793.076 681.768c-7.865 0-14.106-2.9-17.573-8.155-2.565-3.94-1.6-8.716 2.385-11.9a9.933 9.933 0 0 1 3.812-1.933 12.008 12.008 0 0 1-.144-1.874 11.385 11.385 0 0 1 .081-1.367 9.984 9.984 0 0 1-3.328-1.632c-3.934-2.932-4.843-7.6-2.287-11.624 3.386-5.367 9.808-8.45 17.614-8.45 10.073 0 17.67 6.315 17.67 14.688a12.634 12.634 0 0 1-2.55 8.111 13.036 13.036 0 0 1 3.3 9.127c-.004 8.976-7.631 15.009-18.98 15.009z" transform="translate(1125.42 -322.088)" style="fill:#0015aa"/>
            </g>
            <g data-name="그룹 13394">
                <path data-name="패스 8579" d="M-793.076 681.568c-7.865 0-14.106-2.9-17.573-8.155-2.565-3.94-1.6-8.716 2.385-11.9a9.933 9.933 0 0 1 3.812-1.933 12.006 12.006 0 0 1-.144-1.874 11.383 11.383 0 0 1 .081-1.367 9.984 9.984 0 0 1-3.328-1.632c-3.934-2.932-4.843-7.595-2.287-11.624 3.386-5.367 9.808-8.45 17.614-8.45 10.073 0 17.67 6.315 17.67 14.688a12.634 12.634 0 0 1-2.55 8.111 13.036 13.036 0 0 1 3.3 9.127c-.004 8.976-7.631 15.009-18.98 15.009z" transform="translate(1125.42 -321.982)" style="fill:#0015aa"/>
            </g>
            <g data-name="그룹 13395">
                <path data-name="패스 8580" d="M-793.076 681.368c-7.865 0-14.106-2.9-17.573-8.155-2.565-3.939-1.6-8.715 2.385-11.9a9.931 9.931 0 0 1 3.812-1.933 12.008 12.008 0 0 1-.144-1.874 11.38 11.38 0 0 1 .081-1.367 9.986 9.986 0 0 1-3.328-1.632c-3.934-2.932-4.843-7.6-2.287-11.624 3.386-5.367 9.808-8.45 17.614-8.45 10.073 0 17.67 6.315 17.67 14.688a12.634 12.634 0 0 1-2.55 8.111 13.037 13.037 0 0 1 3.3 9.127c-.004 8.976-7.631 15.009-18.98 15.009z" transform="translate(1125.42 -321.877)" style="fill:#0015aa"/>
            </g>
            <g data-name="그룹 13396">
                <path data-name="패스 8581" d="M-793.076 681.168c-7.865 0-14.106-2.9-17.573-8.155-2.565-3.94-1.6-8.716 2.385-11.9a9.932 9.932 0 0 1 3.812-1.933 12.008 12.008 0 0 1-.144-1.874 11.385 11.385 0 0 1 .081-1.367 9.984 9.984 0 0 1-3.328-1.632c-3.934-2.932-4.843-7.595-2.287-11.624 3.386-5.367 9.808-8.45 17.614-8.45 10.073 0 17.67 6.315 17.67 14.688a12.634 12.634 0 0 1-2.55 8.111 13.036 13.036 0 0 1 3.3 9.127c-.004 8.976-7.631 15.009-18.98 15.009z" transform="translate(1125.42 -321.771)" style="fill:#0015aa"/>
            </g>
            <g data-name="그룹 13397">
                <path data-name="패스 8582" d="M-793.076 680.968c-7.865 0-14.106-2.9-17.573-8.155-2.565-3.94-1.6-8.716 2.385-11.9a9.931 9.931 0 0 1 3.812-1.933 12.008 12.008 0 0 1-.144-1.874 11.382 11.382 0 0 1 .081-1.367 9.985 9.985 0 0 1-3.328-1.632c-3.934-2.932-4.843-7.595-2.287-11.624 3.386-5.367 9.808-8.45 17.614-8.45 10.073 0 17.67 6.315 17.67 14.688a12.634 12.634 0 0 1-2.55 8.111 13.036 13.036 0 0 1 3.3 9.127c-.004 8.976-7.631 15.009-18.98 15.009z" transform="translate(1125.42 -321.666)" style="fill:#0015aa"/>
            </g>
        </g>
        <g data-name="그룹 13399" style="isolation:isolate;mix-blend-mode:screen">
            <path data-name="패스 8583" d="M-793.076 680.968c-7.865 0-14.106-2.9-17.573-8.155-2.565-3.94-1.6-8.716 2.385-11.9a9.931 9.931 0 0 1 3.812-1.933 12.008 12.008 0 0 1-.144-1.874 11.382 11.382 0 0 1 .081-1.367 9.985 9.985 0 0 1-3.328-1.632c-3.934-2.932-4.843-7.595-2.287-11.624 3.386-5.367 9.808-8.45 17.614-8.45 10.073 0 17.67 6.315 17.67 14.688a12.634 12.634 0 0 1-2.55 8.111 13.036 13.036 0 0 1 3.3 9.127c-.004 8.976-7.631 15.009-18.98 15.009z" transform="translate(1125.42 -321.666)" style="fill:#e4f9ff"/>
        </g>
        <g data-name="그룹 13400" style="isolation:isolate">
            <path data-name="패스 8584" d="M-792.542 681.023c-7.7 0-13.8-2.82-17.179-7.941-2.424-3.723-1.5-8.247 2.286-11.276a9.244 9.244 0 0 1 4.063-1.934 11.306 11.306 0 0 1-.218-2.242 10.668 10.668 0 0 1 .138-1.726 9.357 9.357 0 0 1-3.577-1.654 7.889 7.889 0 0 1-2.171-10.99c3.3-5.228 9.575-8.231 17.215-8.231 9.8 0 17.2 6.111 17.2 14.215a12.04 12.04 0 0 1-2.7 8.1 12.4 12.4 0 0 1 3.442 9.134c.002 8.701-7.433 14.545-18.499 14.545z" transform="translate(1124.886 -322.194)" style="fill:#008aff"/>
        </g>
        <text data-name="3" transform="translate(317.452 350.737)" style="font-size:45px;font-family:SDOdongtongBasic,Sandoll Odongtong;fill:#50c2ff"><tspan x="0" y="0">3</tspan></text>
        <text data-name="3" transform="translate(316.98 349.792)" style="font-size:45px;font-family:SDOdongtongBasic,Sandoll Odongtong;fill:#fff"><tspan x="0" y="0">3</tspan></text>
    </g>
</svg>
