<svg xmlns="http://www.w3.org/2000/svg" width="45" height="57" viewBox="0 0 45 57">
    <defs>
        <clipPath id="iiop6ngbua">
            <path data-name="사각형 6160" transform="translate(735 309)" style="stroke:#707070;fill:#fff" d="M0 0h45v57H0z"/>
        </clipPath>
    </defs>
    <g data-name="그룹 13741" transform="translate(-735 -309)" style="clip-path:url(#iiop6ngbua)">
        <g data-name="그룹 13706">
            <g data-name="그룹 13705">
                <g data-name="그룹 13674">
                    <path data-name="패스 8841" d="M99.953 686.694c-13.153 0-21.989-7.021-21.989-17.47a15.7 15.7 0 0 1 3.069-9.52 15.127 15.127 0 0 1-2.044-7.671c0-8.464 6.482-17 20.964-17 12.511 0 20.917 6.833 20.917 17a15.132 15.132 0 0 1-2.044 7.671 15.7 15.7 0 0 1 3.069 9.52c.005 10.449-8.817 17.47-21.942 17.47z" transform="translate(657.036 -322.194)" style="fill:#fff"/>
                </g>
                <g data-name="그룹 13675">
                    <path data-name="패스 8842" d="M99.953 686.494c-13.153 0-21.989-7.021-21.989-17.47a15.7 15.7 0 0 1 3.069-9.52 15.126 15.126 0 0 1-2.044-7.671c0-8.464 6.482-17 20.964-17 12.511 0 20.917 6.833 20.917 17a15.131 15.131 0 0 1-2.044 7.671 15.7 15.7 0 0 1 3.069 9.52c.005 10.449-8.817 17.47-21.942 17.47z" transform="translate(657.036 -322.088)" style="fill:#fff"/>
                </g>
                <g data-name="그룹 13676">
                    <path data-name="패스 8843" d="M99.953 686.294c-13.153 0-21.989-7.021-21.989-17.47a15.7 15.7 0 0 1 3.069-9.52 15.126 15.126 0 0 1-2.044-7.671c0-8.464 6.482-17 20.964-17 12.511 0 20.917 6.833 20.917 17a15.131 15.131 0 0 1-2.044 7.671 15.7 15.7 0 0 1 3.069 9.52c.005 10.449-8.817 17.47-21.942 17.47z" transform="translate(657.036 -321.983)" style="fill:#fff"/>
                </g>
                <g data-name="그룹 13677">
                    <path data-name="패스 8844" d="M99.953 686.094c-13.153 0-21.989-7.02-21.989-17.47a15.7 15.7 0 0 1 3.069-9.52 15.127 15.127 0 0 1-2.044-7.671c0-8.464 6.482-17 20.964-17 12.511 0 20.917 6.833 20.917 17a15.132 15.132 0 0 1-2.044 7.671 15.7 15.7 0 0 1 3.069 9.52c.005 10.449-8.817 17.47-21.942 17.47z" transform="translate(657.036 -321.877)" style="fill:#fff"/>
                </g>
                <g data-name="그룹 13678">
                    <path data-name="패스 8845" d="M99.953 685.894c-13.153 0-21.989-7.021-21.989-17.47a15.7 15.7 0 0 1 3.069-9.52 15.126 15.126 0 0 1-2.044-7.671c0-8.464 6.482-17 20.964-17 12.511 0 20.917 6.833 20.917 17a15.131 15.131 0 0 1-2.044 7.671 15.7 15.7 0 0 1 3.069 9.52c.005 10.449-8.817 17.47-21.942 17.47z" transform="translate(657.036 -321.772)" style="fill:#fff"/>
                </g>
                <g data-name="그룹 13679">
                    <path data-name="패스 8846" d="M99.953 685.694c-13.153 0-21.989-7.02-21.989-17.47a15.7 15.7 0 0 1 3.069-9.52 15.126 15.126 0 0 1-2.044-7.671c0-8.464 6.482-17 20.964-17 12.511 0 20.917 6.833 20.917 17a15.131 15.131 0 0 1-2.044 7.671 15.7 15.7 0 0 1 3.069 9.52c.005 10.449-8.817 17.47-21.942 17.47z" transform="translate(657.036 -321.666)" style="fill:#fff"/>
                </g>
                <g data-name="그룹 13680">
                    <path data-name="패스 8847" d="M99.953 685.494c-13.153 0-21.989-7.021-21.989-17.47a15.7 15.7 0 0 1 3.069-9.52 15.127 15.127 0 0 1-2.044-7.671c0-8.464 6.482-17 20.964-17 12.511 0 20.917 6.833 20.917 17a15.131 15.131 0 0 1-2.044 7.671 15.7 15.7 0 0 1 3.069 9.52c.005 10.449-8.817 17.47-21.942 17.47z" transform="translate(657.036 -321.561)" style="fill:#fff"/>
                </g>
                <g data-name="그룹 13681">
                    <path data-name="패스 8848" d="M99.953 685.294c-13.153 0-21.989-7.021-21.989-17.47a15.7 15.7 0 0 1 3.069-9.52 15.126 15.126 0 0 1-2.044-7.671c0-8.464 6.482-17 20.964-17 12.511 0 20.917 6.833 20.917 17a15.131 15.131 0 0 1-2.044 7.671 15.7 15.7 0 0 1 3.069 9.52c.005 10.449-8.817 17.47-21.942 17.47z" transform="translate(657.036 -321.455)" style="fill:#fff"/>
                </g>
                <g data-name="그룹 13682">
                    <path data-name="패스 8849" d="M99.953 685.094c-13.153 0-21.989-7.02-21.989-17.47a15.7 15.7 0 0 1 3.069-9.52 15.127 15.127 0 0 1-2.044-7.671c0-8.464 6.482-17 20.964-17 12.511 0 20.917 6.833 20.917 17a15.132 15.132 0 0 1-2.044 7.671 15.7 15.7 0 0 1 3.069 9.52c.005 10.449-8.817 17.47-21.942 17.47z" transform="translate(657.036 -321.35)" style="fill:#fff"/>
                </g>
                <g data-name="그룹 13683">
                    <path data-name="패스 8850" d="M99.953 684.894c-13.153 0-21.989-7.021-21.989-17.47a15.7 15.7 0 0 1 3.069-9.52 15.126 15.126 0 0 1-2.044-7.671c0-8.464 6.482-17 20.964-17 12.511 0 20.917 6.833 20.917 17a15.131 15.131 0 0 1-2.044 7.671 15.7 15.7 0 0 1 3.069 9.52c.005 10.449-8.817 17.47-21.942 17.47z" transform="translate(657.036 -321.244)" style="fill:#fff"/>
                </g>
                <g data-name="그룹 13684">
                    <path data-name="패스 8851" d="M99.953 684.694c-13.153 0-21.989-7.021-21.989-17.47a15.7 15.7 0 0 1 3.069-9.52 15.127 15.127 0 0 1-2.044-7.671c0-8.464 6.482-17 20.964-17 12.511 0 20.917 6.833 20.917 17a15.132 15.132 0 0 1-2.044 7.671 15.7 15.7 0 0 1 3.069 9.52c.005 10.449-8.817 17.47-21.942 17.47z" transform="translate(657.036 -321.139)" style="fill:#fff"/>
                </g>
                <g data-name="그룹 13685">
                    <path data-name="패스 8852" d="M99.953 684.494c-13.153 0-21.989-7.021-21.989-17.47a15.7 15.7 0 0 1 3.069-9.52 15.126 15.126 0 0 1-2.044-7.671c0-8.464 6.482-17 20.964-17 12.511 0 20.917 6.833 20.917 17a15.131 15.131 0 0 1-2.044 7.671 15.7 15.7 0 0 1 3.069 9.52c.005 10.449-8.817 17.47-21.942 17.47z" transform="translate(657.036 -321.033)" style="fill:#fff"/>
                </g>
                <g data-name="그룹 13686">
                    <path data-name="패스 8853" d="M99.953 684.294c-13.153 0-21.989-7.021-21.989-17.47a15.7 15.7 0 0 1 3.069-9.52 15.126 15.126 0 0 1-2.044-7.671c0-8.464 6.482-17 20.964-17 12.511 0 20.917 6.833 20.917 17a15.131 15.131 0 0 1-2.044 7.671 15.7 15.7 0 0 1 3.069 9.52c.005 10.449-8.817 17.47-21.942 17.47z" transform="translate(657.036 -320.928)" style="fill:#fff"/>
                </g>
                <g data-name="그룹 13687">
                    <path data-name="패스 8854" d="M99.953 684.094c-13.153 0-21.989-7.021-21.989-17.47a15.7 15.7 0 0 1 3.069-9.52 15.126 15.126 0 0 1-2.044-7.671c0-8.464 6.482-17 20.964-17 12.511 0 20.917 6.833 20.917 17a15.131 15.131 0 0 1-2.044 7.671 15.7 15.7 0 0 1 3.069 9.52c.005 10.449-8.817 17.47-21.942 17.47z" transform="translate(657.036 -320.822)" style="fill:#fff"/>
                </g>
                <g data-name="그룹 13688">
                    <path data-name="패스 8855" d="M99.953 683.894c-13.153 0-21.989-7.021-21.989-17.47a15.7 15.7 0 0 1 3.069-9.52 15.126 15.126 0 0 1-2.044-7.671c0-8.464 6.482-17 20.964-17 12.511 0 20.917 6.833 20.917 17a15.131 15.131 0 0 1-2.044 7.671 15.7 15.7 0 0 1 3.069 9.52c.005 10.449-8.817 17.47-21.942 17.47z" transform="translate(657.036 -320.717)" style="fill:#fff"/>
                </g>
                <g data-name="그룹 13689">
                    <path data-name="패스 8856" d="M99.953 683.694c-13.153 0-21.989-7.02-21.989-17.47a15.7 15.7 0 0 1 3.069-9.52 15.127 15.127 0 0 1-2.044-7.671c0-8.464 6.482-17 20.964-17 12.511 0 20.917 6.833 20.917 17a15.131 15.131 0 0 1-2.044 7.671 15.7 15.7 0 0 1 3.069 9.52c.005 10.449-8.817 17.47-21.942 17.47z" transform="translate(657.036 -320.611)" style="fill:#fff"/>
                </g>
                <g data-name="그룹 13690">
                    <path data-name="패스 8857" d="M99.953 683.494c-13.153 0-21.989-7.021-21.989-17.47a15.7 15.7 0 0 1 3.069-9.52 15.126 15.126 0 0 1-2.044-7.671c0-8.464 6.482-17 20.964-17 12.511 0 20.917 6.833 20.917 17a15.131 15.131 0 0 1-2.044 7.671 15.7 15.7 0 0 1 3.069 9.52c.005 10.449-8.817 17.47-21.942 17.47z" transform="translate(657.036 -320.506)" style="fill:#fff"/>
                </g>
                <g data-name="그룹 13691">
                    <path data-name="패스 8858" d="M99.953 683.294c-13.153 0-21.989-7.021-21.989-17.47a15.7 15.7 0 0 1 3.069-9.52 15.127 15.127 0 0 1-2.044-7.671c0-8.464 6.482-17 20.964-17 12.511 0 20.917 6.833 20.917 17a15.131 15.131 0 0 1-2.044 7.671 15.7 15.7 0 0 1 3.069 9.52c.005 10.449-8.817 17.47-21.942 17.47z" transform="translate(657.036 -320.4)" style="fill:#fff"/>
                </g>
                <g data-name="그룹 13692">
                    <path data-name="패스 8859" d="M99.953 683.094c-13.153 0-21.989-7.021-21.989-17.47a15.7 15.7 0 0 1 3.069-9.52 15.127 15.127 0 0 1-2.044-7.671c0-8.464 6.482-17 20.964-17 12.511 0 20.917 6.833 20.917 17a15.132 15.132 0 0 1-2.044 7.671 15.7 15.7 0 0 1 3.069 9.52c.005 10.449-8.817 17.47-21.942 17.47z" transform="translate(657.036 -320.295)" style="fill:#fff"/>
                </g>
                <g data-name="그룹 13693">
                    <path data-name="패스 8860" d="M99.953 682.894c-13.153 0-21.989-7.021-21.989-17.47a15.7 15.7 0 0 1 3.069-9.52 15.126 15.126 0 0 1-2.044-7.671c0-8.464 6.482-17 20.964-17 12.511 0 20.917 6.833 20.917 17a15.131 15.131 0 0 1-2.044 7.671 15.7 15.7 0 0 1 3.069 9.52c.005 10.449-8.817 17.47-21.942 17.47z" transform="translate(657.036 -320.189)" style="fill:#fff"/>
                </g>
                <g data-name="그룹 13694">
                    <path data-name="패스 8861" d="M99.953 682.694c-13.153 0-21.989-7.021-21.989-17.47a15.7 15.7 0 0 1 3.069-9.52 15.127 15.127 0 0 1-2.044-7.671c0-8.464 6.482-17 20.964-17 12.511 0 20.917 6.833 20.917 17a15.132 15.132 0 0 1-2.044 7.671 15.7 15.7 0 0 1 3.069 9.52c.005 10.449-8.817 17.47-21.942 17.47z" transform="translate(657.036 -320.084)" style="fill:#fff"/>
                </g>
                <g data-name="그룹 13695">
                    <path data-name="패스 8862" d="M99.953 682.494c-13.153 0-21.989-7.021-21.989-17.47a15.7 15.7 0 0 1 3.069-9.52 15.126 15.126 0 0 1-2.044-7.671c0-8.464 6.482-17 20.964-17 12.511 0 20.917 6.833 20.917 17a15.131 15.131 0 0 1-2.044 7.671 15.7 15.7 0 0 1 3.069 9.52c.005 10.449-8.817 17.47-21.942 17.47z" transform="translate(657.036 -319.978)" style="fill:#fff"/>
                </g>
                <g data-name="그룹 13696">
                    <path data-name="패스 8863" d="M99.953 682.294c-13.153 0-21.989-7.021-21.989-17.47a15.7 15.7 0 0 1 3.069-9.52 15.126 15.126 0 0 1-2.044-7.671c0-8.464 6.482-17 20.964-17 12.511 0 20.917 6.833 20.917 17a15.131 15.131 0 0 1-2.044 7.671 15.7 15.7 0 0 1 3.069 9.52c.005 10.449-8.817 17.47-21.942 17.47z" transform="translate(657.036 -319.873)" style="fill:#fff"/>
                </g>
                <g data-name="그룹 13697">
                    <path data-name="패스 8864" d="M99.953 682.094c-13.153 0-21.989-7.02-21.989-17.47a15.7 15.7 0 0 1 3.069-9.52 15.127 15.127 0 0 1-2.044-7.671c0-8.464 6.482-17 20.964-17 12.511 0 20.917 6.833 20.917 17a15.132 15.132 0 0 1-2.044 7.671 15.7 15.7 0 0 1 3.069 9.52c.005 10.449-8.817 17.47-21.942 17.47z" transform="translate(657.036 -319.767)" style="fill:#fff"/>
                </g>
                <g data-name="그룹 13698">
                    <path data-name="패스 8865" d="M99.953 681.894c-13.153 0-21.989-7.021-21.989-17.47a15.7 15.7 0 0 1 3.069-9.52 15.127 15.127 0 0 1-2.044-7.671c0-8.464 6.482-17 20.964-17 12.511 0 20.917 6.833 20.917 17a15.131 15.131 0 0 1-2.044 7.671 15.7 15.7 0 0 1 3.069 9.52c.005 10.449-8.817 17.47-21.942 17.47z" transform="translate(657.036 -319.662)" style="fill:#fff"/>
                </g>
                <g data-name="그룹 13699">
                    <path data-name="패스 8866" d="M99.953 681.694c-13.153 0-21.989-7.021-21.989-17.47a15.7 15.7 0 0 1 3.069-9.52 15.126 15.126 0 0 1-2.044-7.671c0-8.464 6.482-17 20.964-17 12.511 0 20.917 6.833 20.917 17a15.131 15.131 0 0 1-2.044 7.671 15.7 15.7 0 0 1 3.069 9.52c.005 10.449-8.817 17.47-21.942 17.47z" transform="translate(657.036 -319.556)" style="fill:#fff"/>
                </g>
                <g data-name="그룹 13700">
                    <path data-name="패스 8867" d="M99.953 681.494c-13.153 0-21.989-7.021-21.989-17.47a15.7 15.7 0 0 1 3.069-9.52 15.127 15.127 0 0 1-2.044-7.671c0-8.464 6.482-17 20.964-17 12.511 0 20.917 6.833 20.917 17a15.132 15.132 0 0 1-2.044 7.671 15.7 15.7 0 0 1 3.069 9.52c.005 10.449-8.817 17.47-21.942 17.47z" transform="translate(657.036 -319.451)" style="fill:#fff"/>
                </g>
                <g data-name="그룹 13701">
                    <path data-name="패스 8868" d="M99.953 681.294c-13.153 0-21.989-7.021-21.989-17.47a15.7 15.7 0 0 1 3.069-9.52 15.126 15.126 0 0 1-2.044-7.671c0-8.464 6.482-17 20.964-17 12.511 0 20.917 6.833 20.917 17a15.131 15.131 0 0 1-2.044 7.671 15.7 15.7 0 0 1 3.069 9.52c.005 10.449-8.817 17.47-21.942 17.47z" transform="translate(657.036 -319.345)" style="fill:#fff"/>
                </g>
                <g data-name="그룹 13702">
                    <path data-name="패스 8869" d="M99.953 681.094c-13.153 0-21.989-7.021-21.989-17.47a15.7 15.7 0 0 1 3.069-9.52 15.126 15.126 0 0 1-2.044-7.671c0-8.464 6.482-17 20.964-17 12.511 0 20.917 6.833 20.917 17a15.131 15.131 0 0 1-2.044 7.671 15.7 15.7 0 0 1 3.069 9.52c.005 10.449-8.817 17.47-21.942 17.47z" transform="translate(657.036 -319.24)" style="fill:#fff"/>
                </g>
                <g data-name="그룹 13703">
                    <path data-name="패스 8870" d="M99.953 680.894c-13.153 0-21.989-7.021-21.989-17.47a15.7 15.7 0 0 1 3.069-9.52 15.126 15.126 0 0 1-2.044-7.671c0-8.464 6.482-17 20.964-17 12.511 0 20.917 6.833 20.917 17a15.131 15.131 0 0 1-2.044 7.671 15.7 15.7 0 0 1 3.069 9.52c.005 10.449-8.817 17.47-21.942 17.47z" transform="translate(657.036 -319.134)" style="fill:#fff"/>
                </g>
                <g data-name="그룹 13704">
                    <path data-name="패스 8871" d="M99.953 680.694c-13.153 0-21.989-7.02-21.989-17.47a15.7 15.7 0 0 1 3.069-9.52 15.127 15.127 0 0 1-2.044-7.671c0-8.464 6.482-17 20.964-17 12.511 0 20.917 6.833 20.917 17a15.132 15.132 0 0 1-2.044 7.671 15.7 15.7 0 0 1 3.069 9.52c.005 10.449-8.817 17.47-21.942 17.47z" transform="translate(657.036 -319.029)" style="fill:#fff"/>
                </g>
            </g>
        </g>
        <g data-name="그룹 13738">
            <g data-name="그룹 13707">
                <path data-name="패스 8872" d="M102.59 686.968c-11.739 0-19.626-6.071-19.626-15.107a12.923 12.923 0 0 1 3.65-9.328 12.636 12.636 0 0 1-2.625-7.863c0-8.758 7.475-14.642 18.6-14.642 11.1 0 18.555 5.884 18.555 14.642a12.633 12.633 0 0 1-2.626 7.863 12.921 12.921 0 0 1 3.651 9.328c.001 9.039-7.869 15.107-19.579 15.107z" transform="translate(654.399 -324.831)" style="fill:#0015aa"/>
            </g>
            <g data-name="그룹 13708">
                <path data-name="패스 8873" d="M102.59 686.768c-11.739 0-19.626-6.071-19.626-15.107a12.923 12.923 0 0 1 3.65-9.328 12.635 12.635 0 0 1-2.625-7.863c0-8.758 7.475-14.642 18.6-14.642 11.1 0 18.555 5.884 18.555 14.642a12.633 12.633 0 0 1-2.626 7.863 12.921 12.921 0 0 1 3.651 9.328c.001 9.039-7.869 15.107-19.579 15.107z" transform="translate(654.399 -324.725)" style="fill:#0015aa"/>
            </g>
            <g data-name="그룹 13709">
                <path data-name="패스 8874" d="M102.59 686.568c-11.739 0-19.626-6.071-19.626-15.107a12.923 12.923 0 0 1 3.65-9.328 12.635 12.635 0 0 1-2.625-7.863c0-8.758 7.475-14.642 18.6-14.642 11.1 0 18.555 5.884 18.555 14.642a12.633 12.633 0 0 1-2.626 7.863 12.921 12.921 0 0 1 3.651 9.328c.001 9.039-7.869 15.107-19.579 15.107z" transform="translate(654.399 -324.62)" style="fill:#0015aa"/>
            </g>
            <g data-name="그룹 13710">
                <path data-name="패스 8875" d="M102.59 686.368c-11.739 0-19.626-6.071-19.626-15.107a12.923 12.923 0 0 1 3.65-9.328 12.635 12.635 0 0 1-2.625-7.863c0-8.758 7.475-14.642 18.6-14.642 11.1 0 18.555 5.884 18.555 14.642a12.633 12.633 0 0 1-2.626 7.863 12.921 12.921 0 0 1 3.651 9.328c.001 9.039-7.869 15.107-19.579 15.107z" transform="translate(654.399 -324.514)" style="fill:#0015aa"/>
            </g>
            <g data-name="그룹 13711">
                <path data-name="패스 8876" d="M102.59 686.168c-11.739 0-19.626-6.071-19.626-15.107a12.923 12.923 0 0 1 3.65-9.328 12.635 12.635 0 0 1-2.625-7.863c0-8.758 7.475-14.642 18.6-14.642 11.1 0 18.555 5.884 18.555 14.642a12.633 12.633 0 0 1-2.626 7.863 12.921 12.921 0 0 1 3.651 9.328c.001 9.039-7.869 15.107-19.579 15.107z" transform="translate(654.399 -324.409)" style="fill:#0015aa"/>
            </g>
            <g data-name="그룹 13712">
                <path data-name="패스 8877" d="M102.59 685.968c-11.739 0-19.626-6.071-19.626-15.107a12.923 12.923 0 0 1 3.65-9.328 12.636 12.636 0 0 1-2.625-7.863c0-8.758 7.475-14.642 18.6-14.642 11.1 0 18.555 5.884 18.555 14.642a12.633 12.633 0 0 1-2.626 7.863 12.921 12.921 0 0 1 3.651 9.328c.001 9.039-7.869 15.107-19.579 15.107z" transform="translate(654.399 -324.303)" style="fill:#0015aa"/>
            </g>
            <g data-name="그룹 13713">
                <path data-name="패스 8878" d="M102.59 685.768c-11.739 0-19.626-6.071-19.626-15.107a12.923 12.923 0 0 1 3.65-9.328 12.635 12.635 0 0 1-2.625-7.863c0-8.758 7.475-14.642 18.6-14.642 11.1 0 18.555 5.884 18.555 14.642a12.633 12.633 0 0 1-2.626 7.863 12.921 12.921 0 0 1 3.651 9.328c.001 9.039-7.869 15.107-19.579 15.107z" transform="translate(654.399 -324.198)" style="fill:#0015aa"/>
            </g>
            <g data-name="그룹 13714">
                <path data-name="패스 8879" d="M102.59 685.568c-11.739 0-19.626-6.071-19.626-15.107a12.923 12.923 0 0 1 3.65-9.328 12.636 12.636 0 0 1-2.625-7.863c0-8.758 7.475-14.642 18.6-14.642 11.1 0 18.555 5.884 18.555 14.642a12.633 12.633 0 0 1-2.626 7.863 12.921 12.921 0 0 1 3.651 9.328c.001 9.039-7.869 15.107-19.579 15.107z" transform="translate(654.399 -324.092)" style="fill:#0015aa"/>
            </g>
            <g data-name="그룹 13715">
                <path data-name="패스 8880" d="M102.59 685.368c-11.739 0-19.626-6.071-19.626-15.107a12.923 12.923 0 0 1 3.65-9.328 12.635 12.635 0 0 1-2.625-7.863c0-8.758 7.475-14.642 18.6-14.642 11.1 0 18.555 5.884 18.555 14.642a12.633 12.633 0 0 1-2.626 7.863 12.921 12.921 0 0 1 3.651 9.328c.001 9.039-7.869 15.107-19.579 15.107z" transform="translate(654.399 -323.987)" style="fill:#0015aa"/>
            </g>
            <g data-name="그룹 13716">
                <path data-name="패스 8881" d="M102.59 685.168c-11.739 0-19.626-6.071-19.626-15.107a12.923 12.923 0 0 1 3.65-9.328 12.635 12.635 0 0 1-2.625-7.863c0-8.758 7.475-14.642 18.6-14.642 11.1 0 18.555 5.884 18.555 14.642a12.633 12.633 0 0 1-2.626 7.863 12.921 12.921 0 0 1 3.651 9.328c.001 9.039-7.869 15.107-19.579 15.107z" transform="translate(654.399 -323.881)" style="fill:#0015aa"/>
            </g>
            <g data-name="그룹 13717">
                <path data-name="패스 8882" d="M102.59 684.968c-11.739 0-19.626-6.071-19.626-15.107a12.923 12.923 0 0 1 3.65-9.328 12.636 12.636 0 0 1-2.625-7.863c0-8.758 7.475-14.642 18.6-14.642 11.1 0 18.555 5.884 18.555 14.642a12.633 12.633 0 0 1-2.626 7.863 12.921 12.921 0 0 1 3.651 9.328c.001 9.039-7.869 15.107-19.579 15.107z" transform="translate(654.399 -323.776)" style="fill:#0015aa"/>
            </g>
            <g data-name="그룹 13718">
                <path data-name="패스 8883" d="M102.59 684.768c-11.739 0-19.626-6.071-19.626-15.107a12.923 12.923 0 0 1 3.65-9.328 12.635 12.635 0 0 1-2.625-7.863c0-8.758 7.475-14.642 18.6-14.642 11.1 0 18.555 5.884 18.555 14.642a12.633 12.633 0 0 1-2.626 7.863 12.921 12.921 0 0 1 3.651 9.328c.001 9.039-7.869 15.107-19.579 15.107z" transform="translate(654.399 -323.67)" style="fill:#0015aa"/>
            </g>
            <g data-name="그룹 13719">
                <path data-name="패스 8884" d="M102.59 684.568c-11.739 0-19.626-6.071-19.626-15.107a12.923 12.923 0 0 1 3.65-9.328 12.635 12.635 0 0 1-2.625-7.863c0-8.758 7.475-14.642 18.6-14.642 11.1 0 18.555 5.884 18.555 14.642a12.633 12.633 0 0 1-2.626 7.863 12.921 12.921 0 0 1 3.651 9.328c.001 9.039-7.869 15.107-19.579 15.107z" transform="translate(654.399 -323.565)" style="fill:#0015aa"/>
            </g>
            <g data-name="그룹 13720">
                <path data-name="패스 8885" d="M102.59 684.368c-11.739 0-19.626-6.071-19.626-15.107a12.923 12.923 0 0 1 3.65-9.328 12.636 12.636 0 0 1-2.625-7.863c0-8.758 7.475-14.642 18.6-14.642 11.1 0 18.555 5.884 18.555 14.642a12.633 12.633 0 0 1-2.626 7.863 12.921 12.921 0 0 1 3.651 9.328c.001 9.039-7.869 15.107-19.579 15.107z" transform="translate(654.399 -323.459)" style="fill:#0015aa"/>
            </g>
            <g data-name="그룹 13721">
                <path data-name="패스 8886" d="M102.59 684.168c-11.739 0-19.626-6.071-19.626-15.107a12.923 12.923 0 0 1 3.65-9.328 12.636 12.636 0 0 1-2.625-7.863c0-8.758 7.475-14.642 18.6-14.642 11.1 0 18.555 5.884 18.555 14.642a12.633 12.633 0 0 1-2.626 7.863 12.921 12.921 0 0 1 3.651 9.328c.001 9.039-7.869 15.107-19.579 15.107z" transform="translate(654.399 -323.354)" style="fill:#0015aa"/>
            </g>
            <g data-name="그룹 13722">
                <path data-name="패스 8887" d="M102.59 683.968c-11.739 0-19.626-6.071-19.626-15.107a12.923 12.923 0 0 1 3.65-9.328 12.635 12.635 0 0 1-2.625-7.863c0-8.758 7.475-14.642 18.6-14.642 11.1 0 18.555 5.884 18.555 14.642a12.633 12.633 0 0 1-2.626 7.863 12.921 12.921 0 0 1 3.651 9.328c.001 9.039-7.869 15.107-19.579 15.107z" transform="translate(654.399 -323.248)" style="fill:#0015aa"/>
            </g>
            <g data-name="그룹 13723">
                <path data-name="패스 8888" d="M102.59 683.768c-11.739 0-19.626-6.071-19.626-15.107a12.923 12.923 0 0 1 3.65-9.328 12.635 12.635 0 0 1-2.625-7.863c0-8.758 7.475-14.642 18.6-14.642 11.1 0 18.555 5.884 18.555 14.642a12.633 12.633 0 0 1-2.626 7.863 12.921 12.921 0 0 1 3.651 9.328c.001 9.039-7.869 15.107-19.579 15.107z" transform="translate(654.399 -323.143)" style="fill:#0015aa"/>
            </g>
            <g data-name="그룹 13724">
                <path data-name="패스 8889" d="M102.59 683.568c-11.739 0-19.626-6.071-19.626-15.107a12.923 12.923 0 0 1 3.65-9.328 12.636 12.636 0 0 1-2.625-7.863c0-8.758 7.475-14.642 18.6-14.642 11.1 0 18.555 5.884 18.555 14.642a12.633 12.633 0 0 1-2.626 7.863 12.921 12.921 0 0 1 3.651 9.328c.001 9.039-7.869 15.107-19.579 15.107z" transform="translate(654.399 -323.037)" style="fill:#0015aa"/>
            </g>
            <g data-name="그룹 13725">
                <path data-name="패스 8890" d="M102.59 683.368c-11.739 0-19.626-6.071-19.626-15.107a12.923 12.923 0 0 1 3.65-9.328 12.635 12.635 0 0 1-2.625-7.863c0-8.758 7.475-14.642 18.6-14.642 11.1 0 18.555 5.883 18.555 14.642a12.633 12.633 0 0 1-2.626 7.863 12.921 12.921 0 0 1 3.651 9.328c.001 9.039-7.869 15.107-19.579 15.107z" transform="translate(654.399 -322.932)" style="fill:#0015aa"/>
            </g>
            <g data-name="그룹 13726">
                <path data-name="패스 8891" d="M102.59 683.168c-11.739 0-19.626-6.071-19.626-15.107a12.923 12.923 0 0 1 3.65-9.328 12.636 12.636 0 0 1-2.625-7.863c0-8.758 7.475-14.642 18.6-14.642 11.1 0 18.555 5.884 18.555 14.642a12.633 12.633 0 0 1-2.626 7.863 12.921 12.921 0 0 1 3.651 9.328c.001 9.039-7.869 15.107-19.579 15.107z" transform="translate(654.399 -322.826)" style="fill:#0015aa"/>
            </g>
            <g data-name="그룹 13727">
                <path data-name="패스 8892" d="M102.59 682.968c-11.739 0-19.626-6.071-19.626-15.107a12.923 12.923 0 0 1 3.65-9.328 12.636 12.636 0 0 1-2.625-7.863c0-8.758 7.475-14.642 18.6-14.642 11.1 0 18.555 5.883 18.555 14.642a12.633 12.633 0 0 1-2.626 7.863 12.921 12.921 0 0 1 3.651 9.328c.001 9.039-7.869 15.107-19.579 15.107z" transform="translate(654.399 -322.721)" style="fill:#0015aa"/>
            </g>
            <g data-name="그룹 13728">
                <path data-name="패스 8893" d="M102.59 682.768c-11.739 0-19.626-6.071-19.626-15.107a12.923 12.923 0 0 1 3.65-9.328 12.635 12.635 0 0 1-2.625-7.862c0-8.758 7.475-14.642 18.6-14.642 11.1 0 18.555 5.884 18.555 14.642a12.633 12.633 0 0 1-2.626 7.862 12.921 12.921 0 0 1 3.651 9.328c.001 9.039-7.869 15.107-19.579 15.107z" transform="translate(654.399 -322.615)" style="fill:#0015aa"/>
            </g>
            <g data-name="그룹 13729">
                <path data-name="패스 8894" d="M102.59 682.568c-11.739 0-19.626-6.071-19.626-15.107a12.923 12.923 0 0 1 3.65-9.328 12.635 12.635 0 0 1-2.625-7.863c0-8.758 7.475-14.642 18.6-14.642 11.1 0 18.555 5.884 18.555 14.642a12.633 12.633 0 0 1-2.626 7.863 12.921 12.921 0 0 1 3.651 9.328c.001 9.039-7.869 15.107-19.579 15.107z" transform="translate(654.399 -322.51)" style="fill:#0015aa"/>
            </g>
            <g data-name="그룹 13730">
                <path data-name="패스 8895" d="M102.59 682.368c-11.739 0-19.626-6.071-19.626-15.107a12.923 12.923 0 0 1 3.65-9.328 12.635 12.635 0 0 1-2.625-7.863c0-8.758 7.475-14.642 18.6-14.642 11.1 0 18.555 5.884 18.555 14.642a12.633 12.633 0 0 1-2.626 7.863 12.921 12.921 0 0 1 3.651 9.328c.001 9.039-7.869 15.107-19.579 15.107z" transform="translate(654.399 -322.404)" style="fill:#0015aa"/>
            </g>
            <g data-name="그룹 13731">
                <path data-name="패스 8896" d="M102.59 682.168c-11.739 0-19.626-6.071-19.626-15.107a12.923 12.923 0 0 1 3.65-9.328 12.635 12.635 0 0 1-2.625-7.862c0-8.758 7.475-14.642 18.6-14.642 11.1 0 18.555 5.884 18.555 14.642a12.633 12.633 0 0 1-2.626 7.862 12.921 12.921 0 0 1 3.651 9.328c.001 9.039-7.869 15.107-19.579 15.107z" transform="translate(654.399 -322.299)" style="fill:#0015aa"/>
            </g>
            <g data-name="그룹 13732">
                <path data-name="패스 8897" d="M102.59 681.968c-11.739 0-19.626-6.071-19.626-15.107a12.923 12.923 0 0 1 3.65-9.328 12.636 12.636 0 0 1-2.625-7.863c0-8.758 7.475-14.642 18.6-14.642 11.1 0 18.555 5.884 18.555 14.642a12.633 12.633 0 0 1-2.626 7.863 12.921 12.921 0 0 1 3.651 9.328c.001 9.039-7.869 15.107-19.579 15.107z" transform="translate(654.399 -322.193)" style="fill:#0015aa"/>
            </g>
            <g data-name="그룹 13733">
                <path data-name="패스 8898" d="M102.59 681.768c-11.739 0-19.626-6.071-19.626-15.107a12.923 12.923 0 0 1 3.65-9.328 12.635 12.635 0 0 1-2.625-7.863c0-8.758 7.475-14.642 18.6-14.642 11.1 0 18.555 5.884 18.555 14.642a12.633 12.633 0 0 1-2.626 7.863 12.921 12.921 0 0 1 3.651 9.328c.001 9.039-7.869 15.107-19.579 15.107z" transform="translate(654.399 -322.088)" style="fill:#0015aa"/>
            </g>
            <g data-name="그룹 13734">
                <path data-name="패스 8899" d="M102.59 681.568c-11.739 0-19.626-6.071-19.626-15.107a12.923 12.923 0 0 1 3.65-9.328 12.635 12.635 0 0 1-2.625-7.863c0-8.758 7.475-14.642 18.6-14.642 11.1 0 18.555 5.884 18.555 14.642a12.633 12.633 0 0 1-2.626 7.863 12.921 12.921 0 0 1 3.651 9.328c.001 9.039-7.869 15.107-19.579 15.107z" transform="translate(654.399 -321.982)" style="fill:#0015aa"/>
            </g>
            <g data-name="그룹 13735">
                <path data-name="패스 8900" d="M102.59 681.368c-11.739 0-19.626-6.071-19.626-15.107a12.923 12.923 0 0 1 3.65-9.328 12.635 12.635 0 0 1-2.625-7.863c0-8.758 7.475-14.642 18.6-14.642 11.1 0 18.555 5.884 18.555 14.642a12.633 12.633 0 0 1-2.626 7.863 12.921 12.921 0 0 1 3.651 9.328c.001 9.039-7.869 15.107-19.579 15.107z" transform="translate(654.399 -321.877)" style="fill:#0015aa"/>
            </g>
            <g data-name="그룹 13736">
                <path data-name="패스 8901" d="M102.59 681.168c-11.739 0-19.626-6.071-19.626-15.107a12.923 12.923 0 0 1 3.65-9.328 12.635 12.635 0 0 1-2.625-7.863c0-8.758 7.475-14.642 18.6-14.642 11.1 0 18.555 5.884 18.555 14.642a12.633 12.633 0 0 1-2.626 7.863 12.921 12.921 0 0 1 3.651 9.328c.001 9.039-7.869 15.107-19.579 15.107z" transform="translate(654.399 -321.771)" style="fill:#0015aa"/>
            </g>
            <g data-name="그룹 13737">
                <path data-name="패스 8902" d="M102.59 680.968c-11.739 0-19.626-6.071-19.626-15.107a12.923 12.923 0 0 1 3.65-9.328 12.635 12.635 0 0 1-2.625-7.863c0-8.758 7.475-14.642 18.6-14.642 11.1 0 18.555 5.884 18.555 14.642a12.633 12.633 0 0 1-2.626 7.863 12.921 12.921 0 0 1 3.651 9.328c.001 9.039-7.869 15.107-19.579 15.107z" transform="translate(654.399 -321.666)" style="fill:#0015aa"/>
            </g>
        </g>
        <g data-name="그룹 13739" style="mix-blend-mode:screen;isolation:isolate">
            <path data-name="패스 8903" d="M102.59 680.968c-11.739 0-19.626-6.071-19.626-15.107a12.923 12.923 0 0 1 3.65-9.328 12.635 12.635 0 0 1-2.625-7.863c0-8.758 7.475-14.642 18.6-14.642 11.1 0 18.555 5.884 18.555 14.642a12.633 12.633 0 0 1-2.626 7.863 12.921 12.921 0 0 1 3.651 9.328c.001 9.039-7.869 15.107-19.579 15.107z" transform="translate(654.399 -321.666)" style="fill:#e4f9ff"/>
        </g>
        <g data-name="그룹 13740">
            <path data-name="패스 8904" d="M103.118 681.023c-11.457 0-19.154-5.881-19.154-14.635a12.432 12.432 0 0 1 3.821-9.289 12.132 12.132 0 0 1-2.8-7.9c0-8.607 7.116-14.169 18.129-14.169 10.816 0 18.082 5.694 18.082 14.169a12.135 12.135 0 0 1-2.8 7.9 12.434 12.434 0 0 1 3.821 9.289c.008 8.754-7.67 14.635-19.099 14.635z" transform="translate(653.871 -322.194)" style="fill:#008aff"/>
        </g>
        <text data-name="8" transform="translate(741.127 350.937)" style="font-size:45px;font-family:SDOdongtongBasic,Sandoll Odongtong;fill:#50c2ff"><tspan x="0" y="0">8</tspan></text>
        <text data-name="8" transform="translate(740.655 349.992)" style="font-size:45px;font-family:SDOdongtongBasic,Sandoll Odongtong;fill:#fff"><tspan x="0" y="0">8</tspan></text>
    </g>
</svg>
