<svg xmlns="http://www.w3.org/2000/svg" width="44" height="57" viewBox="0 0 44 57">
    <defs>
        <clipPath id="isnea1f4ha">
            <path data-name="사각형 6158" transform="translate(562 309)" style="stroke:#707070;fill:#fff" d="M0 0h44v57H0z"/>
        </clipPath>
    </defs>
    <g data-name="그룹 13605" transform="translate(-562 -309)" style="clip-path:url(#isnea1f4ha)">
        <g data-name="그룹 13570">
            <g data-name="그룹 13569">
                <g data-name="그룹 13538">
                    <path data-name="패스 8713" d="M-257.556 686.634c-13.731 0-22-8.547-22.129-22.863-.128-13.365 8.587-22.948 16.089-27.092a13.847 13.847 0 0 1 6.631-1.763 11.48 11.48 0 0 1 8.085 3.242 11.9 11.9 0 0 1 3.87 9.3 10.459 10.459 0 0 1-.883 3.585 17.767 17.767 0 0 1 9.3 16.117c.001 11.284-8.815 19.474-20.963 19.474z" transform="translate(841.686 -322.08)" style="fill:#fff"/>
                </g>
                <g data-name="그룹 13539">
                    <path data-name="패스 8714" d="M-257.556 686.434c-13.731 0-22-8.547-22.129-22.863-.128-13.365 8.587-22.948 16.089-27.092a13.845 13.845 0 0 1 6.631-1.764 11.479 11.479 0 0 1 8.085 3.242 11.9 11.9 0 0 1 3.87 9.3 10.459 10.459 0 0 1-.883 3.585 17.767 17.767 0 0 1 9.3 16.117c.001 11.285-8.815 19.475-20.963 19.475z" transform="translate(841.686 -321.974)" style="fill:#fff"/>
                </g>
                <g data-name="그룹 13540">
                    <path data-name="패스 8715" d="M-257.556 686.234c-13.731 0-22-8.547-22.129-22.863-.128-13.365 8.587-22.948 16.089-27.092a13.846 13.846 0 0 1 6.631-1.764 11.48 11.48 0 0 1 8.085 3.242 11.9 11.9 0 0 1 3.87 9.3 10.459 10.459 0 0 1-.883 3.585 17.767 17.767 0 0 1 9.3 16.117c.001 11.285-8.815 19.475-20.963 19.475z" transform="translate(841.686 -321.869)" style="fill:#fff"/>
                </g>
                <g data-name="그룹 13541">
                    <path data-name="패스 8716" d="M-257.556 686.034c-13.731 0-22-8.547-22.129-22.863-.128-13.365 8.587-22.948 16.089-27.092a13.847 13.847 0 0 1 6.631-1.764 11.48 11.48 0 0 1 8.085 3.242 11.9 11.9 0 0 1 3.87 9.3 10.459 10.459 0 0 1-.883 3.585 17.767 17.767 0 0 1 9.3 16.117c.001 11.285-8.815 19.475-20.963 19.475z" transform="translate(841.686 -321.763)" style="fill:#fff"/>
                </g>
                <g data-name="그룹 13542">
                    <path data-name="패스 8717" d="M-257.556 685.833c-13.731 0-22-8.547-22.129-22.863-.128-13.365 8.587-22.948 16.089-27.092a13.847 13.847 0 0 1 6.631-1.764 11.48 11.48 0 0 1 8.085 3.242 11.905 11.905 0 0 1 3.87 9.3 10.459 10.459 0 0 1-.883 3.585 17.767 17.767 0 0 1 9.3 16.117c.001 11.286-8.815 19.475-20.963 19.475z" transform="translate(841.686 -321.658)" style="fill:#fff"/>
                </g>
                <g data-name="그룹 13543">
                    <path data-name="패스 8718" d="M-257.556 685.634c-13.731 0-22-8.547-22.129-22.863-.128-13.365 8.587-22.948 16.089-27.092a13.847 13.847 0 0 1 6.631-1.763 11.48 11.48 0 0 1 8.085 3.242 11.905 11.905 0 0 1 3.87 9.3 10.458 10.458 0 0 1-.883 3.585 17.767 17.767 0 0 1 9.3 16.117c.001 11.283-8.815 19.474-20.963 19.474z" transform="translate(841.686 -321.552)" style="fill:#fff"/>
                </g>
                <g data-name="그룹 13544">
                    <path data-name="패스 8719" d="M-257.556 685.434c-13.731 0-22-8.547-22.129-22.863-.128-13.365 8.587-22.948 16.089-27.092a13.847 13.847 0 0 1 6.631-1.764 11.48 11.48 0 0 1 8.085 3.242 11.905 11.905 0 0 1 3.87 9.3 10.459 10.459 0 0 1-.883 3.585 17.767 17.767 0 0 1 9.3 16.117c.001 11.285-8.815 19.475-20.963 19.475z" transform="translate(841.686 -321.447)" style="fill:#fff"/>
                </g>
                <g data-name="그룹 13545">
                    <path data-name="패스 8720" d="M-257.556 685.234c-13.731 0-22-8.547-22.129-22.863-.128-13.365 8.587-22.948 16.089-27.092a13.846 13.846 0 0 1 6.631-1.764 11.479 11.479 0 0 1 8.085 3.242 11.905 11.905 0 0 1 3.87 9.3 10.459 10.459 0 0 1-.883 3.585 17.767 17.767 0 0 1 9.3 16.117c.001 11.285-8.815 19.475-20.963 19.475z" transform="translate(841.686 -321.341)" style="fill:#fff"/>
                </g>
                <g data-name="그룹 13546">
                    <path data-name="패스 8721" d="M-257.556 685.034c-13.731 0-22-8.547-22.129-22.863-.128-13.365 8.587-22.948 16.089-27.092a13.847 13.847 0 0 1 6.631-1.763 11.48 11.48 0 0 1 8.085 3.242 11.905 11.905 0 0 1 3.87 9.3 10.459 10.459 0 0 1-.883 3.585 17.767 17.767 0 0 1 9.3 16.117c.001 11.284-8.815 19.474-20.963 19.474z" transform="translate(841.686 -321.236)" style="fill:#fff"/>
                </g>
                <g data-name="그룹 13547">
                    <path data-name="패스 8722" d="M-257.556 684.834c-13.731 0-22-8.547-22.129-22.863-.128-13.365 8.587-22.948 16.089-27.092a13.848 13.848 0 0 1 6.631-1.763 11.48 11.48 0 0 1 8.085 3.242 11.905 11.905 0 0 1 3.87 9.3 10.46 10.46 0 0 1-.883 3.585 17.767 17.767 0 0 1 9.3 16.117c.001 11.284-8.815 19.474-20.963 19.474z" transform="translate(841.686 -321.13)" style="fill:#fff"/>
                </g>
                <g data-name="그룹 13548">
                    <path data-name="패스 8723" d="M-257.556 684.634c-13.731 0-22-8.547-22.129-22.863-.128-13.365 8.587-22.948 16.089-27.092a13.847 13.847 0 0 1 6.631-1.763 11.479 11.479 0 0 1 8.085 3.242 11.9 11.9 0 0 1 3.87 9.3 10.459 10.459 0 0 1-.883 3.585 17.767 17.767 0 0 1 9.3 16.117c.001 11.283-8.815 19.474-20.963 19.474z" transform="translate(841.686 -321.025)" style="fill:#fff"/>
                </g>
                <g data-name="그룹 13549">
                    <path data-name="패스 8724" d="M-257.556 684.434c-13.731 0-22-8.547-22.129-22.863-.128-13.365 8.587-22.948 16.089-27.092a13.847 13.847 0 0 1 6.631-1.763 11.48 11.48 0 0 1 8.085 3.242 11.905 11.905 0 0 1 3.87 9.3 10.459 10.459 0 0 1-.883 3.585 17.767 17.767 0 0 1 9.3 16.117c.001 11.284-8.815 19.474-20.963 19.474z" transform="translate(841.686 -320.919)" style="fill:#fff"/>
                </g>
                <g data-name="그룹 13550">
                    <path data-name="패스 8725" d="M-257.556 684.234c-13.731 0-22-8.547-22.129-22.863-.128-13.365 8.587-22.948 16.089-27.092a13.847 13.847 0 0 1 6.631-1.764 11.479 11.479 0 0 1 8.085 3.242 11.9 11.9 0 0 1 3.87 9.3 10.459 10.459 0 0 1-.883 3.585 17.767 17.767 0 0 1 9.3 16.117c.001 11.285-8.815 19.475-20.963 19.475z" transform="translate(841.686 -320.814)" style="fill:#fff"/>
                </g>
                <g data-name="그룹 13551">
                    <path data-name="패스 8726" d="M-257.556 684.034c-13.731 0-22-8.547-22.129-22.863-.128-13.365 8.587-22.948 16.089-27.092a13.847 13.847 0 0 1 6.631-1.763 11.479 11.479 0 0 1 8.085 3.242 11.9 11.9 0 0 1 3.87 9.3 10.46 10.46 0 0 1-.883 3.585 17.767 17.767 0 0 1 9.3 16.117c.001 11.284-8.815 19.474-20.963 19.474z" transform="translate(841.686 -320.708)" style="fill:#fff"/>
                </g>
                <g data-name="그룹 13552">
                    <path data-name="패스 8727" d="M-257.556 683.834c-13.731 0-22-8.547-22.129-22.863-.128-13.365 8.587-22.948 16.089-27.092a13.847 13.847 0 0 1 6.631-1.764 11.479 11.479 0 0 1 8.085 3.242 11.9 11.9 0 0 1 3.87 9.3 10.459 10.459 0 0 1-.883 3.585 17.767 17.767 0 0 1 9.3 16.117c.001 11.284-8.815 19.475-20.963 19.475z" transform="translate(841.686 -320.603)" style="fill:#fff"/>
                </g>
                <g data-name="그룹 13553">
                    <path data-name="패스 8728" d="M-257.556 683.634c-13.731 0-22-8.547-22.129-22.863-.128-13.365 8.587-22.948 16.089-27.092a13.847 13.847 0 0 1 6.631-1.764 11.48 11.48 0 0 1 8.085 3.242 11.905 11.905 0 0 1 3.87 9.3 10.459 10.459 0 0 1-.883 3.585 17.767 17.767 0 0 1 9.3 16.117c.001 11.284-8.815 19.475-20.963 19.475z" transform="translate(841.686 -320.497)" style="fill:#fff"/>
                </g>
                <g data-name="그룹 13554">
                    <path data-name="패스 8729" d="M-257.556 683.434c-13.731 0-22-8.547-22.129-22.863-.128-13.365 8.587-22.948 16.089-27.092a13.846 13.846 0 0 1 6.631-1.763 11.48 11.48 0 0 1 8.085 3.242 11.905 11.905 0 0 1 3.87 9.3 10.458 10.458 0 0 1-.883 3.585 17.767 17.767 0 0 1 9.3 16.117c.001 11.284-8.815 19.474-20.963 19.474z" transform="translate(841.686 -320.392)" style="fill:#fff"/>
                </g>
                <g data-name="그룹 13555">
                    <path data-name="패스 8730" d="M-257.556 683.234c-13.731 0-22-8.547-22.129-22.863-.128-13.365 8.587-22.948 16.089-27.092a13.846 13.846 0 0 1 6.631-1.764 11.48 11.48 0 0 1 8.085 3.242 11.905 11.905 0 0 1 3.87 9.3 10.458 10.458 0 0 1-.883 3.585 17.767 17.767 0 0 1 9.3 16.117c.001 11.284-8.815 19.475-20.963 19.475z" transform="translate(841.686 -320.286)" style="fill:#fff"/>
                </g>
                <g data-name="그룹 13556">
                    <path data-name="패스 8731" d="M-257.556 683.034c-13.731 0-22-8.547-22.129-22.863-.128-13.365 8.587-22.948 16.089-27.092a13.847 13.847 0 0 1 6.631-1.763 11.48 11.48 0 0 1 8.085 3.242 11.9 11.9 0 0 1 3.87 9.3 10.459 10.459 0 0 1-.883 3.585 17.767 17.767 0 0 1 9.3 16.117c.001 11.284-8.815 19.474-20.963 19.474z" transform="translate(841.686 -320.181)" style="fill:#fff"/>
                </g>
                <g data-name="그룹 13557">
                    <path data-name="패스 8732" d="M-257.556 682.833c-13.731 0-22-8.547-22.129-22.863-.128-13.365 8.587-22.948 16.089-27.092a13.846 13.846 0 0 1 6.631-1.764 11.479 11.479 0 0 1 8.085 3.242 11.9 11.9 0 0 1 3.87 9.3 10.459 10.459 0 0 1-.883 3.585 17.767 17.767 0 0 1 9.3 16.117c.001 11.285-8.815 19.475-20.963 19.475z" transform="translate(841.686 -320.075)" style="fill:#fff"/>
                </g>
                <g data-name="그룹 13558">
                    <path data-name="패스 8733" d="M-257.556 682.634c-13.731 0-22-8.547-22.129-22.863-.128-13.365 8.587-22.948 16.089-27.092a13.847 13.847 0 0 1 6.631-1.763 11.479 11.479 0 0 1 8.085 3.242 11.9 11.9 0 0 1 3.87 9.3 10.458 10.458 0 0 1-.883 3.585 17.767 17.767 0 0 1 9.3 16.117c.001 11.284-8.815 19.474-20.963 19.474z" transform="translate(841.686 -319.97)" style="fill:#fff"/>
                </g>
                <g data-name="그룹 13559">
                    <path data-name="패스 8734" d="M-257.556 682.434c-13.731 0-22-8.547-22.129-22.864-.128-13.365 8.587-22.948 16.089-27.091a13.845 13.845 0 0 1 6.631-1.764 11.479 11.479 0 0 1 8.085 3.242 11.9 11.9 0 0 1 3.87 9.3 10.459 10.459 0 0 1-.883 3.585 17.767 17.767 0 0 1 9.3 16.117c.001 11.285-8.815 19.475-20.963 19.475z" transform="translate(841.686 -319.864)" style="fill:#fff"/>
                </g>
                <g data-name="그룹 13560">
                    <path data-name="패스 8735" d="M-257.556 682.234c-13.731 0-22-8.547-22.129-22.863-.128-13.365 8.587-22.948 16.089-27.092a13.846 13.846 0 0 1 6.631-1.764 11.479 11.479 0 0 1 8.085 3.242 11.9 11.9 0 0 1 3.87 9.3 10.459 10.459 0 0 1-.883 3.585 17.767 17.767 0 0 1 9.3 16.117c.001 11.285-8.815 19.475-20.963 19.475z" transform="translate(841.686 -319.759)" style="fill:#fff"/>
                </g>
                <g data-name="그룹 13561">
                    <path data-name="패스 8736" d="M-257.556 682.034c-13.731 0-22-8.547-22.129-22.863-.128-13.365 8.587-22.948 16.089-27.092a13.847 13.847 0 0 1 6.631-1.763 11.479 11.479 0 0 1 8.085 3.242 11.9 11.9 0 0 1 3.87 9.3 10.458 10.458 0 0 1-.883 3.585 17.767 17.767 0 0 1 9.3 16.117c.001 11.283-8.815 19.474-20.963 19.474z" transform="translate(841.686 -319.653)" style="fill:#fff"/>
                </g>
                <g data-name="그룹 13562">
                    <path data-name="패스 8737" d="M-257.556 681.834c-13.731 0-22-8.547-22.129-22.863-.128-13.365 8.587-22.948 16.089-27.092a13.847 13.847 0 0 1 6.631-1.764 11.479 11.479 0 0 1 8.085 3.242 11.9 11.9 0 0 1 3.87 9.3 10.459 10.459 0 0 1-.883 3.585 17.767 17.767 0 0 1 9.3 16.117c.001 11.285-8.815 19.475-20.963 19.475z" transform="translate(841.686 -319.548)" style="fill:#fff"/>
                </g>
                <g data-name="그룹 13563">
                    <path data-name="패스 8738" d="M-257.556 681.634c-13.731 0-22-8.547-22.129-22.863-.128-13.365 8.587-22.948 16.089-27.092a13.847 13.847 0 0 1 6.631-1.763 11.48 11.48 0 0 1 8.085 3.242 11.9 11.9 0 0 1 3.87 9.3 10.459 10.459 0 0 1-.883 3.585 17.767 17.767 0 0 1 9.3 16.117c.001 11.283-8.815 19.474-20.963 19.474z" transform="translate(841.686 -319.442)" style="fill:#fff"/>
                </g>
                <g data-name="그룹 13564">
                    <path data-name="패스 8739" d="M-257.556 681.434c-13.731 0-22-8.547-22.129-22.863-.128-13.365 8.587-22.948 16.089-27.092a13.847 13.847 0 0 1 6.631-1.763 11.48 11.48 0 0 1 8.085 3.242 11.905 11.905 0 0 1 3.87 9.3 10.458 10.458 0 0 1-.883 3.585 17.767 17.767 0 0 1 9.3 16.117c.001 11.283-8.815 19.474-20.963 19.474z" transform="translate(841.686 -319.337)" style="fill:#fff"/>
                </g>
                <g data-name="그룹 13565">
                    <path data-name="패스 8740" d="M-257.556 681.234c-13.731 0-22-8.547-22.129-22.863-.128-13.365 8.587-22.948 16.089-27.092a13.847 13.847 0 0 1 6.631-1.763 11.48 11.48 0 0 1 8.085 3.242 11.905 11.905 0 0 1 3.87 9.3 10.46 10.46 0 0 1-.883 3.585 17.767 17.767 0 0 1 9.3 16.117c.001 11.284-8.815 19.474-20.963 19.474z" transform="translate(841.686 -319.231)" style="fill:#fff"/>
                </g>
                <g data-name="그룹 13566">
                    <path data-name="패스 8741" d="M-257.556 681.034c-13.731 0-22-8.547-22.129-22.863-.128-13.365 8.587-22.948 16.089-27.092a13.846 13.846 0 0 1 6.631-1.764 11.48 11.48 0 0 1 8.085 3.242 11.905 11.905 0 0 1 3.87 9.3 10.459 10.459 0 0 1-.883 3.585 17.767 17.767 0 0 1 9.3 16.117c.001 11.285-8.815 19.475-20.963 19.475z" transform="translate(841.686 -319.126)" style="fill:#fff"/>
                </g>
                <g data-name="그룹 13567">
                    <path data-name="패스 8742" d="M-257.556 680.834c-13.731 0-22-8.547-22.129-22.863-.128-13.365 8.587-22.948 16.089-27.092a13.847 13.847 0 0 1 6.631-1.764 11.479 11.479 0 0 1 8.085 3.242 11.905 11.905 0 0 1 3.87 9.3 10.459 10.459 0 0 1-.883 3.585 17.767 17.767 0 0 1 9.3 16.117c.001 11.285-8.815 19.475-20.963 19.475z" transform="translate(841.686 -319.02)" style="fill:#fff"/>
                </g>
                <g data-name="그룹 13568">
                    <path data-name="패스 8743" d="M-257.556 680.634c-13.731 0-22-8.547-22.129-22.863-.128-13.365 8.587-22.948 16.089-27.092a13.847 13.847 0 0 1 6.631-1.764 11.479 11.479 0 0 1 8.085 3.242 11.9 11.9 0 0 1 3.87 9.3 10.459 10.459 0 0 1-.883 3.585 17.767 17.767 0 0 1 9.3 16.117c.001 11.285-8.815 19.475-20.963 19.475z" transform="translate(841.686 -318.915)" style="fill:#fff"/>
                </g>
            </g>
        </g>
        <g data-name="그룹 13602">
            <g data-name="그룹 13571">
                <path data-name="패스 8744" d="M-254.919 686.908c-6.179 0-11.069-1.839-14.535-5.467-3.415-3.575-5.175-8.639-5.231-15.054-.118-12.328 7.936-21.174 14.868-25a11.582 11.582 0 0 1 5.489-1.469 9.158 9.158 0 0 1 6.451 2.586 9.556 9.556 0 0 1 3.146 7.444 8.366 8.366 0 0 1-1.974 4.862c6.159 1.968 10.387 7.761 10.387 14.99 0 9.912-7.822 17.108-18.601 17.108z" transform="translate(839.049 -324.717)" style="fill:#0015aa"/>
            </g>
            <g data-name="그룹 13572">
                <path data-name="패스 8745" d="M-254.919 686.708c-6.179 0-11.069-1.839-14.535-5.467-3.415-3.575-5.175-8.639-5.231-15.054-.118-12.328 7.936-21.175 14.868-25a11.582 11.582 0 0 1 5.489-1.469 9.158 9.158 0 0 1 6.451 2.586 9.556 9.556 0 0 1 3.146 7.444 8.366 8.366 0 0 1-1.974 4.862c6.159 1.968 10.387 7.762 10.387 14.99 0 9.912-7.822 17.108-18.601 17.108z" transform="translate(839.049 -324.611)" style="fill:#0015aa"/>
            </g>
            <g data-name="그룹 13573">
                <path data-name="패스 8746" d="M-254.919 686.508c-6.179 0-11.069-1.839-14.535-5.467-3.415-3.575-5.175-8.639-5.231-15.054-.118-12.328 7.936-21.174 14.868-25a11.582 11.582 0 0 1 5.489-1.469 9.158 9.158 0 0 1 6.451 2.586 9.556 9.556 0 0 1 3.146 7.444 8.366 8.366 0 0 1-1.974 4.862c6.159 1.968 10.387 7.761 10.387 14.99 0 9.912-7.822 17.108-18.601 17.108z" transform="translate(839.049 -324.506)" style="fill:#0015aa"/>
            </g>
            <g data-name="그룹 13574">
                <path data-name="패스 8747" d="M-254.919 686.308c-6.179 0-11.069-1.839-14.535-5.467-3.415-3.575-5.175-8.639-5.231-15.054-.118-12.328 7.936-21.175 14.868-25a11.581 11.581 0 0 1 5.489-1.469 9.158 9.158 0 0 1 6.451 2.586 9.556 9.556 0 0 1 3.146 7.444 8.366 8.366 0 0 1-1.974 4.862c6.159 1.968 10.387 7.761 10.387 14.99 0 9.912-7.822 17.108-18.601 17.108z" transform="translate(839.049 -324.4)" style="fill:#0015aa"/>
            </g>
            <g data-name="그룹 13575">
                <path data-name="패스 8748" d="M-254.919 686.108c-6.179 0-11.069-1.839-14.535-5.467-3.415-3.575-5.175-8.639-5.231-15.054-.118-12.328 7.936-21.175 14.868-25a11.582 11.582 0 0 1 5.489-1.469 9.158 9.158 0 0 1 6.451 2.586 9.556 9.556 0 0 1 3.146 7.444 8.366 8.366 0 0 1-1.974 4.862c6.159 1.968 10.387 7.761 10.387 14.99 0 9.912-7.822 17.108-18.601 17.108z" transform="translate(839.049 -324.295)" style="fill:#0015aa"/>
            </g>
            <g data-name="그룹 13576">
                <path data-name="패스 8749" d="M-254.919 685.908c-6.179 0-11.069-1.839-14.535-5.467-3.415-3.575-5.175-8.639-5.231-15.054-.118-12.328 7.936-21.174 14.868-25a11.582 11.582 0 0 1 5.489-1.469 9.158 9.158 0 0 1 6.451 2.586 9.556 9.556 0 0 1 3.146 7.444 8.366 8.366 0 0 1-1.974 4.862c6.159 1.968 10.387 7.761 10.387 14.99 0 9.912-7.822 17.108-18.601 17.108z" transform="translate(839.049 -324.189)" style="fill:#0015aa"/>
            </g>
            <g data-name="그룹 13577">
                <path data-name="패스 8750" d="M-254.919 685.708c-6.179 0-11.069-1.839-14.535-5.467-3.415-3.575-5.175-8.639-5.231-15.054-.118-12.328 7.936-21.174 14.868-25a11.582 11.582 0 0 1 5.489-1.469 9.158 9.158 0 0 1 6.451 2.586 9.556 9.556 0 0 1 3.146 7.444 8.366 8.366 0 0 1-1.974 4.862c6.159 1.968 10.387 7.761 10.387 14.99 0 9.912-7.822 17.108-18.601 17.108z" transform="translate(839.049 -324.084)" style="fill:#0015aa"/>
            </g>
            <g data-name="그룹 13578">
                <path data-name="패스 8751" d="M-254.919 685.508c-6.179 0-11.069-1.839-14.535-5.467-3.415-3.575-5.175-8.639-5.231-15.054-.118-12.328 7.936-21.174 14.868-25a11.581 11.581 0 0 1 5.489-1.469 9.158 9.158 0 0 1 6.451 2.586 9.557 9.557 0 0 1 3.146 7.444 8.366 8.366 0 0 1-1.974 4.862c6.159 1.968 10.387 7.761 10.387 14.99 0 9.912-7.822 17.108-18.601 17.108z" transform="translate(839.049 -323.978)" style="fill:#0015aa"/>
            </g>
            <g data-name="그룹 13579">
                <path data-name="패스 8752" d="M-254.919 685.308c-6.179 0-11.069-1.839-14.535-5.467-3.415-3.575-5.175-8.639-5.231-15.054-.118-12.328 7.936-21.175 14.868-25a11.582 11.582 0 0 1 5.489-1.469 9.158 9.158 0 0 1 6.451 2.586 9.556 9.556 0 0 1 3.146 7.444 8.366 8.366 0 0 1-1.974 4.862c6.159 1.968 10.387 7.761 10.387 14.99 0 9.912-7.822 17.108-18.601 17.108z" transform="translate(839.049 -323.873)" style="fill:#0015aa"/>
            </g>
            <g data-name="그룹 13580">
                <path data-name="패스 8753" d="M-254.919 685.108c-6.179 0-11.069-1.839-14.535-5.467-3.415-3.575-5.175-8.639-5.231-15.054-.118-12.328 7.936-21.175 14.868-25a11.583 11.583 0 0 1 5.489-1.469 9.158 9.158 0 0 1 6.451 2.586 9.557 9.557 0 0 1 3.146 7.444 8.367 8.367 0 0 1-1.974 4.862c6.159 1.968 10.387 7.761 10.387 14.99 0 9.912-7.822 17.108-18.601 17.108z" transform="translate(839.049 -323.767)" style="fill:#0015aa"/>
            </g>
            <g data-name="그룹 13581">
                <path data-name="패스 8754" d="M-254.919 684.908c-6.179 0-11.069-1.839-14.535-5.467-3.415-3.575-5.175-8.639-5.231-15.054-.118-12.328 7.936-21.175 14.868-25a11.581 11.581 0 0 1 5.489-1.469 9.158 9.158 0 0 1 6.451 2.586 9.556 9.556 0 0 1 3.146 7.444 8.366 8.366 0 0 1-1.974 4.862c6.159 1.968 10.387 7.761 10.387 14.99 0 9.912-7.822 17.108-18.601 17.108z" transform="translate(839.049 -323.662)" style="fill:#0015aa"/>
            </g>
            <g data-name="그룹 13582">
                <path data-name="패스 8755" d="M-254.919 684.708c-6.179 0-11.069-1.839-14.535-5.467-3.415-3.575-5.175-8.639-5.231-15.054-.118-12.328 7.936-21.174 14.868-25a11.582 11.582 0 0 1 5.489-1.469 9.158 9.158 0 0 1 6.451 2.586 9.556 9.556 0 0 1 3.146 7.444 8.366 8.366 0 0 1-1.974 4.862c6.159 1.968 10.387 7.761 10.387 14.99 0 9.912-7.822 17.108-18.601 17.108z" transform="translate(839.049 -323.556)" style="fill:#0015aa"/>
            </g>
            <g data-name="그룹 13583">
                <path data-name="패스 8756" d="M-254.919 684.508c-6.179 0-11.069-1.839-14.535-5.467-3.415-3.575-5.175-8.639-5.231-15.054-.118-12.328 7.936-21.175 14.868-25a11.582 11.582 0 0 1 5.489-1.469 9.158 9.158 0 0 1 6.451 2.586 9.556 9.556 0 0 1 3.146 7.444 8.366 8.366 0 0 1-1.974 4.862c6.159 1.968 10.387 7.761 10.387 14.99 0 9.912-7.822 17.108-18.601 17.108z" transform="translate(839.049 -323.451)" style="fill:#0015aa"/>
            </g>
            <g data-name="그룹 13584">
                <path data-name="패스 8757" d="M-254.919 684.308c-6.179 0-11.069-1.839-14.535-5.467-3.415-3.575-5.175-8.639-5.231-15.054-.118-12.328 7.936-21.175 14.868-25a11.581 11.581 0 0 1 5.489-1.469 9.158 9.158 0 0 1 6.451 2.586 9.556 9.556 0 0 1 3.146 7.444 8.366 8.366 0 0 1-1.974 4.862c6.159 1.968 10.387 7.761 10.387 14.99 0 9.912-7.822 17.108-18.601 17.108z" transform="translate(839.049 -323.345)" style="fill:#0015aa"/>
            </g>
            <g data-name="그룹 13585">
                <path data-name="패스 8758" d="M-254.919 684.108c-6.179 0-11.069-1.839-14.535-5.467-3.415-3.575-5.175-8.639-5.231-15.054-.118-12.328 7.936-21.174 14.868-25a11.581 11.581 0 0 1 5.489-1.469 9.158 9.158 0 0 1 6.451 2.586 9.556 9.556 0 0 1 3.146 7.444 8.366 8.366 0 0 1-1.974 4.862c6.159 1.968 10.387 7.761 10.387 14.99 0 9.912-7.822 17.108-18.601 17.108z" transform="translate(839.049 -323.24)" style="fill:#0015aa"/>
            </g>
            <g data-name="그룹 13586">
                <path data-name="패스 8759" d="M-254.919 683.908c-6.179 0-11.069-1.839-14.535-5.467-3.415-3.575-5.175-8.639-5.231-15.054-.118-12.328 7.936-21.175 14.868-25a11.581 11.581 0 0 1 5.489-1.469 9.158 9.158 0 0 1 6.451 2.586 9.556 9.556 0 0 1 3.146 7.444 8.366 8.366 0 0 1-1.974 4.862c6.159 1.968 10.387 7.761 10.387 14.99 0 9.912-7.822 17.108-18.601 17.108z" transform="translate(839.049 -323.134)" style="fill:#0015aa"/>
            </g>
            <g data-name="그룹 13587">
                <path data-name="패스 8760" d="M-254.919 683.708c-6.179 0-11.069-1.839-14.535-5.467-3.415-3.575-5.175-8.639-5.231-15.054-.118-12.328 7.936-21.174 14.868-25a11.581 11.581 0 0 1 5.489-1.469 9.158 9.158 0 0 1 6.451 2.586 9.557 9.557 0 0 1 3.146 7.444 8.366 8.366 0 0 1-1.974 4.862c6.159 1.968 10.387 7.761 10.387 14.99 0 9.912-7.822 17.108-18.601 17.108z" transform="translate(839.049 -323.029)" style="fill:#0015aa"/>
            </g>
            <g data-name="그룹 13588">
                <path data-name="패스 8761" d="M-254.919 683.508c-6.179 0-11.069-1.839-14.535-5.467-3.415-3.575-5.175-8.639-5.231-15.054-.118-12.328 7.936-21.174 14.868-25a11.581 11.581 0 0 1 5.489-1.469 9.158 9.158 0 0 1 6.451 2.586 9.556 9.556 0 0 1 3.146 7.444 8.365 8.365 0 0 1-1.974 4.862c6.159 1.968 10.387 7.762 10.387 14.99 0 9.912-7.822 17.108-18.601 17.108z" transform="translate(839.049 -322.923)" style="fill:#0015aa"/>
            </g>
            <g data-name="그룹 13589">
                <path data-name="패스 8762" d="M-254.919 683.308c-6.179 0-11.069-1.839-14.535-5.467-3.415-3.575-5.175-8.639-5.231-15.054-.118-12.328 7.936-21.174 14.868-25a11.582 11.582 0 0 1 5.489-1.469 9.158 9.158 0 0 1 6.451 2.586 9.556 9.556 0 0 1 3.146 7.444 8.366 8.366 0 0 1-1.974 4.862c6.159 1.968 10.387 7.761 10.387 14.99 0 9.912-7.822 17.108-18.601 17.108z" transform="translate(839.049 -322.818)" style="fill:#0015aa"/>
            </g>
            <g data-name="그룹 13590">
                <path data-name="패스 8763" d="M-254.919 683.108c-6.179 0-11.069-1.839-14.535-5.467-3.415-3.575-5.175-8.639-5.231-15.054-.118-12.328 7.936-21.174 14.868-25a11.581 11.581 0 0 1 5.489-1.469 9.158 9.158 0 0 1 6.451 2.586 9.556 9.556 0 0 1 3.146 7.444 8.365 8.365 0 0 1-1.974 4.862c6.159 1.968 10.387 7.762 10.387 14.99 0 9.912-7.822 17.108-18.601 17.108z" transform="translate(839.049 -322.712)" style="fill:#0015aa"/>
            </g>
            <g data-name="그룹 13591">
                <path data-name="패스 8764" d="M-254.919 682.908c-6.179 0-11.069-1.839-14.535-5.467-3.415-3.575-5.175-8.639-5.231-15.054-.118-12.328 7.936-21.174 14.868-25a11.582 11.582 0 0 1 5.489-1.469 9.158 9.158 0 0 1 6.451 2.586 9.557 9.557 0 0 1 3.146 7.444 8.366 8.366 0 0 1-1.974 4.862c6.159 1.968 10.387 7.761 10.387 14.99 0 9.912-7.822 17.108-18.601 17.108z" transform="translate(839.049 -322.607)" style="fill:#0015aa"/>
            </g>
            <g data-name="그룹 13592">
                <path data-name="패스 8765" d="M-254.919 682.708c-6.179 0-11.069-1.839-14.535-5.467-3.415-3.575-5.175-8.639-5.231-15.054-.118-12.328 7.936-21.174 14.868-25a11.582 11.582 0 0 1 5.489-1.469 9.158 9.158 0 0 1 6.451 2.586 9.556 9.556 0 0 1 3.146 7.444 8.366 8.366 0 0 1-1.974 4.862c6.159 1.968 10.387 7.761 10.387 14.99 0 9.912-7.822 17.108-18.601 17.108z" transform="translate(839.049 -322.501)" style="fill:#0015aa"/>
            </g>
            <g data-name="그룹 13593">
                <path data-name="패스 8766" d="M-254.919 682.508c-6.179 0-11.069-1.839-14.535-5.467-3.415-3.575-5.175-8.639-5.231-15.054-.118-12.328 7.936-21.174 14.868-25a11.582 11.582 0 0 1 5.489-1.469 9.158 9.158 0 0 1 6.451 2.586 9.556 9.556 0 0 1 3.146 7.444 8.366 8.366 0 0 1-1.974 4.862c6.159 1.968 10.387 7.761 10.387 14.99 0 9.912-7.822 17.108-18.601 17.108z" transform="translate(839.049 -322.396)" style="fill:#0015aa"/>
            </g>
            <g data-name="그룹 13594">
                <path data-name="패스 8767" d="M-254.919 682.308c-6.179 0-11.069-1.839-14.535-5.467-3.415-3.575-5.175-8.639-5.231-15.054-.118-12.328 7.936-21.175 14.868-25a11.582 11.582 0 0 1 5.489-1.469 9.158 9.158 0 0 1 6.451 2.586 9.556 9.556 0 0 1 3.146 7.444 8.366 8.366 0 0 1-1.974 4.862c6.159 1.968 10.387 7.761 10.387 14.99 0 9.912-7.822 17.108-18.601 17.108z" transform="translate(839.049 -322.29)" style="fill:#0015aa"/>
            </g>
            <g data-name="그룹 13595">
                <path data-name="패스 8768" d="M-254.919 682.108c-6.179 0-11.069-1.839-14.535-5.467-3.415-3.575-5.175-8.639-5.231-15.054-.118-12.328 7.936-21.175 14.868-25a11.581 11.581 0 0 1 5.489-1.469 9.158 9.158 0 0 1 6.451 2.586 9.556 9.556 0 0 1 3.146 7.444 8.366 8.366 0 0 1-1.974 4.862c6.159 1.968 10.387 7.761 10.387 14.99 0 9.912-7.822 17.108-18.601 17.108z" transform="translate(839.049 -322.185)" style="fill:#0015aa"/>
            </g>
            <g data-name="그룹 13596">
                <path data-name="패스 8769" d="M-254.919 681.908c-6.179 0-11.069-1.839-14.535-5.467-3.415-3.575-5.175-8.639-5.231-15.054-.118-12.328 7.936-21.174 14.868-25a11.582 11.582 0 0 1 5.489-1.469 9.158 9.158 0 0 1 6.451 2.586 9.557 9.557 0 0 1 3.146 7.444 8.366 8.366 0 0 1-1.974 4.862c6.159 1.968 10.387 7.761 10.387 14.99 0 9.912-7.822 17.108-18.601 17.108z" transform="translate(839.049 -322.079)" style="fill:#0015aa"/>
            </g>
            <g data-name="그룹 13597">
                <path data-name="패스 8770" d="M-254.919 681.708c-6.179 0-11.069-1.839-14.535-5.467-3.415-3.575-5.175-8.639-5.231-15.054-.118-12.328 7.936-21.174 14.868-25a11.582 11.582 0 0 1 5.489-1.469 9.158 9.158 0 0 1 6.451 2.586 9.556 9.556 0 0 1 3.146 7.444 8.366 8.366 0 0 1-1.974 4.862c6.159 1.968 10.387 7.762 10.387 14.99 0 9.912-7.822 17.108-18.601 17.108z" transform="translate(839.049 -321.974)" style="fill:#0015aa"/>
            </g>
            <g data-name="그룹 13598">
                <path data-name="패스 8771" d="M-254.919 681.508c-6.179 0-11.069-1.839-14.535-5.467-3.415-3.575-5.175-8.639-5.231-15.054-.118-12.328 7.936-21.175 14.868-25a11.582 11.582 0 0 1 5.489-1.469 9.158 9.158 0 0 1 6.451 2.586 9.556 9.556 0 0 1 3.146 7.444 8.366 8.366 0 0 1-1.974 4.862c6.159 1.968 10.387 7.761 10.387 14.99 0 9.912-7.822 17.108-18.601 17.108z" transform="translate(839.049 -321.868)" style="fill:#0015aa"/>
            </g>
            <g data-name="그룹 13599">
                <path data-name="패스 8772" d="M-254.919 681.308c-6.179 0-11.069-1.839-14.535-5.467-3.415-3.575-5.175-8.639-5.231-15.054-.118-12.328 7.936-21.174 14.868-25a11.582 11.582 0 0 1 5.489-1.469 9.158 9.158 0 0 1 6.451 2.586 9.556 9.556 0 0 1 3.146 7.444 8.366 8.366 0 0 1-1.974 4.862c6.159 1.968 10.387 7.762 10.387 14.99 0 9.912-7.822 17.108-18.601 17.108z" transform="translate(839.049 -321.763)" style="fill:#0015aa"/>
            </g>
            <g data-name="그룹 13600">
                <path data-name="패스 8773" d="M-254.919 681.108c-6.179 0-11.069-1.839-14.535-5.467-3.415-3.575-5.175-8.639-5.231-15.054-.118-12.328 7.936-21.174 14.868-25a11.582 11.582 0 0 1 5.489-1.469 9.158 9.158 0 0 1 6.451 2.586 9.556 9.556 0 0 1 3.146 7.444 8.366 8.366 0 0 1-1.974 4.862c6.159 1.968 10.387 7.761 10.387 14.99 0 9.912-7.822 17.108-18.601 17.108z" transform="translate(839.049 -321.657)" style="fill:#0015aa"/>
            </g>
            <g data-name="그룹 13601">
                <path data-name="패스 8774" d="M-254.919 680.908c-6.179 0-11.069-1.839-14.535-5.467-3.415-3.575-5.175-8.639-5.231-15.054-.118-12.328 7.936-21.175 14.868-25a11.582 11.582 0 0 1 5.489-1.469 9.158 9.158 0 0 1 6.451 2.586 9.556 9.556 0 0 1 3.146 7.444 8.366 8.366 0 0 1-1.974 4.862c6.159 1.968 10.387 7.761 10.387 14.99 0 9.912-7.822 17.108-18.601 17.108z" transform="translate(839.049 -321.552)" style="fill:#0015aa"/>
            </g>
        </g>
        <g data-name="그룹 13603" style="mix-blend-mode:screen;isolation:isolate">
            <path data-name="패스 8775" d="M-254.919 680.908c-6.179 0-11.069-1.839-14.535-5.467-3.415-3.575-5.175-8.639-5.231-15.054-.118-12.328 7.936-21.175 14.868-25a11.582 11.582 0 0 1 5.489-1.469 9.158 9.158 0 0 1 6.451 2.586 9.556 9.556 0 0 1 3.146 7.444 8.366 8.366 0 0 1-1.974 4.862c6.159 1.968 10.387 7.761 10.387 14.99 0 9.912-7.822 17.108-18.601 17.108z" transform="translate(839.049 -321.552)" style="fill:#e4f9ff"/>
        </g>
        <g data-name="그룹 13604">
            <path data-name="패스 8776" d="M-254.392 680.963c-12.149 0-19.182-7.309-19.294-20.052-.116-12.12 7.806-20.819 14.625-24.586a11.1 11.1 0 0 1 5.26-1.41 8.694 8.694 0 0 1 6.124 2.454 9.086 9.086 0 0 1 3 7.073 8.021 8.021 0 0 1-2.357 5.137c6.347 1.678 10.77 7.461 10.77 14.746.001 9.641-7.623 16.638-18.128 16.638zm.039-16.6v-.078h-.078v.078z" transform="translate(838.522 -322.08)" style="fill:#008aff"/>
        </g>
        <text data-name="6" transform="translate(568.331 351.138)" style="font-size:45px;font-family:SDOdongtongBasic,Sandoll Odongtong;fill:#50c2ff"><tspan x="0" y="0">6</tspan></text>
        <text data-name="6" transform="translate(567.859 350.192)" style="font-size:45px;font-family:SDOdongtongBasic,Sandoll Odongtong;fill:#fff"><tspan x="0" y="0">6</tspan></text>
    </g>
</svg>
