<svg xmlns="http://www.w3.org/2000/svg" width="38" height="57" viewBox="0 0 38 57">
    <defs>
        <clipPath id="gty3u8gufa">
            <path data-name="사각형 6153" transform="translate(146 309)" style="stroke:#707070;fill:#fff" d="M0 0h38v57H0z"/>
        </clipPath>
    </defs>
    <g data-name="그룹 14018" transform="translate(-146 -309)" style="clip-path:url(#gty3u8gufa)">
        <g data-name="그룹 13230">
            <g data-name="그룹 13229">
                <g data-name="그룹 13198">
                    <path data-name="패스 8393" d="M-1145.254 686.694c-6.61 0-10.97-4.254-11.662-11.38-.4-3.954-.562-8.157-.569-12.015a11.039 11.039 0 0 1-9.522-5.8c-2.935-5.282-1.7-11.172 3.147-15.023 3.734-2.986 11.65-7.446 18.093-7.446 6.885 0 12 4.784 12.731 11.9.744 6.993.745 21.636-.319 28.723-1.056 6.921-5.503 11.041-11.899 11.041z" transform="translate(1315.58 -322.194)" style="fill:#fff"/>
                </g>
                <g data-name="그룹 13199">
                    <path data-name="패스 8394" d="M-1145.254 686.494c-6.61 0-10.97-4.254-11.662-11.38-.4-3.954-.562-8.157-.569-12.015a11.038 11.038 0 0 1-9.522-5.8c-2.935-5.282-1.7-11.172 3.147-15.023 3.734-2.985 11.65-7.446 18.093-7.446 6.885 0 12 4.784 12.731 11.9.744 6.993.745 21.636-.319 28.723-1.056 6.921-5.503 11.041-11.899 11.041z" transform="translate(1315.58 -322.088)" style="fill:#fff"/>
                </g>
                <g data-name="그룹 13200">
                    <path data-name="패스 8395" d="M-1145.254 686.294c-6.61 0-10.97-4.254-11.662-11.38-.4-3.954-.562-8.157-.569-12.015a11.038 11.038 0 0 1-9.522-5.8c-2.935-5.282-1.7-11.172 3.147-15.023 3.734-2.985 11.65-7.446 18.093-7.446 6.885 0 12 4.784 12.731 11.9.744 6.993.745 21.636-.319 28.723-1.056 6.921-5.503 11.041-11.899 11.041z" transform="translate(1315.58 -321.983)" style="fill:#fff"/>
                </g>
                <g data-name="그룹 13201">
                    <path data-name="패스 8396" d="M-1145.254 686.094c-6.61 0-10.97-4.254-11.662-11.38-.4-3.954-.562-8.157-.569-12.015a11.038 11.038 0 0 1-9.522-5.8c-2.935-5.282-1.7-11.172 3.147-15.023 3.734-2.986 11.65-7.446 18.093-7.446 6.885 0 12 4.784 12.731 11.9.744 6.993.745 21.636-.319 28.723-1.056 6.921-5.503 11.041-11.899 11.041z" transform="translate(1315.58 -321.877)" style="fill:#fff"/>
                </g>
                <g data-name="그룹 13202">
                    <path data-name="패스 8397" d="M-1145.254 685.894c-6.61 0-10.97-4.254-11.662-11.38-.4-3.954-.562-8.157-.569-12.015a11.038 11.038 0 0 1-9.522-5.8c-2.935-5.282-1.7-11.172 3.147-15.023 3.734-2.986 11.65-7.446 18.093-7.446 6.885 0 12 4.784 12.731 11.9.744 6.993.745 21.636-.319 28.723-1.056 6.921-5.503 11.041-11.899 11.041z" transform="translate(1315.58 -321.772)" style="fill:#fff"/>
                </g>
                <g data-name="그룹 13203">
                    <path data-name="패스 8398" d="M-1145.254 685.694c-6.61 0-10.97-4.254-11.662-11.38-.4-3.954-.562-8.157-.569-12.015a11.038 11.038 0 0 1-9.522-5.8c-2.935-5.282-1.7-11.172 3.147-15.023 3.734-2.986 11.65-7.446 18.093-7.446 6.885 0 12 4.783 12.731 11.9.744 6.993.745 21.636-.319 28.723-1.056 6.921-5.503 11.041-11.899 11.041z" transform="translate(1315.58 -321.666)" style="fill:#fff"/>
                </g>
                <g data-name="그룹 13204">
                    <path data-name="패스 8399" d="M-1145.254 685.494c-6.61 0-10.97-4.254-11.662-11.38-.4-3.954-.562-8.157-.569-12.015a11.038 11.038 0 0 1-9.522-5.8c-2.935-5.282-1.7-11.172 3.147-15.023 3.734-2.986 11.65-7.446 18.093-7.446 6.885 0 12 4.784 12.731 11.9.744 6.993.745 21.636-.319 28.723-1.056 6.921-5.503 11.041-11.899 11.041z" transform="translate(1315.58 -321.561)" style="fill:#fff"/>
                </g>
                <g data-name="그룹 13205">
                    <path data-name="패스 8400" d="M-1145.254 685.294c-6.61 0-10.97-4.254-11.662-11.38-.4-3.954-.562-8.157-.569-12.015a11.038 11.038 0 0 1-9.522-5.8c-2.935-5.282-1.7-11.172 3.147-15.023 3.734-2.986 11.65-7.446 18.093-7.446 6.885 0 12 4.783 12.731 11.9.744 6.993.745 21.636-.319 28.723-1.056 6.921-5.503 11.041-11.899 11.041z" transform="translate(1315.58 -321.455)" style="fill:#fff"/>
                </g>
                <g data-name="그룹 13206">
                    <path data-name="패스 8401" d="M-1145.254 685.094c-6.61 0-10.97-4.254-11.662-11.38-.4-3.954-.562-8.157-.569-12.015a11.038 11.038 0 0 1-9.522-5.8c-2.935-5.282-1.7-11.172 3.147-15.023 3.734-2.985 11.65-7.446 18.093-7.446 6.885 0 12 4.784 12.731 11.9.744 6.993.745 21.636-.319 28.723-1.056 6.921-5.503 11.041-11.899 11.041z" transform="translate(1315.58 -321.35)" style="fill:#fff"/>
                </g>
                <g data-name="그룹 13207">
                    <path data-name="패스 8402" d="M-1145.254 684.894c-6.61 0-10.97-4.254-11.662-11.38-.4-3.954-.562-8.157-.569-12.015a11.039 11.039 0 0 1-9.522-5.8c-2.935-5.282-1.7-11.172 3.147-15.023 3.734-2.986 11.65-7.446 18.093-7.446 6.885 0 12 4.784 12.731 11.9.744 6.993.745 21.636-.319 28.723-1.056 6.921-5.503 11.041-11.899 11.041z" transform="translate(1315.58 -321.244)" style="fill:#fff"/>
                </g>
                <g data-name="그룹 13208">
                    <path data-name="패스 8403" d="M-1145.254 684.694c-6.61 0-10.97-4.254-11.662-11.38-.4-3.954-.562-8.157-.569-12.015a11.038 11.038 0 0 1-9.522-5.8c-2.935-5.282-1.7-11.172 3.147-15.024 3.734-2.985 11.65-7.446 18.093-7.446 6.885 0 12 4.783 12.731 11.9.744 6.993.745 21.636-.319 28.724-1.056 6.921-5.503 11.041-11.899 11.041z" transform="translate(1315.58 -321.139)" style="fill:#fff"/>
                </g>
                <g data-name="그룹 13209">
                    <path data-name="패스 8404" d="M-1145.254 684.494c-6.61 0-10.97-4.254-11.662-11.38-.4-3.954-.562-8.157-.569-12.015a11.038 11.038 0 0 1-9.522-5.8c-2.935-5.282-1.7-11.172 3.147-15.023 3.734-2.986 11.65-7.446 18.093-7.446 6.885 0 12 4.784 12.731 11.9.744 6.993.745 21.636-.319 28.723-1.056 6.921-5.503 11.041-11.899 11.041z" transform="translate(1315.58 -321.033)" style="fill:#fff"/>
                </g>
                <g data-name="그룹 13210">
                    <path data-name="패스 8405" d="M-1145.254 684.294c-6.61 0-10.97-4.254-11.662-11.38-.4-3.954-.562-8.157-.569-12.015a11.038 11.038 0 0 1-9.522-5.8c-2.935-5.282-1.7-11.172 3.147-15.023 3.734-2.986 11.65-7.446 18.093-7.446 6.885 0 12 4.784 12.731 11.9.744 6.993.745 21.636-.319 28.723-1.056 6.921-5.503 11.041-11.899 11.041z" transform="translate(1315.58 -320.928)" style="fill:#fff"/>
                </g>
                <g data-name="그룹 13211">
                    <path data-name="패스 8406" d="M-1145.254 684.094c-6.61 0-10.97-4.254-11.662-11.38-.4-3.954-.562-8.157-.569-12.015a11.038 11.038 0 0 1-9.522-5.8c-2.935-5.282-1.7-11.172 3.147-15.023 3.734-2.985 11.65-7.446 18.093-7.446 6.885 0 12 4.783 12.731 11.9.744 6.993.745 21.636-.319 28.723-1.056 6.921-5.503 11.041-11.899 11.041z" transform="translate(1315.58 -320.822)" style="fill:#fff"/>
                </g>
                <g data-name="그룹 13212">
                    <path data-name="패스 8407" d="M-1145.254 683.894c-6.61 0-10.97-4.254-11.662-11.38-.4-3.954-.562-8.157-.569-12.015a11.038 11.038 0 0 1-9.522-5.8c-2.935-5.282-1.7-11.172 3.147-15.023 3.734-2.985 11.65-7.446 18.093-7.446 6.885 0 12 4.784 12.731 11.9.744 6.993.745 21.636-.319 28.723-1.056 6.921-5.503 11.041-11.899 11.041z" transform="translate(1315.58 -320.717)" style="fill:#fff"/>
                </g>
                <g data-name="그룹 13213">
                    <path data-name="패스 8408" d="M-1145.254 683.694c-6.61 0-10.97-4.254-11.662-11.38-.4-3.954-.562-8.157-.569-12.015a11.038 11.038 0 0 1-9.522-5.8c-2.935-5.282-1.7-11.172 3.147-15.023 3.734-2.986 11.65-7.446 18.093-7.446 6.885 0 12 4.784 12.731 11.9.744 6.993.745 21.636-.319 28.723-1.056 6.921-5.503 11.041-11.899 11.041z" transform="translate(1315.58 -320.611)" style="fill:#fff"/>
                </g>
                <g data-name="그룹 13214">
                    <path data-name="패스 8409" d="M-1145.254 683.494c-6.61 0-10.97-4.254-11.662-11.38-.4-3.954-.562-8.157-.569-12.015a11.038 11.038 0 0 1-9.522-5.8c-2.935-5.282-1.7-11.172 3.147-15.023 3.734-2.986 11.65-7.446 18.093-7.446 6.885 0 12 4.784 12.731 11.9.744 6.993.745 21.636-.319 28.723-1.056 6.921-5.503 11.041-11.899 11.041z" transform="translate(1315.58 -320.506)" style="fill:#fff"/>
                </g>
                <g data-name="그룹 13215">
                    <path data-name="패스 8410" d="M-1145.254 683.294c-6.61 0-10.97-4.254-11.662-11.38-.4-3.954-.562-8.157-.569-12.015a11.038 11.038 0 0 1-9.522-5.8c-2.935-5.282-1.7-11.172 3.147-15.023 3.734-2.985 11.65-7.446 18.093-7.446 6.885 0 12 4.784 12.731 11.9.744 6.993.745 21.636-.319 28.723-1.056 6.921-5.503 11.041-11.899 11.041z" transform="translate(1315.58 -320.4)" style="fill:#fff"/>
                </g>
                <g data-name="그룹 13216">
                    <path data-name="패스 8411" d="M-1145.254 683.094c-6.61 0-10.97-4.254-11.662-11.38-.4-3.954-.562-8.157-.569-12.015a11.038 11.038 0 0 1-9.522-5.8c-2.935-5.282-1.7-11.172 3.147-15.023 3.734-2.986 11.65-7.446 18.093-7.446 6.885 0 12 4.784 12.731 11.9.744 6.993.745 21.636-.319 28.723-1.056 6.921-5.503 11.041-11.899 11.041z" transform="translate(1315.58 -320.295)" style="fill:#fff"/>
                </g>
                <g data-name="그룹 13217">
                    <path data-name="패스 8412" d="M-1145.254 682.894c-6.61 0-10.97-4.254-11.662-11.38-.4-3.954-.562-8.157-.569-12.015a11.039 11.039 0 0 1-9.522-5.8c-2.935-5.282-1.7-11.172 3.147-15.023 3.734-2.985 11.65-7.446 18.093-7.446 6.885 0 12 4.784 12.731 11.9.744 6.993.745 21.636-.319 28.723-1.056 6.921-5.503 11.041-11.899 11.041z" transform="translate(1315.58 -320.189)" style="fill:#fff"/>
                </g>
                <g data-name="그룹 13218">
                    <path data-name="패스 8413" d="M-1145.254 682.694c-6.61 0-10.97-4.254-11.662-11.38-.4-3.954-.562-8.157-.569-12.015a11.038 11.038 0 0 1-9.522-5.8c-2.935-5.282-1.7-11.172 3.147-15.024 3.734-2.985 11.65-7.446 18.093-7.446 6.885 0 12 4.784 12.731 11.9.744 6.993.745 21.636-.319 28.723-1.056 6.922-5.503 11.042-11.899 11.042z" transform="translate(1315.58 -320.084)" style="fill:#fff"/>
                </g>
                <g data-name="그룹 13219">
                    <path data-name="패스 8414" d="M-1145.254 682.494c-6.61 0-10.97-4.254-11.662-11.38-.4-3.954-.562-8.157-.569-12.015a11.039 11.039 0 0 1-9.522-5.8c-2.935-5.282-1.7-11.172 3.147-15.024 3.734-2.985 11.65-7.446 18.093-7.446 6.885 0 12 4.784 12.731 11.9.744 6.993.745 21.636-.319 28.723-1.056 6.922-5.503 11.042-11.899 11.042z" transform="translate(1315.58 -319.978)" style="fill:#fff"/>
                </g>
                <g data-name="그룹 13220">
                    <path data-name="패스 8415" d="M-1145.254 682.294c-6.61 0-10.97-4.254-11.662-11.38-.4-3.954-.562-8.157-.569-12.015a11.038 11.038 0 0 1-9.522-5.8c-2.935-5.282-1.7-11.172 3.147-15.023 3.734-2.985 11.65-7.446 18.093-7.446 6.885 0 12 4.784 12.731 11.9.744 6.993.745 21.636-.319 28.723-1.056 6.921-5.503 11.041-11.899 11.041z" transform="translate(1315.58 -319.873)" style="fill:#fff"/>
                </g>
                <g data-name="그룹 13221">
                    <path data-name="패스 8416" d="M-1145.254 682.094c-6.61 0-10.97-4.254-11.662-11.38-.4-3.954-.562-8.157-.569-12.015a11.038 11.038 0 0 1-9.522-5.8c-2.935-5.282-1.7-11.172 3.147-15.023 3.734-2.985 11.65-7.446 18.093-7.446 6.885 0 12 4.783 12.731 11.9.744 6.993.745 21.636-.319 28.723-1.056 6.921-5.503 11.041-11.899 11.041z" transform="translate(1315.58 -319.767)" style="fill:#fff"/>
                </g>
                <g data-name="그룹 13222">
                    <path data-name="패스 8417" d="M-1145.254 681.894c-6.61 0-10.97-4.254-11.662-11.38-.4-3.954-.562-8.157-.569-12.015a11.038 11.038 0 0 1-9.522-5.8c-2.935-5.282-1.7-11.172 3.147-15.023 3.734-2.986 11.65-7.446 18.093-7.446 6.885 0 12 4.784 12.731 11.9.744 6.993.745 21.636-.319 28.723-1.056 6.921-5.503 11.041-11.899 11.041z" transform="translate(1315.58 -319.662)" style="fill:#fff"/>
                </g>
                <g data-name="그룹 13223">
                    <path data-name="패스 8418" d="M-1145.254 681.694c-6.61 0-10.97-4.254-11.662-11.38-.4-3.954-.562-8.157-.569-12.015a11.038 11.038 0 0 1-9.522-5.8c-2.935-5.282-1.7-11.172 3.147-15.023 3.734-2.986 11.65-7.446 18.093-7.446 6.885 0 12 4.783 12.731 11.9.744 6.993.745 21.636-.319 28.723-1.056 6.921-5.503 11.041-11.899 11.041z" transform="translate(1315.58 -319.556)" style="fill:#fff"/>
                </g>
                <g data-name="그룹 13224">
                    <path data-name="패스 8419" d="M-1145.254 681.494c-6.61 0-10.97-4.254-11.662-11.38-.4-3.954-.562-8.157-.569-12.015a11.038 11.038 0 0 1-9.522-5.8c-2.935-5.282-1.7-11.172 3.147-15.023 3.734-2.986 11.65-7.446 18.093-7.446 6.885 0 12 4.784 12.731 11.9.744 6.993.745 21.636-.319 28.723-1.056 6.921-5.503 11.041-11.899 11.041z" transform="translate(1315.58 -319.451)" style="fill:#fff"/>
                </g>
                <g data-name="그룹 13225">
                    <path data-name="패스 8420" d="M-1145.254 681.294c-6.61 0-10.97-4.254-11.662-11.38-.4-3.954-.562-8.157-.569-12.015a11.038 11.038 0 0 1-9.522-5.8c-2.935-5.282-1.7-11.172 3.147-15.023 3.734-2.986 11.65-7.446 18.093-7.446 6.885 0 12 4.784 12.731 11.9.744 6.993.745 21.636-.319 28.723-1.056 6.921-5.503 11.041-11.899 11.041z" transform="translate(1315.58 -319.345)" style="fill:#fff"/>
                </g>
                <g data-name="그룹 13226">
                    <path data-name="패스 8421" d="M-1145.254 681.094c-6.61 0-10.97-4.254-11.662-11.38-.4-3.954-.562-8.157-.569-12.015a11.038 11.038 0 0 1-9.522-5.8c-2.935-5.282-1.7-11.172 3.147-15.023 3.734-2.986 11.65-7.446 18.093-7.446 6.885 0 12 4.783 12.731 11.9.744 6.993.745 21.636-.319 28.723-1.056 6.921-5.503 11.041-11.899 11.041z" transform="translate(1315.58 -319.24)" style="fill:#fff"/>
                </g>
                <g data-name="그룹 13227">
                    <path data-name="패스 8422" d="M-1145.254 680.894c-6.61 0-10.97-4.254-11.662-11.38-.4-3.954-.562-8.157-.569-12.015a11.038 11.038 0 0 1-9.522-5.8c-2.935-5.282-1.7-11.172 3.147-15.023 3.734-2.986 11.65-7.446 18.093-7.446 6.885 0 12 4.784 12.731 11.9.744 6.993.745 21.636-.319 28.723-1.056 6.921-5.503 11.041-11.899 11.041z" transform="translate(1315.58 -319.134)" style="fill:#fff"/>
                </g>
                <g data-name="그룹 13228">
                    <path data-name="패스 8423" d="M-1145.254 680.694c-6.61 0-10.97-4.254-11.662-11.38-.4-3.954-.562-8.157-.569-12.015a11.039 11.039 0 0 1-9.522-5.8c-2.935-5.282-1.7-11.172 3.147-15.023 3.734-2.986 11.65-7.446 18.093-7.446 6.885 0 12 4.784 12.731 11.9.744 6.993.745 21.636-.319 28.723-1.056 6.921-5.503 11.041-11.899 11.041z" transform="translate(1315.58 -319.029)" style="fill:#fff"/>
                </g>
            </g>
        </g>
        <g data-name="그룹 13262">
            <g data-name="그룹 13231">
                <path data-name="패스 8424" d="M-1142.624 686.968c-2.529 0-8.5-.9-9.31-9.245a126.714 126.714 0 0 1-.54-14.347 10.337 10.337 0 0 1-2.017.2 8.748 8.748 0 0 1-7.823-4.6c-2.377-4.277-1.4-8.879 2.556-12.021 3.346-2.675 10.828-6.933 16.623-6.933 5.608 0 9.78 3.932 10.38 9.781.73 6.867.734 21.206-.3 28.132-1.205 7.865-6.512 9.033-9.569 9.033z" transform="translate(1312.95 -324.831)" style="fill:#0015a9"/>
            </g>
            <g data-name="그룹 13232">
                <path data-name="패스 8425" d="M-1142.624 686.768c-2.529 0-8.5-.9-9.31-9.245a126.714 126.714 0 0 1-.54-14.347 10.337 10.337 0 0 1-2.017.2 8.748 8.748 0 0 1-7.823-4.6c-2.377-4.277-1.4-8.879 2.556-12.02 3.346-2.676 10.828-6.933 16.623-6.933 5.608 0 9.78 3.932 10.38 9.782.73 6.867.734 21.206-.3 28.132-1.205 7.863-6.512 9.031-9.569 9.031z" transform="translate(1312.95 -324.725)" style="fill:#0015a9"/>
            </g>
            <g data-name="그룹 13233">
                <path data-name="패스 8426" d="M-1142.624 686.568c-2.529 0-8.5-.9-9.31-9.245a126.714 126.714 0 0 1-.54-14.347 10.337 10.337 0 0 1-2.017.2 8.748 8.748 0 0 1-7.823-4.6c-2.377-4.277-1.4-8.879 2.556-12.02 3.346-2.676 10.828-6.933 16.623-6.933 5.608 0 9.78 3.932 10.38 9.782.73 6.867.734 21.206-.3 28.132-1.205 7.863-6.512 9.031-9.569 9.031z" transform="translate(1312.95 -324.62)" style="fill:#0015a9"/>
            </g>
            <g data-name="그룹 13235">
                <path data-name="패스 8428" d="M-1142.624 686.168c-2.529 0-8.5-.9-9.31-9.245a126.715 126.715 0 0 1-.54-14.347 10.337 10.337 0 0 1-2.017.2 8.748 8.748 0 0 1-7.823-4.6c-2.377-4.277-1.4-8.879 2.556-12.02 3.346-2.676 10.828-6.933 16.623-6.933 5.608 0 9.78 3.932 10.38 9.782.73 6.866.734 21.206-.3 28.132-1.205 7.863-6.512 9.031-9.569 9.031z" transform="translate(1312.95 -324.409)" style="fill:#0015a9"/>
            </g>
            <g data-name="그룹 13236">
                <path data-name="패스 8429" d="M-1142.624 685.968c-2.529 0-8.5-.9-9.31-9.245a126.712 126.712 0 0 1-.54-14.347 10.342 10.342 0 0 1-2.017.2 8.748 8.748 0 0 1-7.823-4.6c-2.377-4.277-1.4-8.879 2.556-12.021 3.346-2.676 10.828-6.933 16.623-6.933 5.608 0 9.78 3.932 10.38 9.782.73 6.866.734 21.206-.3 28.132-1.205 7.864-6.512 9.032-9.569 9.032z" transform="translate(1312.95 -324.303)" style="fill:#0015a9"/>
            </g>
            <g data-name="그룹 13237">
                <path data-name="패스 8430" d="M-1142.624 685.768c-2.529 0-8.5-.9-9.31-9.245a126.714 126.714 0 0 1-.54-14.347 10.342 10.342 0 0 1-2.017.2 8.748 8.748 0 0 1-7.823-4.6c-2.377-4.277-1.4-8.879 2.556-12.021 3.346-2.676 10.828-6.933 16.623-6.933 5.608 0 9.78 3.932 10.38 9.782.73 6.866.734 21.206-.3 28.132-1.205 7.864-6.512 9.032-9.569 9.032z" transform="translate(1312.95 -324.198)" style="fill:#0015a9"/>
            </g>
            <g data-name="그룹 13238">
                <path data-name="패스 8431" d="M-1142.624 685.568c-2.529 0-8.5-.9-9.31-9.245a126.714 126.714 0 0 1-.54-14.347 10.337 10.337 0 0 1-2.017.2 8.748 8.748 0 0 1-7.823-4.6c-2.377-4.277-1.4-8.879 2.556-12.021 3.346-2.676 10.828-6.933 16.623-6.933 5.608 0 9.78 3.932 10.38 9.782.73 6.866.734 21.206-.3 28.132-1.205 7.864-6.512 9.032-9.569 9.032z" transform="translate(1312.95 -324.092)" style="fill:#0015a9"/>
            </g>
            <g data-name="그룹 13239">
                <path data-name="패스 8432" d="M-1142.624 685.368c-2.529 0-8.5-.9-9.31-9.245a126.714 126.714 0 0 1-.54-14.347 10.342 10.342 0 0 1-2.017.2 8.748 8.748 0 0 1-7.823-4.6c-2.377-4.277-1.4-8.879 2.556-12.02 3.346-2.675 10.828-6.933 16.623-6.933 5.608 0 9.78 3.932 10.38 9.782.73 6.866.734 21.206-.3 28.132-1.205 7.863-6.512 9.031-9.569 9.031z" transform="translate(1312.95 -323.987)" style="fill:#0015a9"/>
            </g>
            <g data-name="그룹 13240">
                <path data-name="패스 8433" d="M-1142.624 685.168c-2.529 0-8.5-.9-9.31-9.245a126.712 126.712 0 0 1-.54-14.347 10.342 10.342 0 0 1-2.017.2 8.748 8.748 0 0 1-7.823-4.6c-2.377-4.277-1.4-8.879 2.556-12.021 3.346-2.675 10.828-6.933 16.623-6.933 5.608 0 9.78 3.932 10.38 9.782.73 6.866.734 21.206-.3 28.132-1.205 7.864-6.512 9.032-9.569 9.032z" transform="translate(1312.95 -323.881)" style="fill:#0015a9"/>
            </g>
            <g data-name="그룹 13241">
                <path data-name="패스 8434" d="M-1142.624 684.968c-2.529 0-8.5-.9-9.31-9.245a126.714 126.714 0 0 1-.54-14.347 10.338 10.338 0 0 1-2.017.2 8.748 8.748 0 0 1-7.823-4.6c-2.377-4.277-1.4-8.879 2.556-12.02 3.346-2.675 10.828-6.933 16.623-6.933 5.608 0 9.78 3.932 10.38 9.782.73 6.866.734 21.206-.3 28.132-1.205 7.863-6.512 9.031-9.569 9.031z" transform="translate(1312.95 -323.776)" style="fill:#0015a9"/>
            </g>
            <g data-name="그룹 13242">
                <path data-name="패스 8435" d="M-1142.624 684.768c-2.529 0-8.5-.9-9.31-9.245a126.712 126.712 0 0 1-.54-14.347 10.342 10.342 0 0 1-2.017.2 8.748 8.748 0 0 1-7.823-4.6c-2.377-4.277-1.4-8.879 2.556-12.021 3.346-2.675 10.828-6.933 16.623-6.933 5.608 0 9.78 3.932 10.38 9.782.73 6.866.734 21.206-.3 28.132-1.205 7.864-6.512 9.032-9.569 9.032z" transform="translate(1312.95 -323.67)" style="fill:#0015a9"/>
            </g>
            <g data-name="그룹 13243">
                <path data-name="패스 8436" d="M-1142.624 684.568c-2.529 0-8.5-.9-9.31-9.245a126.712 126.712 0 0 1-.54-14.347 10.342 10.342 0 0 1-2.017.2 8.748 8.748 0 0 1-7.823-4.6c-2.377-4.277-1.4-8.879 2.556-12.021 3.346-2.676 10.828-6.933 16.623-6.933 5.608 0 9.78 3.932 10.38 9.782.73 6.866.734 21.206-.3 28.132-1.205 7.864-6.512 9.032-9.569 9.032z" transform="translate(1312.95 -323.565)" style="fill:#0015a9"/>
            </g>
            <g data-name="그룹 13244">
                <path data-name="패스 8437" d="M-1142.624 684.368c-2.529 0-8.5-.9-9.31-9.245a126.713 126.713 0 0 1-.54-14.347 10.333 10.333 0 0 1-2.017.2 8.748 8.748 0 0 1-7.823-4.6c-2.377-4.277-1.4-8.879 2.556-12.02 3.346-2.676 10.828-6.933 16.623-6.933 5.608 0 9.78 3.932 10.38 9.782.73 6.866.734 21.206-.3 28.132-1.205 7.863-6.512 9.031-9.569 9.031z" transform="translate(1312.95 -323.459)" style="fill:#0015a9"/>
            </g>
            <g data-name="그룹 13245">
                <path data-name="패스 8438" d="M-1142.624 684.168c-2.529 0-8.5-.9-9.31-9.245a126.71 126.71 0 0 1-.54-14.347 10.351 10.351 0 0 1-2.017.2 8.748 8.748 0 0 1-7.823-4.6c-2.377-4.277-1.4-8.879 2.556-12.021 3.346-2.676 10.828-6.933 16.623-6.933 5.608 0 9.78 3.931 10.38 9.781.73 6.867.734 21.206-.3 28.132-1.205 7.865-6.512 9.033-9.569 9.033z" transform="translate(1312.95 -323.354)" style="fill:#0015a9"/>
            </g>
            <g data-name="그룹 13246">
                <path data-name="패스 8439" d="M-1142.624 683.968c-2.529 0-8.5-.9-9.31-9.245a126.713 126.713 0 0 1-.54-14.347 10.338 10.338 0 0 1-2.017.2 8.748 8.748 0 0 1-7.823-4.6c-2.377-4.277-1.4-8.879 2.556-12.02 3.346-2.675 10.828-6.933 16.623-6.933 5.608 0 9.78 3.932 10.38 9.782.73 6.867.734 21.206-.3 28.132-1.205 7.863-6.512 9.031-9.569 9.031z" transform="translate(1312.95 -323.248)" style="fill:#0015a9"/>
            </g>
            <g data-name="그룹 13247">
                <path data-name="패스 8440" d="M-1142.624 683.768c-2.529 0-8.5-.9-9.31-9.245a126.712 126.712 0 0 1-.54-14.347 10.342 10.342 0 0 1-2.017.2 8.748 8.748 0 0 1-7.823-4.6c-2.377-4.277-1.4-8.879 2.556-12.02 3.346-2.676 10.828-6.933 16.623-6.933 5.608 0 9.78 3.932 10.38 9.782.73 6.867.734 21.206-.3 28.132-1.205 7.863-6.512 9.031-9.569 9.031z" transform="translate(1312.95 -323.143)" style="fill:#0015a9"/>
            </g>
            <g data-name="그룹 13248">
                <path data-name="패스 8441" d="M-1142.624 683.568c-2.529 0-8.5-.9-9.31-9.245a126.712 126.712 0 0 1-.54-14.347 10.342 10.342 0 0 1-2.017.2 8.748 8.748 0 0 1-7.823-4.6c-2.377-4.277-1.4-8.879 2.556-12.02 3.346-2.676 10.828-6.933 16.623-6.933 5.608 0 9.78 3.932 10.38 9.781.73 6.867.734 21.206-.3 28.132-1.205 7.864-6.512 9.032-9.569 9.032z" transform="translate(1312.95 -323.037)" style="fill:#0015a9"/>
            </g>
            <g data-name="그룹 13249">
                <path data-name="패스 8442" d="M-1142.624 683.368c-2.529 0-8.5-.9-9.31-9.245a126.713 126.713 0 0 1-.54-14.347 10.342 10.342 0 0 1-2.017.2 8.748 8.748 0 0 1-7.823-4.6c-2.377-4.277-1.4-8.879 2.556-12.02 3.346-2.675 10.828-6.933 16.623-6.933 5.608 0 9.78 3.932 10.38 9.781.73 6.867.734 21.206-.3 28.132-1.205 7.864-6.512 9.032-9.569 9.032z" transform="translate(1312.95 -322.932)" style="fill:#0015a9"/>
            </g>
            <g data-name="그룹 13250">
                <path data-name="패스 8443" d="M-1142.624 683.168c-2.529 0-8.5-.9-9.31-9.245a126.711 126.711 0 0 1-.54-14.347 10.337 10.337 0 0 1-2.017.2 8.748 8.748 0 0 1-7.823-4.6c-2.377-4.277-1.4-8.879 2.556-12.02 3.346-2.676 10.828-6.933 16.623-6.933 5.608 0 9.78 3.932 10.38 9.782.73 6.866.734 21.206-.3 28.132-1.205 7.863-6.512 9.031-9.569 9.031z" transform="translate(1312.95 -322.826)" style="fill:#0015a9"/>
            </g>
            <g data-name="그룹 13251">
                <path data-name="패스 8444" d="M-1142.624 682.968c-2.529 0-8.5-.9-9.31-9.245a126.712 126.712 0 0 1-.54-14.347 10.333 10.333 0 0 1-2.017.2 8.748 8.748 0 0 1-7.823-4.6c-2.377-4.277-1.4-8.879 2.556-12.021 3.346-2.675 10.828-6.933 16.623-6.933 5.608 0 9.78 3.931 10.38 9.781.73 6.867.734 21.206-.3 28.132-1.205 7.865-6.512 9.033-9.569 9.033z" transform="translate(1312.95 -322.721)" style="fill:#0015a9"/>
            </g>
            <g data-name="그룹 13252">
                <path data-name="패스 8445" d="M-1142.624 682.768c-2.529 0-8.5-.9-9.31-9.245a126.714 126.714 0 0 1-.54-14.347 10.342 10.342 0 0 1-2.017.2 8.748 8.748 0 0 1-7.823-4.6c-2.377-4.277-1.4-8.879 2.556-12.021 3.346-2.676 10.828-6.933 16.623-6.933 5.608 0 9.78 3.931 10.38 9.782.73 6.867.734 21.206-.3 28.132-1.205 7.864-6.512 9.032-9.569 9.032z" transform="translate(1312.95 -322.615)" style="fill:#0015a9"/>
            </g>
            <g data-name="그룹 13253">
                <path data-name="패스 8446" d="M-1142.624 682.568c-2.529 0-8.5-.9-9.31-9.245a126.714 126.714 0 0 1-.54-14.347 10.333 10.333 0 0 1-2.017.2 8.748 8.748 0 0 1-7.823-4.6c-2.377-4.277-1.4-8.879 2.556-12.02 3.346-2.676 10.828-6.933 16.623-6.933 5.608 0 9.78 3.932 10.38 9.782.73 6.867.734 21.206-.3 28.132-1.205 7.863-6.512 9.031-9.569 9.031z" transform="translate(1312.95 -322.51)" style="fill:#0015a9"/>
            </g>
            <g data-name="그룹 13254">
                <path data-name="패스 8447" d="M-1142.624 682.368c-2.529 0-8.5-.9-9.31-9.245a126.713 126.713 0 0 1-.54-14.347 10.342 10.342 0 0 1-2.017.2 8.748 8.748 0 0 1-7.823-4.6c-2.377-4.277-1.4-8.879 2.556-12.021 3.346-2.675 10.828-6.933 16.623-6.933 5.608 0 9.78 3.932 10.38 9.782.73 6.867.734 21.206-.3 28.132-1.205 7.864-6.512 9.032-9.569 9.032z" transform="translate(1312.95 -322.404)" style="fill:#0015a9"/>
            </g>
            <g data-name="그룹 13255">
                <path data-name="패스 8448" d="M-1142.624 682.168c-2.529 0-8.5-.9-9.31-9.245a126.714 126.714 0 0 1-.54-14.347 10.338 10.338 0 0 1-2.017.2 8.748 8.748 0 0 1-7.823-4.6c-2.377-4.277-1.4-8.879 2.556-12.021 3.346-2.676 10.828-6.933 16.623-6.933 5.608 0 9.78 3.932 10.38 9.782.73 6.867.734 21.206-.3 28.132-1.205 7.864-6.512 9.032-9.569 9.032z" transform="translate(1312.95 -322.299)" style="fill:#0015a9"/>
            </g>
            <g data-name="그룹 13256">
                <path data-name="패스 8449" d="M-1142.624 681.968c-2.529 0-8.5-.9-9.31-9.245a126.714 126.714 0 0 1-.54-14.347 10.338 10.338 0 0 1-2.017.2 8.748 8.748 0 0 1-7.823-4.6c-2.377-4.277-1.4-8.879 2.556-12.02 3.346-2.676 10.828-6.933 16.623-6.933 5.608 0 9.78 3.932 10.38 9.782.73 6.866.734 21.206-.3 28.132-1.205 7.863-6.512 9.031-9.569 9.031z" transform="translate(1312.95 -322.193)" style="fill:#0015a9"/>
            </g>
            <g data-name="그룹 13257">
                <path data-name="패스 8450" d="M-1142.624 681.768c-2.529 0-8.5-.9-9.31-9.245a126.712 126.712 0 0 1-.54-14.347 10.347 10.347 0 0 1-2.017.2 8.748 8.748 0 0 1-7.823-4.6c-2.377-4.277-1.4-8.879 2.556-12.021 3.346-2.676 10.828-6.933 16.623-6.933 5.608 0 9.78 3.932 10.38 9.782.73 6.866.734 21.206-.3 28.132-1.205 7.864-6.512 9.032-9.569 9.032z" transform="translate(1312.95 -322.088)" style="fill:#0015a9"/>
            </g>
            <g data-name="그룹 13258">
                <path data-name="패스 8451" d="M-1142.624 681.568c-2.529 0-8.5-.9-9.31-9.245a126.715 126.715 0 0 1-.54-14.347 10.342 10.342 0 0 1-2.017.2 8.748 8.748 0 0 1-7.823-4.6c-2.377-4.277-1.4-8.879 2.556-12.021 3.346-2.676 10.828-6.933 16.623-6.933 5.608 0 9.78 3.932 10.38 9.782.73 6.866.734 21.206-.3 28.132-1.205 7.864-6.512 9.032-9.569 9.032z" transform="translate(1312.95 -321.982)" style="fill:#0015a9"/>
            </g>
            <g data-name="그룹 13259">
                <path data-name="패스 8452" d="M-1142.624 681.368c-2.529 0-8.5-.9-9.31-9.245a126.714 126.714 0 0 1-.54-14.347 10.338 10.338 0 0 1-2.017.2 8.748 8.748 0 0 1-7.823-4.6c-2.377-4.277-1.4-8.879 2.556-12.02 3.346-2.676 10.828-6.933 16.623-6.933 5.608 0 9.78 3.932 10.38 9.782.73 6.866.734 21.206-.3 28.132-1.205 7.863-6.512 9.031-9.569 9.031z" transform="translate(1312.95 -321.877)" style="fill:#0015a9"/>
            </g>
            <g data-name="그룹 13260">
                <path data-name="패스 8453" d="M-1142.624 681.168c-2.529 0-8.5-.9-9.31-9.245a126.712 126.712 0 0 1-.54-14.347 10.337 10.337 0 0 1-2.017.2 8.748 8.748 0 0 1-7.823-4.6c-2.377-4.277-1.4-8.879 2.556-12.021 3.346-2.675 10.828-6.933 16.623-6.933 5.608 0 9.78 3.932 10.38 9.782.73 6.866.734 21.206-.3 28.132-1.205 7.864-6.512 9.032-9.569 9.032z" transform="translate(1312.95 -321.771)" style="fill:#0015a9"/>
            </g>
            <g data-name="그룹 13261">
                <path data-name="패스 8454" d="M-1142.624 680.968c-2.529 0-8.5-.9-9.31-9.245a126.714 126.714 0 0 1-.54-14.347 10.342 10.342 0 0 1-2.017.2 8.748 8.748 0 0 1-7.823-4.6c-2.377-4.277-1.4-8.879 2.556-12.021 3.346-2.675 10.828-6.933 16.623-6.933 5.608 0 9.78 3.932 10.38 9.782.73 6.866.734 21.206-.3 28.132-1.205 7.864-6.512 9.032-9.569 9.032z" transform="translate(1312.95 -321.666)" style="fill:#0015a9"/>
            </g>
        </g>
        <g data-name="그룹 13263" style="mix-blend-mode:screen;isolation:isolate">
            <path data-name="패스 8455" d="M-1142.624 680.968c-2.529 0-8.5-.9-9.31-9.245a126.714 126.714 0 0 1-.54-14.347 10.342 10.342 0 0 1-2.017.2 8.748 8.748 0 0 1-7.823-4.6c-2.377-4.277-1.4-8.879 2.556-12.021 3.346-2.675 10.828-6.933 16.623-6.933 5.608 0 9.78 3.932 10.38 9.782.73 6.866.734 21.206-.3 28.132-1.205 7.864-6.512 9.032-9.569 9.032z" transform="translate(1312.95 -321.666)" style="fill:#e4f9ff"/>
        </g>
        <g data-name="그룹 13264">
            <path data-name="패스 8456" d="M-1142.089 681.023c-7.206 0-8.582-6.167-8.84-8.819a127.441 127.441 0 0 1-.527-14.9 9.979 9.979 0 0 1-2.5.326 8.288 8.288 0 0 1-7.411-4.354c-2.256-4.06-1.32-8.432 2.438-11.42 3.541-2.832 10.956-6.831 16.328-6.831 5.437 0 9.327 3.674 9.91 9.358.728 6.841.733 21.12-.3 28.013-1.148 7.504-6.193 8.627-9.098 8.627z" transform="translate(1312.415 -322.194)" style="fill:#008aff"/>
        </g>
        <g data-name="그룹 13265">
            <text data-name="1" transform="translate(153.97 348.945)" style="font-size:45px;font-family:SDOdongtongBasic,Sandoll Odongtong;fill:#50c2ff"><tspan x="0" y="0">1</tspan></text>
            <text data-name="1" transform="translate(153.497 348)" style="font-size:45px;font-family:SDOdongtongBasic,Sandoll Odongtong;fill:#fff"><tspan x="0" y="0">1</tspan></text>
        </g>
    </g>
</svg>
