<svg xmlns="http://www.w3.org/2000/svg" width="42" height="57" viewBox="0 0 42 57">
    <defs>
        <clipPath id="iqwxahlina">
            <path data-name="사각형 6159" transform="translate(654 309)" style="stroke:#707070;fill:#fff" d="M0 0h42v57H0z"/>
        </clipPath>
    </defs>
    <g data-name="그룹 13673" transform="translate(-654 -309)" style="clip-path:url(#iqwxahlina)">
        <g data-name="그룹 13638">
            <g data-name="그룹 13637">
                <g data-name="그룹 13606">
                    <path data-name="패스 8777" d="M-82.242 686.618a12.669 12.669 0 0 1-6.007-1.535c-2.537-1.384-8.033-5.575-4.707-14.814a99.831 99.831 0 0 1 5.556-11.831l-.136-.019c-9.991-1.409-11.073-8.664-11.073-11.719 0-6.2 4.49-10.666 11.438-11.379 2.553-.264 6.116-.422 9.526-.422a79.763 79.763 0 0 1 8.79.433 12.913 12.913 0 0 1 9.378 5.5c1.61 2.365 3.194 6.448 1.6 12.463-1.84 6.931-8.685 21.18-14.423 28.479a12.69 12.69 0 0 1-9.942 4.844z" transform="translate(752.611 -322.064)" style="fill:#fff"/>
                </g>
                <g data-name="그룹 13607">
                    <path data-name="패스 8778" d="M-82.242 686.418a12.667 12.667 0 0 1-6.007-1.535c-2.537-1.384-8.033-5.575-4.707-14.814a99.836 99.836 0 0 1 5.556-11.831l-.136-.019c-9.991-1.409-11.073-8.665-11.073-11.719 0-6.2 4.49-10.666 11.438-11.379 2.553-.264 6.116-.422 9.526-.422a79.733 79.733 0 0 1 8.79.433 12.913 12.913 0 0 1 9.378 5.5c1.61 2.366 3.194 6.448 1.6 12.463-1.84 6.931-8.685 21.18-14.423 28.479a12.69 12.69 0 0 1-9.942 4.844z" transform="translate(752.611 -321.958)" style="fill:#fff"/>
                </g>
                <g data-name="그룹 13608">
                    <path data-name="패스 8779" d="M-82.242 686.218a12.667 12.667 0 0 1-6.007-1.535c-2.537-1.384-8.033-5.575-4.707-14.814a99.83 99.83 0 0 1 5.553-11.83l-.136-.019c-9.991-1.409-11.073-8.664-11.073-11.719 0-6.2 4.49-10.666 11.438-11.379 2.553-.264 6.116-.422 9.526-.422a79.762 79.762 0 0 1 8.79.433 12.913 12.913 0 0 1 9.378 5.5c1.61 2.366 3.194 6.448 1.6 12.463-1.84 6.931-8.685 21.18-14.423 28.479a12.69 12.69 0 0 1-9.939 4.843z" transform="translate(752.611 -321.853)" style="fill:#fff"/>
                </g>
                <g data-name="그룹 13609">
                    <path data-name="패스 8780" d="M-82.242 686.018a12.668 12.668 0 0 1-6.007-1.535c-2.537-1.384-8.033-5.575-4.707-14.814a99.836 99.836 0 0 1 5.556-11.831l-.136-.019c-9.991-1.409-11.073-8.665-11.073-11.719 0-6.2 4.49-10.666 11.438-11.379 2.553-.264 6.116-.422 9.526-.422a79.733 79.733 0 0 1 8.79.433 12.913 12.913 0 0 1 9.378 5.5c1.61 2.366 3.194 6.448 1.6 12.463-1.84 6.931-8.685 21.18-14.423 28.479a12.69 12.69 0 0 1-9.942 4.844z" transform="translate(752.611 -321.747)" style="fill:#fff"/>
                </g>
                <g data-name="그룹 13610">
                    <path data-name="패스 8781" d="M-82.242 685.818a12.668 12.668 0 0 1-6.007-1.535c-2.537-1.384-8.033-5.575-4.707-14.814a99.835 99.835 0 0 1 5.556-11.831l-.136-.019c-9.991-1.409-11.073-8.664-11.073-11.719 0-6.2 4.49-10.666 11.438-11.379 2.553-.264 6.116-.422 9.526-.422a79.763 79.763 0 0 1 8.79.433 12.913 12.913 0 0 1 9.378 5.5c1.61 2.366 3.194 6.448 1.6 12.463-1.84 6.931-8.685 21.18-14.423 28.479a12.69 12.69 0 0 1-9.942 4.844z" transform="translate(752.611 -321.642)" style="fill:#fff"/>
                </g>
                <g data-name="그룹 13611">
                    <path data-name="패스 8782" d="M-82.242 685.618a12.666 12.666 0 0 1-6.007-1.535c-2.537-1.384-8.033-5.575-4.707-14.814a99.826 99.826 0 0 1 5.553-11.83l-.136-.019c-9.991-1.409-11.073-8.664-11.073-11.719 0-6.2 4.49-10.666 11.438-11.379 2.553-.264 6.116-.422 9.526-.422a79.762 79.762 0 0 1 8.79.433 12.913 12.913 0 0 1 9.378 5.5c1.61 2.366 3.194 6.448 1.6 12.463-1.84 6.931-8.685 21.18-14.423 28.479a12.69 12.69 0 0 1-9.939 4.843z" transform="translate(752.611 -321.536)" style="fill:#fff"/>
                </g>
                <g data-name="그룹 13612">
                    <path data-name="패스 8783" d="M-82.242 685.418a12.667 12.667 0 0 1-6.007-1.535c-2.537-1.384-8.033-5.575-4.707-14.814a99.831 99.831 0 0 1 5.556-11.831l-.136-.019c-9.991-1.409-11.073-8.664-11.073-11.719 0-6.2 4.49-10.666 11.438-11.379 2.553-.264 6.116-.422 9.526-.422a79.763 79.763 0 0 1 8.79.433 12.913 12.913 0 0 1 9.378 5.5c1.61 2.366 3.194 6.448 1.6 12.463-1.84 6.931-8.685 21.18-14.423 28.479a12.69 12.69 0 0 1-9.942 4.844z" transform="translate(752.611 -321.431)" style="fill:#fff"/>
                </g>
                <g data-name="그룹 13613">
                    <path data-name="패스 8784" d="M-82.242 685.218a12.667 12.667 0 0 1-6.007-1.535c-2.537-1.384-8.033-5.575-4.707-14.814a99.831 99.831 0 0 1 5.556-11.831l-.136-.019c-9.991-1.409-11.073-8.664-11.073-11.719 0-6.2 4.49-10.666 11.438-11.379 2.553-.264 6.116-.422 9.526-.422a79.763 79.763 0 0 1 8.79.433 12.913 12.913 0 0 1 9.378 5.5c1.61 2.366 3.194 6.448 1.6 12.463-1.84 6.931-8.685 21.18-14.423 28.479a12.69 12.69 0 0 1-9.942 4.844z" transform="translate(752.611 -321.325)" style="fill:#fff"/>
                </g>
                <g data-name="그룹 13614">
                    <path data-name="패스 8785" d="M-82.242 685.018a12.667 12.667 0 0 1-6.007-1.535c-2.537-1.384-8.033-5.575-4.707-14.814a99.831 99.831 0 0 1 5.556-11.831l-.136-.019c-9.991-1.409-11.073-8.664-11.073-11.719 0-6.2 4.49-10.666 11.438-11.379 2.553-.264 6.116-.422 9.526-.422a79.719 79.719 0 0 1 8.79.433 12.913 12.913 0 0 1 9.378 5.5c1.61 2.365 3.194 6.448 1.6 12.463-1.84 6.931-8.685 21.18-14.423 28.479a12.69 12.69 0 0 1-9.942 4.844z" transform="translate(752.611 -321.22)" style="fill:#fff"/>
                </g>
                <g data-name="그룹 13615">
                    <path data-name="패스 8786" d="M-82.242 684.818a12.667 12.667 0 0 1-6.007-1.535c-2.537-1.384-8.033-5.575-4.707-14.814a99.826 99.826 0 0 1 5.556-11.831l-.136-.019c-9.991-1.409-11.073-8.664-11.073-11.718 0-6.2 4.49-10.666 11.438-11.379 2.553-.264 6.116-.422 9.526-.422a79.748 79.748 0 0 1 8.79.433 12.913 12.913 0 0 1 9.378 5.5c1.61 2.366 3.194 6.448 1.6 12.463-1.84 6.931-8.685 21.18-14.423 28.479a12.69 12.69 0 0 1-9.942 4.843z" transform="translate(752.611 -321.114)" style="fill:#fff"/>
                </g>
                <g data-name="그룹 13616">
                    <path data-name="패스 8787" d="M-82.242 684.618a12.668 12.668 0 0 1-6.007-1.535c-2.537-1.384-8.033-5.575-4.707-14.814a99.831 99.831 0 0 1 5.556-11.831l-.136-.019c-9.991-1.409-11.073-8.665-11.073-11.719 0-6.2 4.49-10.666 11.438-11.379 2.553-.264 6.116-.422 9.526-.422a79.734 79.734 0 0 1 8.79.433 12.913 12.913 0 0 1 9.378 5.5c1.61 2.366 3.194 6.448 1.6 12.463-1.84 6.931-8.685 21.18-14.423 28.479a12.69 12.69 0 0 1-9.942 4.844z" transform="translate(752.611 -321.009)" style="fill:#fff"/>
                </g>
                <g data-name="그룹 13617">
                    <path data-name="패스 8788" d="M-82.242 684.418a12.667 12.667 0 0 1-6.007-1.535c-2.537-1.384-8.033-5.575-4.707-14.814a99.821 99.821 0 0 1 5.553-11.83l-.136-.019c-9.991-1.409-11.073-8.664-11.073-11.719 0-6.2 4.49-10.666 11.438-11.379 2.553-.264 6.116-.422 9.526-.422a79.747 79.747 0 0 1 8.79.433 12.913 12.913 0 0 1 9.378 5.5c1.61 2.365 3.194 6.448 1.6 12.463-1.84 6.931-8.685 21.18-14.423 28.479a12.69 12.69 0 0 1-9.939 4.843z" transform="translate(752.611 -320.903)" style="fill:#fff"/>
                </g>
                <g data-name="그룹 13618">
                    <path data-name="패스 8789" d="M-82.242 684.218a12.666 12.666 0 0 1-6.007-1.535c-2.537-1.384-8.033-5.575-4.707-14.814a99.831 99.831 0 0 1 5.556-11.831l-.136-.019c-9.991-1.409-11.073-8.665-11.073-11.719 0-6.2 4.49-10.666 11.438-11.379 2.553-.264 6.116-.422 9.526-.422a79.718 79.718 0 0 1 8.79.433 12.913 12.913 0 0 1 9.378 5.5c1.61 2.366 3.194 6.448 1.6 12.463-1.84 6.931-8.685 21.18-14.423 28.479a12.69 12.69 0 0 1-9.942 4.844z" transform="translate(752.611 -320.798)" style="fill:#fff"/>
                </g>
                <g data-name="그룹 13619">
                    <path data-name="패스 8790" d="M-82.242 684.018a12.667 12.667 0 0 1-6.007-1.535c-2.537-1.384-8.033-5.575-4.707-14.814a99.827 99.827 0 0 1 5.556-11.831l-.136-.019c-9.991-1.409-11.073-8.664-11.073-11.719 0-6.2 4.49-10.666 11.438-11.379 2.553-.264 6.116-.422 9.526-.422a79.734 79.734 0 0 1 8.79.433 12.913 12.913 0 0 1 9.378 5.5c1.61 2.366 3.194 6.448 1.6 12.463-1.84 6.931-8.685 21.18-14.423 28.479a12.69 12.69 0 0 1-9.942 4.844z" transform="translate(752.611 -320.692)" style="fill:#fff"/>
                </g>
                <g data-name="그룹 13620">
                    <path data-name="패스 8791" d="M-82.242 683.818a12.667 12.667 0 0 1-6.007-1.535c-2.537-1.384-8.033-5.575-4.707-14.814a99.83 99.83 0 0 1 5.553-11.83l-.136-.019c-9.991-1.409-11.073-8.664-11.073-11.719 0-6.2 4.49-10.666 11.438-11.379 2.553-.264 6.116-.422 9.526-.422a79.747 79.747 0 0 1 8.79.433 12.913 12.913 0 0 1 9.378 5.5c1.61 2.365 3.194 6.448 1.6 12.463-1.84 6.931-8.685 21.18-14.423 28.479a12.69 12.69 0 0 1-9.939 4.843z" transform="translate(752.611 -320.587)" style="fill:#fff"/>
                </g>
                <g data-name="그룹 13621">
                    <path data-name="패스 8792" d="M-82.242 683.618a12.667 12.667 0 0 1-6.007-1.535c-2.537-1.384-8.033-5.575-4.707-14.814a99.831 99.831 0 0 1 5.556-11.831l-.136-.019c-9.991-1.409-11.073-8.665-11.073-11.719 0-6.2 4.49-10.666 11.438-11.379 2.553-.264 6.116-.422 9.526-.422a79.747 79.747 0 0 1 8.79.433 12.913 12.913 0 0 1 9.378 5.5c1.61 2.365 3.194 6.448 1.6 12.463-1.84 6.931-8.685 21.18-14.423 28.479a12.69 12.69 0 0 1-9.942 4.844z" transform="translate(752.611 -320.481)" style="fill:#fff"/>
                </g>
                <g data-name="그룹 13622">
                    <path data-name="패스 8793" d="M-82.242 683.418a12.667 12.667 0 0 1-6.007-1.535c-2.537-1.384-8.033-5.575-4.707-14.814a99.808 99.808 0 0 1 5.556-11.831l-.136-.02c-9.991-1.409-11.073-8.664-11.073-11.719 0-6.2 4.49-10.666 11.438-11.379 2.553-.264 6.116-.422 9.526-.422a79.748 79.748 0 0 1 8.79.433 12.913 12.913 0 0 1 9.378 5.5c1.61 2.366 3.194 6.448 1.6 12.463-1.84 6.931-8.685 21.18-14.423 28.479a12.69 12.69 0 0 1-9.942 4.845z" transform="translate(752.611 -320.376)" style="fill:#fff"/>
                </g>
                <g data-name="그룹 13623">
                    <path data-name="패스 8794" d="M-82.242 683.218a12.667 12.667 0 0 1-6.007-1.535c-2.537-1.384-8.033-5.575-4.707-14.814a99.835 99.835 0 0 1 5.553-11.83l-.136-.019c-9.991-1.409-11.073-8.665-11.073-11.719 0-6.2 4.49-10.666 11.438-11.379 2.553-.264 6.116-.422 9.526-.422a79.732 79.732 0 0 1 8.79.433 12.913 12.913 0 0 1 9.378 5.5c1.61 2.365 3.194 6.448 1.6 12.463-1.84 6.931-8.685 21.18-14.423 28.479a12.69 12.69 0 0 1-9.939 4.843z" transform="translate(752.611 -320.27)" style="fill:#fff"/>
                </g>
                <g data-name="그룹 13624">
                    <path data-name="패스 8795" d="M-82.242 683.018a12.667 12.667 0 0 1-6.007-1.535c-2.537-1.384-8.033-5.575-4.707-14.814a99.822 99.822 0 0 1 5.556-11.831l-.136-.019c-9.991-1.409-11.073-8.664-11.073-11.719 0-6.2 4.49-10.666 11.438-11.379 2.553-.264 6.116-.422 9.526-.422a79.748 79.748 0 0 1 8.79.433 12.913 12.913 0 0 1 9.378 5.5c1.61 2.366 3.194 6.448 1.6 12.463-1.84 6.931-8.685 21.18-14.423 28.479a12.69 12.69 0 0 1-9.942 4.844z" transform="translate(752.611 -320.165)" style="fill:#fff"/>
                </g>
                <g data-name="그룹 13625">
                    <path data-name="패스 8796" d="M-82.242 682.818a12.667 12.667 0 0 1-6.007-1.535c-2.537-1.384-8.033-5.575-4.707-14.814a99.831 99.831 0 0 1 5.556-11.831l-.136-.019c-9.991-1.409-11.073-8.664-11.073-11.719 0-6.2 4.49-10.666 11.438-11.379 2.553-.264 6.116-.422 9.526-.422a79.734 79.734 0 0 1 8.79.433 12.913 12.913 0 0 1 9.378 5.5c1.61 2.366 3.194 6.448 1.6 12.463-1.84 6.931-8.685 21.18-14.423 28.479a12.69 12.69 0 0 1-9.942 4.844z" transform="translate(752.611 -320.059)" style="fill:#fff"/>
                </g>
                <g data-name="그룹 13626">
                    <path data-name="패스 8797" d="M-82.242 682.618a12.668 12.668 0 0 1-6.007-1.535c-2.537-1.384-8.033-5.575-4.707-14.814a99.826 99.826 0 0 1 5.556-11.831l-.136-.019c-9.991-1.409-11.073-8.664-11.073-11.719 0-6.2 4.49-10.666 11.438-11.379 2.553-.264 6.116-.422 9.526-.422a79.763 79.763 0 0 1 8.79.433 12.913 12.913 0 0 1 9.378 5.5c1.61 2.365 3.194 6.448 1.6 12.463-1.84 6.931-8.685 21.18-14.423 28.479a12.69 12.69 0 0 1-9.942 4.844z" transform="translate(752.611 -319.954)" style="fill:#fff"/>
                </g>
                <g data-name="그룹 13627">
                    <path data-name="패스 8798" d="M-82.242 682.418a12.667 12.667 0 0 1-6.007-1.535c-2.537-1.384-8.033-5.575-4.707-14.814a99.827 99.827 0 0 1 5.556-11.831l-.136-.019c-9.991-1.409-11.073-8.664-11.073-11.719 0-6.2 4.49-10.666 11.438-11.379 2.553-.264 6.116-.422 9.526-.422a79.763 79.763 0 0 1 8.79.433 12.913 12.913 0 0 1 9.378 5.5c1.61 2.365 3.194 6.448 1.6 12.463-1.84 6.931-8.685 21.18-14.423 28.479a12.69 12.69 0 0 1-9.942 4.844z" transform="translate(752.611 -319.848)" style="fill:#fff"/>
                </g>
                <g data-name="그룹 13628">
                    <path data-name="패스 8799" d="M-82.242 682.218a12.668 12.668 0 0 1-6.007-1.535c-2.537-1.384-8.033-5.575-4.707-14.814a99.845 99.845 0 0 1 5.556-11.831l-.136-.019c-9.991-1.409-11.073-8.665-11.073-11.719 0-6.2 4.49-10.666 11.438-11.379 2.553-.264 6.116-.422 9.526-.422a79.763 79.763 0 0 1 8.79.433 12.913 12.913 0 0 1 9.378 5.5c1.61 2.366 3.194 6.448 1.6 12.463-1.84 6.931-8.685 21.18-14.423 28.479a12.69 12.69 0 0 1-9.942 4.844z" transform="translate(752.611 -319.743)" style="fill:#fff"/>
                </g>
                <g data-name="그룹 13629">
                    <path data-name="패스 8800" d="M-82.242 682.018a12.668 12.668 0 0 1-6.007-1.535c-2.537-1.384-8.033-5.575-4.707-14.814a99.835 99.835 0 0 1 5.556-11.831l-.136-.019c-9.991-1.409-11.073-8.664-11.073-11.719 0-6.2 4.49-10.666 11.438-11.379 2.553-.264 6.116-.422 9.526-.422a79.748 79.748 0 0 1 8.79.433 12.913 12.913 0 0 1 9.378 5.5c1.61 2.366 3.194 6.448 1.6 12.463-1.84 6.931-8.685 21.18-14.423 28.479a12.69 12.69 0 0 1-9.942 4.844z" transform="translate(752.611 -319.637)" style="fill:#fff"/>
                </g>
                <g data-name="그룹 13630">
                    <path data-name="패스 8801" d="M-82.242 681.818a12.667 12.667 0 0 1-6.007-1.535c-2.537-1.384-8.033-5.575-4.707-14.814a99.839 99.839 0 0 1 5.553-11.83l-.136-.019c-9.991-1.409-11.073-8.665-11.073-11.719 0-6.2 4.49-10.666 11.438-11.379 2.553-.264 6.116-.422 9.526-.422a79.748 79.748 0 0 1 8.79.433 12.913 12.913 0 0 1 9.378 5.5c1.61 2.366 3.194 6.448 1.6 12.463-1.84 6.931-8.685 21.18-14.423 28.479a12.69 12.69 0 0 1-9.939 4.843z" transform="translate(752.611 -319.532)" style="fill:#fff"/>
                </g>
                <g data-name="그룹 13631">
                    <path data-name="패스 8802" d="M-82.242 681.618a12.667 12.667 0 0 1-6.007-1.535c-2.537-1.384-8.033-5.575-4.707-14.814a99.826 99.826 0 0 1 5.553-11.83l-.136-.019c-9.991-1.409-11.073-8.664-11.073-11.719 0-6.2 4.49-10.666 11.438-11.379 2.553-.264 6.116-.422 9.526-.422a79.763 79.763 0 0 1 8.79.433 12.913 12.913 0 0 1 9.378 5.5c1.61 2.366 3.194 6.448 1.6 12.463-1.84 6.931-8.685 21.18-14.423 28.479a12.69 12.69 0 0 1-9.939 4.843z" transform="translate(752.611 -319.426)" style="fill:#fff"/>
                </g>
                <g data-name="그룹 13632">
                    <path data-name="패스 8803" d="M-82.242 681.418a12.667 12.667 0 0 1-6.007-1.535c-2.537-1.384-8.033-5.575-4.707-14.814a99.831 99.831 0 0 1 5.556-11.831l-.136-.019c-9.991-1.409-11.073-8.664-11.073-11.719 0-6.2 4.49-10.666 11.438-11.379 2.553-.264 6.116-.422 9.526-.422a79.747 79.747 0 0 1 8.79.433 12.914 12.914 0 0 1 9.378 5.5c1.61 2.366 3.194 6.448 1.6 12.463-1.84 6.931-8.685 21.18-14.423 28.479a12.69 12.69 0 0 1-9.942 4.844z" transform="translate(752.611 -319.321)" style="fill:#fff"/>
                </g>
                <g data-name="그룹 13633">
                    <path data-name="패스 8804" d="M-82.242 681.218a12.667 12.667 0 0 1-6.007-1.535c-2.537-1.384-8.033-5.575-4.707-14.814a99.835 99.835 0 0 1 5.556-11.831l-.136-.019c-9.991-1.409-11.073-8.664-11.073-11.719 0-6.2 4.49-10.666 11.438-11.379 2.553-.264 6.116-.422 9.526-.422a79.763 79.763 0 0 1 8.79.433 12.913 12.913 0 0 1 9.378 5.5c1.61 2.366 3.194 6.448 1.6 12.463-1.84 6.931-8.685 21.18-14.423 28.479a12.69 12.69 0 0 1-9.942 4.844z" transform="translate(752.611 -319.215)" style="fill:#fff"/>
                </g>
                <g data-name="그룹 13634">
                    <path data-name="패스 8805" d="M-82.242 681.018a12.667 12.667 0 0 1-6.007-1.535c-2.537-1.384-8.033-5.575-4.707-14.814a99.831 99.831 0 0 1 5.556-11.831l-.136-.019c-9.991-1.409-11.073-8.665-11.073-11.719 0-6.2 4.49-10.666 11.438-11.379 2.553-.264 6.116-.422 9.526-.422a79.747 79.747 0 0 1 8.79.433 12.913 12.913 0 0 1 9.378 5.5c1.61 2.366 3.194 6.448 1.6 12.463-1.84 6.931-8.685 21.18-14.423 28.479a12.69 12.69 0 0 1-9.942 4.844z" transform="translate(752.611 -319.11)" style="fill:#fff"/>
                </g>
                <g data-name="그룹 13635">
                    <path data-name="패스 8806" d="M-82.242 680.818a12.667 12.667 0 0 1-6.007-1.535c-2.537-1.384-8.033-5.575-4.707-14.814a99.831 99.831 0 0 1 5.556-11.831l-.136-.019c-9.991-1.409-11.073-8.664-11.073-11.719 0-6.2 4.49-10.666 11.438-11.379 2.553-.264 6.116-.422 9.526-.422a79.762 79.762 0 0 1 8.79.433 12.913 12.913 0 0 1 9.378 5.5c1.61 2.366 3.194 6.448 1.6 12.463-1.84 6.931-8.685 21.18-14.423 28.479a12.69 12.69 0 0 1-9.942 4.844z" transform="translate(752.611 -319.004)" style="fill:#fff"/>
                </g>
                <g data-name="그룹 13636">
                    <path data-name="패스 8807" d="M-82.242 680.618a12.667 12.667 0 0 1-6.007-1.535c-2.537-1.383-8.033-5.575-4.707-14.814a99.836 99.836 0 0 1 5.556-11.831l-.136-.019c-9.991-1.409-11.073-8.665-11.073-11.719 0-6.2 4.49-10.666 11.438-11.379 2.553-.264 6.116-.422 9.526-.422a79.748 79.748 0 0 1 8.79.433 12.913 12.913 0 0 1 9.378 5.5c1.61 2.366 3.194 6.448 1.6 12.463-1.84 6.931-8.685 21.18-14.423 28.479a12.69 12.69 0 0 1-9.942 4.844z" transform="translate(752.611 -318.899)" style="fill:#fff"/>
                </g>
            </g>
        </g>
        <g data-name="그룹 13670">
            <g data-name="그룹 13639">
                <path data-name="패스 8808" d="M-79.6 686.893a10.153 10.153 0 0 1-4.882-1.251c-3.021-1.648-6.087-5.049-3.608-11.936a117.656 117.656 0 0 1 7.107-14.644 39.593 39.593 0 0 1-3.574-.344c-3.37-.475-9.048-2.329-9.048-9.38 0-4.9 3.657-8.449 9.316-9.029 2.479-.256 5.951-.41 9.285-.41a77.228 77.228 0 0 1 8.512.417 10.587 10.587 0 0 1 7.7 4.479c1.333 1.958 2.635 5.374 1.266 10.526-1.784 6.718-8.425 20.538-14 27.625a10.317 10.317 0 0 1-8.074 3.947z" transform="translate(749.974 -324.701)" style="fill:#0015aa"/>
            </g>
            <g data-name="그룹 13640">
                <path data-name="패스 8809" d="M-79.6 686.693a10.155 10.155 0 0 1-4.882-1.251c-3.021-1.648-6.087-5.049-3.608-11.936a117.664 117.664 0 0 1 7.107-14.644 39.593 39.593 0 0 1-3.574-.344c-3.37-.475-9.048-2.329-9.048-9.38 0-4.9 3.657-8.448 9.316-9.029 2.479-.256 5.951-.41 9.285-.41a77.227 77.227 0 0 1 8.512.417 10.587 10.587 0 0 1 7.7 4.479c1.333 1.958 2.635 5.374 1.266 10.526-1.784 6.718-8.425 20.538-14 27.625a10.317 10.317 0 0 1-8.074 3.947z" transform="translate(749.974 -324.595)" style="fill:#0015aa"/>
            </g>
            <g data-name="그룹 13641">
                <path data-name="패스 8810" d="M-79.6 686.493a10.155 10.155 0 0 1-4.882-1.251c-3.021-1.648-6.087-5.049-3.608-11.936a117.656 117.656 0 0 1 7.107-14.644 39.593 39.593 0 0 1-3.574-.344c-3.37-.475-9.048-2.329-9.048-9.38 0-4.9 3.657-8.449 9.316-9.029 2.479-.256 5.951-.41 9.285-.41a77.213 77.213 0 0 1 8.512.417 10.587 10.587 0 0 1 7.7 4.479c1.333 1.958 2.635 5.374 1.266 10.526-1.784 6.718-8.425 20.539-14 27.625a10.317 10.317 0 0 1-8.074 3.947z" transform="translate(749.974 -324.49)" style="fill:#0015aa"/>
            </g>
            <g data-name="그룹 13642">
                <path data-name="패스 8811" d="M-79.6 686.293a10.155 10.155 0 0 1-4.882-1.251c-3.021-1.648-6.087-5.049-3.608-11.936a117.656 117.656 0 0 1 7.107-14.644 39.959 39.959 0 0 1-3.574-.344c-3.37-.475-9.048-2.329-9.048-9.38 0-4.9 3.657-8.449 9.316-9.029 2.479-.256 5.951-.41 9.285-.41a77.212 77.212 0 0 1 8.512.417 10.587 10.587 0 0 1 7.7 4.479c1.333 1.958 2.635 5.374 1.266 10.526-1.784 6.718-8.425 20.538-14 27.625a10.317 10.317 0 0 1-8.074 3.947z" transform="translate(749.974 -324.384)" style="fill:#0015aa"/>
            </g>
            <g data-name="그룹 13643">
                <path data-name="패스 8812" d="M-79.6 686.093a10.153 10.153 0 0 1-4.882-1.251c-3.021-1.648-6.087-5.049-3.608-11.936a117.66 117.66 0 0 1 7.107-14.644 39.593 39.593 0 0 1-3.574-.344c-3.37-.475-9.048-2.329-9.048-9.38 0-4.9 3.657-8.448 9.316-9.029 2.479-.256 5.951-.41 9.285-.41a77.212 77.212 0 0 1 8.512.417 10.587 10.587 0 0 1 7.7 4.479c1.333 1.958 2.635 5.374 1.266 10.526-1.784 6.718-8.425 20.538-14 27.625a10.317 10.317 0 0 1-8.074 3.947z" transform="translate(749.974 -324.279)" style="fill:#0015aa"/>
            </g>
            <g data-name="그룹 13644">
                <path data-name="패스 8813" d="M-79.6 685.893a10.155 10.155 0 0 1-4.882-1.251c-3.021-1.648-6.087-5.049-3.608-11.936a117.648 117.648 0 0 1 7.107-14.644 39.959 39.959 0 0 1-3.574-.344c-3.37-.475-9.048-2.329-9.048-9.38 0-4.9 3.657-8.449 9.316-9.029 2.479-.256 5.951-.41 9.285-.41a77.213 77.213 0 0 1 8.512.417 10.587 10.587 0 0 1 7.7 4.479c1.333 1.958 2.635 5.374 1.266 10.526-1.784 6.718-8.425 20.538-14 27.625a10.317 10.317 0 0 1-8.074 3.947z" transform="translate(749.974 -324.173)" style="fill:#0015aa"/>
            </g>
            <g data-name="그룹 13645">
                <path data-name="패스 8814" d="M-79.6 685.693a10.155 10.155 0 0 1-4.882-1.251c-3.021-1.648-6.087-5.049-3.608-11.936a117.655 117.655 0 0 1 7.107-14.644 39.593 39.593 0 0 1-3.574-.344c-3.37-.475-9.048-2.329-9.048-9.38 0-4.9 3.657-8.449 9.316-9.029 2.479-.256 5.951-.41 9.285-.41a77.227 77.227 0 0 1 8.512.417 10.587 10.587 0 0 1 7.7 4.479c1.333 1.958 2.635 5.374 1.266 10.526-1.784 6.718-8.425 20.538-14 27.625a10.317 10.317 0 0 1-8.074 3.947z" transform="translate(749.974 -324.068)" style="fill:#0015aa"/>
            </g>
            <g data-name="그룹 13646">
                <path data-name="패스 8815" d="M-79.6 685.493a10.155 10.155 0 0 1-4.882-1.251c-3.021-1.648-6.087-5.049-3.608-11.936a117.652 117.652 0 0 1 7.107-14.644 39.593 39.593 0 0 1-3.574-.344c-3.37-.475-9.048-2.329-9.048-9.38 0-4.9 3.657-8.449 9.316-9.029 2.479-.256 5.951-.41 9.285-.41a77.227 77.227 0 0 1 8.512.417 10.587 10.587 0 0 1 7.7 4.479c1.333 1.958 2.635 5.374 1.266 10.526-1.784 6.718-8.425 20.539-14 27.625a10.317 10.317 0 0 1-8.074 3.947z" transform="translate(749.974 -323.962)" style="fill:#0015aa"/>
            </g>
            <g data-name="그룹 13647">
                <path data-name="패스 8816" d="M-79.6 685.293a10.155 10.155 0 0 1-4.882-1.251c-3.021-1.648-6.087-5.049-3.608-11.936a117.66 117.66 0 0 1 7.107-14.644 39.593 39.593 0 0 1-3.574-.344c-3.37-.475-9.048-2.329-9.048-9.38 0-4.9 3.657-8.449 9.316-9.029 2.479-.256 5.951-.41 9.285-.41a77.183 77.183 0 0 1 8.512.417 10.587 10.587 0 0 1 7.7 4.479c1.333 1.958 2.635 5.374 1.266 10.526-1.784 6.718-8.425 20.538-14 27.625a10.317 10.317 0 0 1-8.074 3.947z" transform="translate(749.974 -323.857)" style="fill:#0015aa"/>
            </g>
            <g data-name="그룹 13648">
                <path data-name="패스 8817" d="M-79.6 685.093a10.153 10.153 0 0 1-4.882-1.251c-3.021-1.648-6.087-5.049-3.608-11.936a117.656 117.656 0 0 1 7.107-14.644 39.593 39.593 0 0 1-3.574-.344c-3.37-.475-9.048-2.329-9.048-9.38 0-4.9 3.657-8.449 9.316-9.029 2.479-.256 5.951-.41 9.285-.41a77.227 77.227 0 0 1 8.512.417 10.587 10.587 0 0 1 7.7 4.479c1.333 1.958 2.635 5.374 1.266 10.526-1.784 6.718-8.425 20.539-14 27.625a10.317 10.317 0 0 1-8.074 3.947z" transform="translate(749.974 -323.751)" style="fill:#0015aa"/>
            </g>
            <g data-name="그룹 13649">
                <path data-name="패스 8818" d="M-79.6 684.893a10.157 10.157 0 0 1-4.882-1.251c-3.021-1.648-6.087-5.049-3.608-11.936a117.673 117.673 0 0 1 7.107-14.644 39.959 39.959 0 0 1-3.574-.344c-3.37-.475-9.048-2.329-9.048-9.38 0-4.9 3.657-8.448 9.316-9.029 2.479-.256 5.951-.41 9.285-.41a77.183 77.183 0 0 1 8.512.417 10.587 10.587 0 0 1 7.7 4.479c1.333 1.958 2.635 5.374 1.266 10.526-1.784 6.718-8.425 20.539-14 27.625a10.317 10.317 0 0 1-8.074 3.947z" transform="translate(749.974 -323.646)" style="fill:#0015aa"/>
            </g>
            <g data-name="그룹 13650">
                <path data-name="패스 8819" d="M-79.6 684.693a10.154 10.154 0 0 1-4.882-1.251c-3.021-1.648-6.087-5.049-3.608-11.936a117.652 117.652 0 0 1 7.107-14.644 39.593 39.593 0 0 1-3.574-.344c-3.37-.475-9.048-2.329-9.048-9.38 0-4.9 3.657-8.449 9.316-9.029 2.479-.256 5.951-.41 9.285-.41a77.2 77.2 0 0 1 8.512.417 10.587 10.587 0 0 1 7.7 4.479c1.333 1.958 2.635 5.374 1.266 10.526-1.784 6.718-8.425 20.538-14 27.625a10.317 10.317 0 0 1-8.074 3.947z" transform="translate(749.974 -323.54)" style="fill:#0015aa"/>
            </g>
            <g data-name="그룹 13651">
                <path data-name="패스 8820" d="M-79.6 684.493a10.154 10.154 0 0 1-4.882-1.251c-3.021-1.648-6.087-5.049-3.608-11.936a117.66 117.66 0 0 1 7.107-14.644 39.593 39.593 0 0 1-3.574-.344c-3.37-.475-9.048-2.329-9.048-9.38 0-4.9 3.657-8.449 9.316-9.029 2.479-.256 5.951-.41 9.285-.41a77.211 77.211 0 0 1 8.512.417 10.587 10.587 0 0 1 7.7 4.479c1.333 1.958 2.635 5.374 1.266 10.526-1.784 6.718-8.425 20.539-14 27.625a10.317 10.317 0 0 1-8.074 3.947z" transform="translate(749.974 -323.435)" style="fill:#0015aa"/>
            </g>
            <g data-name="그룹 13652">
                <path data-name="패스 8821" d="M-79.6 684.293a10.153 10.153 0 0 1-4.882-1.251c-3.021-1.648-6.087-5.049-3.608-11.936a117.665 117.665 0 0 1 7.107-14.644 39.593 39.593 0 0 1-3.574-.344c-3.37-.475-9.048-2.329-9.048-9.38 0-4.9 3.657-8.449 9.316-9.029 2.479-.256 5.951-.41 9.285-.41a77.2 77.2 0 0 1 8.512.417 10.587 10.587 0 0 1 7.7 4.479c1.333 1.958 2.635 5.374 1.266 10.526-1.784 6.718-8.425 20.538-14 27.625a10.317 10.317 0 0 1-8.074 3.947z" transform="translate(749.974 -323.329)" style="fill:#0015aa"/>
            </g>
            <g data-name="그룹 13653">
                <path data-name="패스 8822" d="M-79.6 684.093a10.153 10.153 0 0 1-4.882-1.251c-3.021-1.648-6.087-5.049-3.608-11.936a117.656 117.656 0 0 1 7.107-14.644 39.593 39.593 0 0 1-3.574-.344c-3.37-.475-9.048-2.329-9.048-9.38 0-4.9 3.657-8.449 9.316-9.029 2.479-.256 5.951-.41 9.285-.41a77.215 77.215 0 0 1 8.512.417 10.587 10.587 0 0 1 7.7 4.479c1.333 1.958 2.635 5.374 1.266 10.526-1.784 6.718-8.425 20.539-14 27.625a10.317 10.317 0 0 1-8.074 3.947z" transform="translate(749.974 -323.224)" style="fill:#0015aa"/>
            </g>
            <g data-name="그룹 13654">
                <path data-name="패스 8823" d="M-79.6 683.893a10.153 10.153 0 0 1-4.882-1.251c-3.021-1.648-6.087-5.049-3.608-11.936a117.661 117.661 0 0 1 7.107-14.644 39.593 39.593 0 0 1-3.574-.344c-3.37-.475-9.048-2.329-9.048-9.38 0-4.9 3.657-8.449 9.316-9.029 2.479-.256 5.951-.41 9.285-.41a77.2 77.2 0 0 1 8.512.417 10.587 10.587 0 0 1 7.7 4.479c1.333 1.958 2.635 5.374 1.266 10.526-1.784 6.718-8.425 20.538-14 27.625a10.317 10.317 0 0 1-8.074 3.947z" transform="translate(749.974 -323.118)" style="fill:#0015aa"/>
            </g>
            <g data-name="그룹 13655">
                <path data-name="패스 8824" d="M-79.6 683.693a10.153 10.153 0 0 1-4.882-1.251c-3.021-1.648-6.087-5.049-3.608-11.936a117.656 117.656 0 0 1 7.107-14.644 39.593 39.593 0 0 1-3.574-.344c-3.37-.475-9.048-2.329-9.048-9.38 0-4.9 3.657-8.449 9.316-9.029 2.479-.256 5.951-.41 9.285-.41a77.227 77.227 0 0 1 8.512.417 10.587 10.587 0 0 1 7.7 4.479c1.333 1.958 2.635 5.374 1.266 10.526-1.784 6.718-8.425 20.539-14 27.625a10.317 10.317 0 0 1-8.074 3.947z" transform="translate(749.974 -323.013)" style="fill:#0015aa"/>
            </g>
            <g data-name="그룹 13656">
                <path data-name="패스 8825" d="M-79.6 683.493a10.155 10.155 0 0 1-4.882-1.251c-3.021-1.648-6.087-5.049-3.608-11.936a117.657 117.657 0 0 1 7.107-14.644 39.593 39.593 0 0 1-3.574-.344c-3.37-.475-9.048-2.329-9.048-9.38 0-4.9 3.657-8.449 9.316-9.029 2.479-.256 5.951-.41 9.285-.41a77.183 77.183 0 0 1 8.512.417 10.587 10.587 0 0 1 7.7 4.479c1.333 1.958 2.635 5.374 1.266 10.526-1.784 6.718-8.425 20.539-14 27.625a10.317 10.317 0 0 1-8.074 3.947z" transform="translate(749.974 -322.907)" style="fill:#0015aa"/>
            </g>
            <g data-name="그룹 13657">
                <path data-name="패스 8826" d="M-79.6 683.293a10.153 10.153 0 0 1-4.882-1.251c-3.021-1.648-6.087-5.049-3.608-11.936a117.661 117.661 0 0 1 7.107-14.644 39.593 39.593 0 0 1-3.574-.344c-3.37-.475-9.048-2.329-9.048-9.38 0-4.9 3.657-8.449 9.316-9.029 2.479-.256 5.951-.41 9.285-.41a77.211 77.211 0 0 1 8.512.417 10.587 10.587 0 0 1 7.7 4.479c1.333 1.958 2.635 5.374 1.266 10.526-1.784 6.718-8.425 20.539-14 27.625a10.317 10.317 0 0 1-8.074 3.947z" transform="translate(749.974 -322.802)" style="fill:#0015aa"/>
            </g>
            <g data-name="그룹 13658">
                <path data-name="패스 8827" d="M-79.6 683.093a10.155 10.155 0 0 1-4.882-1.251c-3.021-1.648-6.087-5.049-3.608-11.936a117.66 117.66 0 0 1 7.107-14.644 39.593 39.593 0 0 1-3.574-.344c-3.37-.475-9.048-2.329-9.048-9.38 0-4.9 3.657-8.449 9.316-9.029 2.479-.256 5.951-.41 9.285-.41a77.212 77.212 0 0 1 8.512.417 10.587 10.587 0 0 1 7.7 4.479c1.333 1.958 2.635 5.374 1.266 10.526-1.784 6.718-8.425 20.539-14 27.625a10.317 10.317 0 0 1-8.074 3.947z" transform="translate(749.974 -322.696)" style="fill:#0015aa"/>
            </g>
            <g data-name="그룹 13659">
                <path data-name="패스 8828" d="M-79.6 682.893a10.154 10.154 0 0 1-4.882-1.251c-3.021-1.648-6.087-5.049-3.608-11.936a117.657 117.657 0 0 1 7.107-14.644 39.593 39.593 0 0 1-3.574-.344c-3.37-.475-9.048-2.329-9.048-9.38 0-4.9 3.657-8.449 9.316-9.029 2.479-.256 5.951-.41 9.285-.41a77.2 77.2 0 0 1 8.512.417 10.587 10.587 0 0 1 7.7 4.479c1.333 1.958 2.635 5.374 1.266 10.526-1.784 6.718-8.425 20.539-14 27.625a10.317 10.317 0 0 1-8.074 3.947z" transform="translate(749.974 -322.591)" style="fill:#0015aa"/>
            </g>
            <g data-name="그룹 13660">
                <path data-name="패스 8829" d="M-79.6 682.693a10.154 10.154 0 0 1-4.882-1.251c-3.021-1.648-6.087-5.049-3.608-11.936a117.66 117.66 0 0 1 7.107-14.644 39.593 39.593 0 0 1-3.574-.344c-3.37-.475-9.048-2.329-9.048-9.38 0-4.9 3.657-8.448 9.316-9.029 2.479-.256 5.951-.41 9.285-.41a77.243 77.243 0 0 1 8.512.417 10.587 10.587 0 0 1 7.7 4.479c1.333 1.958 2.635 5.374 1.266 10.526-1.784 6.718-8.425 20.539-14 27.625a10.317 10.317 0 0 1-8.074 3.947z" transform="translate(749.974 -322.485)" style="fill:#0015aa"/>
            </g>
            <g data-name="그룹 13661">
                <path data-name="패스 8830" d="M-79.6 682.493a10.155 10.155 0 0 1-4.882-1.251c-3.021-1.648-6.087-5.049-3.608-11.936a117.656 117.656 0 0 1 7.107-14.644 39.593 39.593 0 0 1-3.574-.344c-3.37-.475-9.048-2.329-9.048-9.38 0-4.9 3.657-8.449 9.316-9.029 2.479-.256 5.951-.41 9.285-.41a77.212 77.212 0 0 1 8.512.417 10.587 10.587 0 0 1 7.7 4.479c1.333 1.958 2.635 5.374 1.266 10.526-1.784 6.718-8.425 20.539-14 27.625a10.317 10.317 0 0 1-8.074 3.947z" transform="translate(749.974 -322.38)" style="fill:#0015aa"/>
            </g>
            <g data-name="그룹 13662">
                <path data-name="패스 8831" d="M-79.6 682.293a10.155 10.155 0 0 1-4.882-1.251c-3.021-1.648-6.087-5.049-3.608-11.936a117.652 117.652 0 0 1 7.107-14.644 39.959 39.959 0 0 1-3.574-.344c-3.37-.475-9.048-2.329-9.048-9.38 0-4.9 3.657-8.449 9.316-9.029 2.479-.256 5.951-.41 9.285-.41a77.215 77.215 0 0 1 8.512.417 10.586 10.586 0 0 1 7.7 4.479c1.333 1.958 2.635 5.374 1.266 10.526-1.784 6.718-8.425 20.538-14 27.625a10.317 10.317 0 0 1-8.074 3.947z" transform="translate(749.974 -322.274)" style="fill:#0015aa"/>
            </g>
            <g data-name="그룹 13663">
                <path data-name="패스 8832" d="M-79.6 682.093a10.155 10.155 0 0 1-4.882-1.251c-3.021-1.648-6.087-5.049-3.608-11.936a117.664 117.664 0 0 1 7.107-14.644 39.593 39.593 0 0 1-3.574-.344c-3.37-.475-9.048-2.329-9.048-9.38 0-4.9 3.657-8.448 9.316-9.029 2.479-.256 5.951-.41 9.285-.41a77.23 77.23 0 0 1 8.512.417 10.587 10.587 0 0 1 7.7 4.479c1.333 1.958 2.635 5.374 1.266 10.526-1.784 6.718-8.425 20.539-14 27.625a10.317 10.317 0 0 1-8.074 3.947z" transform="translate(749.974 -322.169)" style="fill:#0015aa"/>
            </g>
            <g data-name="그룹 13664">
                <path data-name="패스 8833" d="M-79.6 681.893a10.155 10.155 0 0 1-4.882-1.251c-3.021-1.648-6.087-5.049-3.608-11.936a117.656 117.656 0 0 1 7.107-14.644 39.959 39.959 0 0 1-3.574-.344c-3.37-.475-9.048-2.329-9.048-9.38 0-4.9 3.657-8.449 9.316-9.029 2.479-.256 5.951-.41 9.285-.41a77.228 77.228 0 0 1 8.512.417 10.587 10.587 0 0 1 7.7 4.479c1.333 1.958 2.635 5.374 1.266 10.526-1.784 6.718-8.425 20.538-14 27.625a10.317 10.317 0 0 1-8.074 3.947z" transform="translate(749.974 -322.063)" style="fill:#0015aa"/>
            </g>
            <g data-name="그룹 13665">
                <path data-name="패스 8834" d="M-79.6 681.693a10.156 10.156 0 0 1-4.882-1.251c-3.021-1.648-6.087-5.049-3.608-11.936a117.651 117.651 0 0 1 7.107-14.644 39.959 39.959 0 0 1-3.574-.344c-3.37-.475-9.048-2.329-9.048-9.38 0-4.9 3.657-8.448 9.316-9.029 2.479-.256 5.951-.41 9.285-.41a77.212 77.212 0 0 1 8.512.417 10.587 10.587 0 0 1 7.7 4.479c1.333 1.958 2.635 5.374 1.266 10.526-1.784 6.718-8.425 20.538-14 27.625a10.317 10.317 0 0 1-8.074 3.947z" transform="translate(749.974 -321.958)" style="fill:#0015aa"/>
            </g>
            <g data-name="그룹 13666">
                <path data-name="패스 8835" d="M-79.6 681.493a10.154 10.154 0 0 1-4.882-1.251c-3.021-1.648-6.087-5.049-3.608-11.936a117.657 117.657 0 0 1 7.107-14.644 39.593 39.593 0 0 1-3.574-.344c-3.37-.475-9.048-2.329-9.048-9.38 0-4.9 3.657-8.449 9.316-9.029 2.479-.256 5.951-.41 9.285-.41a77.212 77.212 0 0 1 8.512.417 10.587 10.587 0 0 1 7.7 4.479c1.333 1.958 2.635 5.374 1.266 10.526-1.784 6.718-8.425 20.538-14 27.625a10.317 10.317 0 0 1-8.074 3.947z" transform="translate(749.974 -321.852)" style="fill:#0015aa"/>
            </g>
            <g data-name="그룹 13667">
                <path data-name="패스 8836" d="M-79.6 681.293a10.155 10.155 0 0 1-4.882-1.251c-3.021-1.648-6.087-5.049-3.608-11.936a117.66 117.66 0 0 1 7.107-14.644 39.959 39.959 0 0 1-3.574-.344c-3.37-.475-9.048-2.329-9.048-9.38 0-4.9 3.657-8.448 9.316-9.029 2.479-.256 5.951-.41 9.285-.41a77.212 77.212 0 0 1 8.512.417 10.587 10.587 0 0 1 7.7 4.479c1.333 1.958 2.635 5.374 1.266 10.526-1.784 6.718-8.425 20.538-14 27.625a10.317 10.317 0 0 1-8.074 3.947z" transform="translate(749.974 -321.747)" style="fill:#0015aa"/>
            </g>
            <g data-name="그룹 13668">
                <path data-name="패스 8837" d="M-79.6 681.093a10.154 10.154 0 0 1-4.882-1.251c-3.021-1.648-6.087-5.049-3.608-11.936a117.652 117.652 0 0 1 7.107-14.644 39.593 39.593 0 0 1-3.574-.344c-3.37-.475-9.048-2.329-9.048-9.38 0-4.9 3.657-8.449 9.316-9.029 2.479-.256 5.951-.41 9.285-.41a77.2 77.2 0 0 1 8.512.417 10.587 10.587 0 0 1 7.7 4.479c1.333 1.958 2.635 5.374 1.266 10.526-1.784 6.718-8.425 20.539-14 27.625a10.317 10.317 0 0 1-8.074 3.947z" transform="translate(749.974 -321.641)" style="fill:#0015aa"/>
            </g>
            <g data-name="그룹 13669">
                <path data-name="패스 8838" d="M-79.6 680.893a10.154 10.154 0 0 1-4.882-1.251c-3.021-1.648-6.087-5.049-3.608-11.936a117.652 117.652 0 0 1 7.107-14.644 39.959 39.959 0 0 1-3.574-.344c-3.37-.475-9.048-2.329-9.048-9.38 0-4.9 3.657-8.448 9.316-9.029 2.479-.256 5.951-.41 9.285-.41a77.212 77.212 0 0 1 8.512.417 10.587 10.587 0 0 1 7.7 4.479c1.333 1.958 2.635 5.374 1.266 10.526-1.784 6.718-8.425 20.539-14 27.625a10.317 10.317 0 0 1-8.074 3.947z" transform="translate(749.974 -321.536)" style="fill:#0015aa"/>
            </g>
        </g>
        <g data-name="그룹 13671" style="mix-blend-mode:screen;isolation:isolate">
            <path data-name="패스 8839" d="M-79.6 680.893a10.154 10.154 0 0 1-4.882-1.251c-3.021-1.648-6.087-5.049-3.608-11.936a117.652 117.652 0 0 1 7.107-14.644 39.959 39.959 0 0 1-3.574-.344c-3.37-.475-9.048-2.329-9.048-9.38 0-4.9 3.657-8.448 9.316-9.029 2.479-.256 5.951-.41 9.285-.41a77.212 77.212 0 0 1 8.512.417 10.587 10.587 0 0 1 7.7 4.479c1.333 1.958 2.635 5.374 1.266 10.526-1.784 6.718-8.425 20.539-14 27.625a10.317 10.317 0 0 1-8.074 3.947z" transform="translate(749.974 -321.536)" style="fill:#e4f9ff"/>
        </g>
        <g data-name="그룹 13672">
            <path data-name="패스 8840" d="M-79.077 680.948a9.688 9.688 0 0 1-4.657-1.194c-2.857-1.558-5.754-4.788-3.389-11.36a122.054 122.054 0 0 1 7.443-15.243 40.169 40.169 0 0 1-4.287-.373c-7.141-1.007-8.643-5.4-8.643-8.913 0-3.7 2.336-7.886 8.892-8.559 2.464-.255 5.918-.407 9.237-.407a76.783 76.783 0 0 1 8.457.414 10.123 10.123 0 0 1 7.367 4.275c1.278 1.877 2.523 5.16 1.2 10.139-1.773 6.675-8.373 20.41-13.912 27.455a9.842 9.842 0 0 1-7.708 3.766z" transform="translate(749.446 -322.064)" style="fill:#008aff"/>
        </g>
        <text data-name="7" transform="translate(660.966 350.83)" style="font-size:45px;font-family:SDOdongtongBasic,Sandoll Odongtong;fill:#50c2ff"><tspan x="0" y="0">7</tspan></text>
        <text data-name="7" transform="translate(660.493 349.885)" style="font-size:45px;font-family:SDOdongtongBasic,Sandoll Odongtong;fill:#fff"><tspan x="0" y="0">7</tspan></text>
    </g>
</svg>
