<svg xmlns="http://www.w3.org/2000/svg" width="43" height="57" viewBox="0 0 43 57">
    <defs>
        <clipPath id="747oymm59a">
            <path data-name="사각형 6161" transform="translate(822 309)" style="stroke:#707070;fill:#fff" d="M0 0h43v57H0z"/>
        </clipPath>
    </defs>
    <g data-name="그룹 13809" transform="translate(-822 -309)" style="clip-path:url(#747oymm59a)">
        <g data-name="그룹 13774">
            <g data-name="그룹 13773">
                <g data-name="그룹 13742">
                    <path data-name="패스 8905" d="M277.422 686.7a11.423 11.423 0 0 1-9.088-4.351l-.05-.063a10.709 10.709 0 0 1-2.315-8.144 10.343 10.343 0 0 1 1.435-3.928 18.25 18.25 0 0 1-9.138-16.084c0-11.067 8.758-19.1 20.824-19.1 13.522 0 22 8.456 22.129 22.066.124 12.781-8.813 23.406-17.177 27.877a14.052 14.052 0 0 1-6.62 1.727z" transform="translate(563.734 -322.194)" style="fill:#fff"/>
                </g>
                <g data-name="그룹 13743">
                    <path data-name="패스 8906" d="M277.422 686.5a11.423 11.423 0 0 1-9.088-4.351l-.05-.063a10.709 10.709 0 0 1-2.315-8.144 10.342 10.342 0 0 1 1.435-3.928 18.25 18.25 0 0 1-9.138-16.084c0-11.067 8.758-19.1 20.824-19.1 13.522 0 22 8.456 22.129 22.066.124 12.781-8.813 23.406-17.177 27.877a14.052 14.052 0 0 1-6.62 1.727z" transform="translate(563.734 -322.088)" style="fill:#fff"/>
                </g>
                <g data-name="그룹 13744">
                    <path data-name="패스 8907" d="M277.422 686.3a11.423 11.423 0 0 1-9.088-4.351l-.05-.063a10.709 10.709 0 0 1-2.315-8.144 10.343 10.343 0 0 1 1.435-3.928 18.25 18.25 0 0 1-9.138-16.084c0-11.067 8.758-19.1 20.824-19.1 13.522 0 22 8.456 22.129 22.066.124 12.781-8.813 23.406-17.177 27.877a14.051 14.051 0 0 1-6.62 1.727z" transform="translate(563.734 -321.983)" style="fill:#fff"/>
                </g>
                <g data-name="그룹 13745">
                    <path data-name="패스 8908" d="M277.422 686.1a11.423 11.423 0 0 1-9.088-4.351l-.05-.063a10.708 10.708 0 0 1-2.315-8.144 10.342 10.342 0 0 1 1.435-3.928 18.25 18.25 0 0 1-9.138-16.084c0-11.067 8.758-19.1 20.824-19.1 13.522 0 22 8.456 22.129 22.066.124 12.781-8.813 23.406-17.177 27.877a14.051 14.051 0 0 1-6.62 1.727z" transform="translate(563.734 -321.877)" style="fill:#fff"/>
                </g>
                <g data-name="그룹 13746">
                    <path data-name="패스 8909" d="M277.422 685.9a11.423 11.423 0 0 1-9.088-4.351l-.05-.063a10.709 10.709 0 0 1-2.315-8.144 10.343 10.343 0 0 1 1.435-3.928 18.25 18.25 0 0 1-9.138-16.084c0-11.067 8.758-19.1 20.824-19.1 13.522 0 22 8.456 22.129 22.066.124 12.781-8.813 23.406-17.177 27.877a14.051 14.051 0 0 1-6.62 1.727z" transform="translate(563.734 -321.772)" style="fill:#fff"/>
                </g>
                <g data-name="그룹 13747">
                    <path data-name="패스 8910" d="M277.422 685.7a11.423 11.423 0 0 1-9.088-4.351l-.05-.063a10.709 10.709 0 0 1-2.315-8.144 10.342 10.342 0 0 1 1.435-3.928 18.25 18.25 0 0 1-9.138-16.084c0-11.067 8.758-19.1 20.824-19.1 13.522 0 22 8.456 22.129 22.066.124 12.781-8.813 23.406-17.177 27.877a14.051 14.051 0 0 1-6.62 1.727z" transform="translate(563.734 -321.666)" style="fill:#fff"/>
                </g>
                <g data-name="그룹 13748">
                    <path data-name="패스 8911" d="M277.422 685.5a11.423 11.423 0 0 1-9.088-4.351l-.05-.063a10.709 10.709 0 0 1-2.315-8.144 10.341 10.341 0 0 1 1.435-3.928 18.25 18.25 0 0 1-9.138-16.084c0-11.067 8.758-19.1 20.824-19.1 13.522 0 22 8.456 22.129 22.066.124 12.781-8.813 23.406-17.177 27.877a14.052 14.052 0 0 1-6.62 1.727z" transform="translate(563.734 -321.561)" style="fill:#fff"/>
                </g>
                <g data-name="그룹 13749">
                    <path data-name="패스 8912" d="M277.422 685.3a11.423 11.423 0 0 1-9.088-4.351l-.05-.063a10.709 10.709 0 0 1-2.315-8.144 10.342 10.342 0 0 1 1.435-3.928 18.25 18.25 0 0 1-9.138-16.084c0-11.067 8.758-19.1 20.824-19.1 13.522 0 22 8.456 22.129 22.066.124 12.781-8.813 23.406-17.177 27.877a14.051 14.051 0 0 1-6.62 1.727z" transform="translate(563.734 -321.455)" style="fill:#fff"/>
                </g>
                <g data-name="그룹 13750">
                    <path data-name="패스 8913" d="M277.422 685.1a11.423 11.423 0 0 1-9.088-4.351l-.05-.063a10.709 10.709 0 0 1-2.315-8.144 10.342 10.342 0 0 1 1.435-3.928 18.25 18.25 0 0 1-9.138-16.084c0-11.067 8.758-19.1 20.824-19.1 13.522 0 22 8.456 22.129 22.066.124 12.781-8.813 23.406-17.177 27.877a14.052 14.052 0 0 1-6.62 1.727z" transform="translate(563.734 -321.35)" style="fill:#fff"/>
                </g>
                <g data-name="그룹 13751">
                    <path data-name="패스 8914" d="M277.422 684.9a11.423 11.423 0 0 1-9.088-4.351l-.05-.063a10.709 10.709 0 0 1-2.315-8.144 10.343 10.343 0 0 1 1.435-3.928 18.25 18.25 0 0 1-9.138-16.084c0-11.067 8.758-19.1 20.824-19.1 13.522 0 22 8.456 22.129 22.066.124 12.781-8.813 23.406-17.177 27.877a14.052 14.052 0 0 1-6.62 1.727z" transform="translate(563.734 -321.244)" style="fill:#fff"/>
                </g>
                <g data-name="그룹 13752">
                    <path data-name="패스 8915" d="M277.422 684.7a11.423 11.423 0 0 1-9.088-4.351l-.05-.063a10.709 10.709 0 0 1-2.315-8.144 10.342 10.342 0 0 1 1.435-3.928 18.25 18.25 0 0 1-9.138-16.084c0-11.067 8.758-19.1 20.824-19.1 13.522 0 22 8.456 22.129 22.066.124 12.781-8.813 23.406-17.177 27.877a14.051 14.051 0 0 1-6.62 1.727z" transform="translate(563.734 -321.139)" style="fill:#fff"/>
                </g>
                <g data-name="그룹 13753">
                    <path data-name="패스 8916" d="M277.422 684.5a11.423 11.423 0 0 1-9.088-4.351l-.05-.063a10.709 10.709 0 0 1-2.315-8.144 10.342 10.342 0 0 1 1.435-3.928 18.25 18.25 0 0 1-9.138-16.084c0-11.067 8.758-19.1 20.824-19.1 13.522 0 22 8.456 22.129 22.066.124 12.781-8.813 23.406-17.177 27.877a14.053 14.053 0 0 1-6.62 1.727z" transform="translate(563.734 -321.033)" style="fill:#fff"/>
                </g>
                <g data-name="그룹 13754">
                    <path data-name="패스 8917" d="M277.422 684.3a11.423 11.423 0 0 1-9.088-4.351l-.05-.063a10.709 10.709 0 0 1-2.315-8.144 10.342 10.342 0 0 1 1.435-3.928 18.25 18.25 0 0 1-9.138-16.084c0-11.067 8.758-19.1 20.824-19.1 13.522 0 22 8.456 22.129 22.066.124 12.781-8.813 23.406-17.177 27.877a14.052 14.052 0 0 1-6.62 1.727z" transform="translate(563.734 -320.928)" style="fill:#fff"/>
                </g>
                <g data-name="그룹 13755">
                    <path data-name="패스 8918" d="M277.422 684.1a11.423 11.423 0 0 1-9.088-4.351l-.05-.063a10.709 10.709 0 0 1-2.315-8.144 10.343 10.343 0 0 1 1.435-3.928 18.25 18.25 0 0 1-9.138-16.084c0-11.067 8.758-19.1 20.824-19.1 13.522 0 22 8.456 22.129 22.066.124 12.781-8.813 23.406-17.177 27.877a14.052 14.052 0 0 1-6.62 1.727z" transform="translate(563.734 -320.822)" style="fill:#fff"/>
                </g>
                <g data-name="그룹 13756">
                    <path data-name="패스 8919" d="M277.422 683.9a11.423 11.423 0 0 1-9.088-4.351l-.05-.063a10.709 10.709 0 0 1-2.315-8.144 10.342 10.342 0 0 1 1.435-3.928 18.25 18.25 0 0 1-9.138-16.084c0-11.067 8.758-19.1 20.824-19.1 13.522 0 22 8.456 22.129 22.066.124 12.781-8.813 23.406-17.177 27.877a14.052 14.052 0 0 1-6.62 1.727z" transform="translate(563.734 -320.717)" style="fill:#fff"/>
                </g>
                <g data-name="그룹 13757">
                    <path data-name="패스 8920" d="M277.422 683.7a11.423 11.423 0 0 1-9.088-4.351l-.05-.063a10.709 10.709 0 0 1-2.315-8.144 10.342 10.342 0 0 1 1.435-3.928 18.25 18.25 0 0 1-9.138-16.084c0-11.067 8.758-19.1 20.824-19.1 13.522 0 22 8.456 22.129 22.066.124 12.781-8.813 23.406-17.177 27.877a14.052 14.052 0 0 1-6.62 1.727z" transform="translate(563.734 -320.611)" style="fill:#fff"/>
                </g>
                <g data-name="그룹 13758">
                    <path data-name="패스 8921" d="M277.422 683.5a11.423 11.423 0 0 1-9.088-4.351l-.05-.063a10.709 10.709 0 0 1-2.315-8.144 10.342 10.342 0 0 1 1.435-3.928 18.25 18.25 0 0 1-9.138-16.084c0-11.067 8.758-19.1 20.824-19.1 13.522 0 22 8.456 22.129 22.066.124 12.781-8.813 23.406-17.177 27.877a14.052 14.052 0 0 1-6.62 1.727z" transform="translate(563.734 -320.506)" style="fill:#fff"/>
                </g>
                <g data-name="그룹 13759">
                    <path data-name="패스 8922" d="M277.422 683.3a11.423 11.423 0 0 1-9.088-4.351l-.05-.063a10.709 10.709 0 0 1-2.315-8.144 10.342 10.342 0 0 1 1.435-3.928 18.25 18.25 0 0 1-9.138-16.084c0-11.067 8.758-19.1 20.824-19.1 13.522 0 22 8.456 22.129 22.066.124 12.781-8.813 23.406-17.177 27.877a14.052 14.052 0 0 1-6.62 1.727z" transform="translate(563.734 -320.4)" style="fill:#fff"/>
                </g>
                <g data-name="그룹 13760">
                    <path data-name="패스 8923" d="M277.422 683.1a11.423 11.423 0 0 1-9.088-4.351l-.05-.063a10.709 10.709 0 0 1-2.315-8.144 10.343 10.343 0 0 1 1.435-3.928 18.25 18.25 0 0 1-9.138-16.084c0-11.067 8.758-19.1 20.824-19.1 13.522 0 22 8.456 22.129 22.066.124 12.781-8.813 23.406-17.177 27.877a14.052 14.052 0 0 1-6.62 1.727z" transform="translate(563.734 -320.295)" style="fill:#fff"/>
                </g>
                <g data-name="그룹 13761">
                    <path data-name="패스 8924" d="M277.422 682.9a11.423 11.423 0 0 1-9.088-4.351l-.05-.063a10.708 10.708 0 0 1-2.315-8.144 10.343 10.343 0 0 1 1.435-3.928 18.25 18.25 0 0 1-9.138-16.084c0-11.067 8.758-19.1 20.824-19.1 13.522 0 22 8.456 22.129 22.066.124 12.781-8.813 23.406-17.177 27.877a14.051 14.051 0 0 1-6.62 1.727z" transform="translate(563.734 -320.189)" style="fill:#fff"/>
                </g>
                <g data-name="그룹 13762">
                    <path data-name="패스 8925" d="M277.422 682.7a11.423 11.423 0 0 1-9.088-4.351l-.05-.063a10.709 10.709 0 0 1-2.315-8.144 10.342 10.342 0 0 1 1.435-3.928 18.25 18.25 0 0 1-9.138-16.084c0-11.067 8.758-19.1 20.824-19.1 13.522 0 22 8.456 22.129 22.066.124 12.781-8.813 23.406-17.177 27.877a14.052 14.052 0 0 1-6.62 1.727z" transform="translate(563.734 -320.084)" style="fill:#fff"/>
                </g>
                <g data-name="그룹 13763">
                    <path data-name="패스 8926" d="M277.422 682.5a11.423 11.423 0 0 1-9.088-4.351l-.05-.063a10.708 10.708 0 0 1-2.315-8.144 10.342 10.342 0 0 1 1.435-3.928 18.25 18.25 0 0 1-9.138-16.084c0-11.067 8.758-19.1 20.824-19.1 13.522 0 22 8.456 22.129 22.066.124 12.781-8.813 23.406-17.177 27.877a14.052 14.052 0 0 1-6.62 1.727z" transform="translate(563.734 -319.978)" style="fill:#fff"/>
                </g>
                <g data-name="그룹 13764">
                    <path data-name="패스 8927" d="M277.422 682.3a11.423 11.423 0 0 1-9.088-4.351l-.05-.063a10.708 10.708 0 0 1-2.315-8.144 10.341 10.341 0 0 1 1.435-3.928 18.25 18.25 0 0 1-9.138-16.084c0-11.067 8.758-19.1 20.824-19.1 13.522 0 22 8.456 22.129 22.066.124 12.781-8.813 23.406-17.177 27.877a14.051 14.051 0 0 1-6.62 1.727z" transform="translate(563.734 -319.873)" style="fill:#fff"/>
                </g>
                <g data-name="그룹 13765">
                    <path data-name="패스 8928" d="M277.422 682.1a11.423 11.423 0 0 1-9.088-4.351l-.05-.063a10.709 10.709 0 0 1-2.315-8.144 10.341 10.341 0 0 1 1.435-3.928 18.25 18.25 0 0 1-9.138-16.084c0-11.067 8.758-19.1 20.824-19.1 13.522 0 22 8.456 22.129 22.066.124 12.781-8.813 23.406-17.177 27.877a14.053 14.053 0 0 1-6.62 1.727z" transform="translate(563.734 -319.767)" style="fill:#fff"/>
                </g>
                <g data-name="그룹 13766">
                    <path data-name="패스 8929" d="M277.422 681.9a11.423 11.423 0 0 1-9.088-4.351l-.05-.063a10.709 10.709 0 0 1-2.315-8.144 10.343 10.343 0 0 1 1.435-3.928 18.25 18.25 0 0 1-9.138-16.084c0-11.067 8.758-19.1 20.824-19.1 13.522 0 22 8.456 22.129 22.066.124 12.781-8.813 23.406-17.177 27.877a14.051 14.051 0 0 1-6.62 1.727z" transform="translate(563.734 -319.662)" style="fill:#fff"/>
                </g>
                <g data-name="그룹 13767">
                    <path data-name="패스 8930" d="M277.422 681.7a11.423 11.423 0 0 1-9.088-4.351l-.05-.063a10.709 10.709 0 0 1-2.315-8.144 10.343 10.343 0 0 1 1.435-3.928 18.25 18.25 0 0 1-9.138-16.084c0-11.067 8.758-19.1 20.824-19.1 13.522 0 22 8.456 22.129 22.066.124 12.781-8.813 23.406-17.177 27.877a14.051 14.051 0 0 1-6.62 1.727z" transform="translate(563.734 -319.556)" style="fill:#fff"/>
                </g>
                <g data-name="그룹 13768">
                    <path data-name="패스 8931" d="M277.422 681.5a11.423 11.423 0 0 1-9.088-4.351l-.05-.063a10.709 10.709 0 0 1-2.315-8.144 10.342 10.342 0 0 1 1.435-3.928 18.25 18.25 0 0 1-9.138-16.084c0-11.067 8.758-19.1 20.824-19.1 13.522 0 22 8.456 22.129 22.066.124 12.781-8.813 23.406-17.177 27.877a14.051 14.051 0 0 1-6.62 1.727z" transform="translate(563.734 -319.451)" style="fill:#fff"/>
                </g>
                <g data-name="그룹 13769">
                    <path data-name="패스 8932" d="M277.422 681.3a11.423 11.423 0 0 1-9.088-4.351l-.05-.063a10.709 10.709 0 0 1-2.315-8.144 10.342 10.342 0 0 1 1.435-3.928 18.25 18.25 0 0 1-9.138-16.084c0-11.067 8.758-19.1 20.824-19.1 13.522 0 22 8.456 22.129 22.066.124 12.781-8.813 23.406-17.177 27.877a14.052 14.052 0 0 1-6.62 1.727z" transform="translate(563.734 -319.345)" style="fill:#fff"/>
                </g>
                <g data-name="그룹 13770">
                    <path data-name="패스 8933" d="M277.422 681.1a11.423 11.423 0 0 1-9.088-4.351l-.05-.063a10.709 10.709 0 0 1-2.315-8.144 10.342 10.342 0 0 1 1.435-3.928 18.25 18.25 0 0 1-9.138-16.084c0-11.067 8.758-19.1 20.824-19.1 13.522 0 22 8.456 22.129 22.066.124 12.781-8.813 23.406-17.177 27.877a14.051 14.051 0 0 1-6.62 1.727z" transform="translate(563.734 -319.24)" style="fill:#fff"/>
                </g>
                <g data-name="그룹 13771">
                    <path data-name="패스 8934" d="M277.422 680.9a11.423 11.423 0 0 1-9.088-4.351l-.05-.063a10.709 10.709 0 0 1-2.315-8.144 10.342 10.342 0 0 1 1.435-3.928 18.25 18.25 0 0 1-9.138-16.084c0-11.067 8.758-19.1 20.824-19.1 13.522 0 22 8.456 22.129 22.066.124 12.781-8.813 23.406-17.177 27.877a14.052 14.052 0 0 1-6.62 1.727z" transform="translate(563.734 -319.134)" style="fill:#fff"/>
                </g>
                <g data-name="그룹 13772">
                    <path data-name="패스 8935" d="M277.422 680.7a11.423 11.423 0 0 1-9.088-4.351l-.05-.063a10.709 10.709 0 0 1-2.315-8.144 10.342 10.342 0 0 1 1.435-3.928 18.25 18.25 0 0 1-9.138-16.084c0-11.067 8.758-19.1 20.824-19.1 13.522 0 22 8.456 22.129 22.066.124 12.781-8.813 23.406-17.177 27.877a14.052 14.052 0 0 1-6.62 1.727z" transform="translate(563.734 -319.029)" style="fill:#fff"/>
                </g>
            </g>
        </g>
        <g data-name="그룹 13806">
            <g data-name="그룹 13775">
                <path data-name="패스 8936" d="M280.06 686.974a9.1 9.1 0 0 1-7.243-3.464l-.032-.041a8.262 8.262 0 0 1-1.84-6.351 8.624 8.624 0 0 1 2.894-5.159 15.763 15.763 0 0 1-10.573-15.192c0-9.7 7.764-16.737 18.461-16.737 12.261 0 19.65 7.374 19.766 19.725.114 11.809-8.187 21.642-15.948 25.782a11.651 11.651 0 0 1-5.485 1.437z" transform="translate(561.097 -324.831)" style="fill:#0015aa"/>
            </g>
            <g data-name="그룹 13776">
                <path data-name="패스 8937" d="M280.06 686.773a9.1 9.1 0 0 1-7.243-3.464l-.032-.041a8.261 8.261 0 0 1-1.84-6.351 8.624 8.624 0 0 1 2.894-5.159 15.763 15.763 0 0 1-10.573-15.192c0-9.7 7.764-16.737 18.461-16.737 12.261 0 19.65 7.375 19.766 19.725.114 11.809-8.187 21.642-15.948 25.782a11.651 11.651 0 0 1-5.485 1.437z" transform="translate(561.097 -324.725)" style="fill:#0015aa"/>
            </g>
            <g data-name="그룹 13777">
                <path data-name="패스 8938" d="M280.06 686.574a9.1 9.1 0 0 1-7.243-3.464l-.032-.041a8.261 8.261 0 0 1-1.84-6.351 8.624 8.624 0 0 1 2.894-5.159 15.763 15.763 0 0 1-10.573-15.192c0-9.7 7.764-16.737 18.461-16.737 12.261 0 19.65 7.374 19.766 19.725.114 11.809-8.187 21.642-15.948 25.782a11.652 11.652 0 0 1-5.485 1.437z" transform="translate(561.097 -324.62)" style="fill:#0015aa"/>
            </g>
            <g data-name="그룹 13778">
                <path data-name="패스 8939" d="M280.06 686.373a9.1 9.1 0 0 1-7.243-3.464l-.032-.041a8.262 8.262 0 0 1-1.84-6.351 8.624 8.624 0 0 1 2.894-5.159 15.763 15.763 0 0 1-10.573-15.192c0-9.7 7.764-16.737 18.461-16.737 12.261 0 19.65 7.374 19.766 19.725.114 11.809-8.187 21.642-15.948 25.782a11.651 11.651 0 0 1-5.485 1.437z" transform="translate(561.097 -324.514)" style="fill:#0015aa"/>
            </g>
            <g data-name="그룹 13779">
                <path data-name="패스 8940" d="M280.06 686.174a9.1 9.1 0 0 1-7.243-3.464l-.032-.041a8.261 8.261 0 0 1-1.84-6.351 8.624 8.624 0 0 1 2.894-5.159 15.763 15.763 0 0 1-10.573-15.192c0-9.7 7.764-16.737 18.461-16.737 12.261 0 19.65 7.375 19.766 19.725.114 11.809-8.187 21.642-15.948 25.782a11.651 11.651 0 0 1-5.485 1.437z" transform="translate(561.097 -324.409)" style="fill:#0015aa"/>
            </g>
            <g data-name="그룹 13780">
                <path data-name="패스 8941" d="M280.06 685.974a9.1 9.1 0 0 1-7.243-3.464l-.032-.041a8.261 8.261 0 0 1-1.84-6.351 8.624 8.624 0 0 1 2.894-5.159 15.763 15.763 0 0 1-10.573-15.192c0-9.7 7.764-16.737 18.461-16.737 12.261 0 19.65 7.374 19.766 19.725.114 11.809-8.187 21.642-15.948 25.782a11.651 11.651 0 0 1-5.485 1.437z" transform="translate(561.097 -324.303)" style="fill:#0015aa"/>
            </g>
            <g data-name="그룹 13781">
                <path data-name="패스 8942" d="M280.06 685.773a9.1 9.1 0 0 1-7.243-3.464l-.032-.041a8.261 8.261 0 0 1-1.84-6.351 8.624 8.624 0 0 1 2.894-5.159 15.763 15.763 0 0 1-10.573-15.192c0-9.7 7.764-16.737 18.461-16.737 12.261 0 19.65 7.374 19.766 19.725.114 11.809-8.187 21.642-15.948 25.782a11.651 11.651 0 0 1-5.485 1.437z" transform="translate(561.097 -324.198)" style="fill:#0015aa"/>
            </g>
            <g data-name="그룹 13782">
                <path data-name="패스 8943" d="M280.06 685.574a9.1 9.1 0 0 1-7.243-3.464l-.032-.041a8.261 8.261 0 0 1-1.84-6.351 8.624 8.624 0 0 1 2.894-5.159 15.763 15.763 0 0 1-10.573-15.192c0-9.7 7.764-16.737 18.461-16.737 12.261 0 19.65 7.374 19.766 19.725.114 11.809-8.187 21.642-15.948 25.782a11.651 11.651 0 0 1-5.485 1.437z" transform="translate(561.097 -324.092)" style="fill:#0015aa"/>
            </g>
            <g data-name="그룹 13783">
                <path data-name="패스 8944" d="M280.06 685.374a9.1 9.1 0 0 1-7.243-3.464l-.032-.041a8.261 8.261 0 0 1-1.84-6.351 8.624 8.624 0 0 1 2.894-5.159 15.763 15.763 0 0 1-10.573-15.192c0-9.7 7.764-16.737 18.461-16.737 12.261 0 19.65 7.374 19.766 19.725.114 11.809-8.187 21.642-15.948 25.782a11.651 11.651 0 0 1-5.485 1.437z" transform="translate(561.097 -323.987)" style="fill:#0015aa"/>
            </g>
            <g data-name="그룹 13784">
                <path data-name="패스 8945" d="M280.06 685.174a9.1 9.1 0 0 1-7.243-3.464l-.032-.041a8.261 8.261 0 0 1-1.84-6.351 8.624 8.624 0 0 1 2.894-5.159 15.763 15.763 0 0 1-10.573-15.192c0-9.7 7.764-16.737 18.461-16.737 12.261 0 19.65 7.374 19.766 19.725.114 11.809-8.187 21.642-15.948 25.782a11.651 11.651 0 0 1-5.485 1.437z" transform="translate(561.097 -323.881)" style="fill:#0015aa"/>
            </g>
            <g data-name="그룹 13785">
                <path data-name="패스 8946" d="M280.06 684.974a9.1 9.1 0 0 1-7.243-3.464l-.032-.041a8.262 8.262 0 0 1-1.84-6.351 8.624 8.624 0 0 1 2.894-5.159 15.763 15.763 0 0 1-10.573-15.192c0-9.7 7.764-16.737 18.461-16.737 12.261 0 19.65 7.375 19.766 19.725.114 11.809-8.187 21.642-15.948 25.782a11.651 11.651 0 0 1-5.485 1.437z" transform="translate(561.097 -323.776)" style="fill:#0015aa"/>
            </g>
            <g data-name="그룹 13786">
                <path data-name="패스 8947" d="M280.06 684.774a9.1 9.1 0 0 1-7.243-3.464l-.032-.041a8.262 8.262 0 0 1-1.84-6.352 8.624 8.624 0 0 1 2.894-5.159 15.763 15.763 0 0 1-10.573-15.192c0-9.7 7.764-16.737 18.461-16.737 12.261 0 19.65 7.375 19.766 19.725.114 11.809-8.187 21.642-15.948 25.782a11.652 11.652 0 0 1-5.485 1.438z" transform="translate(561.097 -323.67)" style="fill:#0015aa"/>
            </g>
            <g data-name="그룹 13787">
                <path data-name="패스 8948" d="M280.06 684.574a9.1 9.1 0 0 1-7.243-3.464l-.032-.041a8.262 8.262 0 0 1-1.84-6.351 8.624 8.624 0 0 1 2.894-5.159 15.763 15.763 0 0 1-10.573-15.192c0-9.7 7.764-16.737 18.461-16.737 12.261 0 19.65 7.374 19.766 19.725.114 11.809-8.187 21.642-15.948 25.782a11.652 11.652 0 0 1-5.485 1.437z" transform="translate(561.097 -323.565)" style="fill:#0015aa"/>
            </g>
            <g data-name="그룹 13788">
                <path data-name="패스 8949" d="M280.06 684.374a9.1 9.1 0 0 1-7.243-3.464l-.032-.041a8.262 8.262 0 0 1-1.84-6.352 8.624 8.624 0 0 1 2.894-5.159 15.763 15.763 0 0 1-10.573-15.192c0-9.7 7.764-16.737 18.461-16.737 12.261 0 19.65 7.375 19.766 19.725.114 11.809-8.187 21.642-15.948 25.782a11.651 11.651 0 0 1-5.485 1.438z" transform="translate(561.097 -323.459)" style="fill:#0015aa"/>
            </g>
            <g data-name="그룹 13789">
                <path data-name="패스 8950" d="M280.06 684.174a9.1 9.1 0 0 1-7.243-3.464l-.032-.041a8.262 8.262 0 0 1-1.84-6.352 8.624 8.624 0 0 1 2.894-5.159 15.763 15.763 0 0 1-10.573-15.192c0-9.7 7.764-16.737 18.461-16.737 12.261 0 19.65 7.374 19.766 19.725.114 11.809-8.187 21.642-15.948 25.782a11.651 11.651 0 0 1-5.485 1.438z" transform="translate(561.097 -323.354)" style="fill:#0015aa"/>
            </g>
            <g data-name="그룹 13790">
                <path data-name="패스 8951" d="M280.06 683.974a9.1 9.1 0 0 1-7.243-3.464l-.032-.041a8.262 8.262 0 0 1-1.84-6.352 8.624 8.624 0 0 1 2.894-5.159 15.763 15.763 0 0 1-10.573-15.192c0-9.7 7.764-16.737 18.461-16.737 12.261 0 19.65 7.375 19.766 19.725.114 11.809-8.187 21.642-15.948 25.782a11.651 11.651 0 0 1-5.485 1.438z" transform="translate(561.097 -323.248)" style="fill:#0015aa"/>
            </g>
            <g data-name="그룹 13791">
                <path data-name="패스 8952" d="M280.06 683.774a9.1 9.1 0 0 1-7.243-3.464l-.032-.041a8.261 8.261 0 0 1-1.84-6.351 8.625 8.625 0 0 1 2.894-5.159 15.763 15.763 0 0 1-10.573-15.192c0-9.7 7.764-16.737 18.461-16.737 12.261 0 19.65 7.375 19.766 19.725.114 11.809-8.187 21.642-15.948 25.782a11.651 11.651 0 0 1-5.485 1.437z" transform="translate(561.097 -323.143)" style="fill:#0015aa"/>
            </g>
            <g data-name="그룹 13792">
                <path data-name="패스 8953" d="M280.06 683.574a9.1 9.1 0 0 1-7.243-3.464l-.032-.041a8.261 8.261 0 0 1-1.84-6.351 8.624 8.624 0 0 1 2.894-5.159 15.763 15.763 0 0 1-10.573-15.192c0-9.7 7.764-16.737 18.461-16.737 12.261 0 19.65 7.374 19.766 19.725.114 11.809-8.187 21.642-15.948 25.782a11.651 11.651 0 0 1-5.485 1.437z" transform="translate(561.097 -323.037)" style="fill:#0015aa"/>
            </g>
            <g data-name="그룹 13793">
                <path data-name="패스 8954" d="M280.06 683.374a9.1 9.1 0 0 1-7.243-3.464l-.032-.041a8.261 8.261 0 0 1-1.84-6.351 8.624 8.624 0 0 1 2.894-5.159 15.763 15.763 0 0 1-10.573-15.192c0-9.7 7.764-16.737 18.461-16.737 12.261 0 19.65 7.374 19.766 19.725.114 11.809-8.187 21.642-15.948 25.782a11.651 11.651 0 0 1-5.485 1.437z" transform="translate(561.097 -322.932)" style="fill:#0015aa"/>
            </g>
            <g data-name="그룹 13794">
                <path data-name="패스 8955" d="M280.06 683.173a9.1 9.1 0 0 1-7.243-3.464l-.032-.041a8.261 8.261 0 0 1-1.84-6.351 8.624 8.624 0 0 1 2.894-5.159 15.763 15.763 0 0 1-10.573-15.192c0-9.7 7.764-16.737 18.461-16.737 12.261 0 19.65 7.374 19.766 19.725.114 11.809-8.187 21.642-15.948 25.782a11.651 11.651 0 0 1-5.485 1.437z" transform="translate(561.097 -322.826)" style="fill:#0015aa"/>
            </g>
            <g data-name="그룹 13795">
                <path data-name="패스 8956" d="M280.06 682.974a9.1 9.1 0 0 1-7.243-3.464l-.032-.041a8.262 8.262 0 0 1-1.84-6.351 8.624 8.624 0 0 1 2.894-5.159 15.763 15.763 0 0 1-10.573-15.192c0-9.7 7.764-16.737 18.461-16.737 12.261 0 19.65 7.374 19.766 19.725.114 11.809-8.187 21.642-15.948 25.782a11.651 11.651 0 0 1-5.485 1.437z" transform="translate(561.097 -322.721)" style="fill:#0015aa"/>
            </g>
            <g data-name="그룹 13796">
                <path data-name="패스 8957" d="M280.06 682.773a9.1 9.1 0 0 1-7.243-3.464l-.032-.041a8.262 8.262 0 0 1-1.84-6.351 8.624 8.624 0 0 1 2.894-5.159 15.763 15.763 0 0 1-10.573-15.192c0-9.7 7.764-16.737 18.461-16.737 12.261 0 19.65 7.374 19.766 19.725.114 11.809-8.187 21.642-15.948 25.782a11.652 11.652 0 0 1-5.485 1.437z" transform="translate(561.097 -322.615)" style="fill:#0015aa"/>
            </g>
            <g data-name="그룹 13797">
                <path data-name="패스 8958" d="M280.06 682.573a9.1 9.1 0 0 1-7.243-3.464l-.032-.041a8.261 8.261 0 0 1-1.84-6.351 8.624 8.624 0 0 1 2.894-5.159 15.763 15.763 0 0 1-10.573-15.192c0-9.7 7.764-16.737 18.461-16.737 12.261 0 19.65 7.374 19.766 19.725.114 11.809-8.187 21.642-15.948 25.782a11.651 11.651 0 0 1-5.485 1.437z" transform="translate(561.097 -322.51)" style="fill:#0015aa"/>
            </g>
            <g data-name="그룹 13798">
                <path data-name="패스 8959" d="M280.06 682.374a9.1 9.1 0 0 1-7.243-3.464l-.032-.041a8.262 8.262 0 0 1-1.84-6.351 8.624 8.624 0 0 1 2.894-5.159 15.763 15.763 0 0 1-10.573-15.192c0-9.7 7.764-16.737 18.461-16.737 12.261 0 19.65 7.374 19.766 19.725.114 11.809-8.187 21.642-15.948 25.782a11.651 11.651 0 0 1-5.485 1.437z" transform="translate(561.097 -322.404)" style="fill:#0015aa"/>
            </g>
            <g data-name="그룹 13799">
                <path data-name="패스 8960" d="M280.06 682.174a9.1 9.1 0 0 1-7.243-3.464l-.032-.041a8.262 8.262 0 0 1-1.84-6.351 8.624 8.624 0 0 1 2.894-5.159 15.763 15.763 0 0 1-10.573-15.192c0-9.7 7.764-16.737 18.461-16.737 12.261 0 19.65 7.374 19.766 19.725.114 11.809-8.187 21.642-15.948 25.782a11.652 11.652 0 0 1-5.485 1.437z" transform="translate(561.097 -322.299)" style="fill:#0015aa"/>
            </g>
            <g data-name="그룹 13800">
                <path data-name="패스 8961" d="M280.06 681.974a9.1 9.1 0 0 1-7.243-3.464l-.032-.041a8.261 8.261 0 0 1-1.84-6.351 8.624 8.624 0 0 1 2.894-5.159 15.763 15.763 0 0 1-10.573-15.192c0-9.7 7.764-16.737 18.461-16.737 12.261 0 19.65 7.375 19.766 19.725.114 11.809-8.187 21.642-15.948 25.782a11.651 11.651 0 0 1-5.485 1.437z" transform="translate(561.097 -322.193)" style="fill:#0015aa"/>
            </g>
            <g data-name="그룹 13801">
                <path data-name="패스 8962" d="M280.06 681.774a9.1 9.1 0 0 1-7.243-3.464l-.032-.041a8.261 8.261 0 0 1-1.84-6.351 8.624 8.624 0 0 1 2.894-5.159 15.764 15.764 0 0 1-10.573-15.192c0-9.7 7.764-16.737 18.461-16.737 12.261 0 19.65 7.374 19.766 19.725.114 11.809-8.187 21.642-15.948 25.782a11.652 11.652 0 0 1-5.485 1.437z" transform="translate(561.097 -322.088)" style="fill:#0015aa"/>
            </g>
            <g data-name="그룹 13802">
                <path data-name="패스 8963" d="M280.06 681.574a9.1 9.1 0 0 1-7.243-3.464l-.032-.041a8.261 8.261 0 0 1-1.84-6.351 8.624 8.624 0 0 1 2.894-5.159 15.763 15.763 0 0 1-10.573-15.192c0-9.7 7.764-16.737 18.461-16.737 12.261 0 19.65 7.375 19.766 19.725.114 11.809-8.187 21.642-15.948 25.782a11.651 11.651 0 0 1-5.485 1.437z" transform="translate(561.097 -321.982)" style="fill:#0015aa"/>
            </g>
            <g data-name="그룹 13803">
                <path data-name="패스 8964" d="M280.06 681.373a9.1 9.1 0 0 1-7.243-3.464l-.032-.041a8.262 8.262 0 0 1-1.84-6.351 8.624 8.624 0 0 1 2.894-5.159 15.764 15.764 0 0 1-10.573-15.192c0-9.7 7.764-16.737 18.461-16.737 12.261 0 19.65 7.375 19.766 19.725.114 11.809-8.187 21.642-15.948 25.782a11.651 11.651 0 0 1-5.485 1.437z" transform="translate(561.097 -321.877)" style="fill:#0015aa"/>
            </g>
            <g data-name="그룹 13804">
                <path data-name="패스 8965" d="M280.06 681.174a9.1 9.1 0 0 1-7.243-3.464l-.032-.041a8.261 8.261 0 0 1-1.84-6.351 8.624 8.624 0 0 1 2.894-5.159 15.763 15.763 0 0 1-10.573-15.192c0-9.7 7.764-16.737 18.461-16.737 12.261 0 19.65 7.374 19.766 19.725.114 11.809-8.187 21.642-15.948 25.782a11.651 11.651 0 0 1-5.485 1.437z" transform="translate(561.097 -321.771)" style="fill:#0015aa"/>
            </g>
            <g data-name="그룹 13805">
                <path data-name="패스 8966" d="M280.06 680.974a9.1 9.1 0 0 1-7.243-3.464l-.032-.041a8.261 8.261 0 0 1-1.84-6.351 8.624 8.624 0 0 1 2.894-5.159 15.763 15.763 0 0 1-10.573-15.192c0-9.7 7.764-16.737 18.461-16.737 12.261 0 19.65 7.374 19.766 19.725.114 11.809-8.187 21.642-15.948 25.782a11.651 11.651 0 0 1-5.485 1.437z" transform="translate(561.097 -321.666)" style="fill:#0015aa"/>
            </g>
        </g>
        <g data-name="그룹 13807" style="mix-blend-mode:screen;isolation:isolate">
            <path data-name="패스 8967" d="M280.06 680.974a9.1 9.1 0 0 1-7.243-3.464l-.032-.041a8.261 8.261 0 0 1-1.84-6.351 8.624 8.624 0 0 1 2.894-5.159 15.763 15.763 0 0 1-10.573-15.192c0-9.7 7.764-16.737 18.461-16.737 12.261 0 19.65 7.374 19.766 19.725.114 11.809-8.187 21.642-15.948 25.782a11.651 11.651 0 0 1-5.485 1.437z" transform="translate(561.097 -321.666)" style="fill:#e4f9ff"/>
        </g>
        <g data-name="그룹 13808">
            <path data-name="패스 8968" d="M280.587 681.028a8.639 8.639 0 0 1-6.875-3.287 7.831 7.831 0 0 1-1.773-6.029 8.435 8.435 0 0 1 3.393-5.427 15.257 15.257 0 0 1-11.067-14.991 15.63 15.63 0 0 1 4.9-11.509 18.63 18.63 0 0 1 13.086-4.756c11.968 0 19.18 7.2 19.294 19.258.112 11.612-8.059 21.286-15.7 25.36a11.171 11.171 0 0 1-5.258 1.381z" transform="translate(560.569 -322.194)" style="fill:#008aff"/>
        </g>
        <text data-name="9" transform="translate(828.327 350.737)" style="font-size:45px;font-family:SDOdongtongBasic,Sandoll Odongtong;fill:#50c2ff"><tspan x="0" y="0">9</tspan></text>
        <text data-name="9" transform="translate(827.855 349.792)" style="font-size:45px;font-family:SDOdongtongBasic,Sandoll Odongtong;fill:#fff"><tspan x="0" y="0">9</tspan></text>
    </g>
</svg>
